<?xml version="1.0" encoding="UTF-8"?><svg xmlns="http://www.w3.org/2000/svg" xmlns:xlink="http://www.w3.org/1999/xlink" viewBox="0 0 401.14 401.14"><defs><style>.e{fill:#686344;}.f,.g,.h,.i,.j,.k,.l{fill-rule:evenodd;}.f,.m{fill:#58595b;}.g{fill:#a07c43;}.h{fill:#d2ab67;}.i{fill:#a7a9ac;}.n{fill:#064759;}.o,.k{fill:#e7e8e9;}.j{fill:#231f20;}.l{fill:#f3e6ce;}.p{clip-path:url(#d);}.q{fill:#d1d3d4;}.r{fill:#0d738f;}</style><clipPath id="d"><circle class="n" cx="200.57" cy="200.57" r="180.62"/></clipPath></defs><g id="a"/><g id="b"><g id="c"><g><path class="r" d="M200.57,0c55.38,0,105.52,22.45,141.82,58.75,36.3,36.3,58.75,86.44,58.75,141.82s-22.45,105.52-58.75,141.82c-36.3,36.3-86.44,58.75-141.82,58.75s-105.52-22.46-141.82-58.75C22.46,306.09,0,255.95,0,200.57S22.46,95.05,58.75,58.75C95.05,22.45,145.2,0,200.57,0h0Zm139.08,61.49C304.06,25.89,254.88,3.87,200.57,3.87S97.09,25.89,61.49,61.49C25.9,97.09,3.87,146.26,3.87,200.57s22.02,103.48,57.62,139.08c35.6,35.6,84.77,57.62,139.08,57.62s103.49-22.02,139.08-57.62c35.6-35.6,57.62-84.77,57.62-139.08s-22.02-103.49-57.62-139.08Z"/><g><circle class="n" cx="200.57" cy="200.57" r="180.62"/><g class="p"><g><g><path class="l" d="M160.96,204.15c-43.51-6.9-86.98-13.8-130.41-20.69-43.43-6.88-86.9-13.8-130.31-20.71,.58,23.77,1.2,47.55,1.8,71.3,.6,23.76,1.23,47.53,1.85,71.25H160.96v-101.15Z"/><g><path class="j" d="M-9.84,213.7c4.25-12.63,8.5-12.63,12.75,0v21.75c-4.25-.26-8.5-.53-12.75-.8v-20.95Z"/><path class="j" d="M9.93,213.77c4.25-12.63,8.5-12.63,12.77,0v22.44h-7.85c-1.64-.1-3.29-.2-4.93-.32v-22.12Z"/><path class="j" d="M27.99,214.7c4.28-12.63,8.53-12.63,12.78,0v22.44h-11.19c-.55-.03-1.07-.06-1.59-.1v-22.34Z"/><path class="j" d="M46.09,216.72c4.25-12.63,8.5-12.63,12.77,0v22.25c-4.28-.26-8.52-.53-12.77-.8v-21.45Z"/><path class="j" d="M63.43,217.65c4.28-12.63,8.52-12.63,12.77,0v22.41c-4.28-.26-8.53-.53-12.77-.8v-21.61Z"/><path class="j" d="M80.4,218.39c4.27-12.63,8.52-12.63,12.78,0v22.44h-4.85c-2.66-.16-5.29-.33-7.93-.5v-21.94Z"/><path class="j" d="M97.37,219.86c4.27-12.63,8.52-12.63,12.77,0v22.34c-4.28-.26-8.53-.53-12.77-.8v-21.54Z"/><path class="j" d="M113.61,220.97c4.22-12.63,8.5-12.63,12.78,0v22.25c-4.28-.27-8.53-.54-12.78-.81v-21.44Z"/><path class="j" d="M131.34,226.83c3.26-9.75,6.55-9.75,9.86,0v17.32c-3.29-.2-6.57-.41-9.86-.63v-16.69Z"/></g><path class="j" d="M-9.84,273.74c4.25-12.63,8.5-12.63,12.75,0v22.44H-9.84v-22.44Z"/><path class="j" d="M9.93,273.74c4.25-12.63,8.5-12.63,12.77,0v22.44H9.93v-22.44Z"/><path class="j" d="M27.99,273.74c4.28-12.63,8.53-12.63,12.78,0v22.44h-12.78v-22.44Z"/><path class="j" d="M46.09,273.74c4.25-12.63,8.5-12.63,12.77,0v22.44h-12.77v-22.44Z"/><path class="j" d="M63.43,273.74c4.28-12.63,8.52-12.63,12.77,0v22.44h-12.77v-22.44Z"/><path class="j" d="M80.4,273.74c4.27-12.63,8.52-12.63,12.78,0v22.44h-12.78v-22.44Z"/><path class="j" d="M97.37,273.74c4.27-12.63,8.52-12.63,12.77-.01v22.45h-12.77v-22.44Z"/><path class="j" d="M113.61,273.73c4.25-12.61,8.53-12.61,12.78,0v22.45h-12.78v-22.45Z"/><path class="j" d="M131.34,278.86c3.29-9.75,6.57-9.75,9.86,0v17.32h-9.86v-17.32Z"/></g><g><path class="l" d="M243.51,204.15c43.51-6.9,86.98-13.8,130.41-20.69,43.43-6.88,86.9-13.8,130.31-20.71-.57,23.77-1.2,47.55-1.8,71.3-.6,23.76-1.23,47.53-1.85,71.25H243.51v-101.15Z"/><g><path class="j" d="M394.55,213.77c-4.25-12.63-8.5-12.63-12.78,0v22.44h7.85c1.64-.1,3.29-.2,4.93-.32v-22.12Z"/><path class="j" d="M376.48,214.7c-4.28-12.63-8.52-12.63-12.77,0v22.44h11.18c.55-.03,1.07-.06,1.59-.1v-22.34Z"/><path class="j" d="M358.38,216.72c-4.25-12.63-8.5-12.63-12.77,0v22.25c4.28-.26,8.53-.53,12.77-.8v-21.45Z"/><path class="j" d="M341.05,217.65c-4.27-12.63-8.52-12.63-12.77,0v22.41c4.27-.26,8.52-.53,12.77-.8v-21.61Z"/><path class="j" d="M324.08,218.39c-4.28-12.63-8.53-12.63-12.78,0v22.44h4.85c2.66-.16,5.29-.33,7.93-.5v-21.94Z"/><path class="j" d="M307.1,219.86c-4.28-12.63-8.53-12.63-12.77,0v22.34c4.27-.26,8.52-.53,12.77-.8v-21.54Z"/><path class="j" d="M290.86,220.97c-4.22-12.63-8.5-12.63-12.77,0v22.25c4.27-.27,8.52-.54,12.77-.81v-21.44Z"/><path class="j" d="M273.13,226.83c-3.26-9.75-6.54-9.75-9.85,0v17.32c3.29-.2,6.57-.41,9.85-.63v-16.69Z"/></g><path class="j" d="M394.55,273.74c-4.25-12.63-8.5-12.63-12.78,0v22.44h12.78v-22.44Z"/><path class="j" d="M376.48,273.74c-4.28-12.63-8.52-12.63-12.77,0v22.44h12.77v-22.44Z"/><path class="j" d="M358.38,273.74c-4.25-12.63-8.5-12.63-12.77,0v22.44h12.77v-22.44Z"/><path class="j" d="M341.05,273.74c-4.27-12.63-8.52-12.63-12.77,0v22.44h12.77v-22.44Z"/><path class="j" d="M324.08,273.74c-4.28-12.63-8.53-12.63-12.78,0v22.44h12.78v-22.44Z"/><path class="j" d="M307.1,273.74c-4.28-12.63-8.53-12.63-12.77-.01v22.45h12.77v-22.44Z"/><path class="j" d="M290.86,273.73c-4.25-12.61-8.52-12.61-12.77,0v22.45h12.77v-22.45Z"/><path class="j" d="M273.13,278.86c-3.29-9.75-6.57-9.75-9.85,0v17.32h9.85v-17.32Z"/></g></g></g></g><path class="i" d="M143.84,306.11l-90.37-.72c32.76,45.88,86.44,75.8,147.1,75.8s114.34-29.92,147.09-75.79h-86.82v6.2h-117.01v-5.5Z"/><g><rect class="o" x="241.75" y="186.06" width="17.95" height="33.92"/><path class="q" d="M242.4,173.73h17.14c2.31,0,4.18,1.87,4.18,4.18v3.99c0,2.31-1.87,4.18-4.18,4.18h-17.13c-2.31,0-4.19-1.88-4.19-4.19v-3.98c0-2.31,1.87-4.18,4.18-4.18Z"/><rect class="m" x="241.75" y="164.17" width="17.95" height="9.56"/><path class="h" d="M250.73,147.83h0c8.46,0,15.38,1.94,15.38,4.32v7.69c0,2.38-6.92,4.32-15.38,4.32h0c-8.46,0-15.38-1.94-15.38-4.32v-7.69c0-2.38,6.92-4.32,15.38-4.32Z"/><rect class="o" x="244.31" y="79.12" width="12.83" height="76.88"/><rect class="m" x="242.65" y="70.51" width="16.16" height="8.61"/><path class="h" d="M250.73,55.8h0c7.61,0,13.84,1.75,13.84,3.89v6.92c0,2.14-6.23,3.89-13.84,3.89h0c-7.62,0-13.84-1.75-13.84-3.89v-6.92c0-2.14,6.23-3.89,13.84-3.89Z"/><rect class="o" x="247.3" y="36.06" width="6.85" height="22.31"/><rect class="e" x="249.29" y="19.53" width="2.87" height="16.54"/></g><g><rect class="o" x="145.76" y="186.06" width="17.96" height="33.92"/><path class="q" d="M146.41,173.73h17.14c2.31,0,4.18,1.87,4.18,4.18v3.99c0,2.31-1.87,4.18-4.18,4.18h-17.13c-2.31,0-4.19-1.88-4.19-4.19v-3.98c0-2.31,1.87-4.18,4.18-4.18Z"/><rect class="m" x="145.76" y="164.17" width="17.96" height="9.56"/><path class="h" d="M154.74,147.83h0c8.46,0,15.38,1.94,15.38,4.32v7.69c0,2.38-6.92,4.32-15.38,4.32h0c-8.46,0-15.38-1.94-15.38-4.32v-7.69c0-2.38,6.92-4.32,15.38-4.32Z"/><rect class="o" x="148.32" y="79.12" width="12.83" height="76.88"/><rect class="m" x="146.66" y="70.51" width="16.16" height="8.61"/><path class="h" d="M154.74,55.8h0c7.61,0,13.84,1.75,13.84,3.89v6.92c0,2.14-6.23,3.89-13.84,3.89h0c-7.62,0-13.84-1.75-13.84-3.89v-6.92c0-2.14,6.23-3.89,13.84-3.89Z"/><rect class="o" x="151.31" y="36.06" width="6.85" height="22.31"/><rect class="e" x="153.3" y="19.53" width="2.87" height="16.54"/></g><path class="k" d="M143.84,305.75l-90.37-.36c32.76,22.94,86.44,37.9,147.1,37.9s114.34-14.96,147.09-37.89h-86.82v3.1h-117.01v-2.75Z"/><polygon class="j" points="143.84 216.8 209.33 206.42 209.33 324.62 143.84 324.62 143.84 216.8"/><polygon class="f" points="260.85 216.8 209.33 206.42 209.33 324.62 260.85 324.62 260.85 216.8"/><polygon class="g" points="143.84 313.62 209.33 312.56 209.33 324.62 143.84 324.62 143.84 313.62"/><polygon class="h" points="260.85 313.62 209.33 312.56 209.33 324.62 260.85 324.62 260.85 313.62"/><polygon class="g" points="143.84 246.2 209.33 238.28 209.33 246.8 143.84 253.98 143.84 246.2"/><path class="g" d="M147.91,256.87l2.19-.27v7.85l-2.19,.24v-7.82h0Zm6.37-.77l11.55-1.4v8.02l-11.55,1.26v-7.89h0Zm15.73-1.9l4.48-.54v8.12l-4.48,.49v-8.07h0Zm8.67-1.05l13.29-1.61v8.32l-13.29,1.46v-8.17h0Zm17.48-2.11l4.65-.56v8.42l-4.65,.51v-8.37h0Zm8.83-1.07l4.34-.52v8.52l-4.34,.48v-8.47Z"/><polygon class="h" points="260.85 246.2 209.33 238.28 209.33 246.8 260.85 253.98 260.85 246.2"/><path class="h" d="M257.65,256.87l-1.73-.27v7.85l1.73,.24v-7.82h0Zm-5.02-.77l-9.08-1.4v8.02l9.08,1.26v-7.89h0Zm-12.37-1.9l-3.53-.54v8.12l3.53,.49v-8.07h0Zm-6.82-1.05l-10.46-1.61v8.32l10.46,1.46v-8.17h0Zm-13.75-2.11l-3.66-.56v8.42l3.66,.51v-8.37h0Zm-6.95-1.07l-3.42-.52v8.52l3.42,.48v-8.47Z"/></g></g></g></svg>