<?xml version="1.0" encoding="UTF-8"?><svg xmlns="http://www.w3.org/2000/svg" xmlns:xlink="http://www.w3.org/1999/xlink" viewBox="0 0 401.14 401.14"><defs><style>.e,.f{fill:#ddcfba;}.e,.g,.h,.i,.j,.k,.l,.m,.n,.o{fill-rule:evenodd;}.p{clip-rule:evenodd;}.p,.o{fill:#02242e;}.q,.g{fill:#a89475;}.r{fill:#ad9b80;}.s{fill:#a89579;}.h{fill:#bf7d1b;}.i{fill:#00a651;}.t{clip-path:url(#d);}.j{fill:#8a6d42;}.k{fill:#5e4c31;}.l{fill:#e8b66a;}.u{fill:#0d738f;}.m{fill:#d9c5a7;}.n{fill:#9c8c75;}</style><clipPath id="d"><path class="p" d="M200.18,19.29c99.74,0,180.62,80.88,180.62,180.62s-80.88,180.62-180.62,180.62S19.56,299.65,19.56,199.92,100.44,19.29,200.18,19.29Z"/></clipPath></defs><g id="a"/><g id="b"><g id="c"><g><g><path class="o" d="M200.18,19.29c99.74,0,180.62,80.88,180.62,180.62s-80.88,180.62-180.62,180.62S19.56,299.65,19.56,199.92,100.44,19.29,200.18,19.29Z"/><g class="t"><g><g><rect class="f" x="134" y="201.27" width="31.03" height="68.93"/><path class="k" d="M141.65,218.98c5.44-5.11,11.15-5.1,17.12,0v20.54h-17.12v-20.54Z"/><path class="k" d="M141.65,248.08c5.44-5.1,11.15-5.1,17.12,0v20.54h-17.12v-20.54Z"/><polygon class="n" points="134 201.28 126.94 202.97 126.94 196.92 122.53 196.92 122.53 204.04 121.48 204.29 121.48 181.71 119.91 181.71 119.91 204.67 116.47 205.5 116.47 191.98 114.89 191.98 114.89 205.88 114.86 205.88 115.26 269.54 134 270.2 134 201.28"/><path class="k" d="M118.78,220.42c3.62-4.75,7.41-4.75,11.38,0v19.1h-11.38v-19.1Z"/><path class="k" d="M118.78,248.67c3.62-4.75,7.41-4.75,11.38,0v19.1h-11.38v-19.1Z"/><rect class="s" x="139.43" y="192.18" width="3.43" height="7.86"/><rect class="s" x="145.07" y="192.18" width="3.43" height="7.86"/><rect class="s" x="153.63" y="192.18" width="3.43" height="7.86"/><rect class="s" x="159.88" y="192.18" width="3.42" height="7.86"/><rect class="s" x="136.61" y="188.56" width="27.19" height="1.81"/><path class="e" d="M153.72,173.08c6.01,2.78,9.74,6.46,9.98,14.47h-22.06c.02-6.09,3.39-11.1,11.63-14.54v-4.38h.45v4.45Z"/><polygon class="e" points="44.52 268.99 23.96 268.99 25.98 234.73 43.61 234.73 44.52 268.99"/><rect class="r" x="22.76" y="230.86" width="22.96" height="3.87"/><polygon class="e" points="42.9 230.86 25.58 230.86 27.28 196.6 42.14 196.6 42.9 230.86"/><rect class="r" x="24.32" y="192.73" width="19.84" height="3.87"/><polygon class="e" points="41.49 192.73 26.99 192.73 28.41 158.47 40.85 158.47 41.49 192.73"/><rect class="r" x="25.68" y="154.6" width="17.12" height="3.87"/><rect class="f" x="28.1" y="144.55" width="12.29" height="10.05"/><path class="e" d="M34.99,130.49c4.28,1.98,6.93,4.59,7.1,10.3h-15.7c.02-4.33,2.41-7.9,8.28-10.35v-3.12h.32v3.17Z"/><rect class="r" x="25.18" y="141.63" width="18.13" height="2.92"/><polygon class="g" points="166.82 187.55 200.21 187.55 200.21 268.99 165.03 268.99 165.03 190.37 165.03 187.55 165.03 174.66 166.82 174.66 166.82 187.55"/><path class="e" d="M163.25,183.67h73.12v-27.14c-2.04-13-22.76-21.04-34.9-31.36v-11.65h-2.42v12.04c-12.57,10.91-32.78,16.01-35.8,34.18v23.91Z"/><rect class="q" x="199.58" y="101.42" width="1.36" height="12.18"/><rect class="f" x="235.32" y="201.27" width="31.04" height="68.93"/><path class="k" d="M258.71,218.98c-5.44-5.11-11.15-5.1-17.12,0v20.54h17.12v-20.54Z"/><path class="k" d="M258.71,248.08c-5.44-5.1-11.15-5.1-17.12,0v20.54h17.12v-20.54Z"/><polygon class="n" points="266.36 201.28 273.42 202.97 273.42 196.92 277.83 196.92 277.83 204.04 278.87 204.29 278.87 181.71 280.45 181.71 280.45 204.67 283.89 205.5 283.89 191.98 285.46 191.98 285.46 205.88 285.5 205.88 285.1 269.54 266.36 270.2 266.36 201.28"/><path class="k" d="M281.57,220.42c-3.61-4.75-7.41-4.75-11.38,0v19.1h11.38v-19.1Z"/><path class="k" d="M281.57,248.67c-3.61-4.75-7.41-4.75-11.38,0v19.1h11.38v-19.1Z"/><rect class="s" x="257.5" y="192.18" width="3.43" height="7.86"/><rect class="s" x="251.86" y="192.18" width="3.42" height="7.86"/><rect class="s" x="243.3" y="192.18" width="3.43" height="7.86"/><rect class="s" x="237.06" y="192.18" width="3.43" height="7.86"/><rect class="s" x="236.56" y="188.56" width="27.19" height="1.81"/><path class="e" d="M246.63,173.08c-6.01,2.78-9.74,6.46-9.98,14.47h22.06c-.02-6.09-3.39-11.1-11.63-14.54v-4.38h-.45v4.45Z"/><polygon class="j" points="382.04 268.99 200.21 268.99 200.15 268.99 18.32 268.99 18.32 272.42 200.15 272.42 200.21 272.42 382.04 272.42 382.04 268.99"/><polygon class="e" points="379.57 292.5 200.21 292.5 200.15 292.5 20.79 292.5 20.79 272.42 200.15 272.42 200.21 272.42 379.57 272.42 379.57 292.5"/><polygon class="e" points="355.84 268.99 376.4 268.99 374.38 234.73 356.74 234.73 355.84 268.99"/><rect class="r" x="354.64" y="230.86" width="22.96" height="3.87"/><polygon class="e" points="357.46 230.86 374.78 230.86 373.08 196.6 358.22 196.6 357.46 230.86"/><rect class="r" x="356.2" y="192.73" width="19.84" height="3.87"/><polygon class="e" points="358.87 192.73 373.37 192.73 371.95 158.47 359.51 158.47 358.87 192.73"/><rect class="r" x="357.56" y="154.6" width="17.12" height="3.87"/><rect class="f" x="359.97" y="144.55" width="12.29" height="10.05"/><path class="e" d="M365.37,130.49c-4.28,1.98-6.93,4.59-7.1,10.3h15.7c-.02-4.33-2.42-7.9-8.28-10.35v-3.12h-.32v3.17Z"/><rect class="r" x="357.05" y="141.63" width="18.13" height="2.92"/><polygon class="h" points="379.57 292.5 200.21 292.5 200.15 292.5 20.79 292.5 20.79 298.41 200.15 298.41 200.21 298.41 379.57 298.41 379.57 292.5"/><polygon class="g" points="233.53 187.55 200.15 187.55 200.15 268.99 235.32 268.99 235.32 190.37 235.32 187.55 235.32 174.66 233.53 174.66 233.53 187.55"/><polygon class="m" points="231.32 195.81 225.48 195.81 200.21 195.81 200.15 195.81 174.88 195.81 169.04 195.81 169.04 201.65 169.04 250.8 174.88 250.8 174.88 201.65 200.15 201.65 200.21 201.65 225.48 201.65 225.48 250.8 231.32 250.8 231.32 201.65 231.32 195.81"/><path class="k" d="M200.15,268.99h20.9v-40.95c-2.4-8.51-9.34-14.08-20.83-16.7v-.02h-.06v.02c-11.49,2.62-18.44,8.19-20.83,16.7v40.95h20.83Z"/><path class="m" d="M200.15,204.19h20.9v16.52c-3.91-7.15-10.9-10.88-20.87-12.28-9.96,1.4-16.95,5.13-20.87,12.28v-16.52h20.83Z"/><polygon class="e" points="302.45 268.99 315.36 268.99 314.09 247.49 303.02 247.49 302.45 268.99"/><rect class="r" x="301.7" y="245.06" width="14.41" height="2.43"/><polygon class="e" points="303.47 245.06 314.34 245.06 313.27 223.56 303.95 223.56 303.47 245.06"/><rect class="r" x="302.68" y="221.13" width="12.45" height="2.43"/><polygon class="e" points="304.35 221.13 313.46 221.13 312.56 199.62 304.75 199.62 304.35 221.13"/><rect class="r" x="303.53" y="197.19" width="10.75" height="2.43"/><rect class="f" x="305.05" y="190.88" width="7.71" height="6.31"/><path class="e" d="M308.44,182.06c-2.69,1.24-4.35,2.88-4.46,6.46h9.85c0-2.72-1.51-4.96-5.2-6.49v-1.96h-.2v1.99Z"/><rect class="r" x="303.21" y="189.05" width="11.38" height="1.83"/><polygon class="e" points="82.59 268.99 95.5 268.99 94.23 247.49 83.16 247.49 82.59 268.99"/><rect class="r" x="81.84" y="245.06" width="14.42" height="2.43"/><polygon class="e" points="83.61 245.06 94.48 245.06 93.41 223.56 84.09 223.56 83.61 245.06"/><rect class="r" x="82.82" y="221.13" width="12.46" height="2.43"/><polygon class="e" points="84.49 221.13 93.6 221.13 92.7 199.62 84.89 199.62 84.49 221.13"/><rect class="r" x="83.67" y="197.19" width="10.75" height="2.43"/><rect class="f" x="85.19" y="190.88" width="7.71" height="6.31"/><path class="e" d="M88.58,182.06c-2.69,1.24-4.35,2.88-4.46,6.46h9.86c-.01-2.72-1.51-4.96-5.19-6.49v-1.96h-.2v1.99Z"/><rect class="r" x="83.35" y="189.05" width="11.38" height="1.83"/></g><path class="k" d="M184.93,135.2c-2.79,1.71-5.56,3.44-8.15,5.31,9.64-2.13,25.77-4.03,46.41-.32-2.37-1.7-4.9-3.36-7.45-5.01-12.23-1.46-22.66-1.03-30.81,.02Z"/><polygon class="k" points="236.37 172.34 163.25 172.34 163.25 174.82 165.03 174.82 166.82 174.82 233.53 174.82 233.53 174.66 235.32 174.66 235.32 174.82 236.37 174.82 236.37 172.34"/><polygon class="e" points="167.31 298.41 101.86 406.95 285.58 412.69 227.02 298.41 167.31 298.41"/><polygon class="l" points="154.11 298.41 44.45 408.67 106.47 407.09 170.19 298.41 154.11 298.41"/><polygon class="l" points="243.1 298.41 352.76 408.67 285.58 412.69 227.02 298.41 243.1 298.41"/><path class="i" d="M154.11,298.41l-52.55,52.84c-52.57,5.16-66.06-15.13-52.8-52.84h105.35Z"/><path class="i" d="M243.1,298.41l52.55,52.84c52.57,5.16,66.06-15.13,52.8-52.84h-105.35Z"/></g></g></g><path class="u" d="M200.57,0c55.37,0,105.52,22.46,141.82,58.75,36.3,36.3,58.75,86.44,58.75,141.82s-22.45,105.52-58.75,141.82c-36.3,36.3-86.44,58.75-141.82,58.75s-105.52-22.45-141.82-58.75C22.45,306.09,0,255.95,0,200.57S22.45,95.05,58.75,58.75C95.05,22.46,145.2,0,200.57,0h0Zm139.08,61.49C304.05,25.89,254.88,3.87,200.57,3.87S97.09,25.89,61.49,61.49C25.89,97.09,3.87,146.26,3.87,200.57s22.02,103.48,57.62,139.08c35.6,35.6,84.77,57.62,139.08,57.62s103.48-22.02,139.08-57.62c35.6-35.6,57.62-84.77,57.62-139.08s-22.02-103.48-57.62-139.08Z"/></g></g></g></svg>