<?xml version="1.0" encoding="UTF-8"?><svg xmlns="http://www.w3.org/2000/svg" viewBox="0 0 401.14 401.14"><defs><style>.d{fill:#b3986e;}.d,.e,.f,.g,.h,.i,.j,.k,.l,.m,.n,.o,.p{fill-rule:evenodd;}.e{fill:#c8b08a;}.q{fill:#5e4b2b;}.f{fill:#8c744f;}.g{fill:#d3f2b3;}.h{fill:#94805f;}.i{fill:#bfa57c;}.j,.r{fill:#544226;}.k{fill:#00a651;}.l{fill:#064759;}.s{fill:#0d738f;}.m{fill:#d4b98e;}.n{fill:#9e8865;}.o{fill:#87714e;}.p{fill:#3ec2e6;}</style></defs><g id="a"/><g id="b"><g id="c"><g><path class="l" d="M200.18,380.54c99.48,0,180.62-81.14,180.62-180.62S299.66,19.29,200.18,19.29,19.56,100.43,19.56,199.91s81.14,180.62,180.62,180.62Z"/><path class="g" d="M227.55,318.77c-21.63-.44-45.66,.85-55,1.42,0,0,0,0,0,.01l-3.98,.25s-.04,0-.04,0l-97.2,6.01c32.78,33.37,78.41,54.06,128.86,54.06s96.11-20.71,128.89-54.1l-59.6-3.69c-2.77,.41-5.51,.3-8.18-.51l-32.91-2.04c-.3-.48-.58-.96-.83-1.44Z"/><path class="p" d="M352.15,102.27c-32.14-49.92-88.2-82.98-151.97-82.98S80.35,52.36,48.21,102.27c25.53,44.68,98.09,128.61,166.09,128.61s112.32-83.93,137.85-128.61Z"/><g><path class="e" d="M117.58,303.45c3.1-7.34,30.92-39.05,30.92-39.05l51.68,.42,51.68-.42s27.81,31.71,30.91,39.05l-23.64,8.42c-8.71-20.44-34.37-31.87-58.95-37.1-24.58,5.23-50.24,16.66-58.95,37.1l-23.64-8.42Z"/><polygon class="n" points="148.5 264.4 199.68 264.4 200.67 264.4 251.86 264.4 251.86 257.56 200.67 257.56 199.68 257.56 148.5 257.56 148.5 264.4"/><polygon class="f" points="144.01 250.72 199.68 250.72 200.67 250.72 256.35 250.72 251.33 257.56 200.67 257.56 199.68 257.56 149.03 257.56 144.01 250.72"/><rect class="r" x="148.5" y="243.88" width="28.01" height="6.84"/><polygon class="j" points="148.5 243.88 199.68 243.88 200.67 243.88 251.86 243.88 251.86 240.24 200.67 240.24 199.68 240.24 148.5 240.24 148.5 243.88"/><path class="h" d="M201.28,275.16l-1.1-.24-1.11,.24c-21.72,4.84-45.72,14.5-54.96,30.87l13.53,5.72c6.37-12.46,24.15-22.73,42.53-27.12,18.38,4.39,36.16,14.66,42.53,27.12l13.53-5.72c-9.25-16.37-33.25-26.02-54.96-30.87Z"/><path class="e" d="M160.9,240.24h22.24c-1.77-12.71,1.13-25.42,7.91-38.13h-19.03l-11.12,38.13Z"/><polygon class="i" points="169.45 202.11 199.68 202.11 200.67 202.11 230.91 202.11 230.91 195.98 200.67 195.98 199.68 195.98 169.45 195.98 169.45 202.11"/><polygon class="o" points="177.36 187 199.68 187 200.67 187 222.99 187 222.99 195.98 200.67 195.98 199.68 195.98 177.36 195.98 177.36 187"/><polygon class="d" points="172.45 187 199.68 187 200.67 187 227.91 187 227.91 180.79 200.67 180.79 199.68 180.79 172.45 180.79 172.45 187"/><path class="m" d="M177.15,173.74c14.75-28.14,13.69-84.51,14.76-137.03h16.53c1.07,52.52,0,108.89,14.76,137.03v7.06h-46.05v-7.06Z"/><polygon class="j" points="193.64 36.71 198.9 36.71 201.46 36.71 206.71 36.71 206.71 31.82 201.46 31.82 198.9 31.82 193.64 31.82 193.64 36.71"/><rect class="r" x="198.68" y="11.07" width="2.78" height="20.75"/><rect class="r" x="223.85" y="243.88" width="28.01" height="6.84"/><rect class="r" x="198.9" y="11.07" width="2.78" height="20.75"/><path class="h" d="M191.05,202.11c-6.78,12.71-9.68,25.42-7.91,38.13h5.08c-1.77-12.71,1.13-25.42,7.91-38.13h-5.08Z"/><path class="e" d="M238.44,240.24h-22.24c1.77-12.71-1.13-25.42-7.91-38.13h19.03l11.12,38.13Z"/><path class="h" d="M208.29,202.11c6.78,12.71,9.68,25.42,7.91,38.13h-5.08c1.77-12.71-1.13-25.42-7.91-38.13h5.08Z"/><polygon class="q" points="130.29 291.5 137.09 307.34 134.53 308.43 127.73 292.59 130.29 291.5"/><polygon class="q" points="140.88 297.85 125.03 304.65 123.94 302.08 139.79 295.28 140.88 297.85"/><polygon class="q" points="140.31 279.18 147.11 295.03 144.55 296.12 137.75 280.27 140.31 279.18"/><polygon class="q" points="150.9 285.53 135.05 292.34 133.96 289.77 149.81 282.97 150.9 285.53"/><polygon class="q" points="149.55 266.31 156.35 282.15 153.79 283.24 146.98 267.4 149.55 266.31"/><polygon class="q" points="160.14 272.66 144.29 279.46 143.2 276.89 159.05 270.09 160.14 272.66"/><polygon class="q" points="164.12 265.34 170.93 281.19 168.36 282.28 161.56 266.44 164.12 265.34"/><polygon class="q" points="174.72 271.69 158.87 278.5 157.78 275.93 173.62 269.13 174.72 271.69"/><polygon class="q" points="181.78 265.69 185.92 275.33 183.35 276.42 179.22 266.79 181.78 265.69"/><polygon class="q" points="187.93 270.27 178.3 274.41 177.21 271.84 186.84 267.71 187.93 270.27"/><polygon class="q" points="195.59 266.28 198.25 272.48 195.69 273.57 193.03 267.37 195.59 266.28"/><polygon class="q" points="199.28 269.88 193.09 272.54 191.99 269.97 198.19 267.31 199.28 269.88"/><polygon class="q" points="269.75 292.59 262.95 308.43 260.38 307.34 267.19 291.5 269.75 292.59"/><polygon class="q" points="257.69 295.28 273.54 302.08 272.45 304.65 256.6 297.85 257.69 295.28"/><polygon class="q" points="259.73 280.27 252.93 296.12 250.37 295.03 257.17 279.18 259.73 280.27"/><polygon class="q" points="247.67 282.97 263.52 289.77 262.43 292.34 246.58 285.53 247.67 282.97"/><polygon class="q" points="250.49 267.4 243.69 283.24 241.13 282.15 247.93 266.31 250.49 267.4"/><polygon class="q" points="238.43 270.09 254.28 276.89 253.19 279.46 237.34 272.66 238.43 270.09"/><polygon class="q" points="235.92 266.44 229.11 282.28 226.55 281.19 233.35 265.34 235.92 266.44"/><polygon class="q" points="223.85 269.13 239.7 275.93 238.61 278.5 222.76 271.69 223.85 269.13"/><rect class="q" x="209.67" y="269.66" width="10.49" height="2.79" transform="translate(-118.93 361.66) rotate(-66.77)"/><rect class="q" x="213.51" y="265.81" width="2.79" height="10.49" transform="translate(-118.95 361.61) rotate(-66.77)"/><rect class="q" x="198.46" y="268.53" width="6.75" height="2.79" transform="translate(-125.82 348.91) rotate(-66.77)"/><rect class="q" x="200.44" y="266.55" width="2.79" height="6.75" transform="translate(-125.83 348.87) rotate(-66.76)"/><polygon class="r" points="186.16 158.25 198.71 170.08 196.8 172.11 184.25 160.28 186.16 158.25"/><rect class="r" x="182.85" y="163.79" width="17.25" height="2.79" transform="translate(-60.07 191.18) rotate(-46.68)"/><rect class="r" x="193.08" y="145.56" width="2.79" height="12.74" transform="translate(-49.47 189.22) rotate(-46.69)"/><rect class="r" x="188.1" y="150.53" width="12.74" height="2.79" transform="translate(-49.47 189.23) rotate(-46.69)"/><rect class="r" x="193.72" y="133.37" width="2.79" height="12.74" transform="translate(-40.41 185.82) rotate(-46.68)"/><rect class="r" x="188.75" y="138.34" width="12.74" height="2.79" transform="translate(-40.4 185.88) rotate(-46.69)"/><rect class="r" x="193.72" y="120.54" width="2.79" height="12.74" transform="translate(-31.08 181.77) rotate(-46.67)"/><polygon class="r" points="189.73 130.59 198.47 121.32 200.5 123.23 191.76 132.5 189.73 130.59"/><rect class="r" x="195" y="109.85" width="2.79" height="12.74" transform="translate(-22.88 179.43) rotate(-46.7)"/><rect class="r" x="190.03" y="114.82" width="12.74" height="2.79" transform="translate(-22.9 179.35) rotate(-46.68)"/><polygon class="r" points="193.08 98.05 202.34 106.79 200.43 108.82 191.17 100.08 193.08 98.05"/><rect class="r" x="190.38" y="102.04" width="12.74" height="2.79" transform="translate(-13.49 175.6) rotate(-46.68)"/><polygon class="r" points="193.43 85.27 202.7 94.01 200.79 96.04 191.52 87.3 193.43 85.27"/><polygon class="r" points="191.72 94.33 200.46 85.06 202.5 86.98 193.75 96.24 191.72 94.33"/><rect class="r" x="196.07" y="71.5" width="2.79" height="12.74" transform="translate(5.35 168.14) rotate(-46.69)"/><rect class="r" x="191.1" y="76.48" width="12.74" height="2.79" transform="translate(5.34 168.12) rotate(-46.68)"/><rect class="r" x="196.43" y="58.72" width="2.79" height="12.74" transform="translate(14.74 164.34) rotate(-46.68)"/><polygon class="r" points="192.44 68.77 201.18 59.5 203.21 61.41 194.47 70.68 192.44 68.77"/><rect class="r" x="196.78" y="45.94" width="2.79" height="12.74" transform="translate(24.19 160.66) rotate(-46.7)"/><polygon class="r" points="192.79 55.99 201.53 46.72 203.57 48.63 194.83 57.9 192.79 55.99"/><polygon class="r" points="214.97 160.28 202.42 172.11 200.51 170.08 213.06 158.25 214.97 160.28"/><rect class="r" x="206.35" y="156.56" width="2.79" height="17.25" transform="translate(-56.73 187.45) rotate(-43.3)"/><rect class="r" x="198.38" y="150.53" width="12.74" height="2.79" transform="translate(-48.45 181.87) rotate(-43.32)"/><polygon class="r" points="208.1 157.52 199.36 148.25 201.39 146.34 210.13 155.61 208.1 157.52"/><rect class="r" x="197.73" y="138.34" width="12.74" height="2.79" transform="translate(-40.27 178.06) rotate(-43.31)"/><rect class="r" x="202.71" y="133.37" width="2.79" height="12.74" transform="translate(-40.27 178.04) rotate(-43.31)"/><rect class="r" x="197.73" y="125.51" width="12.74" height="2.79" transform="translate(-31.47 174.57) rotate(-43.31)"/><rect class="r" x="202.71" y="120.54" width="2.79" height="12.74" transform="translate(-31.46 174.57) rotate(-43.31)"/><polygon class="r" points="208.41 112.86 199.14 121.6 197.23 119.57 206.5 110.83 208.41 112.86"/><polygon class="r" points="206.17 121.8 197.43 112.53 199.47 110.63 208.2 119.89 206.17 121.8"/><rect class="r" x="196.1" y="102.04" width="12.74" height="2.79" transform="translate(-15.82 167.03) rotate(-43.3)"/><rect class="r" x="201.07" y="97.07" width="2.79" height="12.74" transform="translate(-15.82 167.02) rotate(-43.3)"/><polygon class="r" points="207.7 87.3 198.43 96.04 196.52 94.01 205.79 85.27 207.7 87.3"/><rect class="r" x="200.71" y="84.28" width="2.79" height="12.74" transform="translate(-7.13 163.35) rotate(-43.32)"/><rect class="r" x="195.38" y="76.48" width="12.74" height="2.79" transform="translate(1.54 159.61) rotate(-43.31)"/><rect class="r" x="200.36" y="71.5" width="2.79" height="12.74" transform="translate(1.52 159.58) rotate(-43.3)"/><polygon class="r" points="206.98 61.74 197.71 70.48 195.81 68.44 205.08 59.71 206.98 61.74"/><rect class="r" x="200" y="58.72" width="2.79" height="12.74" transform="translate(10.2 155.87) rotate(-43.31)"/><polygon class="r" points="206.62 48.96 197.36 57.69 195.45 55.66 204.72 46.93 206.62 48.96"/><rect class="r" x="199.64" y="45.94" width="2.79" height="12.74" transform="translate(18.87 152.15) rotate(-43.31)"/><polygon class="r" points="167.55 223.69 180.1 235.52 178.19 237.55 165.65 225.72 167.55 223.69"/><polygon class="r" points="165.94 235.94 177.77 223.39 179.81 225.3 167.97 237.85 165.94 235.94"/><polygon class="r" points="171.71 210.28 181.81 219.8 179.9 221.83 169.8 212.31 171.71 210.28"/><rect class="r" x="168.87" y="214.66" width="13.87" height="2.79" transform="translate(-102 195.76) rotate(-46.69)"/><rect class="r" x="176.44" y="201.98" width="2.79" height="9.29" transform="translate(-94.5 194.28) rotate(-46.69)"/><rect class="r" x="173.19" y="205.23" width="9.29" height="2.79" transform="translate(-94.5 194.24) rotate(-46.68)"/><rect class="r" x="216.7" y="229.22" width="17.24" height="2.79" transform="translate(-96.83 217.44) rotate(-43.32)"/><polygon class="r" points="232.25 235.94 220.42 223.39 218.39 225.3 230.22 237.85 232.25 235.94"/><rect class="r" x="215.45" y="214.66" width="13.87" height="2.79" transform="translate(-87.64 211.41) rotate(-43.31)"/><polygon class="r" points="228.16 220.15 218.64 210.05 216.61 211.96 226.13 222.06 228.16 220.15"/><polygon class="r" points="222.78 202.42 216.02 208.8 217.93 210.83 224.69 204.45 222.78 202.42"/><polygon class="r" points="224.56 209.05 218.18 202.29 216.15 204.2 222.53 210.96 224.56 209.05"/></g><path class="k" d="M228.38,320.21c-2.75-4.3-3.12-8.6,0-12.89l147.3-62.29c-8.03,31.21-24.19,59.16-46.08,81.45l-101.22-6.26Z"/><path class="k" d="M172.54,320.21c2.75-4.3,3.12-8.6,0-12.89L25.24,245.02c8.03,31.21,24.19,59.16,46.08,81.45l101.22-6.26Z"/><path class="s" d="M200.57,0c55.37,0,105.52,22.45,141.82,58.75,36.3,36.3,58.75,86.44,58.75,141.82s-22.45,105.52-58.75,141.82c-36.3,36.3-86.45,58.75-141.82,58.75s-105.52-22.46-141.82-58.75C22.46,306.09,0,255.95,0,200.57S22.46,95.05,58.75,58.75C95.05,22.45,145.2,0,200.57,0h0Zm139.08,61.49C304.05,25.89,254.88,3.87,200.57,3.87S97.09,25.89,61.49,61.49C25.9,97.09,3.87,146.26,3.87,200.57s22.02,103.48,57.62,139.08c35.6,35.6,84.77,57.62,139.08,57.62s103.48-22.02,139.08-57.62c35.6-35.6,57.62-84.77,57.62-139.08s-22.02-103.49-57.62-139.08Z"/></g></g></g></svg>