<?xml version="1.0" encoding="UTF-8"?><svg xmlns="http://www.w3.org/2000/svg" xmlns:xlink="http://www.w3.org/1999/xlink" viewBox="0 0 401.14 401.14"><defs><style>.e{fill:#b5835c;}.e,.f,.g,.h,.i,.j,.k{fill-rule:evenodd;}.l{clip-rule:evenodd;}.l,.g{fill:#00a651;}.f{fill:#e7e8e9;}.m{clip-path:url(#d);}.h{fill:#f3b27f;}.i{fill:#5e4532;}.j{stroke:#231f20;stroke-miterlimit:2.61;stroke-width:.5px;}.j,.n{fill:#231f20;}.o{fill:#0d738f;}.k{fill:#f0d1b8;}</style><clipPath id="d"><path class="l" d="M200.18,19.3c99.74,0,180.62,80.88,180.62,180.62s-80.88,180.62-180.62,180.62S19.56,299.65,19.56,199.92,100.44,19.3,200.18,19.3Z"/></clipPath></defs><g id="a"/><g id="b"><g id="c"><g><g><path class="g" d="M200.18,19.3c99.74,0,180.62,80.88,180.62,180.62s-80.88,180.62-180.62,180.62S19.56,299.65,19.56,199.92,100.44,19.3,200.18,19.3Z"/><g class="m"><g><g><polygon class="h" points="353.39 69.84 268.9 69.84 265.63 101.49 274.91 97.83 301.73 98.29 315.72 101.49 356.4 101.49 353.39 69.84"/><polygon class="h" points="315.72 101.49 356.4 101.49 358.1 138.46 317.29 138.46 315.72 101.49"/><polygon class="k" points="353.39 69.84 269.68 69.84 269.68 62.77 269.68 60.42 269.68 52.18 281.32 52.18 281.32 60.42 288.06 60.42 288.06 52.18 299.7 52.18 299.7 60.42 306.76 60.42 306.76 52.18 318.4 52.18 318.4 60.42 324.94 60.42 324.94 52.18 336.58 52.18 336.58 60.42 341.75 60.42 341.75 52.18 353.39 52.18 353.39 60.42 353.39 62.77 353.39 69.84"/><rect class="n" x="329.07" y="57.8" width="2.35" height="2.49"/><rect class="n" x="329.07" y="64.27" width="2.35" height="2.49"/><rect class="n" x="309.57" y="64.27" width="2.36" height="2.49"/><rect class="n" x="310.62" y="57.47" width="2.35" height="2.49"/><rect class="n" x="291.39" y="64.27" width="2.36" height="2.49"/><rect class="n" x="292.44" y="57.47" width="2.35" height="2.49"/><rect class="n" x="331.03" y="80.69" width="7.85" height="9.55"/><rect class="n" x="332.73" y="95.34" width="2.49" height="2.61"/><path class="e" d="M311.01,85.66c1.95,5.47,5.02,8.96,4.71,15.83-6.78,14.58-14.63,27.28-24.2,36.98h-31c21.05-16.8,36.42-32.52,50.49-52.8Z"/><path class="j" d="M288.78,98.22h-6.54v-15.43c1.61-3.84,5-3.51,6.54,0v15.43Z"/><path class="j" d="M310.62,86.79c-2.39,3.29-4.87,6.54-7.45,9.73v-13.74c1.83-3.84,5.69-3.51,7.45,0v4.01Z"/><path class="f" d="M288.78,98.06l12.95,.22c-11.82,14.35-25.6,27.72-41.2,40.18h-31.44c16.7-10,32.24-22.86,45.82-40.64l7.32,.13v.26h6.54v-.15Z"/><path class="e" d="M274.91,97.83c.52-5.06-1.05-7.15-4.71-6.28-15.21,18.25-35.37,34.24-62.78,46.92h21.67c18.38-11.12,33.96-24.43,45.82-40.64Z"/><path class="i" d="M317.29,138.46h-25.77c9.57-9.69,17.42-22.4,24.2-36.98l1.57,36.98Z"/></g><g><polygon class="h" points="40.71 200.76 249.53 200.76 257.61 286.52 234.66 276.6 168.39 277.85 133.81 286.52 33.27 286.52 40.71 200.76"/><polygon class="h" points="133.81 286.52 33.27 286.52 29.07 386.7 129.93 386.7 133.81 286.52"/><polygon class="k" points="40.71 200.76 247.59 200.76 247.59 181.62 247.59 175.25 247.59 152.92 218.82 152.92 218.82 175.25 202.17 175.25 202.17 152.92 173.4 152.92 173.4 175.25 155.95 175.25 155.95 152.92 127.18 152.92 127.18 175.25 111.01 175.25 111.01 152.92 82.24 152.92 82.24 175.25 69.48 175.25 69.48 152.92 40.71 152.92 40.71 175.25 40.71 181.62 40.71 200.76"/><rect class="n" x="95.02" y="168.16" width="5.82" height="6.73"/><rect class="n" x="95.02" y="185.7" width="5.82" height="6.73"/><rect class="n" x="143.18" y="185.7" width="5.82" height="6.73"/><rect class="n" x="140.59" y="167.27" width="5.82" height="6.73"/><rect class="n" x="188.11" y="185.7" width="5.82" height="6.73"/><rect class="n" x="185.52" y="167.27" width="5.82" height="6.73"/><rect class="n" x="76.59" y="230.17" width="19.39" height="25.87"/><rect class="n" x="85.64" y="269.86" width="6.14" height="7.09"/><path class="e" d="M145.44,243.64c-4.82,14.83-12.41,24.28-11.64,42.88,16.75,39.49,36.15,73.92,59.8,100.18h76.61c-52.02-45.52-90-88.1-124.78-143.06Z"/><path class="j" d="M200.39,277.66h16.16v-41.81c-3.98-10.42-12.35-9.51-16.16,0v41.81Z"/><path class="j" d="M146.42,246.7c5.9,8.92,12.04,17.71,18.42,26.36v-37.22c-4.53-10.42-14.07-9.51-18.42,0v10.86Z"/><path class="f" d="M200.39,277.24l-32,.61c29.21,38.88,63.26,75.1,101.83,108.85h77.7c-41.26-27.09-79.68-61.95-113.25-110.11l-18.1,.34v.72h-16.16v-.42Z"/><path class="e" d="M234.66,276.6c-1.29-13.7,2.58-19.37,11.64-17.01,37.58,49.46,87.41,92.77,155.17,127.12h-53.55c-45.44-30.14-83.95-66.2-113.25-110.11Z"/><path class="i" d="M129.93,386.7h63.68c-23.65-26.27-43.05-60.69-59.8-100.18l-3.88,100.18Z"/></g><g><polygon class="h" points="520.68 146.7 369.5 146.7 363.65 203.33 380.27 196.78 428.24 197.61 453.28 203.33 526.06 203.33 520.68 146.7"/><polygon class="k" points="520.68 146.7 370.91 146.7 370.91 134.06 370.91 129.85 370.91 115.1 391.73 115.1 391.73 129.85 403.79 129.85 403.79 115.1 424.61 115.1 424.61 129.85 437.25 129.85 437.25 115.1 458.08 115.1 458.08 129.85 469.78 129.85 469.78 115.1 490.61 115.1 490.61 129.85 499.85 129.85 499.85 115.1 520.68 115.1 520.68 129.85 520.68 134.06 520.68 146.7"/><path class="e" d="M444.86,175.02c3.49,9.79,8.98,16.03,8.42,28.32-12.13,26.08-26.17,48.82-43.3,66.16h-55.46c37.66-30.06,65.16-58.18,90.33-94.48Z"/><path class="j" d="M405.07,197.48h-11.7v-27.61c2.88-6.88,8.94-6.28,11.7,0v27.61Z"/><path class="f" d="M405.07,197.21l23.17,.4c-21.14,25.68-45.79,49.6-73.72,71.89h-56.25c29.87-17.89,57.69-40.91,81.99-72.71l13.11,.23v.47h11.7v-.27Z"/><path class="e" d="M380.27,196.78c.94-9.05-1.87-12.79-8.42-11.24-27.21,32.66-63.29,61.27-112.33,83.95h38.77c32.89-19.9,60.77-43.71,81.99-72.71Z"/></g></g></g></g><path class="o" d="M200.57,0c55.37,0,105.52,22.46,141.82,58.75,36.3,36.29,58.75,86.44,58.75,141.82s-22.45,105.52-58.75,141.82c-36.3,36.3-86.44,58.75-141.82,58.75s-105.52-22.46-141.82-58.75C22.46,306.09,0,255.95,0,200.57S22.46,95.05,58.75,58.75C95.05,22.46,145.2,0,200.57,0h0Zm139.08,61.49C304.06,25.9,254.88,3.87,200.57,3.87S97.09,25.9,61.49,61.49C25.9,97.09,3.87,146.26,3.87,200.57s22.02,103.49,57.62,139.08,84.77,57.62,139.08,57.62,103.49-22.02,139.08-57.62,57.62-84.77,57.62-139.08-22.02-103.48-57.62-139.08Z"/></g></g></g></svg>