<?xml version="1.0" encoding="UTF-8"?><svg xmlns="http://www.w3.org/2000/svg" viewBox="0 0 401.14 401.14"><defs><style>.d{fill:#5ac75f;}.d,.e,.f,.g,.h,.i,.j,.k,.l{fill-rule:evenodd;}.e{fill:#f0ebce;}.f{fill:#bfb57e;}.m{fill:#064759;}.g{fill:#231f20;}.h{fill:#ebe4b9;}.i{fill:#dbd3a8;}.j{fill:#00a651;}.n{fill:#0d738f;}.k{fill:#c7a85a;}.l{fill:#c9bc75;}</style></defs><g id="a"/><g id="b"><g id="c"><g><g><circle class="m" cx="200.57" cy="200.57" r="180.62"/><path class="n" d="M200.57,0c55.37,0,105.52,22.45,141.82,58.75,36.29,36.3,58.75,86.44,58.75,141.82s-22.46,105.52-58.75,141.82c-36.3,36.3-86.45,58.75-141.82,58.75s-105.52-22.46-141.82-58.75C22.45,306.09,0,255.95,0,200.57S22.45,95.05,58.75,58.75C95.05,22.45,145.2,0,200.57,0h0Zm139.08,61.49C304.05,25.89,254.88,3.87,200.57,3.87S97.09,25.89,61.49,61.49C25.89,97.09,3.87,146.26,3.87,200.57s22.02,103.48,57.62,139.08c35.6,35.6,84.77,57.62,139.08,57.62s103.48-22.02,139.08-57.62c35.6-35.6,57.62-84.77,57.62-139.08s-22.02-103.49-57.62-139.08Z"/><path class="d" d="M206.85,329.78l-24.75,2.36-8.09,.77-2.49,.24-3.57-15.59H62.95c33.13,38.94,82.5,63.65,137.62,63.65s101.68-23.33,134.76-60.37v-3.28l-10.12,.96-31.97,3.04-9.52,.91-30.16,2.87-9,.86-29.22,2.78-8.49,.81Z"/><path class="k" d="M380.07,220.8L39.83,283.03c6.38,12.41,14.16,23.98,23.12,34.52h104.99l3.57,15.59,2.49-.24,8.09-.77,24.75-2.36,8.49-.81,29.22-2.78,9-.86,30.16-2.87,9.52-.91,31.97-3.04,10.12-.96v3.28c24.3-27.21,40.48-61.82,44.74-100.03Z"/><g><g><path class="e" d="M144.01,253.71c27.58-4.45,56.45-9.1,86.62-13.96,31.6-5.09,64.8-10.41,99.62-16.02-.43-1.81-.87-3.62-1.3-5.43-34.79,5.7-67.94,11.17-99.51,16.38-30.13,4.97-58.97,9.73-86.52,14.28,.36,1.58,.72,3.16,1.08,4.74Z"/><g><g><g><g><path class="h" d="M152.86,222.24c1.22-.22,2.44-.45,3.68-.68,1.88,8.17,3.75,16.34,5.63,24.51-1.25,.2-2.48,.4-3.7,.6-1.87-8.14-3.73-16.26-5.6-24.43Z"/><path class="l" d="M154.69,221.9h0c1.67-.31,3-.62,2.99-.67-.1-.45-.21-.89-.32-1.37-.01-.06-1.37,.16-3.03,.47h0c-1.63,.3-2.97,.58-2.96,.64,.11,.47,.21,.92,.31,1.36,.01,.06,1.38-.13,3-.43Z"/></g><path class="i" d="M153.71,215.53c.06-3.7,2.28-6.89,5.68-7.55,3.4-.66,6.89,1.42,8.59,4.85,.35,1.5,.69,3,1.03,4.47,0,.09,0,.19-.01,.28,.08-.01,.15-.03,.24-.04,.22-.04,.46-.09,.67-.12h0c-.38-1.65-.77-3.33-1.16-5.02-1.9-3.83-5.78-6.12-9.58-5.38-3.8,.74-6.3,4.27-6.34,8.39,.38,1.66,.77,3.35,1.14,4.98h0c.13-.03,.24-.04,.35-.07,.19-.04,.37-.07,.54-.1-.04-.08-.1-.16-.13-.25-.33-1.45-.68-2.97-1.02-4.45Z"/><g><path class="h" d="M167.71,219.51c1.26-.23,2.54-.47,3.81-.7,1.91,8.26,3.78,16.5,5.7,24.79-1.28,.21-2.55,.42-3.81,.63-1.9-8.24-3.79-16.48-5.69-24.72Z"/><path class="l" d="M169.62,219.16h0c1.7-.31,3.06-.62,3.04-.68-.11-.48-.22-.93-.33-1.41-.02-.06-1.39,.16-3.09,.48h0c-1.7,.32-3.06,.63-3.04,.69,.11,.48,.21,.93,.32,1.38,.01,.06,1.4-.13,3.1-.45Z"/></g><g><path class="h" d="M188.18,215.71c-1.3,.24-2.59,.48-3.89,.71,1.93,8.35,3.86,16.69,5.79,25.03,1.28-.21,2.59-.42,3.91-.64-1.94-8.37-3.88-16.74-5.81-25.11Z"/><path class="l" d="M186.24,216.07h0c-1.72,.32-3.16,.52-3.17,.46-.11-.46-.21-.91-.32-1.4-.01-.06,1.4-.36,3.12-.67h0c1.74-.32,3.15-.55,3.16-.49,.11,.49,.22,.94,.33,1.4,.01,.06-1.38,.38-3.12,.7Z"/></g><path class="i" d="M184.25,209.72c-1.7-3.45-5.3-5.59-8.78-4.9-3.48,.69-5.78,3.92-5.82,7.69,.35,1.5,.69,3,1.03,4.48,.02,.09,.08,.17,.12,.26-.06,.01-.15,.03-.22,.04-.24,.04-.44,.08-.67,.12h0c-.38-1.65-.77-3.33-1.16-5.02,.05-4.21,2.61-7.77,6.49-8.54,3.88-.77,7.88,1.57,9.81,5.43,.39,1.7,.8,3.43,1.17,5.11h0c-.11,.02-.24,.04-.35,.06-.2,.04-.37,.07-.56,.1,.02-.1,0-.19,0-.29-.34-1.49-.7-3.04-1.05-4.56Z"/><g><path class="h" d="M204.99,212.59c-1.33,.24-2.66,.52-3.97,.76,1.94,8.46,3.91,16.91,5.87,25.36,1.34-.22,2.66-.44,4.02-.66-1.98-8.51-3.94-16.95-5.92-25.46Z"/><path class="l" d="M202.99,212.96h0c-1.77,.36-3.24,.57-3.26,.5-.11-.46-.22-.95-.34-1.44-.01-.06,1.44-.36,3.21-.69h0c1.78-.33,3.24-.57,3.26-.51,.11,.49,.22,.96,.33,1.42,.01,.06-1.43,.39-3.21,.72Z"/></g><path class="i" d="M200.97,206.53c-1.76-3.49-5.44-5.6-9.02-4.9-3.59,.7-5.93,3.95-5.99,7.77,.35,1.52,.7,3.04,1.06,4.56,.04,.09,.08,.18,.12,.26-.06,.01-.15,.03-.22,.04-.24,.04-.46,.09-.7,.13h0c-.37-1.68-.77-3.41-1.17-5.11,.05-4.26,2.68-7.86,6.67-8.64,3.99-.78,8.09,1.57,10.05,5.44,.41,1.75,.81,3.48,1.2,5.17h0c-.13,.02-.24,.04-.37,.07-.2,.04-.37,.07-.57,.11,.02-.1,.01-.2,.01-.29-.35-1.51-.71-3.05-1.07-4.61Z"/><g><path class="h" d="M222.23,209.42c-1.37,.25-2.74,.5-4.09,.75,2,8.56,4,17.12,5.99,25.68,1.36-.22,2.72-.44,4.11-.67-2.01-8.59-4.01-17.17-6.01-25.76Z"/><path class="l" d="M220.17,209.8h0c-1.81,.33-3.32,.55-3.34,.48-.11-.46-.22-.93-.33-1.43-.02-.06,1.48-.37,3.29-.7h0c1.83-.34,3.35-.59,3.37-.53,.12,.5,.23,.97,.34,1.44,.01,.06-1.49,.4-3.32,.74Z"/></g><path class="i" d="M218.13,203.28c-1.82-3.56-5.58-5.69-9.26-4.98-3.68,.71-6.08,4.05-6.15,7.89,.37,1.57,.71,3.11,1.06,4.62,.06,.09,.1,.17,.14,.27-.08,.01-.15,.02-.22,.04-.26,.05-.48,.09-.72,.13h0c-.39-1.69-.79-3.42-1.2-5.17,.08-4.29,2.77-7.97,6.86-8.77,4.09-.8,8.31,1.57,10.31,5.52,.41,1.75,.81,3.49,1.23,5.24h0c-.13,.02-.26,.05-.39,.07-.2,.04-.39,.07-.59,.11,.02-.1,.01-.2,0-.29-.37-1.56-.73-3.12-1.07-4.68Z"/></g><path class="g" d="M169.62,219.16c1.7-.31,3.06-.62,3.04-.68-.11-.48-.22-.93-.33-1.41-.02-.06-1.06,.1-2.43,.35h0c-.22,.04-.44,.08-.67,.12-.09,.02-.16,.03-.24,.04-1.57,.29-2.82,.58-2.8,.64,.11,.48,.21,.93,.32,1.38,.01,.06,1.4-.13,3.1-.45Zm3.79,25.07c-3.78,.62-7.52,1.23-11.24,1.84-1.88-8.17-3.75-16.34-5.63-24.51-.63,.12-1.24,.23-1.85,.34,1.67-.31,3-.62,2.99-.67-.1-.45-.21-.89-.32-1.37-.01-.06-1.09,.11-2.5,.37-.04-.08-.1-.16-.13-.25-.33-1.45-.68-2.97-1.02-4.45,.06-3.7,2.27-6.89,5.68-7.55,3.39-.66,6.89,1.42,8.59,4.85,.35,1.5,.69,3,1.03,4.47,0,.09,0,.19-.01,.28,.08-.01,.15-.03,.24-.04,.22-.04,.45-.08,.67-.12h0c.28-.05,.59-.11,.89-.16-.04-.09-.1-.17-.12-.26-.34-1.47-.69-2.97-1.03-4.48,.04-3.77,2.34-7,5.82-7.69,3.48-.69,7.08,1.45,8.78,4.9,.35,1.52,.71,3.07,1.05,4.56,0,.1,.02,.19,0,.29-1.46,.27-2.58,.51-2.57,.57,.11,.48,.22,.94,.32,1.4,.01,.06,1.45-.14,3.17-.46,.65-.12-1.29,.24-1.94,.36,1.93,8.35,3.86,16.69,5.79,25.03-4.32,.71-8.62,1.41-12.87,2.14-1.91-8.29-3.79-16.53-5.7-24.79-.65,.12-1.28,.23-1.9,.35-.65,.12-1.28,.23-1.91,.35,1.9,8.24,3.8,16.48,5.69,24.72Z"/><path class="g" d="M188.18,215.71c1.94,8.37,3.88,16.74,5.81,25.11,4.26-.7,8.56-1.4,12.89-2.11-1.96-8.45-3.93-16.9-5.87-25.36,.65-.12,2.64-.52,1.97-.39-1.77,.33-3.24,.57-3.26,.5-.11-.46-.22-.95-.34-1.44-.01-.06,1.14-.31,2.64-.59,.02-.1,.01-.2,.01-.29-.35-1.51-.71-3.05-1.07-4.61-1.76-3.49-5.43-5.6-9.02-4.9-3.58,.7-5.93,3.95-5.99,7.77,.35,1.52,.7,3.04,1.06,4.56,.04,.09,.08,.18,.12,.26-.22,.04-.44,.08-.67,.12,1.44-.27,2.54-.44,2.55-.38,.11,.49,.22,.94,.33,1.4,.01,.06-1.38,.38-3.12,.7,.65-.12,1.28-.24,1.94-.36Z"/><path class="g" d="M204.99,212.59c1.98,8.51,3.94,16.95,5.92,25.46,4.35-.74,8.78-1.47,13.22-2.2-1.99-8.56-3.99-17.12-5.99-25.68,.68-.13,2.72-.5,2.03-.37-1.81,.33-3.32,.55-3.34,.48-.11-.46-.22-.93-.33-1.43-.02-.06,1.16-.31,2.7-.6,.02-.1,.01-.2,0-.29-.37-1.56-.73-3.12-1.07-4.68-1.82-3.56-5.55-5.7-9.26-4.98-3.65,.71-6.08,4.05-6.15,7.89,.37,1.57,.71,3.11,1.06,4.62,.06,.09,.1,.17,.14,.27-.22,.04-.46,.08-.69,.12,1.48-.27,2.61-.45,2.63-.39,.11,.49,.22,.96,.33,1.42,.01,.06-1.43,.39-3.21,.72,.67-.12,1.31-.24,2-.37Z"/><path class="f" d="M152.84,215.41c.03-4.12,2.54-7.65,6.34-8.39-3.54,.69-7.04,1.38-10.53,2.05,.92,4,1.82,7.93,2.73,11.9,.01,.06,1.13-.3,2.61-.57h0c-.37-1.63-.76-3.32-1.14-4.98Z"/><path class="f" d="M159.17,207.02c-3.8,.74,7.68,1.55,9.58,5.38,.05-4.21,2.62-7.76,6.49-8.54-5.4,1.08-10.76,2.13-16.07,3.16Z"/><path class="f" d="M175.24,203.86c-3.89,.76,7.87,1.54,9.81,5.43,.05-4.26,2.71-7.87,6.67-8.64-5.55,1.08-11.05,2.15-16.48,3.21Z"/><path class="f" d="M191.73,200.64c-4.02,.78,8.09,1.54,10.05,5.44,.08-4.29,2.79-7.98,6.86-8.77-5.68,1.11-11.31,2.24-16.92,3.33Z"/><path class="f" d="M208.64,197.31c4.11-.8,8.31,1.57,10.31,5.52,.41,1.75,.81,3.49,1.23,5.24h0c1.64-.31,2.97-.52,2.98-.45-.98-4.19-1.96-8.38-2.94-12.56-3.87,.75-15.41,3.01-11.58,2.26Z"/><path class="f" d="M222.23,209.42c2,8.59,4.01,17.17,6.01,25.76,.43-.07,.84-.14,1.29-.21-2.01-8.63-4.02-17.29-6.04-25.91-.02-.06-1.49,.4-3.32,.74,.68-.13,1.37-.25,2.06-.38Z"/><path class="f" d="M158.46,246.67c-1.87-8.14-3.73-16.26-5.6-24.43,.61-.11,2.44-.45,1.83-.33-1.63,.3-2.99,.49-3,.43,1.88,8.2,3.75,16.36,5.6,24.54,.39-.06,.76-.13,1.17-.2Z"/></g><g><g><g><path class="h" d="M302.56,194.55c-1.54,.28-3.07,.57-4.58,.88,2.16,9.07,4.31,18.13,6.47,27.2,1.53-.25,3.05-.5,4.61-.75-2.16-9.1-4.33-18.19-6.5-27.32Z"/><path class="l" d="M300.28,194.97h0c-2.06,.41-3.76,.66-3.78,.59-.13-.53-.24-1.02-.37-1.55-.02-.07,1.66-.41,3.73-.79h0c2.03-.38,3.74-.66,3.76-.59,.13,.53,.24,1.03,.36,1.52,.02,.06-1.67,.45-3.71,.82Z"/></g><path class="i" d="M298.03,188.08c-1.99-3.73-6.21-5.94-10.33-5.14-4.12,.8-6.88,4.34-6.97,8.45,.38,1.63,.77,3.26,1.16,4.89,.04,.1,.09,.19,.15,.28-.09,.02-.19,.03-.28,.05-.26,.05-.53,.1-.77,.14h0c-.44-1.83-.87-3.65-1.3-5.48,.11-4.59,3.17-8.49,7.77-9.39,4.59-.89,9.32,1.57,11.52,5.7,.45,1.88,.89,3.73,1.32,5.55h0c-.15,.03-.3,.05-.43,.08-.24,.04-.46,.09-.67,.12,0-.1,0-.21,0-.31-.38-1.62-.78-3.27-1.18-4.95Z"/><g><path class="h" d="M284.42,197.92c-1.52,.28-3.01,.55-4.5,.83,2.12,8.95,4.24,17.9,6.37,26.89,1.49-.24,3-.49,4.5-.77-2.13-8.98-4.24-17.96-6.37-26.94Z"/><path class="l" d="M282.16,198.34h0c-2,.37-3.64,.6-3.65,.54-.12-.49-.23-.98-.36-1.5-.01-.06,1.61-.4,3.6-.77h0c2.02-.38,3.65-.64,3.67-.58,.13,.52,.24,1.01,.36,1.5,.02,.06-1.62,.43-3.61,.8Z"/></g><g><path class="h" d="M260.81,202.3c1.44-.27,2.88-.53,4.34-.83,2.1,8.89,4.19,17.75,6.28,26.61-1.47,.24-2.92,.48-4.37,.72-2.08-8.83-4.17-17.66-6.25-26.49Z"/><path class="l" d="M262.99,201.89h0c1.94-.36,3.53-.75,3.51-.81-.11-.48-.23-.97-.35-1.48-.01-.06-1.63,.2-3.57,.56h0c-1.94,.36-3.5,.68-3.49,.74,.13,.55,.24,1.03,.36,1.51,.01,.07,1.6-.16,3.54-.52Z"/></g><path class="i" d="M261.93,194.97c.08-4.05,2.74-7.55,6.75-8.34,4.01-.8,8.13,1.42,10.09,5.13,.39,1.63,.78,3.29,1.16,4.89,0,.1-.01,.21,0,.31,.07-.01,.16-.03,.26-.05,.28-.05,.54-.1,.8-.15h0c-.44-1.83-.87-3.65-1.3-5.48-2.2-4.14-6.77-6.56-11.24-5.68-4.47,.87-7.43,4.78-7.53,9.27,.42,1.8,.85,3.6,1.27,5.37h0c.15-.03,.28-.05,.41-.08,.22-.04,.41-.08,.63-.12-.06-.09-.1-.18-.14-.28-.37-1.58-.75-3.19-1.13-4.8Z"/><g><path class="h" d="M242.55,205.65c1.4-.26,2.81-.52,4.25-.78,2.04,8.75,4.09,17.49,6.14,26.23-1.43,.23-2.84,.5-4.25,.73-2.06-8.75-4.09-17.43-6.14-26.18Z"/><path class="l" d="M244.69,205.26h0c1.87-.34,3.43-.7,3.41-.76-.11-.48-.22-.95-.34-1.46-.02-.06-1.59,.2-3.46,.54h0c-1.9,.35-3.43,.67-3.42,.73,.12,.5,.23,.98,.34,1.46,.02,.06,1.57-.16,3.47-.51Z"/></g><path class="i" d="M243.63,198.43c.09-3.97,2.67-7.43,6.58-8.18,3.91-.76,7.89,1.42,9.82,5.08,.38,1.61,.76,3.21,1.13,4.79,0,.1-.03,.21-.02,.31,.09-.02,.18-.03,.26-.05,.28-.05,.54-.1,.78-.14h0c-.42-1.77-.84-3.57-1.27-5.37-2.14-4.09-6.58-6.49-10.93-5.64-4.35,.85-7.23,4.67-7.33,9.09,.42,1.78,.84,3.59,1.25,5.33h0c.13-.02,.26-.05,.41-.08,.2-.04,.39-.07,.59-.11-.06-.09-.1-.18-.14-.27-.37-1.55-.75-3.17-1.12-4.76Z"/><g><path class="h" d="M224.8,208.95c1.35-.25,2.72-.5,4.1-.75,2.02,8.63,4.04,17.25,6.06,25.89-1.4,.23-2.77,.45-4.15,.68-2.01-8.6-4.02-17.2-6.01-25.81Z"/><path class="l" d="M226.85,208.57h0c1.83-.34,3.35-.68,3.34-.74-.11-.47-.23-.97-.35-1.48-.02-.06-1.55,.19-3.38,.53h0c-1.82,.37-3.32,.68-3.3,.74,.12,.5,.23,.97,.34,1.44,.01,.06,1.53-.15,3.36-.49Z"/></g><path class="i" d="M225.83,201.83c.04-3.94,2.56-7.29,6.37-8.05,3.81-.76,7.7,1.42,9.58,5,.37,1.58,.75,3.2,1.11,4.76-.01,.1,0,.2,0,.3,.08-.01,.17-.03,.24-.04,.26-.05,.52-.1,.76-.14h0c-.41-1.75-.83-3.55-1.25-5.33-2.09-4.04-6.44-6.39-10.67-5.55-4.24,.84-7.03,4.58-7.1,8.95,.41,1.75,.82,3.51,1.2,5.23h0c.13-.02,.26-.05,.39-.07,.2-.04,.39-.07,.59-.11-.06-.09-.1-.18-.14-.27-.36-1.54-.73-3.1-1.07-4.67Z"/></g><path class="g" d="M282.16,198.34c-2,.37-3.64,.6-3.65,.54-.12-.49-.23-.98-.36-1.5-.01-.06,1.2-.32,2.83-.62h0c.26-.05,.52-.1,.77-.14,.08-.01,.19-.04,.28-.05,1.87-.35,3.37-.59,3.39-.52,.13,.52,.24,1.01,.36,1.5,.02,.06-1.62,.43-3.61,.8Zm8.63,26.53c4.52-.74,9.06-1.48,13.66-2.24-2.16-9.07-4.31-18.13-6.47-27.2,.75-.17,1.51-.31,2.3-.46-2.06,.41-3.76,.66-3.78,.59-.13-.53-.24-1.02-.37-1.55-.02-.07,1.31-.35,3.06-.67,0-.1,0-.21,0-.31-.38-1.62-.78-3.27-1.18-4.95-1.99-3.73-6.18-5.95-10.33-5.14-4.09,.79-6.88,4.34-6.97,8.45,.38,1.63,.77,3.26,1.16,4.89,.04,.1,.09,.19,.15,.28-.09,.02-.19,.03-.28,.05-.26,.05-.52,.09-.77,.14h0c-.37,.07-.72,.13-1.05,.19,0-.1,0-.2,0-.31-.38-1.6-.77-3.26-1.16-4.89-1.96-3.71-6.05-5.93-10.09-5.13-3.98,.79-6.66,4.29-6.75,8.34,.38,1.61,.76,3.22,1.13,4.8,.04,.09,.08,.19,.14,.28,1.64-.31,2.93-.51,2.94-.45,.12,.51,.24,1,.35,1.48,.02,.07-1.57,.46-3.51,.81-.72,.13,1.44-.26,2.16-.43,2.1,8.89,4.19,17.75,6.28,26.61,4.89-.8,9.86-1.61,14.87-2.43-2.13-8.99-4.25-17.94-6.37-26.89,.74-.14,1.48-.27,2.24-.41,.74-.14,1.48-.27,2.26-.41,2.13,8.98,4.24,17.97,6.37,26.94Z"/><path class="g" d="M260.81,202.3c2.08,8.83,4.16,17.66,6.25,26.49-4.75,.78-9.45,1.55-14.11,2.31-2.05-8.74-4.11-17.48-6.14-26.23-.7,.13-2.81,.52-2.11,.39,1.87-.34,3.43-.7,3.41-.76-.11-.48-.22-.95-.34-1.46-.02-.06-1.26,.13-2.87,.43-.06-.09-.1-.18-.14-.27-.37-1.55-.75-3.17-1.12-4.76,.09-3.97,2.69-7.43,6.58-8.18,3.93-.76,7.89,1.42,9.82,5.08,.38,1.61,.76,3.21,1.13,4.79,0,.1-.03,.21-.02,.31,.26-.05,.52-.1,.78-.14-1.63,.3-2.84,.56-2.83,.62,.13,.55,.24,1.03,.36,1.51,.01,.07,1.6-.16,3.54-.52-.74,.14-1.46,.27-2.18,.4Z"/><path class="g" d="M242.55,205.65c2.05,8.75,4.09,17.43,6.14,26.18-4.61,.75-9.21,1.51-13.73,2.25-2.02-8.63-4.04-17.26-6.06-25.89-.68,.12-2.73,.5-2.05,.38,1.83-.34,3.35-.68,3.34-.74-.11-.47-.23-.97-.35-1.48-.02-.06-1.24,.13-2.79,.42-.06-.09-.1-.18-.14-.27-.36-1.54-.73-3.1-1.07-4.67,.04-3.94,2.57-7.3,6.37-8.05,3.83-.76,7.7,1.42,9.58,5,.37,1.58,.75,3.2,1.11,4.76-.01,.1,0,.2,0,.3,.24-.04,.48-.09,.74-.14-1.59,.29-2.76,.55-2.75,.61,.12,.5,.23,.98,.34,1.46,.02,.06,1.57-.16,3.47-.51-.74,.14-1.44,.27-2.14,.39Z"/><path class="f" d="M298.97,187.59c-2.2-4.14-6.91-6.6-11.52-5.7,4.31-.84,8.65-1.68,13.01-2.57,1.06,4.47,2.11,8.87,3.17,13.31,.01,.06-1.49,.17-3.33,.51h0c-.44-1.82-.87-3.67-1.32-5.55Z"/><path class="f" d="M287.45,181.89c4.57-.89-7.66,4.8-7.77,9.39-2.2-4.14-6.74-6.56-11.24-5.68,6.29-1.23,12.61-2.45,19.01-3.71Z"/><path class="f" d="M268.44,185.59c4.43-.95-7.44,4.75-7.53,9.27-2.14-4.09-6.56-6.49-10.93-5.64,6.1-1.19,12.28-2.3,18.46-3.63Z"/><path class="f" d="M249.97,189.22c4.33-.84-7.24,4.63-7.33,9.09-2.09-4.04-6.43-6.41-10.67-5.55,5.95-1.19,11.96-2.36,18.01-3.54Z"/><path class="f" d="M231.97,192.77c-4.22,.83-7.03,4.58-7.1,8.95,.41,1.75,.82,3.51,1.2,5.23h0c-1.64,.34-2.92,.61-2.91,.67-.98-4.19-1.96-8.38-2.94-12.56,3.89-.76,15.69-3.06,11.75-2.29Z"/><path class="f" d="M224.8,208.95c1.99,8.61,4,17.21,6.01,25.81-.43,.07-.85,.14-1.28,.21-2.01-8.63-4.02-17.29-6.04-25.91-.02-.06,1.53-.15,3.36-.49-.7,.13-1.37,.25-2.05,.38Z"/><path class="f" d="M309.06,221.88c-2.16-9.1-4.33-18.19-6.5-27.32-.76,.14-3.04,.56-2.28,.42,2.03-.37,3.72-.75,3.71-.82,2.18,9.17,4.35,18.35,6.53,27.49-.5,.08-.97,.16-1.45,.24Z"/></g></g></g><g><g><g><g><path class="h" d="M162,280.49c2.66-.37,5.33-.73,8.01-1.1,4.01,17.53,8.05,35.15,12.09,52.74-2.72,.26-5.4,.51-8.09,.77-4-17.48-8.01-34.96-12-52.41Z"/><path class="l" d="M165.99,279.95h0c3.56-.49,6.48-1.01,6.46-1.13-.23-.98-.45-1.97-.68-2.98-.03-.12-2.99,.2-6.55,.7h0c-3.54,.49-6.43,.99-6.39,1.14,.22,.97,.45,1.95,.68,2.95,.03,.12,2.95-.19,6.5-.68Z"/></g><path class="i" d="M163.91,266.32c.06-7.9,4.89-14.46,12.31-15.65,7.41-1.19,15.13,3.54,18.86,11.04,.74,3.28,1.49,6.53,2.24,9.78,0,.18,0,.37,0,.56,.15-.02,.34-.05,.51-.07,.49-.07,1.01-.14,1.48-.21h0c-.84-3.62-1.67-7.23-2.52-10.88-4.16-8.39-12.78-13.62-21.04-12.3-8.26,1.32-13.62,8.66-13.71,17.45,.81,3.55,1.62,7.07,2.43,10.6h0c.24-.03,.51-.07,.75-.1,.39-.06,.77-.11,1.14-.16-.1-.17-.2-.34-.25-.51-.73-3.17-1.45-6.34-2.19-9.54Z"/><g><path class="h" d="M194.44,276.02c2.78-.38,5.57-.76,8.38-1.15,4.17,18,8.33,36.06,12.51,54.09-2.83,.27-5.68,.54-8.49,.81-4.12-17.92-8.27-35.87-12.4-53.76Z"/><path class="l" d="M198.63,275.45h0c3.75-.51,6.83-1.03,6.79-1.15-.24-1.04-.47-2.05-.71-3.05-.03-.12-3.12,.21-6.89,.74h0c-3.73,.52-6.73,1.03-6.7,1.15,.23,1,.46,2.02,.68,3.02,.03,.12,3.09-.2,6.82-.71Z"/></g><g><path class="h" d="M240.56,269.68c-2.96,.4-5.92,.81-8.89,1.22,4.3,18.42,8.6,36.84,12.88,55.29,3-.29,6-.57,9-.86-4.33-18.58-8.66-37.11-13-55.65Z"/><path class="l" d="M236.1,270.29h0c-3.96,.54-7.19,.89-7.21,.76-.24-1.02-.48-2.05-.72-3.1-.03-.12,3.15-.67,7.11-1.22h0c3.97-.55,7.25-.92,7.28-.79,.24,1.04,.49,2.1,.74,3.14,.03,.13-3.21,.67-7.19,1.21Z"/></g><path class="i" d="M231.7,256.28c-3.91-7.7-12.03-12.54-19.87-11.28-7.84,1.26-12.96,8.03-13.08,16.18,.76,3.29,1.52,6.54,2.27,9.8,.1,.18,.2,.35,.28,.53-.17,.02-.34,.05-.51,.07-.51,.07-.99,.14-1.48,.21h0c-.84-3.62-1.67-7.23-2.52-10.88,.13-9.06,5.82-16.63,14.55-18.03,8.73-1.4,17.81,3.94,22.16,12.56,.87,3.75,1.75,7.46,2.61,11.18h0c-.28,.04-.56,.08-.84,.12-.43,.06-.84,.12-1.26,.18,.01-.2,.02-.39,.04-.58-.78-3.34-1.56-6.68-2.35-10.04Z"/><g><path class="h" d="M279.75,264.31c-3.15,.43-6.29,.86-9.4,1.29,4.43,18.91,8.9,37.88,13.37,56.86,3.15-.3,6.33-.6,9.52-.91-4.51-19.1-9.02-38.2-13.49-57.24Z"/><path class="l" d="M275.04,264.96h0c-4.18,.57-7.62,.94-7.65,.82-.26-1.09-.5-2.14-.75-3.19-.03-.13,3.36-.7,7.54-1.28h0c4.19-.62,7.68-1.01,7.71-.88,.26,1.1,.51,2.16,.77,3.26,.03,.13-3.42,.7-7.62,1.28Z"/></g><path class="i" d="M270.41,250.53c-4.07-7.92-12.65-12.85-20.94-11.52-8.29,1.33-13.71,8.31-13.88,16.7,.79,3.38,1.57,6.72,2.35,10.07,.09,.18,.18,.36,.29,.54-.17,.02-.36,.05-.54,.08-.54,.08-1.07,.15-1.58,.22h0c-.87-3.72-1.74-7.43-2.61-11.18,.2-9.32,6.22-17.13,15.46-18.61,9.24-1.48,18.82,3.98,23.4,12.82,.91,3.86,1.81,7.68,2.72,11.53h0c-.3,.04-.6,.09-.9,.13-.45,.06-.9,.12-1.33,.18,0-.23,.02-.43,0-.63-.81-3.43-1.62-6.86-2.44-10.33Z"/><g><path class="h" d="M321.29,258.6c-3.34,.45-6.66,.91-9.98,1.36,4.63,19.49,9.25,38.99,13.9,58.55,3.36-.32,6.73-.64,10.12-.96-4.69-19.69-9.37-39.32-14.04-58.95Z"/><path class="l" d="M316.3,259.28h0c-4.45,.61-8.07,1-8.1,.87-.26-1.08-.52-2.2-.78-3.29-.03-.13,3.54-.73,7.98-1.35h0c4.44-.62,8.16-1.04,8.19-.9,.26,1.1,.53,2.23,.79,3.32,.03,.13-3.64,.74-8.08,1.34Z"/></g><path class="i" d="M311.47,244.43c-4.3-8.13-13.36-13.18-22.14-11.77-8.78,1.41-14.59,8.63-14.8,17.26,.82,3.48,1.64,6.92,2.45,10.36,.1,.18,.2,.37,.31,.56-.19,.02-.37,.05-.56,.08-.58,.08-1.12,.19-1.64,.26h0c-.91-3.85-1.81-7.68-2.72-11.53,.22-9.59,6.64-17.66,16.44-19.23,9.8-1.57,19.91,4.01,24.72,13.1,.94,3.97,1.89,7.93,2.83,11.87h0c-.32,.04-.62,.09-.94,.13-.5,.07-.96,.13-1.42,.2,0-.21,.02-.41,.02-.62-.84-3.53-1.69-7.1-2.54-10.66Z"/></g><path class="g" d="M198.63,275.45c3.75-.51,6.83-1.03,6.79-1.15-.24-1.04-.47-2.05-.71-3.05-.02-.09-2.35,.14-5.41,.54h-.02c-.49,.07-.97,.14-1.46,.21-.17,.02-.36,.05-.51,.07-3.5,.49-6.22,.96-6.19,1.08,.23,1,.46,2.02,.68,3.02,.03,.12,3.09-.2,6.82-.71Zm8.22,54.33c-8.34,.79-16.58,1.57-24.75,2.36-4.04-17.59-8.08-35.2-12.09-52.74-1.35,.19-2.68,.37-4.01,.55,3.56-.49,6.48-1.01,6.46-1.13-.23-.98-.45-1.97-.68-2.98-.02-.09-2.37,.14-5.41,.54-.1-.17-.2-.34-.25-.51-.73-3.17-1.45-6.34-2.19-9.54,.06-7.9,4.95-14.47,12.31-15.65,7.47-1.2,15.13,3.54,18.86,11.04,.74,3.28,1.49,6.53,2.24,9.78,0,.18,0,.37,0,.56,.15-.02,.34-.05,.51-.07,.49-.07,.99-.14,1.46-.2h.02c.66-.09,1.33-.19,1.99-.28-.08-.18-.18-.35-.28-.53-.75-3.26-1.51-6.51-2.27-9.8,.12-8.15,5.28-14.93,13.08-16.18,7.88-1.26,15.97,3.57,19.87,11.28,.79,3.37,1.57,6.7,2.35,10.04-.02,.19-.03,.39-.04,.58-3.35,.5-5.87,.95-5.85,1.04,.24,1.06,.48,2.08,.72,3.1,.03,.12,3.26-.22,7.21-.76,1.48-.2-2.95,.4-4.43,.61,4.3,18.42,8.6,36.84,12.88,55.29-9.88,.94-19.62,1.87-29.22,2.78-4.17-18.03-8.34-36.1-12.51-54.09-1.41,.19-2.81,.38-4.2,.57-1.41,.19-2.8,.38-4.18,.57,4.13,17.89,8.28,35.83,12.4,53.76Z"/><path class="g" d="M240.56,269.68c4.34,18.54,8.67,37.08,13,55.65,9.9-.94,19.96-1.9,30.16-2.87-4.47-18.97-8.94-37.95-13.37-56.86,1.54-.21,6.27-.86,4.69-.64-4.18,.57-7.62,.94-7.65,.82-.26-1.09-.5-2.14-.75-3.19-.02-.1,2.65-.57,6.21-1.1,0-.23,.02-.43,0-.63-.81-3.43-1.62-6.86-2.44-10.33-4.07-7.92-12.62-12.86-20.94-11.52-8.25,1.32-13.71,8.31-13.88,16.7,.79,3.38,1.57,6.72,2.35,10.07,.09,.18,.18,.36,.29,.54-.53,.07-1.05,.15-1.58,.22,3.33-.43,5.88-.69,5.9-.59,.24,1.04,.49,2.1,.74,3.14,.03,.13-3.21,.67-7.19,1.21,1.48-.2,2.96-.4,4.46-.61Z"/><path class="g" d="M279.75,264.31c4.47,19.04,8.98,38.14,13.49,57.24,10.51-1,21.14-2.01,31.97-3.04-4.65-19.56-9.27-39.06-13.9-58.55,1.65-.23,6.66-.91,4.99-.68-4.45,.61-8.07,1-8.1,.87-.26-1.08-.52-2.2-.78-3.29-.02-.1,2.8-.59,6.56-1.15,0-.21,.02-.41,.02-.62-.84-3.53-1.69-7.1-2.54-10.66-4.3-8.13-13.31-13.19-22.14-11.77-8.74,1.4-14.59,8.63-14.8,17.26,.82,3.48,1.64,6.92,2.45,10.36,.1,.18,.2,.37,.31,.56-.55,.08-1.09,.15-1.64,.26,3.52-.49,6.23-.77,6.25-.67,.26,1.1,.51,2.16,.77,3.26,.03,.13-3.42,.7-7.62,1.28,1.56-.21,3.12-.43,4.71-.64Z"/><path class="f" d="M162.03,266.05c.09-8.78,5.51-16.13,13.71-17.45-7.68,1.23-15.26,2.44-22.72,3.67,1.93,8.46,3.87,16.91,5.79,25.41,.03,.12,2.45-.56,5.64-1.03h0c-.81-3.52-1.62-7.05-2.43-10.6Z"/><path class="f" d="M175.74,248.6c-8.33,1.34,16.88,3.91,21.04,12.3,.13-9.06,5.87-16.64,14.55-18.03-12.09,1.94-23.93,3.86-35.59,5.73Z"/><path class="f" d="M211.34,242.87c-8.76,1.49,17.81,3.94,22.16,12.56,.2-9.32,6.27-17.14,15.46-18.61-12.8,2.05-25.35,3.98-37.62,6.06Z"/><path class="f" d="M248.96,236.82c-9.28,1.57,18.82,3.98,23.4,12.82,.22-9.59,6.7-17.67,16.44-19.23-13.56,2.17-26.84,4.21-39.84,6.41Z"/><path class="f" d="M288.79,230.41c9.86-1.57,19.91,4.01,24.72,13.1,.94,3.97,1.89,7.93,2.83,11.87h0c4.02-.52,7.23-.87,7.25-.77-2.28-9.57-4.56-19.14-6.84-28.71-9.44,1.51-37.14,5.97-27.95,4.51Z"/><path class="f" d="M321.29,258.6c4.68,19.62,9.35,39.25,14.04,58.95,1.05-.1,2.11-.2,3.17-.3-4.72-19.8-9.42-39.54-14.12-59.31-.03-.13-3.64,.74-8.08,1.34,1.65-.23,3.3-.45,4.99-.68Z"/><path class="f" d="M174,332.9c-4-17.48-8.01-34.96-12-52.41,1.33-.18,5.33-.73,3.99-.55-3.54,.48-6.47,.8-6.5,.68,4.01,17.5,8.01,35.01,12.02,52.51,.82-.08,1.65-.16,2.49-.24Z"/></g><g><path class="e" d="M144.67,209.88c24.18-4.74,49.38-9.69,75.53-14.82,27.24-5.34,55.66-10.91,85.27-16.72-.37-1.56-.74-3.12-1.11-4.69-29.57,5.9-57.97,11.56-85.18,16.99-26.13,5.21-51.3,10.21-75.46,15.04,.32,1.39,.63,2.77,.96,4.19Z"/><g><g><g><g><path class="h" d="M152.46,181.82c1.08-.23,2.16-.47,3.24-.7,1.64,7.14,3.29,14.29,4.94,21.46-1.09,.22-2.17,.43-3.26,.65-1.65-7.16-3.28-14.28-4.92-21.41Z"/><path class="l" d="M154.07,181.47h0c1.45-.31,2.62-.63,2.61-.69-.09-.39-.18-.78-.27-1.17-.01-.06-1.21,.17-2.66,.48h0c-1.45,.31-2.61,.6-2.6,.66,.1,.41,.19,.8,.27,1.19,.01,.06,1.19-.16,2.64-.48Z"/></g><path class="i" d="M153.21,175.89c.03-3.27,2-6.1,4.98-6.77s6.05,1.05,7.51,3.99c.31,1.33,.61,2.65,.91,3.95,0,.06,.02,.15,0,.22l.2-.04c.2-.04,.38-.08,.57-.12h.02c-.33-1.45-.67-2.9-1.01-4.38-1.66-3.28-5.08-5.23-8.4-4.48-3.31,.75-5.49,3.94-5.54,7.59,.33,1.46,.66,2.9,.99,4.33h0c.11-.02,.2-.04,.31-.07,.16-.04,.31-.07,.46-.1-.03-.05-.07-.14-.1-.2-.3-1.29-.6-2.6-.9-3.91Z"/><g><path class="h" d="M165.48,178.98c1.1-.24,2.2-.47,3.32-.72,1.65,7.22,3.32,14.47,4.99,21.68-1.11,.22-2.21,.44-3.32,.66-1.66-7.2-3.32-14.4-4.99-21.62Z"/><path class="l" d="M167.12,178.62h0c1.47-.32,2.67-.61,2.65-.67-.09-.39-.18-.79-.28-1.21-.01-.06-1.23,.17-2.7,.49h0c-1.48,.32-2.67,.61-2.65,.67,.1,.42,.19,.81,.28,1.2,.01,.06,1.21-.17,2.7-.49Z"/></g><g><path class="h" d="M183.32,175.12c-1.12,.24-2.25,.49-3.37,.73,1.67,7.29,3.35,14.56,5.05,21.87,1.14-.23,2.27-.45,3.41-.68-1.7-7.33-3.39-14.63-5.08-21.92Z"/><path class="l" d="M181.64,175.49h0c-1.5,.32-2.74,.56-2.75,.5-.09-.4-.18-.79-.28-1.22-.01-.06,1.21-.36,2.71-.68h0c1.52-.33,2.75-.57,2.77-.5,.1,.43,.18,.8,.28,1.22,.01,.06-1.21,.36-2.73,.69Z"/></g><path class="i" d="M179.92,169.97c-1.5-3-4.62-4.73-7.67-4.05-3.04,.69-5.06,3.55-5.1,6.87,.31,1.33,.61,2.66,.91,3.96,.03,.06,.07,.14,.12,.19-.07,.02-.15,.03-.2,.04-.2,.04-.4,.09-.59,.13h-.02c-.33-1.44-.67-2.89-1.01-4.37,.08-3.67,2.3-6.92,5.68-7.7,3.39-.78,6.87,1.21,8.56,4.55,.35,1.5,.69,2.96,1.02,4.42h0c-.09,.02-.2,.04-.31,.07-.16,.04-.33,.07-.48,.1,0-.07,0-.16,0-.23-.3-1.31-.61-2.65-.93-3.99Z"/><g><path class="h" d="M197.96,171.93c-1.15,.25-2.31,.5-3.46,.75,1.72,7.39,3.43,14.75,5.14,22.11,1.14-.23,2.3-.46,3.46-.69-1.72-7.38-3.42-14.79-5.14-22.17Z"/><path class="l" d="M196.23,172.3h0c-1.56,.34-2.83,.58-2.84,.52-.09-.4-.19-.8-.29-1.23-.01-.06,1.24-.37,2.8-.7h0c1.54-.34,2.81-.58,2.82-.51,.1,.43,.2,.83,.29,1.23,.01,.06-1.24,.37-2.78,.7Z"/></g><path class="i" d="M194.47,166.72c-1.54-3-4.74-4.74-7.85-4.04-3.1,.7-5.18,3.61-5.23,6.96,.31,1.34,.62,2.69,.93,4,.03,.06,.07,.14,.11,.2-.07,.02-.13,.03-.18,.04-.22,.05-.42,.09-.62,.14h0c-.34-1.46-.68-2.93-1.02-4.42,.06-3.74,2.34-7.01,5.82-7.8,3.48-.79,7.05,1.2,8.75,4.55,.35,1.51,.7,2.99,1.04,4.47h0c-.11,.02-.2,.04-.31,.07-.18,.04-.35,.08-.49,.11,0-.06,0-.16,0-.23-.31-1.33-.62-2.68-.94-4.04Z"/><g><path class="h" d="M212.91,168.7c-1.19,.26-2.36,.51-3.54,.76,1.72,7.45,3.45,14.89,5.2,22.37,1.2-.24,2.38-.47,3.57-.71-1.75-7.5-3.49-14.96-5.24-22.42Z"/><path class="l" d="M211.13,169.08h0c-1.59,.34-2.88,.59-2.9,.53-.1-.4-.19-.81-.29-1.24-.01-.06,1.26-.37,2.85-.72h0c1.58-.34,2.9-.6,2.91-.53,.11,.44,.2,.84,.28,1.25,.01,.06-1.28,.37-2.86,.72Z"/></g><path class="i" d="M209.35,163.44c-1.58-3.06-4.85-4.81-8.03-4.1-3.18,.72-5.27,3.65-5.32,7.04,.32,1.36,.63,2.72,.94,4.04,.03,.06,.07,.15,.11,.2-.07,.02-.15,.03-.22,.05-.22,.05-.4,.09-.6,.13h0c-.35-1.48-.69-2.96-1.04-4.47,.07-3.75,2.4-7.08,5.95-7.9,3.55-.82,7.2,1.19,8.96,4.61,.36,1.53,.71,3.03,1.05,4.52h0c-.11,.02-.24,.05-.35,.07-.17,.04-.35,.08-.51,.11,.02-.07,.02-.17,.02-.23-.31-1.34-.63-2.71-.95-4.08Z"/></g><path class="g" d="M167.12,178.62c1.47-.32,2.67-.61,2.65-.67-.09-.39-.18-.79-.28-1.21,0-.03-.92,.1-2.11,.36h-.02c-.2,.05-.38,.09-.57,.13l-.2,.04c-1.37,.3-2.47,.57-2.45,.63,.1,.42,.19,.81,.28,1.2,.01,.06,1.21-.17,2.7-.49Zm3.34,21.98c-3.31,.66-6.59,1.34-9.83,1.98-1.65-7.17-3.29-14.32-4.94-21.46-.55,.12-1.1,.24-1.63,.35,1.45-.31,2.62-.63,2.61-.69-.09-.39-.18-.78-.27-1.17,0-.03-.95,.11-2.2,.38-.03-.05-.07-.14-.1-.2-.3-1.29-.6-2.6-.9-3.91,.03-3.27,2-6.1,4.98-6.77s6.05,1.05,7.51,3.99c.31,1.33,.61,2.65,.91,3.95,0,.06,.02,.15,0,.22l.2-.04c.2-.04,.38-.08,.57-.12h0c.26-.06,.53-.12,.81-.18-.05-.05-.09-.14-.12-.19-.3-1.3-.61-2.63-.91-3.96,.04-3.31,2.07-6.18,5.1-6.87,3.05-.69,6.16,1.05,7.67,4.05,.31,1.34,.62,2.68,.93,3.99,0,.06,0,.16,0,.23-1.28,.28-2.24,.55-2.23,.58,.1,.42,.19,.82,.28,1.22,.01,.06,1.25-.17,2.75-.5,.57-.12-1.14,.24-1.69,.36,1.67,7.29,3.35,14.56,5.05,21.87-3.76,.74-7.5,1.49-11.22,2.22-1.67-7.22-3.34-14.46-4.99-21.68-.57,.12-1.14,.24-1.67,.36-.57,.12-1.1,.24-1.65,.36,1.67,7.23,3.33,14.43,4.99,21.62Z"/><path class="g" d="M183.32,175.12c1.69,7.3,3.38,14.6,5.08,21.92,3.72-.74,7.45-1.51,11.23-2.26-1.71-7.36-3.42-14.72-5.14-22.11,.57-.12,2.33-.5,1.74-.38-1.56,.34-2.83,.58-2.84,.52-.09-.4-.19-.8-.29-1.23,0-.03,.99-.31,2.31-.6,0-.06,0-.16,0-.23-.31-1.33-.62-2.68-.94-4.04-1.54-3-4.74-4.74-7.85-4.04-3.1,.7-5.18,3.61-5.23,6.96,.31,1.34,.62,2.69,.93,4,.03,.06,.07,.14,.11,.2-.2,.04-.4,.09-.59,.13,1.26-.27,2.23-.42,2.24-.39,.1,.43,.18,.8,.28,1.22,.01,.06-1.21,.36-2.73,.69,.57-.12,1.12-.24,1.69-.36Z"/><path class="g" d="M197.96,171.93c1.72,7.38,3.42,14.79,5.14,22.17,3.81-.76,7.62-1.51,11.47-2.27-1.75-7.47-3.48-14.92-5.2-22.37,.57-.12,2.36-.51,1.76-.38-1.59,.34-2.88,.59-2.9,.53-.1-.4-.19-.81-.29-1.24,0-.03,1.02-.32,2.34-.61,.02-.07,.02-.17,.02-.23-.31-1.34-.63-2.71-.95-4.08-1.58-3.06-4.84-4.82-8.03-4.1-3.16,.71-5.27,3.65-5.32,7.04,.32,1.36,.63,2.72,.94,4.04,.03,.06,.07,.15,.11,.2-.22,.05-.42,.09-.6,.13,1.28-.28,2.28-.43,2.29-.4,.1,.43,.2,.83,.29,1.23,.01,.06-1.24,.37-2.78,.7,.57-.12,1.14-.25,1.72-.37Z"/><path class="f" d="M152.45,175.84c.04-3.65,2.23-6.85,5.54-7.59-3.09,.7-6.17,1.4-9.22,2.09,.8,3.49,1.6,6.97,2.39,10.43,.01,.06,.99-.31,2.29-.59h0c-.33-1.43-.66-2.86-.99-4.33Z"/><path class="f" d="M157.98,168.25c-3.32,.75,6.74,1.21,8.38,4.49,.08-3.67,2.31-6.9,5.68-7.7-4.72,1.1-9.4,2.15-14.06,3.21Z"/><path class="f" d="M172.04,165.04c-3.4,.77,6.87,1.21,8.56,4.55,.06-3.74,2.35-7.02,5.82-7.8-4.82,1.09-9.63,2.17-14.38,3.25Z"/><path class="f" d="M186.42,161.79c-3.49,.79,7.05,1.2,8.75,4.55,.07-3.75,2.41-7.07,5.95-7.9-4.94,1.15-9.84,2.25-14.7,3.35Z"/><path class="f" d="M201.12,158.44c3.56-.8,7.2,1.19,8.96,4.61,.36,1.53,.71,3.03,1.05,4.52h0c1.41-.31,2.56-.52,2.57-.46-.85-3.63-1.7-7.28-2.55-10.94-3.38,.76-13.34,3.01-10.03,2.26Z"/><path class="f" d="M212.91,168.7c1.75,7.46,3.49,14.92,5.24,22.42,.35-.07,.72-.14,1.11-.22-1.76-7.53-3.51-15.03-5.27-22.53-.02-.06-1.28,.37-2.86,.72,.59-.13,1.17-.25,1.78-.38Z"/><path class="f" d="M157.38,203.23c-1.65-7.16-3.28-14.28-4.92-21.41,.53-.11,2.16-.47,1.61-.35-1.45,.31-2.63,.54-2.64,.48,1.64,7.15,3.29,14.3,4.94,21.48,.33-.07,.66-.13,1.01-.2Z"/></g><g><g><g><path class="h" d="M281.89,153.7c-1.32,.29-2.62,.57-3.91,.88,1.86,7.82,3.71,15.65,5.58,23.51,1.31-.26,2.62-.52,3.94-.78-1.87-7.88-3.74-15.73-5.61-23.61Z"/><path class="l" d="M279.93,154.13h0c-1.73,.41-3.17,.68-3.18,.62-.1-.42-.2-.85-.31-1.31-.02-.07,1.41-.41,3.14-.82h0c1.76-.38,3.2-.66,3.21-.59,.11,.46,.21,.89,.31,1.31,.02,.07-1.4,.41-3.17,.79Z"/></g><path class="i" d="M278.01,148.23c-1.69-3.21-5.29-5.03-8.82-4.23-3.52,.79-5.88,3.92-5.96,7.49,.34,1.43,.68,2.85,1,4.25,.04,.06,.08,.16,.13,.21-.07,.02-.15,.03-.24,.05-.24,.05-.44,.09-.66,.14h-.02c-.37-1.55-.74-3.11-1.11-4.7,.12-3.98,2.71-7.51,6.64-8.39,3.93-.89,7.94,1.18,9.85,4.76,.38,1.61,.75,3.18,1.12,4.72h0c-.13,.03-.24,.05-.37,.08-.2,.04-.38,.09-.54,.15,0-.07,0-.17,0-.24-.33-1.41-.67-2.85-1.02-4.29Z"/><g><path class="h" d="M266.38,157.08c-1.27,.27-2.55,.55-3.83,.83,1.83,7.74,3.67,15.51,5.5,23.25,1.27-.25,2.56-.51,3.85-.76-1.83-7.76-3.68-15.55-5.52-23.32Z"/><path class="l" d="M264.47,157.5h0c-1.71,.37-3.1,.64-3.12,.57-.1-.42-.2-.84-.3-1.29-.02-.06,1.37-.4,3.07-.77h0c1.72-.37,3.12-.64,3.14-.58,.11,.46,.21,.88,.31,1.3,.01,.06-1.37,.4-3.09,.77Z"/></g><g><path class="h" d="M246.17,161.45c1.25-.27,2.49-.54,3.74-.81,1.82,7.7,3.62,15.37,5.44,23.07-1.25,.25-2.5,.5-3.76,.74-1.81-7.68-3.61-15.33-5.42-23.01Z"/><path class="l" d="M248.02,161.05h0c1.68-.36,3.03-.69,3.02-.75-.1-.42-.2-.84-.31-1.28-.01-.06-1.38,.2-3.04,.56h0c-1.66,.39-3.03,.72-3.01,.79,.11,.45,.2,.86,.3,1.28,.02,.06,1.39-.23,3.04-.59Z"/></g><path class="i" d="M247.13,155.08c.05-3.52,2.34-6.6,5.79-7.38,3.44-.78,6.95,.99,8.64,4.16,.34,1.42,.67,2.85,1,4.24-.02,.07-.02,.17-.04,.25,.09-.02,.17-.03,.24-.05,.24-.05,.46-.1,.68-.14h.02c-.37-1.56-.74-3.12-1.11-4.71-1.9-3.53-5.83-5.55-9.66-4.68-3.82,.86-6.36,4.34-6.44,8.27,.37,1.57,.73,3.11,1.09,4.61h0c.11-.02,.22-.05,.35-.08,.18-.04,.35-.08,.53-.12-.04-.06-.08-.15-.11-.21-.32-1.35-.65-2.76-.98-4.17Z"/><g><path class="h" d="M230.45,164.88c1.21-.26,2.44-.52,3.67-.79,1.78,7.58,3.57,15.19,5.35,22.78-1.23,.24-2.47,.49-3.68,.73-1.77-7.56-3.56-15.15-5.33-22.71Z"/><path class="l" d="M232.27,164.49h0c1.67-.36,3-.68,2.98-.74-.1-.41-.2-.83-.3-1.27-.02-.06-1.36,.2-3.03,.56h0c-1.63,.35-2.94,.67-2.93,.73,.1,.44,.2,.85,.3,1.26,.01,.06,1.34-.19,2.97-.54Z"/></g><path class="i" d="M231.38,158.55c.07-3.48,2.32-6.53,5.66-7.28,3.34-.75,6.8,1.03,8.45,4.17,.33,1.41,.66,2.82,.99,4.2,0,.07,0,.14-.01,.2,.07-.02,.13-.03,.2-.04,.24-.05,.46-.1,.68-.15h0c-.35-1.51-.72-3.04-1.09-4.61-1.83-3.51-5.69-5.53-9.44-4.69-3.74,.84-6.23,4.28-6.3,8.16,.36,1.55,.72,3.07,1.08,4.59h0c.11-.02,.22-.05,.33-.07,.2-.04,.37-.08,.53-.12-.04-.06-.08-.15-.11-.21-.32-1.36-.65-2.76-.97-4.15Z"/><g><path class="h" d="M215.1,168.19c1.19-.26,2.38-.51,3.57-.77,1.76,7.53,3.51,15.02,5.27,22.55-1.2,.24-2.39,.47-3.59,.71-1.76-7.51-3.5-14.98-5.26-22.49Z"/><path class="l" d="M216.89,167.8h0c1.59-.34,2.88-.65,2.87-.72-.1-.41-.19-.82-.29-1.25-.02-.06-1.32,.19-2.92,.53h0c-1.59,.38-2.86,.69-2.85,.75,.11,.44,.2,.84,.28,1.25,.01,.06,1.31-.22,2.91-.56Z"/></g><path class="i" d="M216,161.98c.06-3.44,2.24-6.44,5.53-7.18,3.29-.74,6.62,1.01,8.24,4.11,.33,1.39,.66,2.79,.97,4.15,0,.07,0,.17,0,.23,.07-.01,.15-.03,.22-.05,.22-.05,.44-.1,.64-.14h0c-.36-1.52-.72-3.04-1.08-4.59-1.79-3.46-5.54-5.45-9.2-4.62-3.66,.83-6.1,4.21-6.16,8.05,.36,1.53,.71,3.04,1.06,4.51h0c.11-.02,.24-.05,.35-.08,.17-.04,.35-.08,.51-.11-.05-.05-.09-.14-.13-.2-.3-1.32-.63-2.69-.95-4.07Z"/></g><path class="g" d="M264.47,157.5c-1.71,.37-3.1,.64-3.12,.57-.1-.42-.2-.84-.3-1.29,0-.03,1.02-.32,2.39-.62h.02c.22-.06,.42-.1,.66-.15,.09-.02,.16-.04,.24-.05,1.6-.35,2.88-.59,2.9-.53,.11,.46,.21,.88,.31,1.3,.01,.06-1.37,.4-3.09,.77Zm7.42,22.9c3.85-.76,7.74-1.53,11.66-2.31-1.86-7.86-3.72-15.68-5.58-23.51,.63-.17,1.29-.31,1.95-.46-1.73,.41-3.17,.68-3.18,.62-.1-.42-.2-.85-.31-1.31,0-.03,1.12-.35,2.6-.67,0-.07,0-.17,0-.24-.33-1.41-.67-2.85-1.02-4.29-1.69-3.21-5.27-5.03-8.82-4.23-3.51,.79-5.88,3.92-5.96,7.49,.34,1.43,.68,2.85,1,4.25,.04,.06,.08,.16,.13,.21-.07,.02-.15,.03-.24,.05-.24,.05-.44,.09-.66,.14h0c-.31,.07-.64,.14-.94,.2,.02-.07,.02-.17,.04-.25-.33-1.39-.67-2.82-1-4.24-1.69-3.17-5.17-4.94-8.64-4.16-3.42,.77-5.73,3.86-5.79,7.38,.33,1.41,.66,2.82,.98,4.17,.03,.06,.07,.15,.11,.21,1.41-.31,2.5-.48,2.51-.44,.11,.45,.2,.87,.31,1.28,.01,.06-1.33,.39-3.02,.75-.62,.13,1.25-.27,1.89-.41,1.82,7.7,3.62,15.37,5.44,23.07,4.2-.86,8.43-1.7,12.7-2.55-1.83-7.74-3.67-15.51-5.5-23.25,.62-.13,1.28-.28,1.92-.42,.64-.14,1.26-.27,1.9-.41,1.83,7.76,3.68,15.56,5.52,23.32Z"/><path class="g" d="M246.17,161.45c1.81,7.68,3.61,15.33,5.42,23.01-4.07,.81-8.11,1.61-12.12,2.4-1.78-7.58-3.57-15.2-5.35-22.78-.62,.13-2.45,.53-1.85,.4,1.67-.36,3-.68,2.98-.74-.1-.41-.2-.83-.3-1.27,0-.03-1.1,.14-2.49,.44-.04-.06-.08-.15-.11-.21-.32-1.36-.65-2.76-.97-4.15,.07-3.48,2.33-6.53,5.66-7.28,3.36-.76,6.8,1.03,8.45,4.17,.33,1.41,.66,2.82,.99,4.2,0,.07,0,.14-.01,.2,.2-.04,.42-.09,.64-.14-1.38,.33-2.43,.63-2.42,.66,.11,.45,.2,.86,.3,1.28,.02,.06,1.39-.23,3.04-.59-.62,.13-1.23,.26-1.85,.4Z"/><path class="g" d="M230.45,164.88c1.77,7.56,3.56,15.15,5.33,22.71-3.98,.79-7.92,1.57-11.84,2.38-1.76-7.53-3.52-15.02-5.27-22.55-.61,.13-2.36,.51-1.78,.38,1.59-.34,2.88-.65,2.87-.72-.1-.41-.19-.82-.29-1.25,0-.03-1.07,.13-2.41,.42-.05-.05-.09-.14-.13-.2-.3-1.32-.63-2.69-.95-4.07,.06-3.44,2.26-6.45,5.53-7.18,3.31-.74,6.62,1.01,8.24,4.11,.33,1.39,.66,2.79,.97,4.15,0,.07,0,.17,0,.23,.2-.04,.4-.09,.64-.14-1.35,.29-2.38,.59-2.38,.62,.1,.44,.2,.85,.3,1.26,.01,.06,1.34-.19,2.97-.54-.62,.13-1.21,.26-1.82,.39Z"/><path class="f" d="M278.82,147.82c-1.91-3.58-5.9-5.65-9.85-4.76,3.69-.83,7.38-1.67,11.09-2.5,.91,3.85,1.83,7.69,2.72,11.47,.02,.06-1.25,.17-2.84,.51h0c-.37-1.54-.74-3.12-1.12-4.72Z"/><path class="f" d="M268.97,143.06c3.91-.88-6.52,4.41-6.62,8.39-1.9-3.53-5.8-5.55-9.66-4.68,5.39-1.22,10.81-2.48,16.27-3.71Z"/><path class="f" d="M252.69,146.77c3.8-.86-6.36,4.34-6.44,8.27-1.83-3.51-5.67-5.54-9.44-4.69,5.26-1.19,10.56-2.38,15.88-3.58Z"/><path class="f" d="M236.82,150.35c3.73-.84-6.23,4.28-6.3,8.16-1.79-3.46-5.53-5.45-9.2-4.62,5.12-1.16,10.3-2.36,15.5-3.53Z"/><path class="f" d="M221.31,153.88c-3.65,.82-6.1,4.21-6.16,8.05,.36,1.53,.71,3.04,1.06,4.51h0c-1.42,.34-2.51,.61-2.5,.67-.85-3.63-1.7-7.28-2.55-10.94,3.36-.76,13.55-3.06,10.16-2.29Z"/><path class="f" d="M215.1,168.19c1.75,7.51,3.5,14.98,5.26,22.49-.37,.07-.74,.15-1.11,.22-1.76-7.53-3.51-15.03-5.27-22.53-.02-.06,1.31-.22,2.91-.56-.61,.13-1.21,.26-1.79,.39Z"/><path class="f" d="M287.5,177.31c-1.87-7.88-3.74-15.73-5.61-23.61-.66,.14-2.6,.56-1.96,.43,1.76-.38,3.18-.72,3.17-.79,1.88,7.92,3.76,15.81,5.64,23.73-.42,.08-.83,.16-1.23,.25Z"/></g></g></g><g><path class="e" d="M146.27,170.89c20.9-4.72,42.51-9.63,64.86-14.71,23.14-5.26,47.09-10.66,71.95-16.31-.31-1.32-.63-2.63-.95-3.99-24.83,5.72-48.76,11.21-71.89,16.51-22.34,5.13-43.92,10.12-64.8,14.93,.27,1.19,.54,2.38,.82,3.57Z"/><g><g><g><g><path class="h" d="M153.02,146.38c.93-.23,1.87-.46,2.8-.68,1.42,6.16,2.84,12.3,4.26,18.46-.95,.22-1.88,.43-2.81,.64-1.42-6.15-2.83-12.27-4.25-18.43Z"/><path class="l" d="M154.42,146.04h0c1.26-.31,2.26-.58,2.26-.61-.08-.33-.16-.69-.24-1.05,0-.03-1.03,.19-2.28,.5h0c-1.25,.3-2.26,.59-2.26,.62,.08,.36,.17,.72,.24,1.05,0,.03,1.03-.19,2.28-.5Z"/></g><path class="i" d="M153.67,141.21c.03-2.8,1.73-5.33,4.3-5.98,2.58-.65,5.19,.77,6.48,3.31,.27,1.15,.52,2.27,.79,3.39-.01,.04-.02,.1-.01,.2,.05-.01,.11-.03,.16-.04,.16-.04,.35-.09,.51-.12h0c-.28-1.21-.58-2.49-.87-3.76-1.42-2.82-4.35-4.42-7.22-3.69-2.87,.72-4.75,3.52-4.79,6.68,.29,1.26,.58,2.52,.86,3.75h0c.09-.02,.16-.04,.27-.07,.13-.03,.27-.07,.4-.1-.03-.05-.07-.14-.1-.2-.26-1.11-.51-2.22-.78-3.37Z"/><g><path class="h" d="M164.25,143.61c.95-.23,1.89-.46,2.84-.69,1.44,6.25,2.88,12.44,4.31,18.66-.95,.22-1.9,.43-2.87,.66-1.43-6.21-2.84-12.39-4.28-18.62Z"/><path class="l" d="M165.67,143.27h0c1.27-.31,2.3-.59,2.29-.62-.08-.33-.16-.7-.24-1.06,0-.03-1.05,.19-2.32,.5h0c-1.26,.34-2.29,.63-2.28,.66,.08,.33,.16,.7,.24,1.03,0,.03,1.05-.19,2.32-.5Z"/></g><g><path class="h" d="M179.62,139.86c-.98,.24-1.94,.47-2.93,.71,1.45,6.27,2.91,12.53,4.35,18.77,.97-.22,1.95-.45,2.92-.67-1.45-6.25-2.89-12.53-4.35-18.81Z"/><path class="l" d="M178.15,140.22h0c-1.29,.32-2.35,.54-2.36,.51-.08-.34-.16-.7-.25-1.07,0-.03,1.04-.32,2.33-.63h0c1.31-.32,2.39-.55,2.39-.52,.09,.37,.17,.74,.25,1.07,0,.03-1.06,.32-2.37,.64Z"/></g><path class="i" d="M176.67,135.5c-1.3-2.55-3.98-3.98-6.6-3.32-2.62,.66-4.35,3.18-4.38,6.05,.27,1.15,.53,2.27,.78,3.37,.03,.06,.07,.11,.09,.2-.04,0-.09,.02-.16,.04-.16,.04-.35,.09-.49,.12h0c-.28-1.21-.58-2.49-.87-3.76,.03-3.18,1.95-6.01,4.87-6.75,2.92-.74,5.93,.83,7.39,3.71,.29,1.25,.57,2.54,.86,3.8h0c-.09,.02-.18,.04-.27,.07-.13,.03-.27,.07-.42,.1,0-.06,0-.16,0-.23-.26-1.13-.52-2.26-.79-3.4Z"/><g><path class="h" d="M192.12,136.78c-.97,.27-1.97,.51-2.94,.75,1.45,6.33,2.92,12.63,4.39,18.95,.99-.23,1.97-.45,2.98-.68-1.48-6.34-2.95-12.65-4.43-19.02Z"/><path class="l" d="M190.65,137.16h0c-1.33,.32-2.41,.56-2.41,.52-.08-.34-.17-.71-.25-1.08,0-.03,1.06-.32,2.38-.65h0c1.31-.32,2.42-.56,2.43-.53,.09,.37,.16,.71,.24,1.05,0,.03-1.09,.33-2.39,.68Z"/></g><path class="i" d="M189.15,132.38c-1.32-2.55-4.06-4.01-6.73-3.34-2.66,.67-4.44,3.26-4.48,6.15,.26,1.14,.52,2.27,.79,3.4,.03,.06,.06,.11,.11,.2-.05,.01-.11,.03-.18,.04-.16,.04-.35,.09-.51,.12h0c-.29-1.26-.57-2.55-.86-3.8,.03-3.25,1.99-6.11,4.97-6.86,2.98-.75,6.02,.86,7.49,3.73,.3,1.3,.6,2.6,.9,3.86h0c-.09,.02-.18,.04-.27,.07-.14,.04-.27,.07-.42,.1,0-.07,0-.16,0-.23-.27-1.14-.53-2.29-.81-3.46Z"/><g><path class="h" d="M204.89,133.66c-1.02,.25-2.03,.5-3.02,.74,1.49,6.39,2.98,12.77,4.47,19.13,.98-.23,2.01-.46,3.01-.69-1.49-6.37-2.98-12.77-4.46-19.18Z"/><path class="l" d="M203.37,134.03h0c-1.33,.32-2.46,.57-2.47,.54-.08-.34-.17-.71-.25-1.09,0-.03,1.11-.34,2.44-.66h0c1.36-.33,2.48-.57,2.49-.54,.09,.37,.18,.75,.26,1.09,0,.03-1.09,.33-2.46,.67Z"/></g><path class="i" d="M201.88,129.22c-1.35-2.6-4.15-4.04-6.87-3.35-2.72,.69-4.51,3.3-4.57,6.19,.27,1.18,.54,2.32,.81,3.46,.03,.06,.07,.12,.11,.2-.05,.01-.13,.03-.18,.04-.18,.04-.34,.08-.53,.13h0c-.29-1.27-.6-2.57-.9-3.86,.05-3.25,2.05-6.15,5.09-6.91,3.04-.77,6.14,.83,7.63,3.75,.31,1.31,.61,2.59,.91,3.87h0c-.09,.02-.18,.04-.29,.07-.14,.03-.29,.07-.42,.1,0-.07,0-.16,0-.23-.27-1.16-.53-2.28-.79-3.47Z"/></g><path class="g" d="M165.67,143.27c1.27-.31,2.3-.59,2.29-.62-.08-.33-.16-.7-.24-1.06,0-.03-.78,.13-1.81,.38h-.02c-.16,.04-.35,.09-.49,.12-.07,.02-.11,.03-.16,.04-1.19,.33-2.13,.59-2.12,.62,.08,.33,.16,.7,.24,1.03,0,.03,1.05-.19,2.32-.5Zm2.87,18.97c-2.83,.65-5.66,1.29-8.45,1.93-1.42-6.17-2.83-12.3-4.26-18.46-.47,.11-.93,.22-1.4,.34,1.26-.31,2.26-.58,2.26-.61-.08-.33-.16-.69-.24-1.05,0-.03-.83,.14-1.88,.4-.03-.05-.07-.14-.1-.2-.26-1.11-.51-2.22-.78-3.37,.03-2.8,1.73-5.33,4.3-5.98,2.58-.65,5.19,.77,6.48,3.31,.27,1.15,.52,2.27,.79,3.39-.01,.04-.02,.1-.01,.2,.05-.01,.11-.03,.16-.04,.16-.04,.35-.09,.51-.12h0c.22-.06,.44-.11,.65-.16-.02-.09-.05-.15-.09-.2-.25-1.09-.51-2.22-.78-3.37,.03-2.86,1.78-5.39,4.38-6.05,2.65-.67,5.3,.77,6.6,3.32,.26,1.13,.52,2.26,.79,3.4,0,.07,0,.16,0,.23-1.09,.27-1.92,.5-1.91,.53,.09,.37,.17,.73,.25,1.07,0,.03,1.07-.2,2.36-.51,.47-.11-.96,.24-1.45,.36,1.45,6.27,2.91,12.53,4.35,18.77-3.25,.74-6.46,1.51-9.65,2.24-1.44-6.22-2.87-12.41-4.31-18.66-.47,.12-.95,.23-1.42,.35-.47,.12-.94,.23-1.42,.35,1.44,6.24,2.85,12.41,4.28,18.62Z"/><path class="g" d="M179.62,139.86c1.46,6.28,2.9,12.56,4.35,18.81,3.2-.73,6.39-1.46,9.6-2.2-1.47-6.33-2.94-12.62-4.39-18.95,.49-.12,1.96-.48,1.47-.36-1.33,.32-2.41,.56-2.41,.52-.08-.34-.17-.71-.25-1.08,0-.03,.84-.27,1.97-.55,0-.07,0-.16,0-.23-.27-1.14-.53-2.29-.81-3.46-1.32-2.55-4.06-4.01-6.73-3.34-2.66,.67-4.44,3.26-4.48,6.15,.26,1.14,.52,2.27,.79,3.4,.03,.06,.06,.11,.11,.2-.18,.04-.35,.09-.51,.12,1.09-.27,1.93-.44,1.94-.41,.09,.37,.17,.74,.25,1.07,0,.03-1.06,.32-2.37,.64,.49-.12,.98-.24,1.47-.36Z"/><path class="g" d="M192.12,136.78c1.48,6.37,2.95,12.68,4.43,19.02,3.23-.74,6.5-1.49,9.8-2.27-1.49-6.36-2.97-12.74-4.47-19.13,.49-.12,2-.49,1.49-.36-1.33,.32-2.46,.57-2.47,.54-.08-.34-.17-.71-.25-1.09,0-.03,.87-.28,2.02-.56,0-.07,0-.16,0-.23-.27-1.16-.53-2.28-.79-3.47-1.35-2.6-4.15-4.04-6.87-3.35-2.72,.69-4.51,3.3-4.57,6.19,.27,1.18,.54,2.32,.81,3.46,.03,.06,.07,.12,.11,.2-.18,.04-.36,.09-.51,.13,1.09-.27,1.95-.45,1.96-.42,.09,.37,.16,.71,.24,1.05,0,.03-1.09,.33-2.39,.68,.49-.12,.97-.27,1.46-.39Z"/><path class="f" d="M153.02,141.18c.04-3.16,1.91-5.95,4.79-6.68-2.68,.68-5.33,1.35-7.98,2.01,.69,3,1.37,5.97,2.06,8.97,0,.03,.88-.28,1.98-.55h0c-.28-1.23-.57-2.49-.86-3.75Z"/><path class="f" d="M157.81,134.51c-2.86,.72,5.8,.87,7.22,3.69,.03-3.18,1.97-6.02,4.87-6.75-4.04,1.02-8.09,2.04-12.09,3.05Z"/><path class="f" d="M169.9,131.45c-2.94,.74,5.93,.83,7.39,3.71,.03-3.25,2-6.11,4.97-6.86-4.13,1.07-8.26,2.12-12.36,3.15Z"/><path class="f" d="M182.25,128.3c-2.99,.75,6.02,.86,7.49,3.73,.05-3.25,2.06-6.15,5.09-6.91-4.23,1.07-8.43,2.13-12.58,3.18Z"/><path class="f" d="M194.84,125.12c3.05-.77,6.14,.83,7.63,3.75,.31,1.31,.61,2.59,.91,3.87h0c1.23-.3,2.19-.5,2.19-.47-.73-3.12-1.45-6.22-2.18-9.31-2.86,.72-11.38,2.88-8.56,2.16Z"/><path class="f" d="M204.89,133.66c1.48,6.41,2.97,12.81,4.46,19.18,.31-.07,.64-.14,.97-.22-1.5-6.41-3-12.85-4.5-19.25,0-.03-1.09,.33-2.46,.67,.51-.12,1.02-.25,1.53-.37Z"/><path class="f" d="M157.27,164.81c-1.42-6.15-2.83-12.27-4.25-18.43,.46-.11,1.87-.46,1.4-.34-1.25,.31-2.28,.52-2.28,.5,1.42,6.15,2.84,12.33,4.25,18.47,.27-.06,.57-.13,.88-.2Z"/></g><g><g><g><path class="h" d="M263.27,119.34c-1.09,.27-2.2,.54-3.29,.8,1.57,6.7,3.14,13.34,4.72,20.01,1.12-.25,2.2-.54,3.32-.79-1.57-6.65-3.15-13.3-4.74-20.02Z"/><path class="l" d="M261.61,119.75h0c-1.47,.36-2.68,.62-2.69,.59-.08-.33-.17-.71-.26-1.1,0-.03,1.18-.36,2.65-.75h0c1.49-.36,2.69-.62,2.7-.59,.09,.39,.18,.78,.25,1.15,0,.03-1.16,.35-2.66,.72Z"/></g><path class="i" d="M260.01,114.73c-1.42-2.68-4.47-4.19-7.44-3.44-2.97,.75-4.92,3.5-5.01,6.53,.29,1.23,.57,2.42,.85,3.61,.03,.06,.07,.12,.11,.21-.06,.01-.13,.03-.18,.04-.2,.05-.4,.1-.58,.14h0c-.31-1.32-.63-2.68-.95-4.03,.07-3.4,2.26-6.45,5.58-7.29,3.32-.84,6.69,.83,8.3,3.84,.33,1.37,.65,2.74,.96,4.04h0c-.11,.03-.2,.05-.33,.08-.15,.04-.3,.11-.47,.15,.03-.07,.02-.17,.02-.24-.28-1.21-.57-2.41-.86-3.65Z"/><g><path class="h" d="M250.25,122.55c-1.09,.27-2.16,.53-3.25,.8,1.56,6.6,3.11,13.18,4.67,19.78,1.08-.25,2.17-.5,3.25-.74-1.55-6.63-3.1-13.21-4.66-19.83Z"/><path class="l" d="M248.63,122.95h0c-1.45,.35-2.64,.61-2.65,.58-.08-.35-.17-.74-.27-1.13,0-.03,1.17-.35,2.62-.71h0c1.44-.35,2.62-.61,2.63-.58,.09,.39,.18,.78,.26,1.13,0,.03-1.16,.35-2.6,.7Z"/></g><g><path class="h" d="M233.15,126.73c1.05-.26,2.11-.51,3.16-.77,1.55,6.59,3.08,13.11,4.62,19.63-1.06,.24-2.14,.49-3.19,.73-1.51-6.51-3.04-13.02-4.59-19.59Z"/><path class="l" d="M234.73,126.34h0c1.42-.35,2.57-.66,2.56-.69-.09-.35-.17-.74-.26-1.12,0-.03-1.18,.22-2.6,.57h0c-1.42,.35-2.55,.66-2.55,.69,.09,.38,.18,.77,.26,1.12,0,.03,1.16-.22,2.58-.56Z"/></g><path class="i" d="M233.95,121.23c.06-3.03,1.99-5.7,4.89-6.45,2.91-.75,5.88,.74,7.3,3.39,.29,1.22,.57,2.42,.85,3.61,0,.07,0,.14,0,.24,.05-.01,.13-.03,.2-.05,.18-.04,.38-.09,.56-.14h0c-.31-1.32-.63-2.68-.95-4.03-1.59-2.98-4.89-4.61-8.13-3.79-3.25,.82-5.41,3.8-5.47,7.2,.32,1.34,.63,2.65,.93,3.96h0c.11-.03,.22-.05,.31-.08,.15-.03,.29-.07,.46-.11-.03-.06-.07-.15-.11-.21-.28-1.18-.56-2.36-.83-3.54Z"/><g><path class="h" d="M219.85,130.01c1.02-.25,2.05-.5,3.09-.75,1.5,6.49,3.02,12.95,4.54,19.44-1.04,.24-2.08,.47-3.1,.71-1.52-6.47-3.01-12.92-4.53-19.39Z"/><path class="l" d="M221.38,129.63h0c1.38-.34,2.52-.65,2.51-.68-.08-.35-.17-.73-.26-1.11,0-.03-1.16,.22-2.54,.56h0c-1.36,.33-2.5,.65-2.49,.68,.09,.38,.18,.76,.26,1.1,0,.03,1.16-.22,2.52-.55Z"/></g><path class="i" d="M220.61,124.54c.05-2.96,1.97-5.65,4.81-6.37,2.84-.71,5.76,.74,7.16,3.4,.29,1.21,.55,2.36,.83,3.54,0,.07,0,.14,0,.24,.05-.01,.11-.03,.18-.04,.2-.05,.38-.09,.54-.13h0c-.31-1.31-.61-2.62-.93-3.96-1.55-2.99-4.78-4.61-7.96-3.8-3.18,.8-5.27,3.78-5.34,7.11,.31,1.33,.62,2.66,.92,3.95h0c.09-.02,.18-.04,.27-.07,.15-.03,.29-.07,.46-.11-.03-.06-.07-.15-.11-.21-.28-1.17-.55-2.34-.83-3.54Z"/><g><path class="h" d="M206.78,133.2c1-.24,2.02-.49,3.04-.74,1.51,6.43,3.01,12.85,4.48,19.25-1,.23-2.03,.46-3.03,.69-1.49-6.38-2.99-12.79-4.49-19.2Z"/><path class="l" d="M208.29,132.83h.02c1.34-.33,2.45-.63,2.44-.67-.08-.34-.17-.72-.26-1.1,0-.03-1.12,.21-2.47,.54h-.02c-1.35,.33-2.45,.64-2.44,.67,.09,.37,.18,.75,.26,1.09,0,.03,1.12-.21,2.47-.54Z"/></g><path class="i" d="M207.52,127.82c.06-2.96,1.92-5.62,4.7-6.33,2.78-.7,5.66,.78,7.01,3.39,.28,1.2,.56,2.37,.83,3.54,0,.07,0,.13,0,.23,.06-.01,.13-.03,.18-.04,.2-.05,.38-.09,.54-.13h.02c-.3-1.3-.62-2.63-.92-3.96-1.53-2.93-4.72-4.58-7.84-3.78-3.11,.8-5.17,3.73-5.22,7.05,.3,1.28,.61,2.6,.91,3.88h0c.09-.02,.18-.04,.29-.07,.15-.04,.29-.07,.42-.1-.03-.06-.07-.15-.11-.21-.27-1.16-.54-2.32-.81-3.48Z"/></g><path class="g" d="M248.63,122.95c-1.45,.35-2.64,.61-2.65,.58-.08-.35-.17-.74-.27-1.13,0-.03,.86-.28,2.04-.57h.02c.16-.04,.36-.09,.56-.14,.06-.01,.11-.03,.18-.04,1.36-.33,2.44-.56,2.45-.53,.09,.39,.18,.78,.26,1.13,0,.03-1.16,.35-2.6,.7Zm6.28,19.44c3.24-.74,6.52-1.49,9.79-2.24-1.58-6.67-3.15-13.3-4.72-20.01,.54-.13,1.09-.27,1.63-.4-1.47,.36-2.68,.62-2.69,.59-.08-.33-.17-.71-.26-1.1,0-.03,.95-.3,2.18-.6,.03-.07,.02-.17,.02-.24-.28-1.21-.57-2.41-.86-3.65-1.42-2.68-4.45-4.19-7.44-3.44-2.96,.74-4.92,3.5-5.01,6.53,.29,1.23,.57,2.42,.85,3.61,.03,.06,.07,.12,.11,.21-.06,.01-.13,.03-.18,.04-.2,.05-.4,.1-.58,.14h0c-.25,.06-.51,.12-.76,.19,0-.1,0-.17,0-.24-.28-1.19-.56-2.39-.85-3.61-1.42-2.65-4.38-4.14-7.3-3.39-2.89,.75-4.84,3.42-4.89,6.45,.28,1.18,.55,2.36,.83,3.54,.03,.06,.07,.15,.11,.21,1.22-.3,2.13-.49,2.14-.46,.09,.38,.18,.77,.26,1.12,0,.03-1.15,.35-2.56,.69-.53,.13,1.05-.26,1.58-.39,1.55,6.59,3.08,13.11,4.62,19.63,3.54-.81,7.14-1.63,10.73-2.45-1.56-6.6-3.11-13.18-4.67-19.78,.54-.13,1.09-.27,1.64-.4,.53-.13,1.07-.26,1.62-.39,1.56,6.62,3.12,13.21,4.66,19.83Z"/><path class="g" d="M233.15,126.73c1.55,6.57,3.08,13.08,4.59,19.59-3.43,.82-6.84,1.6-10.25,2.38-1.52-6.49-3.04-12.95-4.54-19.44-.53,.13-2.09,.51-1.56,.38,1.38-.34,2.52-.65,2.51-.68-.08-.35-.17-.73-.26-1.11,0-.03-.91,.15-2.09,.45-.03-.06-.07-.15-.11-.21-.28-1.17-.55-2.34-.83-3.54,.05-2.96,1.97-5.66,4.81-6.37,2.84-.72,5.76,.74,7.16,3.4,.29,1.21,.55,2.36,.83,3.54,0,.07,0,.14,0,.24,.16-.04,.35-.09,.54-.13-1.16,.29-2.06,.54-2.06,.57,.09,.38,.18,.77,.26,1.12,0,.03,1.16-.22,2.58-.56-.53,.13-1.05,.26-1.58,.39Z"/><path class="g" d="M219.85,130.01c1.52,6.47,3.01,12.92,4.53,19.39-3.4,.78-6.74,1.54-10.08,2.31-1.48-6.4-2.98-12.83-4.48-19.25-.51,.12-2,.49-1.51,.37,1.34-.33,2.45-.63,2.44-.66-.08-.34-.17-.72-.26-1.1,0-.03-.89,.15-2.05,.44-.03-.06-.07-.15-.11-.21-.27-1.16-.54-2.32-.81-3.48,.06-2.96,1.91-5.62,4.7-6.33,2.77-.7,5.66,.78,7.01,3.39,.28,1.2,.56,2.37,.83,3.54,0,.07,0,.13,0,.23,.17-.04,.35-.08,.54-.13-1.14,.28-2.03,.53-2.02,.56,.09,.38,.18,.76,.26,1.1,0,.03,1.16-.22,2.52-.55-.51,.13-1.04,.25-1.53,.37Z"/><path class="f" d="M260.69,114.36c-1.62-3.01-4.97-4.68-8.3-3.84,3.1-.78,6.22-1.57,9.33-2.36,.76,3.23,1.54,6.49,2.3,9.72,0,.03-1.07,.19-2.38,.51h0c-.31-1.3-.63-2.67-.96-4.04Z"/><path class="f" d="M252.38,110.52c3.3-.83-5.52,3.89-5.58,7.29-1.59-2.98-4.87-4.61-8.13-3.79,4.55-1.15,9.11-2.34,13.72-3.5Z"/><path class="f" d="M238.66,114.01c3.23-.81-5.41,3.8-5.47,7.2-1.55-2.99-4.77-4.61-7.96-3.8,4.44-1.12,8.92-2.25,13.44-3.39Z"/><path class="f" d="M225.23,117.41c3.17-.8-5.27,3.78-5.34,7.11-1.53-2.93-4.72-4.57-7.84-3.78,4.35-1.1,8.74-2.21,13.18-3.33Z"/><path class="f" d="M212.05,120.74c-3.12,.79-5.17,3.73-5.22,7.05,.3,1.28,.61,2.6,.91,3.88h0c-1.23,.3-2.17,.57-2.16,.6-.73-3.12-1.45-6.22-2.18-9.31,2.88-.73,11.56-2.95,8.66-2.22Z"/><path class="f" d="M206.78,133.2c1.5,6.41,3,12.82,4.49,19.2-.33,.08-.64,.15-.95,.22-1.5-6.41-3-12.85-4.5-19.25,0-.03,1.12-.21,2.47-.54-.51,.12-1.02,.25-1.51,.37Z"/><path class="f" d="M268.01,139.36c-1.57-6.65-3.15-13.3-4.74-20.02-.55,.13-2.22,.54-1.66,.4,1.49-.36,2.67-.69,2.66-.72,1.59,6.72,3.18,13.41,4.76,20.1-.35,.08-.69,.16-1.02,.23Z"/></g></g></g><g><path class="e" d="M146.68,137.35c18.34-4.66,37.24-9.46,56.69-14.39,20.06-5.08,40.74-10.33,62.11-15.76-.27-1.15-.54-2.26-.82-3.43-21.35,5.45-42.02,10.74-62.07,15.88-19.43,4.98-38.32,9.85-56.65,14.53,.25,1.08,.49,2.12,.73,3.17Z"/><g><g><g><g><path class="h" d="M152.58,115.53c.83-.22,1.64-.44,2.47-.67,1.24,5.38,2.5,10.82,3.75,16.23-.83,.21-1.65,.42-2.48,.63-1.25-5.4-2.49-10.79-3.74-16.19Z"/><path class="l" d="M153.81,115.2h0c1.1-.29,2.02-.57,2.01-.6-.07-.3-.14-.61-.21-.91,0-.03-.93,.19-2.03,.48h0c-1.08,.29-1.98,.57-1.97,.6,.07,.3,.14,.6,.21,.9,0,.03,.92-.18,2-.47Z"/></g><path class="i" d="M153.18,110.97c.02-2.48,1.51-4.75,3.76-5.37,2.25-.62,4.56,.58,5.69,2.8,.23,1,.46,1.98,.68,2.95,0,.07,0,.13-.01,.2,.06-.01,.11-.03,.16-.04,.14-.04,.29-.08,.43-.12h0c-.25-1.1-.51-2.19-.77-3.32-1.23-2.44-3.83-3.8-6.33-3.1-2.5,.69-4.18,3.21-4.19,5.98,.26,1.12,.52,2.23,.76,3.29h0c.07-.02,.14-.04,.22-.06,.14-.04,.25-.07,.36-.1-.03-.06-.05-.12-.08-.17-.22-.94-.45-1.93-.68-2.93Z"/><g><path class="h" d="M162.45,112.87c.81-.22,1.64-.44,2.49-.67,1.24,5.43,2.5,10.88,3.76,16.33-.83,.21-1.67,.43-2.48,.63-1.26-5.44-2.52-10.88-3.77-16.29Z"/><path class="l" d="M163.7,112.54h0c1.1-.3,2.01-.57,2.01-.6-.07-.31-.14-.61-.21-.92,0-.03-.93,.19-2.03,.49h0c-1.12,.3-2.01,.57-2.01,.6,.07,.3,.14,.61,.21,.91,0,.03,.92-.18,2.03-.48Z"/></g><g><path class="h" d="M175.89,109.23c-.85,.23-1.69,.46-2.52,.68,1.27,5.49,2.53,10.98,3.8,16.46,.83-.21,1.68-.43,2.54-.65-1.28-5.5-2.54-11-3.81-16.5Z"/><path class="l" d="M174.62,109.57h0c-1.14,.31-2.06,.52-2.07,.49-.07-.28-.14-.58-.21-.89,0-.03,.91-.31,2.04-.62h0c1.14-.31,2.06-.52,2.07-.49,.06,.28,.14,.58,.21,.89,0,.03-.91,.31-2.04,.61Z"/></g><path class="i" d="M173.32,105.45c-1.12-2.2-3.48-3.41-5.78-2.78-2.3,.63-3.79,2.89-3.84,5.43,.23,.97,.46,1.98,.68,2.95,.03,.06,.06,.11,.08,.17-.04,0-.07,.02-.12,.03-.16,.04-.31,.08-.45,.12h0c-.25-1.1-.51-2.19-.77-3.32,.02-2.82,1.71-5.33,4.27-6.04,2.57-.71,5.18,.62,6.45,3.11,.26,1.1,.52,2.24,.78,3.34h0c-.09,.02-.16,.04-.23,.06-.13,.03-.25,.07-.36,.1,0-.06-.01-.13,0-.19-.23-.98-.46-1.99-.7-3.01Z"/><g><path class="h" d="M186.82,106.29c-.87,.23-1.72,.46-2.58,.69,1.29,5.53,2.58,11.07,3.87,16.6,.85-.22,1.72-.44,2.59-.66-1.29-5.54-2.58-11.09-3.87-16.63Z"/><path class="l" d="M185.52,106.64h0c-1.14,.31-2.1,.53-2.11,.5-.07-.31-.14-.62-.22-.93,0-.03,.94-.32,2.08-.63h0c1.15-.31,2.1-.53,2.11-.5,.07,.31,.14,.62,.22,.93,0,.03-.92,.32-2.08,.63Z"/></g><path class="i" d="M184.23,102.48c-1.15-2.22-3.55-3.46-5.89-2.82-2.33,.64-3.85,2.96-3.9,5.48,.23,1.01,.47,2.03,.7,3.01,.03,.06,.06,.11,.1,.17-.05,.01-.11,.03-.16,.04-.16,.04-.31,.08-.45,.12h0c-.26-1.1-.52-2.24-.78-3.34,.05-2.85,1.75-5.36,4.35-6.1,2.6-.74,5.26,.62,6.55,3.1,.26,1.15,.53,2.29,.79,3.37h0c-.07,.02-.16,.04-.25,.07-.13,.03-.25,.07-.36,.1,0-.07,0-.13,.01-.2-.22-.96-.46-1.98-.7-3Z"/><g><path class="h" d="M197.94,103.3c-.86,.23-1.75,.47-2.63,.71,1.3,5.55,2.6,11.13,3.9,16.7,.89-.22,1.76-.45,2.64-.67-1.31-5.59-2.61-11.18-3.91-16.74Z"/><path class="l" d="M196.62,103.65h0c-1.17,.32-2.14,.54-2.14,.51-.07-.31-.14-.62-.22-.93,0-.03,.94-.32,2.11-.64h0c1.17-.32,2.15-.55,2.16-.52,.07,.31,.15,.62,.22,.94,0,.03-.96,.32-2.13,.64Z"/></g><path class="i" d="M195.3,99.47c-1.18-2.27-3.6-3.49-5.97-2.84-2.37,.65-3.94,3-3.98,5.55,.24,1.02,.48,2.04,.7,3l.1,.17c-.05,.01-.11,.03-.16,.04-.16,.04-.32,.09-.45,.12h0c-.25-1.08-.52-2.23-.79-3.37,.05-2.84,1.78-5.43,4.43-6.16,2.65-.73,5.37,.64,6.66,3.14,.27,1.16,.53,2.28,.8,3.4h0c-.07,.02-.16,.04-.25,.07-.13,.03-.25,.07-.38,.1,0-.07,0-.13,.01-.2-.23-1-.47-2-.71-3.03Z"/></g><path class="g" d="M163.7,112.54c1.1-.29,2.01-.57,2.01-.6-.07-.31-.14-.61-.21-.92,0-.03-.7,.12-1.6,.37h-.02c-.14,.04-.29,.08-.42,.12-.06,.01-.11,.03-.16,.04-1.03,.28-1.85,.53-1.85,.56,.07,.3,.14,.61,.21,.91,0,.03,.92-.18,2.03-.48Zm2.52,16.62c-2.49,.67-4.96,1.3-7.42,1.92-1.25-5.41-2.5-10.85-3.75-16.23-.41,.11-.85,.23-1.25,.33,1.1-.29,2.02-.57,2.01-.6-.07-.3-.14-.61-.21-.91,0-.03-.74,.13-1.67,.39-.03-.06-.05-.12-.08-.17-.22-.94-.45-1.93-.68-2.93,.02-2.48,1.51-4.75,3.76-5.37,2.25-.62,4.56,.58,5.69,2.8,.23,1,.46,1.98,.68,2.95,0,.07,0,.13-.01,.2,.06-.01,.11-.03,.16-.04,.14-.04,.29-.08,.43-.12h0c.2-.05,.38-.1,.58-.16-.01-.06-.04-.12-.08-.17-.23-.97-.46-1.98-.68-2.95,.04-2.54,1.55-4.8,3.84-5.43,2.3-.63,4.66,.58,5.78,2.78,.24,1.01,.47,2.02,.7,3.01,0,.06,.01,.13,0,.19-.96,.26-1.69,.49-1.68,.52,.07,.31,.14,.61,.21,.89,0,.03,.93-.19,2.07-.49,.43-.12-.85,.23-1.26,.34,1.27,5.49,2.53,10.98,3.8,16.46-2.84,.72-5.65,1.44-8.46,2.16-1.26-5.45-2.52-10.9-3.76-16.33-.43,.12-.85,.23-1.25,.34-.43,.12-.83,.22-1.25,.33,1.25,5.41,2.51,10.85,3.77,16.29Z"/><path class="g" d="M175.89,109.23c1.28,5.5,2.53,11,3.81,16.5,2.79-.71,5.58-1.42,8.41-2.14-1.29-5.53-2.58-11.07-3.87-16.6,.41-.11,1.72-.46,1.28-.34-1.14,.3-2.1,.53-2.11,.5-.07-.31-.14-.62-.22-.93,0-.03,.74-.26,1.72-.53,0-.07,0-.13,.01-.2-.22-.96-.46-1.98-.7-3-1.15-2.22-3.55-3.46-5.89-2.82-2.32,.64-3.85,2.96-3.9,5.48,.23,1.01,.47,2.03,.7,3.01,.03,.06,.06,.11,.1,.17-.16,.04-.32,.09-.45,.12,.94-.25,1.67-.42,1.67-.39,.06,.28,.14,.58,.21,.89,0,.03-.91,.31-2.04,.61,.41-.11,.83-.22,1.26-.34Z"/><path class="g" d="M186.82,106.29c1.29,5.54,2.58,11.09,3.87,16.63,2.81-.72,5.65-1.44,8.51-2.21-1.3-5.58-2.6-11.16-3.9-16.7,.43-.12,1.77-.47,1.32-.35-1.17,.31-2.14,.54-2.14,.51-.07-.31-.14-.62-.22-.93,0-.03,.74-.27,1.73-.54,0-.07,0-.13,.01-.2-.23-1-.47-2-.71-3.03-1.18-2.27-3.6-3.49-5.97-2.84-2.36,.65-3.94,3-3.98,5.55,.24,1.02,.48,2.04,.7,3l.1,.17c-.16,.04-.32,.09-.47,.13,.97-.26,1.7-.42,1.71-.39,.07,.31,.14,.62,.22,.93,0,.03-.92,.32-2.08,.63,.41-.11,.87-.23,1.3-.35Z"/><path class="f" d="M152.6,110.94c.01-2.76,1.69-5.28,4.19-5.98-2.36,.65-4.68,1.29-7,1.94,.61,2.65,1.22,5.27,1.81,7.87,0,.03,.76-.27,1.75-.54h0c-.24-1.06-.5-2.17-.76-3.29Z"/><path class="f" d="M156.79,104.96c-2.5,.69,5.1,.66,6.33,3.1,.02-2.82,1.72-5.33,4.27-6.04-3.58,.99-7.09,1.97-10.6,2.93Z"/><path class="f" d="M167.4,102.03c-2.57,.71,5.18,.62,6.45,3.11,.05-2.85,1.76-5.38,4.35-6.1-3.64,1-7.22,2-10.8,2.98Z"/><path class="f" d="M178.2,99.05c-2.61,.72,5.26,.62,6.55,3.1,.05-2.84,1.78-5.43,4.43-6.16-3.69,1.02-7.34,2.06-10.97,3.07Z"/><path class="f" d="M189.17,95.98c2.65-.73,5.37,.64,6.66,3.14,.27,1.16,.53,2.28,.8,3.4h0c1.05-.28,1.9-.48,1.91-.45-.63-2.69-1.27-5.44-1.91-8.16-2.5,.69-9.92,2.74-7.45,2.06Z"/><path class="f" d="M197.94,103.3c1.3,5.56,2.61,11.15,3.91,16.74,.27-.07,.54-.14,.82-.21-1.29-5.6-2.6-11.22-3.91-16.81,0-.03-.96,.32-2.13,.64,.43-.12,.87-.23,1.32-.35Z"/><path class="f" d="M156.32,131.72c-1.25-5.4-2.49-10.79-3.74-16.19,.42-.11,1.64-.44,1.23-.33-1.08,.29-1.99,.5-2,.47,1.25,5.43,2.5,10.85,3.75,16.25,.25-.06,.49-.12,.76-.2Z"/></g><g><g><g><path class="h" d="M248.43,89.66c-.94,.25-1.9,.51-2.85,.77,1.37,5.79,2.74,11.58,4.11,17.38,.96-.24,1.9-.48,2.86-.73-1.37-5.8-2.75-11.61-4.12-17.41Z"/><path class="l" d="M247.02,90.04h0c-1.28,.34-2.34,.59-2.34,.56-.07-.29-.15-.62-.22-.94-.01-.03,1.03-.35,2.31-.69h0c1.26-.34,2.3-.58,2.31-.55,.08,.32,.14,.62,.22,.94,0,.03-1.03,.35-2.27,.68Z"/></g><path class="i" d="M245.59,85.7c-1.24-2.32-3.82-3.57-6.39-2.86-2.57,.71-4.27,3.13-4.33,5.81,.25,1.06,.49,2.09,.74,3.12,.03,.06,.06,.12,.1,.18-.05,.02-.11,.03-.16,.04-.16,.04-.32,.09-.48,.13h0c-.27-1.16-.54-2.31-.83-3.5,.07-2.96,1.95-5.67,4.81-6.46,2.85-.79,5.76,.58,7.15,3.2,.27,1.17,.56,2.37,.83,3.53h0c-.09,.02-.18,.05-.25,.07-.16,.04-.29,.08-.42,.11,0-.07-.01-.13-.01-.2-.24-1.04-.5-2.11-.75-3.17Z"/><g><path class="h" d="M237.19,92.71c-.94,.25-1.86,.5-2.78,.75,1.35,5.71,2.7,11.46,4.06,17.2,.9-.23,1.85-.47,2.79-.71-1.36-5.76-2.72-11.51-4.07-17.24Z"/><path class="l" d="M235.8,93.09h0c-1.23,.33-2.27,.57-2.28,.54-.07-.32-.15-.64-.22-.96,0-.03,1.01-.34,2.24-.67h0c1.25-.34,2.26-.58,2.27-.54,.08,.32,.15,.64,.23,.96,0,.03-.99,.34-2.24,.67Z"/></g><g><path class="h" d="M222.45,96.68c.9-.24,1.82-.49,2.73-.73,1.34,5.71,2.69,11.41,4.02,17.12-.92,.24-1.83,.47-2.73,.7-1.34-5.69-2.68-11.39-4.02-17.08Z"/><path class="l" d="M223.82,96.31h0c1.21-.33,2.21-.63,2.2-.66-.07-.32-.15-.64-.22-.96,0-.03-1.03,.21-2.23,.53h0c-1.23,.33-2.21,.63-2.21,.66,.07,.32,.15,.63,.22,.95,0,.03,1.01-.2,2.23-.53Z"/></g><path class="i" d="M223.12,91.86c.07-2.63,1.73-5.05,4.25-5.75,2.52-.7,5.06,.55,6.29,2.88,.25,1.06,.49,2.09,.74,3.11v.21s.1-.03,.15-.04c.18-.05,.34-.09,.5-.13h0c-.27-1.16-.54-2.31-.83-3.5-1.35-2.57-4.21-3.97-7.02-3.19-2.81,.78-4.65,3.46-4.73,6.39,.28,1.18,.55,2.36,.81,3.47h0c.09-.02,.18-.05,.27-.07,.13-.03,.25-.07,.38-.1-.03-.06-.07-.12-.1-.18-.23-.98-.48-2.04-.72-3.09Z"/><g><path class="h" d="M210.9,99.78c.89-.24,1.79-.48,2.69-.72,1.33,5.66,2.65,11.31,3.98,16.97-.91,.23-1.81,.46-2.72,.69-1.32-5.65-2.64-11.29-3.95-16.94Z"/><path class="l" d="M212.26,99.42h0c1.19-.32,2.18-.62,2.17-.65-.07-.32-.15-.63-.22-.92,0-.03-1.01,.2-2.2,.52h0c-1.21,.33-2.18,.62-2.17,.65,.07,.32,.14,.6,.22,.91,0,.03,.99-.2,2.2-.52Z"/></g><path class="i" d="M211.56,95c.06-2.6,1.68-5,4.15-5.68,2.47-.68,5.01,.58,6.21,2.86,.25,1.05,.5,2.1,.73,3.09,0,.07,0,.14,0,.21,.05-.01,.11-.03,.16-.04,.18-.05,.35-.09,.49-.13h0c-.26-1.11-.54-2.29-.81-3.47-1.35-2.54-4.16-3.92-6.91-3.14-2.75,.77-4.58,3.38-4.62,6.28,.27,1.17,.55,2.34,.81,3.47h0c.07-.02,.16-.04,.25-.07,.13-.03,.25-.07,.38-.1-.03-.06-.07-.12-.1-.17-.24-1.01-.48-2.05-.73-3.09Z"/><g><path class="h" d="M199.58,102.86c.88-.24,1.77-.48,2.63-.71,1.3,5.58,2.62,11.19,3.93,16.79-.89,.23-1.78,.45-2.66,.68-1.31-5.6-2.6-11.2-3.9-16.77Z"/><path class="l" d="M200.91,102.5h0c1.16-.31,2.12-.6,2.11-.63-.07-.31-.15-.63-.22-.94,0-.03-.99,.2-2.14,.51h0c-1.19,.32-2.14,.61-2.13,.64,.07,.31,.15,.62,.22,.94,0,.03,.97-.2,2.16-.52Z"/></g><path class="i" d="M200.24,98.12c.04-2.61,1.62-4.95,4.05-5.62,2.43-.67,4.92,.55,6.1,2.82,.24,1.04,.49,2.08,.73,3.09,0,.07,0,.14-.01,.21,.05-.02,.11-.03,.16-.04,.16-.04,.33-.09,.49-.13h0c-.27-1.14-.54-2.31-.81-3.47-1.34-2.52-4.1-3.87-6.81-3.13-2.71,.75-4.49,3.34-4.52,6.25,.26,1.13,.53,2.28,.8,3.41h0c.07-.02,.16-.04,.25-.07,.13-.03,.25-.07,.36-.1-.01-.06-.05-.12-.08-.18-.23-1-.47-2.03-.71-3.04Z"/></g><path class="g" d="M235.8,93.09c-1.23,.33-2.27,.57-2.28,.54-.07-.32-.15-.64-.22-.96,0-.03,.74-.27,1.75-.54h.02c.15-.04,.3-.09,.47-.13,.06-.01,.11-.03,.16-.04,1.17-.32,2.1-.53,2.11-.5,.08,.32,.15,.64,.23,.96,0,.03-.99,.34-2.24,.67Zm5.46,16.86c2.79-.71,5.59-1.43,8.42-2.15-1.37-5.79-2.74-11.58-4.11-17.38,.47-.13,.96-.26,1.44-.39-1.28,.34-2.34,.59-2.34,.56-.07-.29-.15-.62-.22-.94-.01-.03,.81-.29,1.9-.58,0-.07-.01-.13-.01-.2-.24-1.04-.5-2.11-.75-3.17-1.24-2.32-3.82-3.57-6.39-2.86-2.56,.7-4.27,3.13-4.33,5.81,.25,1.06,.49,2.09,.74,3.12,.03,.06,.06,.12,.1,.18-.05,.02-.11,.03-.16,.04-.16,.04-.32,.09-.48,.13h0c-.24,.06-.47,.13-.67,.18v-.21c-.23-1.03-.47-2.05-.72-3.11-1.24-2.33-3.78-3.57-6.29-2.88-2.52,.7-4.18,3.12-4.25,5.75,.25,1.05,.49,2.1,.72,3.09,.04,.06,.07,.12,.1,.18,1.03-.28,1.85-.46,1.86-.43,.07,.32,.15,.64,.22,.96,0,.03-1,.34-2.2,.66-.45,.12,.89-.24,1.35-.36,1.34,5.71,2.69,11.41,4.02,17.12,3.06-.78,6.15-1.6,9.27-2.4-1.36-5.75-2.71-11.49-4.06-17.2,.45-.12,.92-.25,1.39-.37,.45-.12,.9-.24,1.39-.37,1.35,5.73,2.71,11.48,4.07,17.24Z"/><path class="g" d="M222.45,96.68c1.34,5.69,2.68,11.39,4.02,17.08-2.99,.76-5.96,1.52-8.89,2.27-1.33-5.66-2.65-11.31-3.98-16.97-.45,.12-1.77,.47-1.33,.36,1.19-.32,2.18-.62,2.17-.65-.07-.32-.15-.63-.22-.92,0-.03-.81,.15-1.82,.42-.03-.06-.07-.12-.1-.17-.24-1.01-.48-2.05-.73-3.09,.06-2.6,1.7-5.01,4.15-5.68,2.49-.69,5.01,.58,6.21,2.86,.25,1.05,.5,2.1,.73,3.09,0,.07,0,.14,0,.21,.14-.04,.33-.09,.48-.13-1.01,.27-1.78,.51-1.77,.55,.07,.32,.15,.63,.22,.95,0,.03,1.01-.2,2.23-.53-.47,.13-.92,.25-1.37,.37Z"/><path class="g" d="M210.9,99.78c1.31,5.65,2.63,11.3,3.95,16.94-2.91,.74-5.83,1.49-8.71,2.22-1.31-5.61-2.62-11.22-3.93-16.79-.45,.12-1.73,.47-1.3,.35,1.15-.31,2.12-.6,2.11-.63-.07-.31-.15-.63-.22-.94,0-.03-.79,.15-1.78,.41-.01-.06-.05-.12-.08-.18-.23-1-.47-2.03-.71-3.04,.04-2.61,1.62-4.95,4.05-5.62,2.43-.67,4.92,.55,6.1,2.82,.24,1.04,.49,2.08,.73,3.09,0,.07,0,.14-.01,.21,.15-.04,.31-.08,.47-.13-1.01,.27-1.75,.5-1.74,.54,.07,.32,.14,.6,.22,.91,0,.03,.99-.2,2.2-.52-.47,.13-.92,.25-1.35,.36Z"/><path class="f" d="M246.18,85.37c-1.39-2.62-4.29-3.99-7.15-3.2,2.66-.74,5.33-1.47,8.05-2.22,.67,2.82,1.31,5.65,1.99,8.47,0,.03-.92,.18-2.05,.48h0c-.28-1.17-.56-2.37-.83-3.53Z"/><path class="f" d="M239.04,82.17c2.84-.79-4.74,3.5-4.81,6.46-1.35-2.57-4.21-3.97-7.02-3.19,3.91-1.08,7.85-2.17,11.83-3.27Z"/><path class="f" d="M227.21,85.43c2.81-.78-4.65,3.46-4.73,6.39-1.35-2.54-4.15-3.94-6.91-3.14,3.84-1.1,7.74-2.17,11.64-3.25Z"/><path class="f" d="M215.57,88.69c2.74-.75-4.58,3.38-4.62,6.28-1.34-2.52-4.09-3.88-6.81-3.13,3.78-1.04,7.6-2.1,11.43-3.16Z"/><path class="f" d="M204.13,91.84c-2.7,.75-4.49,3.34-4.52,6.25,.26,1.13,.53,2.28,.8,3.41h0c-1.07,.29-1.89,.54-1.88,.57-.63-2.69-1.27-5.44-1.91-8.16,2.5-.69,10.03-2.78,7.51-2.08Z"/><path class="f" d="M199.58,102.86c1.3,5.57,2.59,11.17,3.9,16.77-.27,.07-.54,.14-.81,.21-1.29-5.6-2.6-11.22-3.91-16.81,0-.03,.97-.2,2.16-.52-.45,.12-.9,.24-1.33,.36Z"/><path class="f" d="M252.54,107.07c-1.37-5.8-2.75-11.61-4.12-17.41-.49,.13-1.88,.5-1.41,.38,1.25-.34,2.28-.65,2.27-.68,1.38,5.84,2.77,11.68,4.14,17.49-.31,.08-.6,.15-.89,.23Z"/></g></g></g><g><path class="e" d="M149.77,106.91c15.23-4.21,30.85-8.56,46.84-12.98,16.4-4.53,33.21-9.21,50.49-13.99-.22-.94-.44-1.88-.67-2.86-17.26,4.84-34.07,9.54-50.45,14.13-15.97,4.47-31.59,8.83-46.81,13.08,.21,.91,.41,1.78,.61,2.62Z"/><g><g><g><g><path class="h" d="M154.71,88.66c.66-.19,1.34-.39,2.04-.59,1.02,4.47,2.05,8.94,3.08,13.41-.68,.19-1.37,.38-2.03,.57-1.03-4.46-2.06-8.92-3.09-13.38Z"/><path class="l" d="M155.73,88.36h0c.92-.26,1.64-.51,1.64-.54-.05-.24-.11-.49-.17-.76,0-.03-.75,.15-1.66,.42h0c-.92,.26-1.66,.51-1.65,.55,.06,.27,.12,.52,.18,.76,0,.03,.76-.16,1.68-.42Z"/></g><path class="i" d="M155.18,84.86c.03-2.09,1.25-3.97,3.12-4.52,1.87-.55,3.79,.41,4.71,2.23,.19,.83,.38,1.62,.57,2.45,0,.03,0,.1,0,.13,.06-.02,.09-.03,.14-.04,.11-.03,.23-.07,.36-.1h0c-.21-.92-.42-1.8-.63-2.72-1.04-2.01-3.18-3.09-5.26-2.46-2.07,.63-3.46,2.71-3.49,5.02,.21,.91,.42,1.82,.62,2.7h0c.07-.02,.13-.04,.2-.06,.09-.02,.18-.05,.29-.08-.02-.02-.06-.08-.06-.11-.18-.79-.37-1.61-.56-2.43Z"/><g><path class="h" d="M162.88,86.29c.68-.2,1.36-.39,2.06-.6,1.04,4.5,2.07,9,3.11,13.49-.7,.2-1.39,.39-2.07,.58-1.04-4.49-2.06-8.98-3.1-13.47Z"/><path class="l" d="M163.92,85.98h0c.91-.26,1.66-.51,1.65-.54-.05-.24-.11-.49-.18-.77,0-.03-.77,.16-1.68,.42h0c-.93,.27-1.68,.52-1.67,.55,.06,.27,.12,.52,.18,.76,0,.03,.77-.16,1.7-.43Z"/></g><g><path class="h" d="M174,83.03c-.69,.23-1.39,.43-2.09,.64,1.05,4.52,2.1,9.04,3.15,13.53,.7-.2,1.39-.39,2.1-.59-1.04-4.5-2.1-9.02-3.16-13.58Z"/><path class="l" d="M172.94,83.37h0c-.93,.27-1.69,.46-1.7,.43-.06-.25-.11-.49-.18-.77,0-.03,.74-.28,1.67-.55h0c.95-.28,1.73-.47,1.74-.44,.06,.28,.12,.52,.18,.77,0,0-.76,.28-1.71,.56Z"/></g><path class="i" d="M171.89,79.96c-.94-1.83-2.87-2.8-4.77-2.24-1.9,.56-3.18,2.48-3.19,4.57,.19,.83,.38,1.62,.57,2.45,0,.03,.04,.09,.06,.11-.05,.01-.09,.03-.12,.04-.13,.04-.25,.07-.36,.1h0c-.21-.92-.42-1.8-.63-2.72,.02-2.33,1.43-4.47,3.54-5.1,2.11-.63,4.28,.47,5.33,2.5,.22,.92,.42,1.81,.64,2.74h0c-.07,.02-.14,.04-.21,.06-.09,.02-.18,.05-.29,.08,.01-.04,.01-.1,0-.13-.19-.83-.38-1.63-.57-2.46Z"/><g><path class="h" d="M183,80.42c-.72,.21-1.42,.41-2.12,.61,1.07,4.58,2.1,9.11,3.16,13.66,.7-.2,1.4-.39,2.14-.59-1.06-4.56-2.12-9.09-3.19-13.68Z"/><path class="l" d="M181.92,80.73h0c-.95,.27-1.71,.46-1.72,.43-.06-.25-.11-.47-.17-.74,0-.03,.74-.28,1.69-.56h0c.95-.28,1.75-.47,1.75-.44,.06,.25,.12,.5,.17,.74,0,.03-.77,.29-1.73,.57Z"/></g><path class="i" d="M180.84,77.34c-.95-1.87-2.89-2.82-4.81-2.25-1.92,.57-3.21,2.5-3.23,4.61,.19,.8,.38,1.63,.57,2.46,.03,.02,.06,.08,.08,.11-.05,.01-.09,.02-.14,.04-.13,.03-.23,.07-.36,.1h0c-.21-.92-.42-1.81-.64-2.74,.03-2.35,1.45-4.51,3.59-5.14,2.14-.63,4.33,.44,5.39,2.51,.21,.9,.43,1.83,.64,2.76h0c-.07,.02-.14,.04-.22,.06-.11,.03-.2,.06-.31,.09,.01-.04,.01-.1,0-.14-.2-.83-.39-1.67-.58-2.48Z"/><g><path class="h" d="M192.15,77.77c-.74,.21-1.45,.42-2.15,.62,1.06,4.62,2.12,9.17,3.19,13.75,.72-.2,1.44-.4,2.16-.6-1.07-4.59-2.14-9.15-3.2-13.78Z"/><path class="l" d="M191.05,78.09h0c-.97,.28-1.75,.47-1.75,.44-.06-.25-.12-.5-.18-.78,0-.03,.76-.29,1.73-.57h0c.97-.28,1.76-.48,1.77-.45,.06,.28,.12,.53,.18,.78,0,.03-.78,.29-1.74,.57Z"/></g><path class="i" d="M189.96,74.64c-.97-1.85-2.95-2.8-4.9-2.22-1.95,.58-3.25,2.49-3.28,4.65,.19,.81,.38,1.64,.58,2.48,.02,.03,.06,.08,.06,.11-.03,.01-.07,.02-.11,.03-.12,.04-.25,.07-.37,.11h0c-.22-.93-.43-1.86-.64-2.76,.02-2.39,1.47-4.54,3.64-5.19,2.16-.64,4.41,.43,5.48,2.48,.22,.94,.44,1.87,.65,2.78h0c-.07,.02-.14,.04-.21,.06-.11,.03-.2,.06-.31,.09,.01-.04,0-.1,0-.14-.19-.81-.39-1.65-.58-2.5Z"/></g><path class="g" d="M163.92,85.98c.91-.26,1.66-.51,1.65-.54-.05-.24-.11-.49-.18-.77,0-.03-.58,.14-1.32,.32h0c-.13,.04-.25,.07-.36,.1-.06,.02-.11,.03-.14,.04-.86,.25-1.53,.48-1.53,.51,.06,.27,.12,.52,.18,.76,0,.03,.77-.16,1.7-.43Zm2.06,13.77c-2.07,.58-4.12,1.15-6.15,1.71-1.03-4.47-2.07-8.93-3.08-13.41-.34,.1-.68,.2-1.02,.3,.92-.26,1.64-.51,1.64-.54-.05-.24-.11-.49-.17-.76,0-.03-.6,.14-1.38,.34-.02-.02-.06-.08-.06-.11-.18-.79-.37-1.61-.56-2.43,.03-2.09,1.26-3.98,3.12-4.52,1.88-.56,3.79,.41,4.71,2.23,.19,.83,.38,1.62,.57,2.45,0,.03,0,.1,0,.13,.06-.02,.09-.03,.14-.04,.11-.03,.23-.07,.36-.1h0c.14-.04,.32-.09,.48-.14-.02-.03-.06-.08-.06-.11-.19-.82-.37-1.62-.57-2.45,.01-2.09,1.27-4,3.19-4.57,1.88-.56,3.83,.41,4.77,2.24,.19,.83,.38,1.63,.57,2.46,0,.03,0,.1,0,.13-.8,.27-1.39,.44-1.39,.47,.06,.28,.12,.52,.18,.77,0,.03,.77-.16,1.7-.43,.34-.1-.68,.2-1.04,.3,1.05,4.52,2.1,9.04,3.15,13.53-2.34,.65-4.66,1.3-6.99,1.98-1.04-4.49-2.07-9-3.11-13.49-.34,.1-.68,.2-1.02,.3-.36,.1-.7,.2-1.04,.3,1.04,4.49,2.06,8.98,3.1,13.47Z"/><path class="g" d="M174,83.03c1.06,4.56,2.11,9.09,3.16,13.58,2.29-.63,4.59-1.28,6.89-1.92-1.06-4.55-2.1-9.08-3.16-13.66,.34-.1,1.38-.4,1.04-.3-.95,.27-1.71,.46-1.72,.43-.06-.25-.11-.47-.17-.74,0-.03,.6-.21,1.38-.47,.01-.04,.01-.1,0-.14-.2-.83-.39-1.67-.58-2.48-.95-1.87-2.89-2.82-4.81-2.25-1.93,.57-3.21,2.5-3.23,4.61,.19,.8,.38,1.63,.57,2.46,.03,.02,.06,.08,.08,.11-.14,.04-.27,.08-.38,.11,.78-.19,1.39-.37,1.4-.34,.06,.28,.12,.52,.18,.77,0,0-.76,.28-1.71,.56,.36-.1,.7-.2,1.05-.34Z"/><path class="g" d="M183,80.42c1.07,4.59,2.13,9.12,3.19,13.68,2.3-.64,4.64-1.29,7-1.95-1.07-4.58-2.13-9.14-3.19-13.75,.34-.1,1.42-.41,1.06-.31-.97,.28-1.75,.47-1.75,.44-.06-.25-.12-.5-.18-.78,0-.03,.62-.21,1.42-.48,.01-.04,0-.1,0-.14-.19-.81-.39-1.65-.58-2.5-.97-1.85-2.95-2.8-4.9-2.22-1.95,.58-3.25,2.49-3.28,4.65,.19,.81,.38,1.64,.58,2.48,.02,.03,.06,.08,.06,.11-.11,.03-.23,.07-.36,.11,.8-.2,1.41-.38,1.41-.35,.06,.25,.12,.5,.17,.74,0,.03-.77,.29-1.73,.57,.36-.1,.7-.2,1.08-.31Z"/><path class="f" d="M154.7,84.83c.02-2.31,1.41-4.41,3.49-5.02-1.95,.58-3.88,1.15-5.82,1.72,.51,2.18,1,4.34,1.5,6.49,0,.03,.64-.22,1.46-.49h0c-.2-.88-.41-1.79-.62-2.7Z"/><path class="f" d="M158.19,79.81c-2.08,.61,4.22,.45,5.26,2.46,.02-2.33,1.43-4.47,3.54-5.1-2.95,.87-5.88,1.78-8.8,2.64Z"/><path class="f" d="M166.99,77.17c-2.11,.63,4.28,.47,5.33,2.5,.03-2.35,1.44-4.51,3.59-5.14-2.99,.89-5.96,1.77-8.92,2.64Z"/><path class="f" d="M175.9,74.53c-2.13,.63,4.33,.44,5.39,2.51,.02-2.39,1.49-4.55,3.64-5.19-3.03,.9-6.03,1.79-9.02,2.67Z"/><path class="f" d="M184.93,71.86c2.18-.65,4.41,.43,5.48,2.48,.22,.94,.44,1.87,.65,2.78h0c.87-.22,1.55-.42,1.56-.38-.52-2.22-1.04-4.44-1.56-6.69-2.04,.6-8.16,2.42-6.12,1.81Z"/><path class="f" d="M192.15,77.77c1.06,4.63,2.13,9.19,3.2,13.78,.22-.06,.45-.13,.68-.19-1.08-4.62-2.15-9.22-3.23-13.84,0-.03-.78,.29-1.74,.57,.36-.1,.72-.21,1.09-.32Z"/><path class="f" d="M157.8,102.04c-1.03-4.46-2.06-8.92-3.09-13.38,.34-.1,1.38-.4,1.02-.3-.91,.26-1.67,.45-1.68,.42,1.03,4.46,2.07,8.95,3.1,13.43,.2-.05,.41-.12,.65-.18Z"/></g><g><g><g><path class="h" d="M233.28,65.81c-.79,.23-1.54,.45-2.29,.67,1.12,4.76,2.23,9.45,3.34,14.18,.76-.21,1.51-.42,2.29-.64-1.1-4.74-2.21-9.44-3.34-14.21Z"/><path class="l" d="M232.11,66.15h0c-1.03,.29-1.86,.5-1.86,.47-.06-.26-.12-.51-.18-.77,0-.03,.83-.31,1.83-.6h0c1.02-.3,1.88-.55,1.89-.51,.07,.29,.13,.55,.19,.81,0,.03-.85,.31-1.87,.61Z"/></g><path class="i" d="M230.99,62.59c-1.03-1.9-3.13-2.86-5.2-2.25-2.08,.61-3.47,2.6-3.48,4.82,.2,.83,.4,1.69,.6,2.56,0,.03,.04,.09,.07,.12-.05,.02-.09,.03-.14,.04-.13,.04-.27,.08-.39,.11h0c-.23-.96-.45-1.92-.67-2.84,.04-2.44,1.58-4.71,3.88-5.39,2.31-.68,4.68,.4,5.82,2.55,.22,.93,.45,1.9,.67,2.87h0c-.07,.02-.15,.04-.23,.07-.09,.02-.2,.06-.33,.09,.03-.04,.03-.11,.02-.14-.2-.87-.41-1.74-.61-2.61Z"/><g><path class="h" d="M224.17,68.45c-.75,.22-1.51,.44-2.26,.66,1.11,4.73,2.21,9.39,3.32,14.09,.76-.21,1.49-.41,2.27-.63-1.11-4.7-2.21-9.38-3.32-14.11Z"/><path class="l" d="M223.04,68.78h0c-1.03,.29-1.84,.5-1.85,.47-.05-.22-.11-.48-.18-.77,0-.03,.79-.3,1.81-.6h0c1-.29,1.85-.5,1.86-.47,.07,.29,.12,.51,.18,.77,0,.03-.83,.31-1.83,.6Z"/></g><g><path class="h" d="M212.17,71.96c.74-.21,1.47-.42,2.25-.65,1.09,4.67,2.17,9.34,3.26,13.98-.76,.21-1.49,.42-2.23,.62-1.09-4.63-2.18-9.29-3.28-13.96Z"/><path class="l" d="M213.31,71.63h0c.99-.29,1.8-.56,1.8-.59-.06-.25-.12-.51-.19-.79,0-.03-.84,.18-1.83,.46h0c-1,.29-1.82,.56-1.81,.59,.07,.29,.13,.54,.19,.79,0,.03,.82-.17,1.84-.47Z"/></g><path class="i" d="M212.73,67.97c.04-2.19,1.41-4.19,3.45-4.79,2.04-.6,4.12,.35,5.11,2.28,.2,.83,.4,1.69,.6,2.56,0,.03,0,.1,0,.14,.05-.02,.09-.03,.14-.04,.13-.04,.27-.08,.39-.12h0c-.23-.96-.45-1.92-.67-2.84-1.11-2.1-3.43-3.22-5.71-2.55-2.28,.68-3.79,2.93-3.84,5.35,.22,.95,.44,1.87,.66,2.82h0c.07-.02,.14-.04,.22-.06,.09-.02,.2-.06,.31-.09-.02-.03-.06-.09-.07-.12-.2-.86-.39-1.68-.6-2.54Z"/><g><path class="h" d="M202.76,74.69c.72-.21,1.43-.42,2.19-.63,1.09,4.64,2.17,9.27,3.25,13.88-.75,.21-1.48,.41-2.21,.62-1.08-4.6-2.14-9.23-3.23-13.86Z"/><path class="l" d="M203.86,74.37h0c.99-.28,1.79-.55,1.78-.58-.06-.25-.12-.5-.18-.79,0-.03-.82,.17-1.81,.46h0c-.97,.28-1.78,.55-1.78,.58,.06,.28,.12,.54,.18,.79,0,.03,.84-.18,1.81-.46Z"/></g><path class="i" d="M203.29,70.73c.05-2.17,1.39-4.15,3.4-4.75,2.02-.6,4.08,.39,5.07,2.26,.2,.86,.39,1.68,.6,2.54-.01,.04-.01,.11-.02,.14,.05-.02,.09-.03,.14-.04,.13-.04,.25-.07,.39-.11h0c-.22-.95-.44-1.87-.66-2.82-1.1-2.09-3.4-3.2-5.65-2.54-2.25,.67-3.74,2.9-3.79,5.3,.22,.94,.44,1.86,.66,2.8h0c.07-.02,.14-.04,.21-.06,.11-.03,.2-.06,.31-.09-.03-.03-.06-.09-.07-.12-.2-.85-.39-1.67-.59-2.52Z"/><g><path class="h" d="M193.47,77.38c.72-.21,1.43-.41,2.17-.63,1.08,4.6,2.15,9.21,3.23,13.81-.74,.21-1.46,.41-2.18,.61-1.07-4.6-2.15-9.19-3.22-13.79Z"/><path class="l" d="M194.57,77.07h0c.97-.28,1.75-.54,1.74-.57-.06-.25-.12-.5-.18-.78,0-.03-.8,.17-1.77,.45h0c-.97,.28-1.75,.54-1.74,.57,.06,.28,.12,.53,.18,.78,0,.03,.8-.17,1.77-.45Z"/></g><path class="i" d="M194.01,73.45c.03-2.15,1.33-4.11,3.32-4.7,1.99-.59,4.03,.39,5.01,2.26,.2,.85,.4,1.7,.59,2.52-.01,.04-.01,.11,0,.14,.04,0,.07-.02,.13-.03,.13-.04,.25-.07,.38-.11h0c-.22-.95-.44-1.86-.66-2.8-1.08-2.08-3.35-3.15-5.56-2.5-2.21,.66-3.68,2.83-3.72,5.22,.22,.94,.44,1.88,.65,2.79h0c.07-.02,.14-.04,.22-.06,.11-.03,.2-.06,.3-.09-.02-.02-.04-.09-.06-.11-.19-.81-.39-1.66-.58-2.5Z"/></g><path class="g" d="M223.04,68.78c-1.03,.29-1.84,.5-1.85,.47-.05-.22-.11-.48-.18-.77,0-.03,.6-.21,1.42-.48h0c.13-.04,.27-.08,.39-.11,.03,0,.09-.03,.14-.04,.93-.27,1.71-.46,1.72-.43,.07,.29,.12,.51,.18,.77,0,.03-.83,.31-1.83,.6Zm4.45,13.78c2.27-.63,4.55-1.27,6.84-1.9-1.12-4.73-2.22-9.42-3.34-14.18,.38-.11,.75-.22,1.13-.33-1.03,.29-1.86,.5-1.86,.47-.06-.26-.12-.51-.18-.77,0-.03,.65-.22,1.51-.51,.03-.04,.03-.11,.02-.14-.2-.87-.41-1.74-.61-2.61-1.03-1.9-3.13-2.86-5.2-2.25-2.08,.61-3.47,2.6-3.48,4.82,.2,.83,.4,1.69,.6,2.56,0,.03,.04,.09,.07,.12-.05,.02-.09,.03-.14,.04-.13,.04-.27,.08-.39,.11h0c-.2,.06-.38,.11-.54,.16,0-.04,.01-.11,0-.14-.2-.86-.41-1.73-.6-2.56-.99-1.93-3.07-2.88-5.11-2.28-2.04,.6-3.41,2.6-3.45,4.79,.2,.86,.39,1.68,.6,2.54,0,.03,.04,.09,.07,.12,.87-.22,1.51-.41,1.52-.37,.07,.29,.13,.54,.19,.79,0,.03-.81,.3-1.8,.59-.37,.11,.74-.21,1.12-.32,1.09,4.67,2.17,9.34,3.26,13.98,2.5-.7,5.02-1.4,7.54-2.1-1.11-4.7-2.21-9.36-3.32-14.09,.38-.11,.75-.22,1.13-.33,.37-.11,.75-.22,1.13-.33,1.12,4.73,2.22,9.41,3.32,14.11Z"/><path class="g" d="M212.17,71.96c1.1,4.66,2.19,9.32,3.28,13.96-2.45,.68-4.86,1.35-7.25,2.02-1.08-4.6-2.16-9.24-3.25-13.88-.36,.1-1.45,.42-1.09,.32,.99-.28,1.79-.55,1.78-.58-.06-.25-.12-.5-.18-.79,0-.03-.65,.15-1.5,.37-.03-.03-.06-.09-.07-.12-.2-.85-.39-1.67-.59-2.52,.05-2.17,1.4-4.15,3.4-4.75,2.02-.6,4.08,.39,5.07,2.26,.2,.86,.39,1.68,.6,2.54-.01,.04-.01,.11-.02,.14,.13-.04,.25-.07,.4-.12-.82,.27-1.46,.46-1.46,.49,.07,.29,.13,.54,.19,.79,0,.03,.82-.17,1.84-.47-.39,.12-.75,.22-1.13,.33Z"/><path class="g" d="M202.76,74.69c1.08,4.63,2.15,9.26,3.23,13.86-2.39,.67-4.76,1.36-7.12,2.02-1.08-4.6-2.15-9.21-3.23-13.81-.36,.11-1.43,.42-1.08,.31,.97-.28,1.75-.54,1.74-.57-.06-.25-.12-.5-.18-.78,0-.03-.63,.15-1.47,.36-.02-.02-.04-.09-.06-.11-.19-.81-.39-1.66-.58-2.5,.03-2.15,1.35-4.11,3.32-4.7,2.01-.59,4.03,.39,5.01,2.26,.2,.85,.4,1.7,.59,2.52-.01,.04-.01,.11,0,.14,.13-.03,.25-.07,.38-.11-.8,.26-1.44,.45-1.44,.48,.06,.28,.12,.54,.18,.79,0,.03,.84-.18,1.81-.46-.38,.11-.74,.21-1.09,.32Z"/><path class="f" d="M231.46,62.31c-1.14-2.14-3.48-3.24-5.82-2.55,2.19-.65,4.35-1.29,6.52-1.93,.55,2.32,1.09,4.61,1.63,6.9,0,.03-.72,.21-1.66,.45h0c-.23-.97-.46-1.93-.67-2.87Z"/><path class="f" d="M225.64,59.76c2.29-.68-3.84,2.95-3.88,5.39-1.11-2.1-3.44-3.22-5.71-2.55,3.17-.94,6.39-1.89,9.59-2.84Z"/><path class="f" d="M216.05,62.61c2.29-.68-3.79,2.93-3.84,5.35-1.1-2.09-3.41-3.2-5.65-2.54,3.13-.93,6.3-1.87,9.49-2.81Z"/><path class="f" d="M206.56,65.42c2.25-.67-3.74,2.9-3.79,5.3-1.08-2.08-3.34-3.16-5.56-2.5,3.12-.92,6.22-1.87,9.35-2.8Z"/><path class="f" d="M197.21,68.22c-2.2,.66-3.68,2.83-3.72,5.22,.22,.94,.44,1.88,.65,2.79h0c-.85,.28-1.54,.48-1.53,.51-.52-2.22-1.04-4.44-1.56-6.69,2.04-.61,8.22-2.44,6.16-1.83Z"/><path class="f" d="M193.47,77.38c1.07,4.6,2.15,9.19,3.22,13.79-.23,.07-.45,.13-.67,.19-1.08-4.62-2.15-9.22-3.23-13.84,0-.03,.8-.17,1.77-.45-.38,.11-.74,.21-1.09,.32Z"/><path class="f" d="M236.61,80.02c-1.1-4.74-2.21-9.44-3.34-14.21-.41,.12-1.54,.45-1.16,.34,1.02-.29,1.88-.58,1.87-.61,1.13,4.77,2.25,9.51,3.37,14.28-.25,.07-.5,.14-.74,.21Z"/></g></g></g><g><path class="e" d="M151.39,81.83c12.93-3.86,26.17-7.77,39.64-11.78,13.78-4.1,27.87-8.29,42.26-12.55-.18-.77-.37-1.58-.56-2.35-14.38,4.29-28.47,8.47-42.24,12.59-13.47,4.03-26.69,7.99-39.62,11.84,.17,.76,.35,1.52,.52,2.24Z"/><g><g><g><g><path class="h" d="M155.56,66.16c.59-.18,1.16-.36,1.75-.54,.88,3.81,1.76,7.6,2.64,11.39-.59,.17-1.18,.35-1.76,.52-.87-3.78-1.75-7.56-2.63-11.37Z"/><path class="l" d="M156.44,65.89h0c.77-.24,1.41-.44,1.4-.46-.05-.21-.09-.4-.14-.61,0-.03-.66,.14-1.42,.37h0c-.79,.24-1.4,.47-1.4,.49,.05,.21,.1,.43,.14,.61,0,.03,.63-.16,1.42-.4Z"/></g><path class="i" d="M155.98,62.96c.03-1.78,1.06-3.41,2.65-3.9,1.6-.5,3.22,.28,4.02,1.84,.16,.67,.32,1.38,.48,2.05-.01,.03,0,.1,0,.13,.04-.01,.07-.02,.11-.03,.12-.04,.21-.06,.3-.09h0c-.18-.77-.36-1.53-.53-2.3-.87-1.7-2.71-2.61-4.47-2.06-1.77,.55-2.93,2.39-2.95,4.36,.18,.76,.35,1.52,.53,2.29h0c.05-.02,.11-.03,.16-.05,.07-.02,.16-.05,.25-.08-.02-.02-.04-.09-.06-.11-.15-.67-.32-1.37-.47-2.04Z"/><g><path class="h" d="M162.52,64.02c.59-.18,1.16-.36,1.77-.54,.88,3.81,1.77,7.64,2.66,11.45-.61,.18-1.2,.36-1.77,.53-.88-3.8-1.77-7.63-2.65-11.43Z"/><path class="l" d="M163.39,63.75h0c.79-.24,1.43-.44,1.42-.47-.05-.21-.1-.43-.14-.61,0-.03-.66,.14-1.44,.38h0c-.77,.24-1.42,.47-1.41,.5,.04,.18,.09,.4,.14,.61,0,.03,.67-.17,1.43-.41Z"/></g><g><path class="h" d="M171.94,61.12c-.61,.19-1.2,.37-1.77,.55,.87,3.83,1.77,7.68,2.65,11.5,.59-.18,1.18-.35,1.79-.53-.89-3.83-1.79-7.69-2.68-11.52Z"/><path class="l" d="M171.07,61.39h0c-.81,.25-1.45,.45-1.45,.42-.05-.21-.1-.43-.15-.65,0-.03,.63-.26,1.43-.51h0c.77-.24,1.44-.41,1.44-.38,.05,.22,.1,.43,.15,.65,0,.03-.65,.23-1.42,.47Z"/></g><path class="i" d="M170.15,58.53c-.8-1.54-2.42-2.32-4.03-1.82-1.61,.5-2.7,2.13-2.7,3.94,.16,.68,.32,1.38,.48,2.06,0,.03,.04,.09,.06,.11-.03,.01-.07,.02-.12,.04-.09,.03-.2,.06-.3,.09h0c-.18-.77-.36-1.53-.53-2.3,.03-1.99,1.23-3.84,3.01-4.4,1.78-.56,3.61,.33,4.51,2.06,.18,.77,.36,1.54,.53,2.28h0c-.06,.01-.11,.03-.16,.05-.09,.03-.18,.05-.27,.08,.01-.04,0-.07,.01-.1-.16-.68-.32-1.39-.49-2.1Z"/><g><path class="h" d="M179.56,58.78c-.61,.19-1.21,.37-1.8,.55,.89,3.85,1.8,7.72,2.7,11.57,.59-.17,1.18-.35,1.81-.54-.9-3.85-1.8-7.73-2.7-11.58Z"/><path class="l" d="M178.65,59.06h0c-.79,.24-1.46,.45-1.47,.42-.05-.22-.1-.43-.15-.65,0-.03,.66-.27,1.45-.51h0c.8-.25,1.47-.42,1.48-.39,.05,.22,.1,.44,.15,.65,0,.03-.65,.23-1.45,.48Z"/></g><path class="i" d="M177.75,56.17c-.8-1.55-2.46-2.33-4.08-1.82-1.62,.51-2.73,2.14-2.74,3.93,.16,.71,.33,1.42,.49,2.1,0,0,.03,.06,.04,.09-.03,.01-.07,.02-.11,.03-.11,.03-.21,.07-.3,.1h0c-.17-.74-.35-1.51-.53-2.28,.02-2.03,1.23-3.86,3.04-4.43,1.81-.57,3.65,.32,4.54,2.04,.19,.81,.37,1.58,.54,2.33h0c-.05,.02-.11,.03-.18,.05-.09,.03-.16,.05-.25,.08,0-.03,0-.1,0-.13-.15-.65-.32-1.37-.48-2.08Z"/><g><path class="h" d="M187.27,56.4c-.62,.19-1.23,.38-1.82,.56,.9,3.87,1.81,7.77,2.71,11.6,.59-.17,1.2-.36,1.83-.54-.9-3.84-1.81-7.75-2.71-11.62Z"/><path class="l" d="M186.34,56.69h0c-.8,.25-1.46,.45-1.47,.42-.05-.22-.1-.44-.15-.66,0-.03,.65-.26,1.45-.51h0c.82-.25,1.51-.43,1.51-.4,.05,.22,.1,.44,.15,.66,0,.03-.67,.24-1.49,.49Z"/></g><path class="i" d="M185.41,53.8c-.79-1.56-2.48-2.34-4.12-1.83-1.64,.51-2.75,2.16-2.77,3.96,.17,.71,.33,1.43,.48,2.08,0,.03,.04,.09,.05,.12-.04,.01-.07,.02-.11,.03-.11,.03-.2,.06-.3,.09h0c-.17-.74-.35-1.52-.54-2.33,.01-2,1.24-3.85,3.08-4.43,1.83-.58,3.72,.31,4.61,2.04,.19,.81,.37,1.59,.54,2.34h0c-.05,.02-.11,.03-.18,.06-.09,.03-.18,.06-.25,.08,0-.03,0-.1-.01-.13-.15-.66-.32-1.37-.49-2.09Z"/></g><path class="g" d="M163.39,63.75c.79-.24,1.43-.44,1.42-.47-.05-.21-.1-.43-.14-.61,0-.03-.48,.08-1.14,.28h0c-.11,.03-.2,.06-.3,.09-.04,.01-.07,.02-.11,.03-.73,.22-1.31,.44-1.3,.47,.04,.18,.09,.4,.14,.61,0,.03,.67-.17,1.43-.41Zm1.78,11.7c-1.75,.52-3.49,1.04-5.22,1.56-.88-3.78-1.76-7.57-2.64-11.39-.3,.09-.59,.18-.87,.27,.77-.24,1.41-.44,1.4-.46-.05-.21-.09-.4-.14-.61,0-.03-.51,.09-1.17,.3-.02-.02-.04-.09-.06-.11-.15-.67-.32-1.37-.47-2.04,.03-1.78,1.06-3.41,2.65-3.9,1.6-.5,3.22,.28,4.02,1.84,.16,.67,.32,1.38,.48,2.05-.01,.03,0,.1,0,.13,.04-.01,.07-.02,.11-.03,.11-.03,.2-.06,.3-.09h0c.14-.04,.27-.08,.43-.13-.02-.02-.06-.08-.06-.11-.16-.68-.32-1.38-.48-2.06,0-1.81,1.08-3.43,2.7-3.94,1.6-.5,3.24,.28,4.03,1.82,.17,.71,.33,1.42,.49,2.1-.01,.04,0,.07-.01,.1-.66,.2-1.17,.39-1.16,.43,.05,.22,.1,.43,.15,.65,0,.03,.65-.17,1.45-.42,.32-.1-.61,.19-.89,.28,.87,3.83,1.77,7.68,2.65,11.5-1.97,.59-3.93,1.17-5.88,1.75-.88-3.8-1.78-7.64-2.66-11.45-.32,.1-.61,.19-.89,.27-.28,.09-.59,.18-.87,.27,.88,3.8,1.77,7.63,2.65,11.43Z"/><path class="g" d="M171.94,61.12c.89,3.83,1.79,7.69,2.68,11.52,1.93-.58,3.87-1.15,5.83-1.74-.9-3.85-1.8-7.72-2.7-11.57,.28-.09,1.19-.37,.89-.27-.79,.24-1.46,.45-1.47,.42-.05-.22-.1-.43-.15-.65,0-.03,.52-.23,1.2-.44,0-.03,0-.1,0-.13-.15-.65-.32-1.37-.48-2.08-.8-1.55-2.47-2.32-4.08-1.82-1.64,.51-2.73,2.14-2.74,3.93,.16,.71,.33,1.42,.49,2.1,0,0,.03,.06,.04,.09-.11,.03-.21,.06-.32,.1,.68-.21,1.18-.33,1.19-.3,.05,.22,.1,.43,.15,.65,0,.03-.65,.23-1.42,.47,.28-.09,.59-.18,.87-.27Z"/><path class="g" d="M179.56,58.78c.9,3.85,1.8,7.73,2.7,11.58,1.95-.58,3.9-1.16,5.9-1.79-.9-3.83-1.81-7.73-2.71-11.6,.3-.09,1.19-.37,.89-.27-.8,.25-1.46,.45-1.47,.42-.05-.22-.1-.44-.15-.66,0-.03,.52-.23,1.2-.44,0-.03,0-.1-.01-.13-.15-.66-.32-1.37-.49-2.09-.79-1.56-2.48-2.34-4.12-1.83-1.64,.51-2.75,2.16-2.77,3.96,.17,.71,.33,1.43,.48,2.08,0,.03,.04,.09,.05,.12-.11,.03-.21,.07-.3,.1,.68-.21,1.18-.33,1.19-.3,.05,.22,.1,.44,.15,.65,0,.03-.65,.23-1.45,.48,.3-.09,.59-.18,.91-.28Z"/><path class="f" d="M155.58,62.95c.02-1.97,1.2-3.81,2.95-4.36-1.66,.52-3.3,1.03-4.94,1.55,.43,1.86,.86,3.72,1.28,5.54,0,.03,.52-.23,1.23-.45h0c-.18-.76-.35-1.53-.53-2.29Z"/><path class="f" d="M158.53,58.6c-1.78,.56,3.6,.35,4.47,2.06,.03-1.99,1.23-3.84,3.01-4.4-2.51,.79-5,1.56-7.48,2.34Z"/><path class="f" d="M166.01,56.25c-1.78,.56,3.61,.33,4.51,2.06,.02-2.03,1.2-3.85,3.04-4.43-2.53,.79-5.06,1.59-7.56,2.36Z"/><path class="f" d="M173.57,53.89c-1.8,.56,3.65,.32,4.54,2.04,.01-2,1.24-3.85,3.08-4.43-2.57,.8-5.11,1.6-7.62,2.39Z"/><path class="f" d="M181.19,51.5c1.84-.57,3.72,.31,4.61,2.04,.19,.81,.37,1.59,.54,2.34h0c.73-.22,1.33-.37,1.33-.34-.44-1.87-.87-3.75-1.32-5.66-1.73,.54-6.88,2.15-5.17,1.62Z"/><path class="f" d="M187.27,56.4c.91,3.87,1.82,7.78,2.71,11.62,.18-.05,.38-.11,.56-.17-.89-3.88-1.8-7.79-2.71-11.66,0-.03-.67,.24-1.49,.49,.3-.09,.61-.19,.93-.28Z"/><path class="f" d="M158.19,77.53c-.87-3.78-1.75-7.56-2.63-11.37,.28-.09,1.16-.36,.87-.27-.79,.24-1.41,.43-1.42,.4,.88,3.81,1.76,7.59,2.64,11.39,.16-.05,.36-.11,.54-.16Z"/></g><g><g><g><path class="h" d="M221.75,45.76c-.64,.2-1.28,.39-1.91,.59,.94,3.97,1.88,7.97,2.81,11.94,.63-.19,1.27-.38,1.92-.57-.94-3.98-1.88-7.98-2.82-11.96Z"/><path class="l" d="M220.8,46.05h0c-.86,.26-1.55,.48-1.56,.45-.05-.22-.1-.41-.15-.64,0-.03,.68-.28,1.54-.54h0c.86-.26,1.56-.45,1.57-.41,.05,.19,.1,.42,.16,.64,0,.03-.69,.25-1.55,.51Z"/></g><path class="i" d="M219.84,43.11c-.86-1.62-2.6-2.42-4.35-1.88-1.75,.54-2.87,2.27-2.91,4.13,.16,.7,.33,1.43,.5,2.13,.02,.03,.04,.09,.07,.12-.04,.01-.07,.02-.11,.03-.13,.04-.25,.08-.34,.11h0c-.19-.8-.38-1.59-.57-2.39,.03-2.06,1.31-4,3.24-4.61,1.93-.6,3.9,.33,4.83,2.1,.19,.8,.38,1.6,.57,2.4h0c-.05,.02-.11,.03-.16,.05-.09,.03-.18,.06-.29,.09,.01-.04,0-.1,0-.14-.17-.7-.34-1.44-.5-2.14Z"/><g><path class="h" d="M214.15,48.1c-.64,.2-1.27,.39-1.89,.58,.94,3.98,1.87,7.93,2.8,11.87,.62-.19,1.25-.37,1.9-.57-.93-3.95-1.86-7.91-2.8-11.89Z"/><path class="l" d="M213.22,48.38h0c-.85,.26-1.55,.48-1.56,.45-.04-.19-.1-.41-.15-.64,0-.03,.68-.28,1.54-.54h0c.82-.25,1.54-.44,1.55-.41,.06,.22,.1,.42,.15,.64,0,.03-.7,.25-1.53,.5Z"/></g><g><path class="h" d="M204.11,51.22c.61-.18,1.23-.38,1.88-.58,.92,3.93,1.84,7.86,2.77,11.79-.64,.19-1.27,.38-1.9,.57-.92-3.92-1.82-7.85-2.74-11.78Z"/><path class="l" d="M205.04,50.93h0c.84-.26,1.53-.47,1.53-.5-.05-.22-.1-.45-.16-.67,0-.03-.71,.15-1.55,.41h0c-.82,.25-1.51,.5-1.5,.53,.05,.22,.1,.44,.15,.67,0,.03,.7-.18,1.53-.44Z"/></g><path class="i" d="M204.56,47.85c.04-1.85,1.17-3.56,2.88-4.1,1.71-.54,3.49,.27,4.3,1.87,.16,.7,.33,1.43,.5,2.13,0,.03,0,.1,0,.14,.03-.01,.07-.02,.14-.04,.11-.03,.21-.07,.32-.1h0c-.19-.8-.38-1.59-.57-2.39-.95-1.76-2.91-2.68-4.81-2.08-1.9,.59-3.17,2.52-3.21,4.57,.19,.82,.37,1.58,.56,2.37h0c.07-.02,.13-.04,.18-.05,.09-.03,.18-.06,.27-.08-.02-.03-.04-.09-.06-.12-.16-.7-.33-1.39-.5-2.12Z"/><g><path class="h" d="M196.19,53.66c.63-.19,1.23-.38,1.86-.57,.91,3.9,1.83,7.81,2.74,11.72-.63,.18-1.25,.37-1.86,.55-.91-3.9-1.83-7.8-2.74-11.7Z"/><path class="l" d="M197.14,53.37h0c.8-.25,1.48-.46,1.47-.49-.05-.22-.1-.44-.15-.66-.01-.03-.69,.15-1.5,.39h0c-.84,.26-1.51,.5-1.5,.53,.05,.22,.1,.44,.15,.66,0,.03,.69-.18,1.53-.43Z"/></g><path class="i" d="M196.65,50.31c.03-1.83,1.16-3.54,2.85-4.07,1.69-.53,3.43,.28,4.24,1.87,.17,.73,.34,1.42,.5,2.12,0,.03,0,.1,0,.14,.06-.02,.09-.03,.12-.04,.11-.03,.21-.07,.32-.1h0c-.19-.79-.36-1.55-.56-2.37-.93-1.75-2.85-2.69-4.73-2.08-1.89,.61-3.14,2.5-3.16,4.54,.19,.82,.37,1.57,.55,2.36h0c.06-.02,.11-.03,.18-.06,.09-.03,.16-.05,.25-.08,0-.03-.04-.09-.06-.11-.16-.69-.32-1.39-.49-2.11Z"/><g><path class="h" d="M188.39,56.06c.61-.19,1.21-.37,1.82-.56,.91,3.88,1.82,7.8,2.72,11.65-.63,.19-1.23,.37-1.84,.55-.9-3.85-1.79-7.76-2.7-11.63Z"/><path class="l" d="M189.32,55.77h0c.79-.24,1.46-.45,1.46-.48-.05-.22-.1-.44-.15-.66,0-.03-.69,.15-1.48,.39h0c-.82,.25-1.47,.49-1.47,.52,.05,.22,.1,.44,.15,.66,0,.03,.67-.17,1.49-.43Z"/></g><path class="i" d="M188.86,52.73c.01-1.82,1.09-3.5,2.77-4.02,1.67-.52,3.39,.29,4.22,1.86,.17,.72,.33,1.42,.49,2.11,0,.03,0,.1,.01,.13,.04-.01,.07-.02,.11-.03,.11-.03,.21-.06,.32-.1h0c-.18-.79-.36-1.54-.55-2.36-.91-1.74-2.83-2.63-4.7-2.04-1.87,.59-3.08,2.45-3.1,4.47,.19,.81,.37,1.6,.55,2.35h0c.05-.02,.11-.03,.18-.05,.09-.03,.18-.06,.25-.08,0-.03-.04-.09-.04-.12-.15-.66-.32-1.38-.49-2.1Z"/></g><path class="g" d="M213.22,48.38c-.85,.26-1.55,.48-1.56,.45-.04-.19-.1-.41-.15-.64,0-.03,.5-.22,1.2-.44h0c.11-.03,.23-.07,.34-.11,.04-.01,.07-.02,.11-.03,.79-.24,1.44-.41,1.44-.38,.06,.22,.1,.42,.15,.64,0,.03-.7,.25-1.53,.5Zm3.73,11.61c1.9-.57,3.79-1.13,5.71-1.7-.94-3.97-1.88-7.97-2.81-11.94,.3-.09,.63-.19,.96-.3-.86,.26-1.55,.48-1.56,.45-.05-.22-.1-.41-.15-.64,0-.03,.54-.23,1.25-.45,.01-.04,0-.1,0-.14-.17-.7-.34-1.44-.5-2.14-.86-1.62-2.6-2.42-4.35-1.88-1.75,.54-2.87,2.27-2.91,4.13,.16,.7,.33,1.43,.5,2.13,.02,.03,.04,.09,.07,.12-.04,.01-.07,.02-.11,.03-.11,.03-.23,.07-.34,.11h0c-.16,.05-.31,.09-.46,.14,0-.04,.01-.11,0-.14-.17-.7-.34-1.43-.5-2.13-.81-1.59-2.58-2.41-4.3-1.87-1.69,.53-2.84,2.25-2.88,4.1,.17,.73,.34,1.43,.5,2.12,.02,.03,.04,.09,.06,.12,.71-.22,1.28-.36,1.28-.33,.05,.22,.1,.44,.16,.67,0,.03-.69,.25-1.53,.5-.3,.09,.62-.19,.95-.29,.92,3.93,1.84,7.86,2.77,11.79,2.09-.62,4.19-1.25,6.3-1.88-.93-3.95-1.86-7.9-2.8-11.87,.32-.1,.63-.19,.96-.3,.3-.09,.63-.19,.93-.29,.94,3.99,1.87,7.94,2.8,11.89Z"/><path class="g" d="M204.11,51.22c.92,3.92,1.82,7.85,2.74,11.78-2.04,.61-4.06,1.21-6.06,1.81-.92-3.91-1.83-7.81-2.74-11.72-.3,.09-1.21,.37-.91,.28,.8-.25,1.48-.46,1.47-.49-.05-.22-.1-.44-.15-.66-.01-.03-.55,.1-1.25,.32,0-.03-.04-.09-.06-.11-.16-.69-.32-1.39-.49-2.11,.03-1.83,1.16-3.54,2.85-4.07,1.69-.53,3.43,.28,4.24,1.87,.17,.73,.34,1.42,.5,2.12,0,.03,0,.1,0,.14,.11-.03,.21-.06,.34-.11-.69,.22-1.22,.41-1.21,.44,.05,.22,.1,.44,.15,.67,0,.03,.7-.18,1.53-.44-.32,.1-.62,.19-.93,.28Z"/><path class="g" d="M196.19,53.66c.91,3.9,1.83,7.8,2.74,11.7-2.02,.6-4.01,1.19-5.99,1.79-.9-3.85-1.82-7.76-2.72-11.65-.3,.09-1.18,.36-.89,.27,.79-.24,1.46-.45,1.46-.48-.05-.22-.1-.44-.15-.66,0-.03-.55,.1-1.23,.31,0-.03-.04-.09-.04-.12-.15-.66-.32-1.38-.49-2.1,.01-1.82,1.11-3.51,2.77-4.02,1.69-.53,3.39,.29,4.22,1.86,.17,.72,.33,1.42,.49,2.11,0,.03,0,.1,.01,.13,.11-.03,.22-.07,.32-.1-.71,.22-1.22,.41-1.22,.44,.05,.22,.1,.44,.15,.66,0,.03,.69-.18,1.53-.43-.32,.1-.62,.19-.95,.29Z"/><path class="f" d="M220.22,42.86c-.93-1.77-2.89-2.71-4.83-2.1,1.8-.56,3.6-1.13,5.43-1.7,.46,1.96,.92,3.88,1.37,5.84,0,.03-.62,.12-1.4,.37h0c-.19-.8-.38-1.6-.57-2.4Z"/><path class="f" d="M215.39,40.76c1.92-.6-3.21,2.55-3.24,4.61-.95-1.76-2.91-2.68-4.81-2.08,2.68-.84,5.36-1.68,8.05-2.52Z"/><path class="f" d="M207.33,43.28c1.89-.59-3.17,2.52-3.21,4.57-.93-1.75-2.85-2.68-4.73-2.08,2.62-.82,5.27-1.66,7.94-2.49Z"/><path class="f" d="M199.39,45.77c1.89-.59-3.14,2.5-3.16,4.54-.91-1.74-2.82-2.63-4.7-2.04,2.6-.81,5.21-1.67,7.87-2.49Z"/><path class="f" d="M191.52,48.26c-1.85,.58-3.08,2.45-3.1,4.47,.19,.81,.37,1.6,.55,2.35h0c-.73,.23-1.29,.43-1.29,.46-.44-1.87-.87-3.75-1.32-5.66,1.73-.54,6.89-2.16,5.17-1.62Z"/><path class="f" d="M188.39,56.06c.91,3.88,1.8,7.79,2.7,11.63-.2,.06-.38,.11-.55,.16-.89-3.88-1.8-7.79-2.71-11.66,0-.03,.67-.17,1.49-.43-.32,.1-.62,.19-.93,.29Z"/><path class="f" d="M224.57,57.71c-.94-3.98-1.88-7.98-2.82-11.96-.32,.1-1.27,.39-.94,.29,.85-.26,1.55-.48,1.55-.51,.94,3.98,1.88,7.99,2.82,12-.21,.06-.43,.13-.61,.18Z"/></g></g></g><g><path class="f" d="M176.42,18.45c7.53-2.56,15.17-5.16,22.93-7.81,2.37,10.16,4.76,20.32,7.14,30.48-7.82,2.46-15.5,4.91-23.09,7.31-2.34-10.01-4.67-19.99-6.98-29.98Z"/><g><path class="h" d="M167.19,31.91c.88-.29,1.79-.59,2.69-.89,1.36,5.86,2.7,11.68,4.05,17.48-.89,.28-1.79,.57-2.69,.85-1.34-5.78-2.7-11.59-4.06-17.44Z"/><path class="l" d="M168.53,31.46h0c1.19-.39,2.17-.75,2.16-.82-.06-.28-.14-.62-.22-.96,0-.03-1.01,.27-2.19,.66h0c-1.2,.4-2.19,.76-2.18,.79,.08,.34,.16,.68,.22,.96,.01,.06,1.02-.23,2.22-.64Z"/></g><path class="i" d="M167.81,26.89c.03-2.75,1.66-5.34,4.13-6.18,2.47-.84,5.02,.35,6.25,2.66,.26,1.09,.5,2.15,.75,3.22,0,.07,0,.13-.01,.2,.05-.02,.11-.03,.16-.05,.18-.06,.34-.11,.5-.17h0c-.28-1.19-.56-2.37-.83-3.56-1.38-2.63-4.22-3.92-6.97-2.98-2.76,.94-4.57,3.8-4.6,6.87,.27,1.18,.55,2.38,.82,3.53h0c.09-.03,.18-.06,.26-.09,.12-.04,.25-.08,.37-.12-.03-.06-.06-.11-.1-.17-.24-1.02-.49-2.1-.73-3.16Z"/><g><path class="h" d="M177.99,28.32c.91-.3,1.83-.61,2.73-.91,1.38,5.91,2.74,11.75,4.12,17.62-.93,.29-1.83,.58-2.76,.87-1.36-5.83-2.71-11.69-4.09-17.59Z"/><path class="l" d="M179.36,27.86h0c1.22-.41,2.23-.77,2.21-.84-.06-.28-.14-.63-.23-.97,0-.03-1.03,.27-2.25,.68h0c-1.2,.4-2.21,.77-2.2,.8,.08,.34,.16,.69,.23,.97,.01,.06,1.03-.24,2.24-.64Z"/></g><g><path class="h" d="M192.77,23.41c-.94,.31-1.86,.62-2.8,.93,1.39,5.92,2.77,11.83,4.16,17.75,.92-.29,1.87-.59,2.79-.89-1.37-5.93-2.76-11.86-4.15-17.79Z"/><path class="l" d="M191.37,23.87h0c-1.26,.42-2.27,.72-2.29,.66-.07-.31-.15-.63-.23-.97,0-.03,.99-.4,2.25-.82h0c1.24-.41,2.27-.72,2.28-.69,.08,.35,.15,.66,.23,.98,.02,.06-1,.44-2.24,.85Z"/></g><path class="i" d="M189.95,19.42c-1.23-2.34-3.81-3.53-6.33-2.68-2.53,.86-4.19,3.48-4.22,6.22,.25,1.09,.5,2.16,.75,3.22,.03,.06,.06,.11,.1,.17-.07,.02-.12,.04-.18,.06-.16,.05-.32,.11-.48,.16h0c-.28-1.19-.56-2.37-.83-3.56,.04-3.11,1.88-6,4.69-6.96,2.81-.96,5.67,.35,7.05,2.97,.29,1.23,.57,2.43,.85,3.62h0c-.09,.03-.16,.06-.25,.08-.14,.05-.27,.09-.41,.14,0-.07,0-.14,.01-.21-.25-1.07-.5-2.14-.76-3.24Z"/><path class="g" d="M179.36,27.86c1.22-.41,2.23-.77,2.21-.84-.06-.28-.14-.63-.23-.97,0-.03-.78,.19-1.75,.51h-.02c-.16,.06-.32,.11-.48,.17-.05,.02-.11,.03-.16,.05-1.13,.38-2.05,.72-2.04,.75,.08,.34,.16,.69,.23,.97,.01,.06,1.03-.24,2.24-.64Zm2.72,18.04c-2.72,.86-5.44,1.73-8.15,2.59-1.35-5.79-2.69-11.62-4.05-17.48-.46,.15-.91,.3-1.35,.45,1.19-.39,2.17-.75,2.16-.82-.06-.28-.14-.62-.22-.96,0-.03-.79,.2-1.82,.54-.03-.06-.06-.11-.1-.17-.24-1.02-.49-2.1-.73-3.16,.03-2.75,1.67-5.34,4.13-6.18,2.47-.84,5.02,.35,6.25,2.66,.26,1.09,.5,2.15,.75,3.22,0,.07,0,.13-.01,.2,.05-.02,.11-.03,.16-.05,.18-.06,.34-.11,.5-.17h0c.21-.07,.42-.14,.66-.22-.03-.06-.06-.11-.1-.17-.25-1.06-.5-2.12-.75-3.22,.03-2.74,1.69-5.36,4.22-6.22,2.53-.86,5.1,.34,6.33,2.68,.26,1.1,.51,2.17,.76,3.24,0,.07,0,.14-.01,.21-1.06,.35-1.85,.65-1.85,.68,.08,.35,.15,.66,.23,.97,.02,.06,1.03-.24,2.29-.66,.46-.15-.94,.31-1.4,.47,1.39,5.92,2.77,11.83,4.16,17.75-3.13,.99-6.21,1.97-9.29,2.95-1.37-5.87-2.74-11.71-4.12-17.62-.44,.15-.91,.3-1.37,.46-.46,.15-.92,.31-1.37,.45,1.38,5.89,2.73,11.76,4.09,17.59Z"/><path class="f" d="M167.19,26.9c.03-3.08,1.84-5.94,4.6-6.87-2.56,.87-5.13,1.75-7.67,2.61,.66,2.84,1.31,5.65,1.98,8.5,0,.03,.84-.34,1.92-.71h0c-.27-1.15-.55-2.35-.82-3.53Z"/><path class="f" d="M171.79,20.03c-2.76,.94,5.6,.35,6.97,2.98,.04-3.11,1.88-6,4.69-6.96-3.92,1.34-7.79,2.66-11.67,3.97Z"/><path class="f" d="M171.24,49.34c-1.34-5.78-2.7-11.59-4.06-17.44,.44-.15,1.81-.6,1.35-.45-1.2,.41-2.21,.7-2.22,.64,1.37,5.87,2.72,11.71,4.08,17.52,.27-.09,.55-.18,.85-.27Z"/><path class="f" d="M164.87,22.38c-1.98,.67-3.92,1.34-5.87,2,2.29,9.84,4.56,19.7,6.85,29.58,1.96-.62,3.94-1.24,5.93-1.87-2.31-9.92-4.61-19.82-6.92-29.71Z"/><path class="g" d="M159.45,21.8c12.53-4.29,25.32-8.67,38.39-13.15-.17-.73-.36-1.52-.54-2.31-13.07,4.5-25.85,8.9-38.37,13.22,.18,.77,.36,1.54,.52,2.25Z"/><path class="e" d="M165.41,54.1c13.53-4.26,27.35-8.61,41.5-13.1-.22-.95-.45-1.94-.69-2.92-14.15,4.49-27.95,8.87-41.48,13.17,.23,.98,.44,1.91,.66,2.86Z"/></g></g></g></g><polygon class="j" points="130 317.54 338.5 317.24 295.35 337.86 176.5 347.62 135.74 337.29 130 317.54"/></g></g></g></svg>