<?xml version="1.0" encoding="UTF-8"?><svg xmlns="http://www.w3.org/2000/svg" xmlns:xlink="http://www.w3.org/1999/xlink" viewBox="0 0 401.14 401.14"><defs><style>.e{clip-rule:evenodd;}.e,.f{fill:#f58220;}.g,.h,.i,.j,.f{fill-rule:evenodd;}.g,.j{fill:#231f20;}.h{fill:#e7e8e9;}.k{clip-path:url(#d);}.i{fill:#bcbec0;}.j{stroke:#231f20;stroke-miterlimit:2.61;stroke-width:.5px;}.l{fill:#0d738f;}</style><clipPath id="d"><path class="e" d="M200.18,19.29c99.74,0,180.62,80.88,180.62,180.62s-80.88,180.62-180.62,180.62S19.56,299.65,19.56,199.92,100.44,19.29,200.18,19.29Z"/></clipPath></defs><g id="a"/><g id="b"><g id="c"><g><g><path class="f" d="M200.18,19.29c99.74,0,180.62,80.88,180.62,180.62s-80.88,180.62-180.62,180.62S19.56,299.65,19.56,199.92,100.44,19.29,200.18,19.29Z"/><g class="k"><g><g><path class="i" d="M224.9,282.25c.46-14.4,1.79-15.06,10.4-19.29,.59-3.39,2.32-5.6,6.04-6.17l2.18-9.66c1.18-7.37,5.57-11.99,17.04-10.55,.98-2.42,2.61-3.74,4.88-3.97,7.1-13.94-2.52-33.55,21.3-41.83,.8-6.54,3.42-10.82,10.79-9.2,1.39-13.04,2.74-26.57,4.44-35.42h8.65c1.7,8.85,3.06,22.38,4.44,35.42,7.37-1.62,9.99,2.65,10.79,9.2,23.82,8.28,14.2,27.89,21.3,41.83,2.27,.23,3.89,1.55,4.87,3.97,11.47-1.44,15.87,3.18,17.04,10.56l2.19,9.66c3.73,.57,5.45,2.78,6.04,6.17,8.61,4.23,9.94,4.89,10.4,19.29H224.9Z"/><path class="i" d="M-1.62,282.25c.46-14.4,1.79-15.06,10.4-19.29,.59-3.39,2.31-5.6,6.04-6.17l2.18-9.66c1.18-7.37,5.57-11.99,17.04-10.55,.98-2.42,2.61-3.74,4.88-3.97,7.1-13.94-2.52-33.55,21.3-41.83,.8-6.54,3.42-10.82,10.79-9.2,1.39-13.04,2.74-26.57,4.45-35.42h8.65c1.71,8.85,3.06,22.38,4.44,35.42,7.37-1.62,9.99,2.65,10.79,9.2,23.82,8.28,14.2,27.89,21.3,41.83,2.26,.23,3.89,1.55,4.88,3.97,11.47-1.44,15.86,3.18,17.04,10.56l2.18,9.66c3.73,.57,5.45,2.78,6.04,6.17,8.61,4.23,9.94,4.89,10.4,19.29H-1.62Z"/><path class="h" d="M69.15,298.61c.82-23.5,3.21-24.57,18.67-31.47,1.05-5.53,4.16-9.13,10.85-10.05l3.92-15.76c2.12-12.03,10.01-19.56,30.61-17.22,1.77-3.94,4.69-6.1,8.76-6.47,12.75-22.74-4.53-54.72,38.25-68.23,1.44-10.68,6.15-17.65,19.38-15,2.49-21.27,4.92-43.34,7.98-57.77h15.55c3.06,14.43,5.48,36.5,7.98,57.77,13.23-2.65,17.94,4.33,19.38,15,42.78,13.5,25.5,45.49,38.25,68.23,4.07,.37,6.99,2.53,8.76,6.47,20.6-2.35,28.49,5.19,30.61,17.22l3.92,15.76c6.69,.92,9.8,4.53,10.85,10.05,15.47,6.9,17.85,7.97,18.68,31.47H69.15Z"/><path class="j" d="M204.12,151.54c-6.82,.94-11.82,6-15.57,13.88-10.85,4.02-13.09,15.14-12.91,28.25l.49,6.58c1.9,8.56,4.76,16.69,10.23,23.63,1.68,8.53-1.95,13.87-9.99,16.57-9.9,3.49-21.03,5.77-29.72,10.47-11.78,5.79-16.16,20.41-19.49,36.29l-7.31,35.32,7.42,.66h23.37c3.19-8.18,4.62-16.75,10.62-24.29l4.36,24.29h76.99l4.36-24.29c5.99,7.54,7.43,16.11,10.62,24.29h23.37l7.41-.66-7.3-35.32c-3.32-15.88-7.7-30.5-19.49-36.29-8.69-4.71-19.81-6.98-29.72-10.47-8.04-2.7-11.67-8.04-9.99-16.57,5.47-6.94,8.33-15.07,10.23-23.63l.49-6.58c.18-13.11-2.05-24.23-12.91-28.25-3.75-7.89-8.75-12.94-15.57-13.88Z"/><path class="g" d="M271.94,323.2c.52-14.87,2.03-15.55,11.82-19.91,.67-3.5,2.63-5.78,6.86-6.36l2.48-9.97c1.34-7.61,6.33-12.38,19.36-10.89,1.12-2.5,2.97-3.86,5.54-4.1,8.07-14.39-2.87-34.62,24.2-43.17,.91-6.75,3.89-11.17,12.26-9.49,2.7-23.05,5.28-47.59,9.96-46.78,4.69-.81,7.27,23.73,9.97,46.78,8.37-1.68,11.35,2.74,12.26,9.49,27.07,8.54,16.13,28.78,24.2,43.17,2.58,.24,4.42,1.6,5.54,4.1,13.03-1.49,18.03,3.28,19.37,10.89l2.48,9.97c4.23,.58,6.2,2.86,6.86,6.36,9.78,4.37,11.29,5.05,11.81,19.91h-184.99Z"/><path class="g" d="M-56.57,323.2c.52-14.87,2.03-15.55,11.81-19.91,.67-3.5,2.63-5.78,6.86-6.36l2.48-9.97c1.34-7.61,6.33-12.38,19.37-10.89,1.12-2.5,2.97-3.86,5.54-4.1,8.07-14.39-2.86-34.62,24.2-43.17,.91-6.75,3.89-11.17,12.26-9.49,2.7-23.05,5.28-47.59,9.97-46.78,4.69-.81,7.27,23.73,9.97,46.78,8.37-1.68,11.35,2.74,12.26,9.49,27.07,8.54,16.14,28.78,24.2,43.17,2.57,.24,4.42,1.6,5.54,4.1,13.03-1.49,18.03,3.28,19.37,10.89l2.48,9.97c4.23,.58,6.2,2.86,6.86,6.36,9.79,4.37,11.29,5.05,11.82,19.91H-56.57Z"/></g><path class="g" d="M242.62,311.26h-76.99l-4.36-26.11c-5.99,8.1-7.43,17.32-10.62,26.11H20.76v171.56H403.74v-171.56h-146.15c-3.19-8.79-4.63-18.01-10.62-26.11l-4.36,26.11Z"/></g></g></g><path class="l" d="M200.57,0c55.37,0,105.52,22.46,141.82,58.75,36.29,36.3,58.75,86.44,58.75,141.82s-22.46,105.52-58.75,141.82c-36.3,36.3-86.45,58.75-141.82,58.75s-105.52-22.45-141.82-58.75C22.45,306.09,0,255.95,0,200.57S22.45,95.05,58.75,58.75C95.05,22.46,145.2,0,200.57,0h0Zm139.08,61.49C304.06,25.89,254.88,3.87,200.57,3.87S97.09,25.89,61.49,61.49C25.89,97.09,3.87,146.26,3.87,200.57s22.02,103.48,57.62,139.08c35.6,35.6,84.77,57.62,139.08,57.62s103.48-22.02,139.08-57.62c35.6-35.6,57.62-84.77,57.62-139.08s-22.02-103.48-57.62-139.08Z"/></g></g></g></svg>