<?xml version="1.0" encoding="UTF-8"?><svg xmlns="http://www.w3.org/2000/svg" xmlns:xlink="http://www.w3.org/1999/xlink" viewBox="0 0 344.16 344.16"><defs><style>.e{fill:#fff;}.f{fill:#f49e87;}.g{fill:#52868d;}.h{fill:#e73a3a;}.i{fill:#fac697;}.j{fill:#87382c;}.k{fill:#432827;}.l{clip-path:url(#d);}.m{fill:#72bcc6;}.n{fill:#432918;}.o{fill:#db9d73;}.p{fill:#583636;}.q{fill:#5d979f;}.r{fill:#c0102c;}</style><clipPath id="d"><path class="h" d="M344.16,172.08c0,95.04-77.04,172.08-172.09,172.08S0,267.12,0,172.08,77.04,0,172.08,0s172.09,77.04,172.09,172.08Z"/></clipPath></defs><g id="a"/><g id="b"><g id="c"><g><path class="h" d="M344.16,172.08c0,95.04-77.04,172.08-172.09,172.08S0,267.12,0,172.08,77.04,0,172.08,0s172.09,77.04,172.09,172.08Z"/><g class="l"><g><path class="j" d="M150.04,219.87h54.74v-20.22s-5.79-5.32-24.24-5.32-25.81,3.55-25.81,3.55l-4.7,21.99Z"/><polygon class="i" points="131.95 262.43 225.93 262.43 234.45 216.55 194.73 208.04 194.73 181.92 163.16 181.92 163.16 208.04 123.44 216.55 131.95 262.43"/><path class="o" d="M163.16,187.24s7.09,10.64,16.32,10.64,15.25-10.64,15.25-10.64v-5.32h-31.57v5.32Z"/><path class="i" d="M232.6,143.74c-5.38,17.02-30.05,47.75-52.48,47.75-20.18,0-46.64-25.53-52.91-47.75-6.28-22.23-4.04-47.76-4.04-47.76,0-30.27,8.98-62.89,56.96-62.89s56.96,37.83,56.96,67.15c0,0,.89,26.48-4.48,43.5Z"/><path class="i" d="M113.84,131.67c3.04,10,8.62,13.99,10.93,8.75,2.25-5.09,6.87-7.89,5.47-16.37-1.42-8.49-9.07-17.48-13.81-14.91-7.4,4.01-5.07,14.32-2.59,22.53Z"/><path class="i" d="M246.62,128.13c-3.04,10-11.05,16.48-13.35,11.25-2.26-5.09-6.89-7.89-5.47-16.38,1.41-8.49,10.35-17.42,15.09-14.85,7.4,4.01,6.22,11.78,3.73,19.98Z"/><path class="n" d="M225.65,131.67c8.97-4.49,7.97-23.75,19.24-23.75,7.93-39.01-10.91-92.36-64.82-92.36-57.28,0-71.04,58.06-68.7,94.63,10.34-6.77,6.19,12.74,20.32,21.48-5.72-12.29,6.89-8.81,.79-28.6,5.94-8.39-1.35-42.68,46.47-42.68s36.16,24.24,45.58,37.01c9.42,12.77,4.48,29.08,1.12,34.28Z"/><path class="g" d="M263.05,256.75c1.69,7.98,9.3,109.75,8.52,146.12-2.18,4.26-18.3,10.18-20.79,6.93-3.46-49.02-14.55-136.16-14.55-144.52,0-11.06-9.07-48.73,2-48.73s19.15,13.24,24.82,40.19Z"/><path class="g" d="M228.06,310.65c.47-11.35,8.17-45.37,8.17-45.37l2-48.73-21.74-4.66-11.72-12.25-32.55,3.43-21.04-3.18-11.72,12.24-21.74,4.66,2,48.73s11.76,37,12.23,48.36c-10.99,28.92-25.49,39.27-28.17,112.15-2.68,72.87-11.87,389.76-11.87,389.76h179.71s-15.79-356.34-20.84-406c-5.04-49.67-12.76-74.08-22.72-99.14Z"/><path class="g" d="M92.91,256.99c-1.69,7.98-9.31,109.75-8.52,146.12,2.18,4.27,18.3,10.17,20.78,6.92,3.46-49.01,14.55-136.15,14.55-144.5,0-11.07,9.07-48.73-2-48.73s-19.15,13.24-24.82,40.19Z"/><g><path class="p" d="M141.71,111.18s-.29-.19-.74-.49c-.24-.18-.54-.54-.8-.86-.2-.34-.35-.7-.48-1.07-.43-1.49-.19-2.89-.19-2.89,0,0,.22,1.44,.96,2.54,.19,.25,.4,.49,.59,.67,.23,.11,.33,.23,.52,.32,.51,.15,.85,.24,.85,.24,.45,.13,.71,.6,.58,1.06-.13,.45-.61,.71-1.06,.58-.08-.02-.16-.06-.23-.11Z"/><path class="e" d="M165.7,113.87c0,3.11-5.11,7.57-11.48,7.57-7.78,0-12.47-4.52-12.47-9.31s6.73-7.99,12.41-6.94c6.27,1.17,11.54,5.26,11.54,8.68Z"/><path class="p" d="M162.15,113.82c0,2.89-1.46,5.45-3.69,6.96-2.81,1.4-8.5,.62-9.75-.21-2.06-1.53-3.39-3.99-3.39-6.75,0-4.65,3.76-8.42,8.41-8.42s8.42,3.76,8.42,8.42Z"/><path class="p" d="M141.88,113.51s-.15-.5-.23-1.39c-.06-.92,.11-2.33,1.06-3.69,.93-1.35,2.51-2.54,4.39-3.26,1.88-.72,4.02-1.06,6.19-.94,1.15,.09,2.09,.37,3.12,.68,1.01,.32,1.95,.69,2.84,1.12,1.8,.83,3.27,2.01,4.38,3.14,1.13,1.13,1.73,2.37,1.97,3.26,.22,.91,.07,1.43,.11,1.43,0,0-.05-.53-.42-1.31-.36-.8-1.2-1.72-2.32-2.66-1.11-.96-2.67-1.75-4.33-2.51-.84-.37-1.74-.69-2.67-.94-.88-.26-1.94-.43-2.82-.56-3.77-.33-7.84,.98-9.71,3.12-1.97,2.18-1.44,4.58-1.55,4.5Z"/><path class="k" d="M159.49,115.29c0,2.97-2.41,5.37-5.37,5.37s-5.37-2.4-5.37-5.37,2.41-5.36,5.37-5.36,5.37,2.4,5.37,5.36Z"/><path class="e" d="M155.33,112.81c0,1.32,1.07,2.39,2.4,2.39s2.39-1.07,2.39-2.39-1.07-2.4-2.39-2.4-2.4,1.08-2.4,2.4Z"/><path class="e" d="M156.9,109.14c0,.43-.34,.79-.78,.79s-.79-.36-.79-.79,.35-.79,.79-.79,.78,.35,.78,.79Z"/></g><g><path class="p" d="M219.71,109.65s.34-.09,.85-.24c.2-.09,.29-.21,.52-.32,.18-.18,.4-.42,.59-.67,.73-1.09,.95-2.54,.95-2.54,0,0,.24,1.4-.19,2.89-.12,.36-.28,.72-.47,1.06-.26,.32-.56,.68-.81,.86-.44,.29-.74,.49-.74,.49-.39,.26-.92,.15-1.18-.24-.26-.39-.15-.92,.24-1.18,.07-.05,.16-.09,.24-.11Z"/><path class="e" d="M196.42,113.87c0,3.11,5.11,7.57,11.49,7.57,7.78,0,12.46-4.52,12.46-9.31s-6.73-7.99-12.41-6.94c-6.26,1.17-11.54,5.26-11.54,8.68Z"/><path class="p" d="M199.98,113.82c0,2.89,1.46,5.45,3.68,6.96,2.82,1.4,8.5,.62,9.75-.21,2.06-1.53,3.4-3.99,3.4-6.75,0-4.65-3.76-8.42-8.41-8.42s-8.42,3.76-8.42,8.42Z"/><path class="p" d="M220.25,113.51c-.11,.08,.42-2.32-1.55-4.5-1.88-2.14-5.95-3.45-9.72-3.12-.88,.13-1.93,.3-2.82,.56-.92,.25-1.82,.56-2.66,.94-1.67,.76-3.22,1.55-4.34,2.51-1.11,.94-1.96,1.87-2.32,2.66-.37,.78-.43,1.31-.43,1.31,.03,0-.11-.52,.11-1.43,.24-.88,.85-2.13,1.97-3.26,1.11-1.13,2.58-2.31,4.38-3.14,.89-.43,1.84-.81,2.85-1.12,1.03-.31,1.97-.59,3.11-.68,2.18-.13,4.32,.22,6.2,.94,1.87,.72,3.46,1.91,4.39,3.26,.94,1.36,1.1,2.77,1.06,3.69-.09,.89-.24,1.39-.24,1.39Z"/><path class="k" d="M202.65,115.29c0,2.97,2.4,5.37,5.36,5.37s5.37-2.4,5.37-5.37-2.4-5.36-5.37-5.36-5.36,2.4-5.36,5.36Z"/><path class="e" d="M206.8,112.81c0,1.32-1.08,2.39-2.4,2.39s-2.39-1.07-2.39-2.39,1.06-2.4,2.39-2.4,2.4,1.08,2.4,2.4Z"/><path class="e" d="M205.22,109.14c0,.43,.35,.79,.79,.79s.79-.36,.79-.79-.36-.79-.79-.79-.79,.35-.79,.79Z"/></g><path class="o" d="M183.88,138.4s-1.63,2.75-5.17,2.75-5.92-1.05-6.43-1.64c-.52-.59,3.49-7.69,3.49-7.69,0,0-1.87,4.95-1.03,6.18,.85,1.23,3.16,1.21,4.25,1.21,3.55,0,4.88-.82,4.88-.82Z"/><path class="r" d="M196.31,156.12c0,8.13-7.32,14.72-16.36,14.72s-16.35-6.59-16.35-14.72h32.7Z"/><path class="h" d="M167.18,165.29c2.99,3.38,7.6,5.55,12.78,5.55s9.79-2.17,12.79-5.55c0,0-5.63-1.81-12.79-1.81s-12.78,1.81-12.78,1.81Z"/><path class="e" d="M194,159.87c.31-1.19,.48-2.45,.48-3.75h-29.05c0,1.23,.16,2.43,.44,3.58,.16,.66,1.36,1.92,2.58,1.92h23.23c1.33,0,2.15-1.15,2.32-1.75Z"/><path class="n" d="M222.67,96.18s-8.94-4.17-17.91-3.32c-3.5,.33-7.15,.69-8.53,.98-1.37,.28-.83-3.71,.07-3.87,.92-.16,4.92-2.37,8.79-2.11,9.92,.67,17.58,8.32,17.58,8.32Z"/><path class="n" d="M140.49,96.18s8.93-4.17,17.91-3.32c3.5,.33,7.14,.69,8.52,.98,1.37,.28,.83-3.71-.08-3.87-.91-.16-4.9-2.37-8.78-2.11-9.92,.67-17.57,8.32-17.57,8.32Z"/><path class="f" d="M218.08,130.25c0,3.2-5.05,5.78-11.27,5.78s-11.27-2.59-11.27-5.78,5.04-5.79,11.27-5.79,11.27,2.59,11.27,5.79Z"/><path class="f" d="M163.33,130.25c0,3.2-5.05,5.78-11.27,5.78s-11.27-2.59-11.27-5.78,5.04-5.79,11.27-5.79,11.27,2.59,11.27,5.79Z"/><path class="g" d="M179.07,71.62c21.43,0,41.39,8.16,53.67,27.66,0-39.45-28.08-55.32-52.59-55.32s-56.69,25.42-48.63,54.97c10.56-16.67,26.14-27.31,47.56-27.31Z"/><path class="m" d="M178.44,13.59c-47,.25-69.72,37.18-69.36,102.09,.29,55.55,16.69,70.2,30.86,78.87,11.75,5.49,71.54,5.17,83.2-.45,13.47-4.94,28.28-28.41,27.67-84.07-.64-58.49-20.45-96.73-72.37-96.44Zm54.29,107.07c0,50.18-34.25,68.23-57.21,68.23-24.8,0-45.03-31.44-45.03-68.23,0-29.8,0-65.83,47.81-65.83s54.43,23.97,54.43,65.83Z"/><path class="m" d="M235.88,204.5h-5.24c2.1,0,3.8-2.02,3.8-4.52,0-1.42-.56-2.68-1.44-3.51,.88-.73,1.44-1.84,1.44-3.09,0-2.19-1.69-3.97-3.79-3.97h-97.78c-2.09,0-3.79,1.78-3.79,3.97,0,1.11,.44,2.12,1.15,2.84-1.03,.81-1.71,2.19-1.71,3.76,0,2.5,1.71,4.52,3.8,4.52h-5.24c-2.32,0-6.12,9.11-6.12,11.6s29.7,16.3,61.83,16.3,57.3-13.12,57.3-15.6-1.88-12.29-4.21-12.29Z"/><path class="q" d="M221.33,192.03s-16.83,4.61-37.59,4.61-37.6-4.61-37.6-4.61c0,0,16.83,1.06,37.6,1.06s37.59-1.06,37.59-1.06Z"/><path class="q" d="M227.41,204.79s-19.97,4.61-44.61,4.61-44.61-4.61-44.61-4.61c0,0,19.97,1.07,44.61,1.07s44.61-1.07,44.61-1.07Z"/></g></g></g></g></g></svg>