<?xml version="1.0" encoding="UTF-8"?><svg xmlns="http://www.w3.org/2000/svg" xmlns:xlink="http://www.w3.org/1999/xlink" viewBox="0 0 344.16 344.16"><defs><style>.e{fill:#fff;}.f{fill:#e09d72;}.g{fill:#d4d2c4;}.h{fill:#f08375;opacity:.2;}.i{fill:#331b19;}.j{fill:#259dab;}.k{fill:#e2e1da;}.l{clip-path:url(#d);}.m{fill:#432918;}.n{fill:#e4b58b;}.o{fill:#00b5cf;}.p{fill:#d84b58;}.q{fill:#352e35;}.r{fill:#dba87b;}</style><clipPath id="d"><path class="j" d="M344.16,172.08c0,95.04-77.04,172.08-172.08,172.08S0,267.12,0,172.08,77.04,0,172.08,0s172.08,77.04,172.08,172.08Z"/></clipPath></defs><g id="a"/><g id="b"><g id="c"><g><path class="j" d="M344.16,172.08c0,95.04-77.04,172.08-172.08,172.08S0,267.12,0,172.08,77.04,0,172.08,0s172.08,77.04,172.08,172.08Z"/><g class="l"><g><path class="i" d="M108.23,164.59c-10.96,22.92,18.45,56.24,2.11,68.98,7.45,3.51,32.43,17.31,64.4,15.69,31.98-1.64,58.54-18.63,70.25-28.75-15.42-15.68,.92-23.2-7.88-53.6"/><path class="r" d="M208.73,240.51l-3.39,44.12-26.17,22.43-23.52-15.68-26.17-45.89s15.55-9.82,15.91-14.16c.6-7.47,2.61-13.5,1.77-21.31-1.52-14.27,53.88-15.23,51.44-.43-1.06,6.46,.8,18.04,1.24,22.61,.43,4.57,8.9,8.31,8.9,8.31Z"/><path class="n" d="M233.1,131.81c-1.12,13.95-3.17,29.33-6.43,42.74-1,4.12-1.76,10.11-4.74,15.54-5.68,10.33-30.77,37.25-40.14,38.91-3.31,.58-16.91,.46-20.94-1.8-12.43-6.94-30.34-27.35-34.99-37.11-2.13-4.48-3.76-9.84-5.09-15.46-2.88-12.19-5.08-27.13-6.37-42.82-3.72-45.73,26.58-66,59.35-66s63.04,20.26,59.34,66Z"/><path class="n" d="M244.69,151.07c-.83,5.1-5.25,14.03-7.15,17.24-1.28,2.16-7.92,6.51-10.87,6.23-2.95-.28-1.82-8.23-2.91-10.94-1.1-2.71-1.54-8.43-1.4-14.62,.25-10.08,6.36-13.98,12.53-13.41,6.16,.58,11.45,5.55,9.81,15.5Z"/><path class="n" d="M103.07,151.07c.83,5.1,5.25,14.03,7.14,17.24,1.28,2.16,7.93,6.51,10.87,6.23,2.95-.28,1.83-8.23,2.92-10.94,1.09-2.71,1.54-8.43,1.39-14.62-.24-10.08-6.35-13.98-12.52-13.41-6.17,.58-11.45,5.55-9.81,15.5Z"/><path class="i" d="M119.19,133.78s1.1-4.64,5.15-6.47c9.31-4.19,26.98,.32,29.21,1.37,5.95,2.85,6.68,5.96,6.68,5.96l-.65,5.04s-2.78-3.05-7.45-5.35c-2.32-1.14-17.18-6.73-26.42-4.2-4.39,1.21-6.51,3.64-6.51,3.64Z"/><path class="i" d="M226.55,133.78s-1.1-4.64-5.14-6.47c-9.32-4.19-26.99,.32-29.21,1.37-5.96,2.85-6.68,5.96-6.68,5.96l.64,5.04s2.79-3.05,7.45-5.35c2.33-1.14,17.19-6.73,26.43-4.2,4.39,1.21,6.5,3.64,6.5,3.64Z"/><path class="i" d="M114.1,135.52s-.14,13.45,2.09,13.27c2.23-.18,2.6-8.02-1.01-21.42-3.62-13.39,10.25-4.99,34.79-13.7,26.82-9.52,35.57-40.08,49.47-24.2,17.97,1.47,25.27,11.35,28.47,30.39,3.22,19.03-3.2,32.16,0,32.09,3.22-.07,1.59-13.32,5.51-15.26,3.91-1.94,6.38,.47,6.38,.47,0,0,8.34-41.48-4.61-65.91-9.67-18.24-38.23-27.77-67.95-27.77-25.05,0-50.92,24.93-57.63,38.8-9.65,19.93-5.94,59.67-3.46,56.29,2.48-3.37,7.97-3.06,7.97-3.06Z"/><path class="k" d="M282.29,364.1c-4.09-43.76-10.04-93.08-16.58-100.82-5.61-6.65-25.27-13.65-37.99-19.1-14.75-6.32-19.96-4.88-19.96-4.88,0,0-7.09,41.02-34.77,48.88-27.66-7.85-34.76-48.88-34.76-48.88,0,0-5.2-1.44-19.96,4.88-12.71,5.45-32.38,12.44-37.98,19.1-6.55,7.75-12.49,57.06-16.58,100.82h218.57Z"/><path class="e" d="M118.02,168.87c0,1.08-.88,1.96-1.96,1.96s-1.96-.88-1.96-1.96,.88-1.96,1.96-1.96,1.96,.88,1.96,1.96Z"/><path class="e" d="M230.47,168.87c0,1.08-.88,1.96-1.96,1.96s-1.96-.88-1.96-1.96,.88-1.96,1.96-1.96,1.96,.88,1.96,1.96Z"/><rect class="g" x="169.11" y="291.88" width="11.45" height="54.23"/><path class="q" d="M190.54,310.74c0,2.03-1.64,3.68-3.68,3.68s-3.68-1.65-3.68-3.68,1.64-3.68,3.68-3.68,3.68,1.65,3.68,3.68Z"/><path class="q" d="M190.54,330.82c0,2.04-1.64,3.68-3.68,3.68s-3.68-1.64-3.68-3.68,1.64-3.68,3.68-3.68,3.68,1.64,3.68,3.68Z"/><path class="o" d="M220.3,241.35c-9.13-2.99-12.54-2.05-12.54-2.05,0,0-19.11,48.88-34.77,48.88s-34.76-48.88-34.76-48.88c0,0-4.03-1.12-15.07,2.93,4.13,28.08,40.82,55.09,49.7,55.09s45.91-27.87,47.43-55.97Z"/><g><path class="e" d="M127.34,141.71s.63,3.58,3.85,6.63c2.42,2.29,17.22,3.83,18.79,3.13,2.33-1.04,5.37-6.03,5.37-6.03,0,0-5.21-7.17-11.63-7.17s-16.36,3.45-16.36,3.45Z"/><path class="m" d="M143.7,139.66c-4.65,0-10.51,2.14-13.75,3.13-.74,.23-.96,2.43,.28,4.54-2.64-2.43-4.55-7.24-4.55-7.24,0,0,3.17,1.12,4.21,.79,3.09-.97,8.99-2.63,13.81-2.63,6.42,0,11.63,7.17,11.63,7.17,0,0-.2,.7-.74,1.15-1.15-1.44-5.32-6.91-10.89-6.91Z"/><path class="m" d="M136.61,144.78c0,3.6,2.91,6.52,6.52,6.52s6.51-2.92,6.51-6.52-2.91-6.52-6.51-6.52-6.52,2.92-6.52,6.52Z"/><path class="e" d="M137.54,144.79c0,2.76,7.75-5,4.99-5s-4.99,2.24-4.99,5Z"/></g><polygon class="f" points="174.31 168.51 168.46 163.88 174.52 149 174.31 168.51"/><g><path class="p" d="M174.3,201.53c-11.88,0-16.46-12.58-16.46-12.58,0,0,1.89,.58,3.44,.07,3.14-1.04,7.3-3.62,8.36-3.91,1.58-.45,4.67,1.76,4.67,1.76,0,0,2.71-2.16,4-1.76,.88,.27,4.93,2.3,8.32,3.35,1.64,.51,4.15,.5,4.15,.5,0,0-5.41,12.58-16.48,12.58Z"/><path class="e" d="M174.16,195.2c-9.73,0-14.7-5.34-14.7-5.34,0,0,6.57,1.18,14.86,1.18s15.29-1.36,15.29-1.36c0,0-6.14,5.53-15.45,5.53Z"/></g><path class="h" d="M157.89,166.48c0,5.69-7.21,10.31-16.1,10.31s-16.1-4.61-16.1-10.31,7.22-10.31,16.1-10.31,16.1,4.61,16.1,10.31Z"/><g><path class="e" d="M218.68,141.71s-.61,3.58-3.84,6.63c-2.43,2.29-17.23,3.83-18.79,3.13-2.34-1.04-5.38-6.03-5.38-6.03,0,0,5.21-7.17,11.64-7.17s16.36,3.45,16.36,3.45Z"/><path class="m" d="M202.31,139.66c4.65,0,10.51,2.14,13.75,3.13,.74,.23,.95,2.43-.29,4.54,2.64-2.43,4.55-7.24,4.55-7.24,0,0-3.17,1.12-4.21,.79-3.09-.97-8.99-2.63-13.81-2.63-6.42,0-11.64,7.17-11.64,7.17,0,0,.2,.7,.74,1.15,1.15-1.44,5.32-6.91,10.89-6.91Z"/><path class="m" d="M209.4,144.78c0,3.6-2.92,6.52-6.52,6.52s-6.51-2.92-6.51-6.52,2.92-6.52,6.51-6.52,6.52,2.92,6.52,6.52Z"/><path class="e" d="M208.47,144.79c0,2.76-7.75-5-4.99-5s4.99,2.24,4.99,5Z"/></g><path class="h" d="M188.12,166.48c0,5.69,7.21,10.31,16.1,10.31s16.1-4.61,16.1-10.31-7.21-10.31-16.1-10.31-16.1,4.61-16.1,10.31Z"/></g></g></g></g></g></svg>