<?xml version="1.0" encoding="UTF-8"?><svg xmlns="http://www.w3.org/2000/svg" xmlns:xlink="http://www.w3.org/1999/xlink" viewBox="0 0 344.16 344.16"><defs><style>.e{fill:#fff;}.f{isolation:isolate;}.g{fill:#259dab;}.h{fill:#432827;}.i{fill:#d5362c;}.j{fill:#f49712;}.k{clip-path:url(#d);}.l{fill:#fec900;}.m{fill:#fcc000;}.n{fill:#d9d0bb;mix-blend-mode:multiply;}.o{fill:#432918;}.p{fill:#f39013;}.q{fill:#c53323;}.r{fill:#583636;}.s{fill:#ca7047;}.t{fill:#bc8357;}</style><clipPath id="d"><path class="g" d="M344.16,172.08c0,95.04-77.04,172.08-172.08,172.08S0,267.12,0,172.08,77.04,0,172.08,0s172.08,77.04,172.08,172.08Z"/></clipPath></defs><g class="f"><g id="a"/><g id="b"><g id="c"><g><path class="g" d="M344.16,172.08c0,95.04-77.04,172.08-172.08,172.08S0,267.12,0,172.08,77.04,0,172.08,0s172.08,77.04,172.08,172.08Z"/><g class="k"><g><path class="o" d="M272.67,134.73h-.02c.06-1.76-.68-3.35-1.91-4.43,1.19-1.08,1.91-2.66,1.85-4.4-.06-1.73-.88-3.26-2.16-4.25,1.14-1.16,1.76-2.78,1.62-4.51-.17-1.73-1.08-3.21-2.41-4.12,1.08-1.22,1.62-2.89,1.37-4.6-.29-1.73-1.28-3.15-2.67-4,.99-1.27,1.45-2.98,1.05-4.68-.37-1.7-1.45-3.06-2.9-3.8,.91-1.36,1.22-3.09,.74-4.77-.48-1.68-1.67-2.95-3.14-3.6,.79-1.42,1.01-3.18,.39-4.82v.02c-.6-1.64-1.9-2.86-3.44-3.4,.71-1.48,.8-3.24,.06-4.82-.74-1.62-2.09-2.7-3.68-3.13,.59-1.53,.51-3.29-.34-4.82-.85-1.56-2.32-2.53-3.94-2.84,.48-1.56,.25-3.32-.74-4.77-.99-1.48-2.55-2.32-4.17-2.5,.31-1.59-.06-3.35-1.16-4.71-1.1-1.37-2.75-2.1-4.4-2.1,.2-1.62-.34-3.32-1.59-4.59-1.24-1.25-2.92-1.82-4.57-1.68,.03-1.64-.68-3.29-2.01-4.43-1.37-1.16-3.13-1.53-4.74-1.24-.15-1.62-.97-3.21-2.44-4.21-1.48-1.02-3.24-1.25-4.83-.76-.31-1.64-1.3-3.13-2.86-3.98-1.56-.85-3.35-.9-4.88-.28-.46-1.6-1.6-2.95-3.22-3.67-1.64-.68-3.43-.56-4.88,.2-.62-1.53-1.87-2.78-3.58-3.32-1.7-.54-3.46-.23-4.82,.68-.76-1.48-2.15-2.58-3.89-2.95-1.73-.36-3.46,.09-4.74,1.14-.88-1.39-2.36-2.39-4.15-2.59-1.76-.2-3.4,.43-4.59,1.56-1-1.28-2.55-2.12-4.34-2.18-1.76-.03-3.35,.74-4.43,1.96-1.1-1.19-2.69-1.89-4.45-1.81-1.76,.08-3.26,.96-4.26,2.26-1.19-1.1-2.83-1.69-4.57-1.47-1.76,.2-3.21,1.19-4.08,2.58-1.28-1.02-2.98-1.5-4.71-1.13-1.73,.34-3.08,1.45-3.85,2.89-1.37-.91-3.09-1.25-4.79-.74-1.7,.48-2.98,1.7-3.63,3.21-1.42-.8-3.17-.97-4.82-.31-1.68,.62-2.84,1.96-3.35,3.52-1.51-.68-3.26-.68-4.86,.11-1.59,.8-2.66,2.22-3,3.83-1.56-.54-3.35-.4-4.85,.54-1.51,.94-2.41,2.5-2.63,4.12-1.6-.37-3.35-.06-4.77,1.03-1.39,1.1-2.16,2.72-2.22,4.36-1.61-.22-3.35,.26-4.65,1.48-1.28,1.22-1.87,2.92-1.76,4.57-1.65-.06-3.3,.6-4.48,1.96-1.16,1.33-1.59,3.06-1.31,4.68-1.64,.11-3.2,.93-4.25,2.38-1.02,1.48-1.28,3.24-.82,4.82-1.62,.26-3.13,1.22-4,2.78-.88,1.53-.97,3.29-.37,4.85-1.59,.39-2.98,1.51-3.71,3.12-.74,1.62-.65,3.38,.05,4.85-1.53,.54-2.83,1.76-3.43,3.44-.6,1.64-.37,3.4,.48,4.8-1.47,.68-2.67,2.01-3.12,3.68-.46,1.71-.09,3.44,.84,4.77-1.42,.77-2.5,2.16-2.84,3.89-.31,1.73,.17,3.4,1.19,4.65-1.36,.88-2.32,2.35-2.55,4.08-.2,1.73,.4,3.38,1.48,4.54-1.28,.97-2.16,2.47-2.27,4.23-.08,1.73,.6,3.32,1.76,4.42-1.22,1.05-2.01,2.61-2.01,4.34v.51c0,1.76,.76,3.29,1.99,4.34-1.17,1.1-1.85,2.69-1.76,4.43,.11,1.73,.97,3.26,2.23,4.23-1.1,1.16-1.7,2.81-1.5,4.54,.2,1.73,1.16,3.18,2.52,4.09-1.05,1.24-1.53,2.92-1.24,4.62,.31,1.73,1.36,3.12,2.78,3.91-.97,1.33-1.33,3.04-.91,4.74,.43,1.67,1.55,3.01,3.04,3.72-.88,1.39-1.14,3.12-.6,4.79,.54,1.64,1.78,2.89,3.29,3.49-.74,1.45-.88,3.2-.22,4.82,.68,1.64,2,2.77,3.57,3.26-.65,1.5-.65,3.26,.17,4.82,.79,1.59,2.22,2.61,3.83,2.98-.54,1.53-.39,3.29,.54,4.8,.93,1.51,2.44,2.44,4.06,2.64-.37,1.58-.09,3.35,.97,4.76,1.05,1.42,2.67,2.18,4.29,2.27-.26,1.62,.2,3.35,1.38,4.65,1.17,1.33,2.84,1.96,4.48,1.9-.11,1.64,.48,3.29,1.79,4.51,1.3,1.22,3,1.7,4.62,1.48,.06,1.64,.79,3.26,2.21,4.34,1.39,1.08,3.15,1.42,4.77,1.05,.17,1.62,1.08,3.15,2.59,4.12,1.5,.93,3.26,1.1,4.82,.6,.34,1.61,1.39,3.06,2.98,3.85,1.56,.79,3.35,.79,4.85,.14,.48,1.56,1.68,2.93,3.32,3.58,1.64,.65,3.4,.48,4.85-.31,.62,1.53,1.9,2.75,3.6,3.26,1.7,.51,3.44,.2,4.79-.74,.77,1.45,2.16,2.55,3.89,2.92,1.73,.34,3.46-.14,4.74-1.16,.88,1.37,2.36,2.36,4.12,2.55,1.76,.2,3.4-.43,4.59-1.56,1,1.28,2.56,2.13,4.32,2.19h.16c1.7,0,3.26-.77,4.29-1.99,1.14,1.22,2.81,1.93,4.57,1.79,1.78-.14,3.31-1.08,4.25-2.44,1.28,1.08,2.97,1.59,4.74,1.28,1.76-.34,3.17-1.44,3.97-2.89,1.37,.93,3.12,1.25,4.85,.73,1.7-.51,2.98-1.76,3.61-3.29,1.47,.79,3.22,.93,4.9,.26h-.02c1.64-.68,2.81-2.05,3.26-3.63,1.53,.63,3.31,.6,4.88-.23,1.55-.85,2.59-2.32,2.9-3.94,1.55,.51,3.35,.31,4.82-.68,1.48-.96,2.32-2.52,2.5-4.14,1.62,.34,3.35-.02,4.74-1.1,1.37-1.11,2.1-2.72,2.13-4.37,1.62,.2,3.32-.29,4.6-1.51,1.28-1.19,1.87-2.87,1.79-4.48,1.61,.05,3.26-.57,4.45-1.87,1.19-1.3,1.64-3.01,1.42-4.63,1.62-.05,3.21-.79,4.29-2.18,1.08-1.39,1.42-3.12,1.05-4.71,1.62-.17,3.15-1.06,4.12-2.53,.97-1.44,1.16-3.2,.71-4.77,1.59-.31,3.07-1.27,3.91-2.81,.86-1.53,.94-3.29,.34-4.82,1.59-.4,2.95-1.51,3.69-3.09,.76-1.59,.68-3.35,0-4.82,1.53-.54,2.83-1.73,3.46-3.38,.62-1.64,.43-3.37-.4-4.79,1.51-.65,2.72-1.96,3.21-3.63,.48-1.7,.17-3.44-.77-4.79,1.45-.77,2.56-2.13,2.92-3.86,.34-1.73-.14-3.43-1.16-4.71,1.39-.88,2.39-2.35,2.59-4.11,.2-1.76-.39-3.44-1.53-4.6,1.28-1.02,2.15-2.58,2.21-4.34Z"/><path class="p" d="M142.86,246.82h54.73v-20.22s-5.78-5.31-24.23-5.31-25.81,3.54-25.81,3.54l-4.69,21.99Z"/><polygon class="t" points="124.78 289.38 218.76 289.38 227.27 243.51 187.54 235 187.54 208.88 155.98 208.88 155.98 235 116.26 243.51 124.78 289.38"/><path class="n" d="M155.98,214.2s7.09,10.64,16.31,10.64,15.25-10.64,15.25-10.64v-5.32h-31.56v5.32Z"/><path class="t" d="M225.42,170.7c-5.38,17.02-30.05,47.76-52.47,47.76-20.18,0-46.65-25.54-52.92-47.76-6.28-22.23-4.03-47.76-4.03-47.76,0-30.27,8.97-62.89,56.96-62.89s56.96,37.83,56.96,67.14c0,0,.9,26.49-4.48,43.51Z"/><path class="t" d="M101.8,157.35c3.03,10,13.47,15.26,15.78,10.04,2.25-5.08,6.88-7.89,5.47-16.37-1.42-8.49-12.35-17.65-17.08-15.08-7.4,4.01-6.66,13.21-4.16,21.42Z"/><path class="t" d="M241.87,156.3c-3.04,10-13.48,15.26-15.79,10.04-2.26-5.09-6.88-7.89-5.47-16.38,1.42-8.48,12.36-17.65,17.09-15.08,7.4,4.01,6.66,13.21,4.17,21.42Z"/><path class="o" d="M218.46,158.63c8.98-4.49,7.97-23.75,19.24-23.75,10.85-38.79-10.92-92.36-64.81-92.36-57.29,0-78.61,57.74-68.7,94.63,10.33-6.77,6.19,12.74,20.32,21.48-5.72-12.29,6.9-8.8,.79-28.6,5.94-8.39,14.93-52.91,46.47-36.6,32.23-15.37,36.16,18.16,45.58,30.92,9.42,12.77,4.49,29.09,1.12,34.28Z"/><path class="e" d="M124.78,406.57s5.38,8.47,45.8,8.47,48.18-8.47,48.18-8.47v-144.23H124.78v144.23Z"/><path class="j" d="M197.59,226.6l-21.03,107.7v44.92l53.4,38.78s-1.99-56.27-9.07-80.39c.47-11.35,8.17-45.37,8.17-45.37l2-48.73-21.74-4.66-11.72-12.25Z"/><path class="m" d="M194.05,224.6c2.95,13.48-17.49,109.71-17.49,109.71v44.92l22.09-67.14-6.85-7.09,9.45-8.27,8.05-57.86s-7.46-10.94-15.26-14.26Z"/><path class="j" d="M255.87,283.7c1.69,7.98,9.3,109.75,8.51,146.12-2.17,4.27-18.29,10.18-20.77,6.93-3.47-49.01-14.56-136.15-14.56-144.51,0-11.07-9.07-48.73,2-48.73s19.15,13.24,24.82,40.19Z"/><path class="j" d="M144.01,226.85l21.03,107.69v44.92l-49.44,38.54s2.08-53.05,9.18-77.17c-.48-11.34-12.23-48.36-12.23-48.36l-2-48.73,21.74-4.66,11.72-12.24Z"/><path class="m" d="M147.55,224.83c-2.95,13.48,17.49,109.71,17.49,109.71v44.92l-22.09-67.15,6.86-7.09-9.46-8.27-8.05-57.86s7.46-10.94,15.26-14.25Z"/><path class="j" d="M85.72,283.94c-1.67,7.98-9.3,109.75-8.5,146.11,2.18,4.27,18.29,10.18,20.77,6.93,3.47-49.01,14.56-136.15,14.56-144.51,0-11.07,9.07-48.73-2-48.73s-19.15,13.24-24.83,40.19Z"/><path class="l" d="M235.78,167.65c0,2.35-1.91,4.26-4.25,4.26s-4.26-1.91-4.26-4.26,1.91-4.26,4.26-4.26,4.25,1.91,4.25,4.26Z"/><circle class="l" cx="113.15" cy="167.65" r="4.26"/><path class="n" d="M176.69,165.36s-1.63,2.76-5.17,2.76-5.92-1.05-6.43-1.64c-.52-.59,3.49-7.69,3.49-7.69,0,0-1.87,4.96-1.02,6.19,.85,1.22,3.15,1.21,4.25,1.21,3.55,0,4.89-.82,4.89-.82Z"/><g><path class="q" d="M155.67,180.93c4.97,.75,6.61,14.07,17.11,14.07s12.18-12.96,17.09-14.07c0,0-7.52,6.63-17.09,6.63s-17.11-6.63-17.11-6.63Z"/><path class="i" d="M155.67,180.93c5.47,1.84,12.94-1.06,17.11,1.23,5.04-3.16,12.39,.09,17.09-1.23,0,0-7.52,6.63-17.09,6.63s-17.11-6.63-17.11-6.63Z"/></g><path class="o" d="M131.11,123.11s9.07-4.14,18.18-3.29c3.56,.34,7.27,.7,8.67,.98,1.39,.29,.84-3.69-.09-3.85-.93-.16-4.88-1.22-8.8-.96-10.07,.65-17.95,7.12-17.95,7.12Z"/><path class="o" d="M213.11,123.11s-9.07-4.14-18.19-3.29c-3.55,.34-7.26,.7-8.66,.98-1.39,.29-.84-3.69,.09-3.85,.92-.16,4.87-1.22,8.8-.96,10.07,.65,17.95,7.12,17.95,7.12Z"/><path class="s" d="M210.54,157.21c0,3.2-5.05,5.79-11.27,5.79s-11.27-2.59-11.27-5.79,5.05-5.79,11.27-5.79,11.27,2.59,11.27,5.79Z"/><path class="s" d="M156.23,157.21c0,3.2-5.05,5.79-11.27,5.79s-11.27-2.59-11.27-5.79,5.05-5.79,11.27-5.79,11.27,2.59,11.27,5.79Z"/><g><path class="r" d="M133.11,137.15s-.29-.19-.74-.48c-.24-.19-.54-.55-.8-.86-.2-.34-.35-.7-.47-1.07-.43-1.48-.19-2.88-.19-2.88,0,0,.22,1.44,.95,2.53,.2,.25,.41,.5,.6,.67,.23,.11,.32,.23,.52,.32,.51,.15,.85,.25,.85,.25,.45,.13,.71,.6,.58,1.05-.13,.45-.61,.71-1.06,.58-.08-.02-.16-.06-.24-.11Z"/><path class="e" d="M157.12,139.84c0,3.11-5.11,7.58-11.48,7.58-7.79,0-12.47-4.52-12.47-9.31s6.73-7.99,12.41-6.94c6.27,1.17,11.54,5.26,11.54,8.68Z"/><path class="r" d="M153.56,139.8c0,2.9-1.46,5.45-3.69,6.96-2.81,1.4-8.49,.61-9.75-.21-2.06-1.53-3.4-3.98-3.4-6.75,0-4.64,3.76-8.42,8.41-8.42s8.42,3.77,8.42,8.42Z"/><path class="r" d="M133.3,139.48s-.15-.49-.24-1.39c-.05-.91,.11-2.32,1.06-3.68,.92-1.35,2.51-2.54,4.39-3.26,1.88-.72,4.03-1.06,6.2-.94,1.15,.1,2.08,.37,3.12,.68,1,.31,1.95,.69,2.84,1.12,1.8,.83,3.27,2.01,4.38,3.15,1.12,1.13,1.73,2.37,1.97,3.26,.22,.91,.07,1.43,.11,1.42,0,0-.06-.53-.43-1.31-.36-.79-1.19-1.72-2.32-2.66-1.12-.96-2.67-1.75-4.34-2.52-.83-.37-1.74-.68-2.66-.93-.89-.26-1.94-.43-2.82-.56-3.77-.34-7.84,.97-9.72,3.11-1.96,2.18-1.43,4.59-1.55,4.51Z"/><path class="h" d="M150.89,141.27c0,2.96-2.4,5.37-5.37,5.37s-5.36-2.41-5.36-5.37,2.41-5.37,5.36-5.37,5.37,2.41,5.37,5.37Z"/><path class="e" d="M146.74,138.79c0,1.32,1.08,2.39,2.4,2.39s2.4-1.07,2.4-2.39-1.07-2.4-2.4-2.4-2.4,1.07-2.4,2.4Z"/><path class="e" d="M148.32,135.12c0,.43-.35,.79-.79,.79s-.79-.35-.79-.79,.35-.79,.79-.79,.79,.35,.79,.79Z"/></g><g><path class="r" d="M211.13,135.63s.34-.1,.84-.25c.2-.09,.29-.21,.52-.32,.19-.18,.4-.42,.6-.67,.73-1.09,.95-2.53,.95-2.53,0,0,.24,1.4-.19,2.88-.13,.36-.29,.72-.48,1.06-.25,.32-.56,.68-.8,.87-.44,.29-.74,.48-.74,.48-.39,.26-.92,.16-1.18-.24-.26-.39-.15-.92,.24-1.18,.07-.05,.16-.09,.24-.11Z"/><path class="e" d="M187.84,139.84c0,3.11,5.11,7.58,11.48,7.58,7.78,0,12.47-4.52,12.47-9.31s-6.73-7.99-12.41-6.94c-6.27,1.17-11.54,5.26-11.54,8.68Z"/><path class="r" d="M191.4,139.8c0,2.9,1.46,5.45,3.68,6.96,2.81,1.4,8.5,.61,9.75-.21,2.06-1.53,3.39-3.98,3.39-6.75,0-4.64-3.76-8.42-8.41-8.42s-8.41,3.77-8.41,8.42Z"/><path class="r" d="M211.66,139.48c-.11,.08,.42-2.32-1.55-4.5-1.87-2.14-5.94-3.45-9.71-3.11-.88,.12-1.94,.3-2.82,.56-.92,.25-1.82,.56-2.67,.93-1.66,.77-3.21,1.55-4.33,2.52-1.12,.94-1.96,1.87-2.32,2.66-.37,.78-.43,1.31-.43,1.31,.03,0-.11-.52,.11-1.42,.24-.89,.84-2.13,1.97-3.26,1.1-1.13,2.58-2.31,4.38-3.15,.89-.43,1.83-.81,2.84-1.12,1.03-.31,1.97-.58,3.12-.68,2.18-.12,4.31,.22,6.19,.94,1.87,.72,3.46,1.9,4.39,3.26,.95,1.36,1.1,2.77,1.06,3.68-.09,.9-.24,1.39-.24,1.39Z"/><path class="h" d="M194.06,141.27c0,2.96,2.41,5.37,5.37,5.37s5.37-2.41,5.37-5.37-2.41-5.37-5.37-5.37-5.37,2.41-5.37,5.37Z"/><path class="e" d="M198.21,138.79c0,1.32-1.07,2.39-2.4,2.39s-2.39-1.07-2.39-2.39,1.07-2.4,2.39-2.4,2.4,1.07,2.4,2.4Z"/><path class="e" d="M196.63,135.12c0,.43,.35,.79,.79,.79s.79-.35,.79-.79-.35-.79-.79-.79-.79,.35-.79,.79Z"/></g><path class="o" d="M214.4,87.2c-17.08-8.75-35.47-5.4-53.02-8.8,.82,1.39,2.13,2.32,3.62,2.66-.54,1.53-.39,3.29,.54,4.79,.94,1.51,2.45,2.44,4.06,2.64-.37,1.59-.08,3.35,.97,4.76,1.05,1.42,2.67,2.19,4.28,2.27-.25,1.62,.2,3.35,1.4,4.66,1.16,1.33,2.84,1.96,4.48,1.9-.11,1.64,.48,3.29,1.79,4.51,1.3,1.22,3,1.71,4.62,1.48,.06,1.64,.79,3.26,2.21,4.34,1.39,1.08,3.15,1.42,4.77,1.05,.17,1.62,1.08,3.15,2.59,4.12,1.51,.93,3.26,1.1,4.82,.59,.34,1.62,1.39,3.06,2.98,3.86,1.56,.8,3.35,.8,4.85,.14,.48,1.56,1.68,2.92,3.32,3.57,1.64,.65,3.4,.49,4.85-.31,.62,1.53,1.9,2.75,3.6,3.26,1.7,.51,3.44,.2,4.79-.74,.77,1.45,2.15,2.56,3.89,2.93,.71,.14,1.42,.11,2.09-.01-3.68-16.32,1.82-33.78-17.49-43.66Z"/><path class="o" d="M125.1,88.08c17.08-8.75,35.47-5.4,53.02-8.8-.82,1.39-2.12,2.32-3.62,2.66,.54,1.53,.39,3.29-.54,4.79-.93,1.51-2.44,2.44-4.06,2.64,.37,1.59,.09,3.35-.97,4.76-1.05,1.42-2.67,2.18-4.28,2.28,.25,1.61-.2,3.34-1.39,4.65-1.16,1.33-2.84,1.96-4.48,1.9,.11,1.64-.48,3.29-1.78,4.51-1.31,1.22-3.01,1.7-4.63,1.47-.05,1.64-.79,3.26-2.21,4.34-1.39,1.08-3.15,1.42-4.77,1.05-.17,1.61-1.08,3.15-2.58,4.12-1.51,.93-3.26,1.1-4.83,.59-.34,1.62-1.38,3.06-2.97,3.86-1.57,.79-3.35,.79-4.86,.14-.48,1.56-1.67,2.93-3.32,3.58-1.64,.65-3.4,.48-4.85-.31-.62,1.53-1.9,2.75-3.6,3.26-1.7,.51-3.43,.2-4.79-.74-.76,1.44-2.15,2.55-3.89,2.92-.71,.14-1.42,.11-2.09,0,3.67-16.33-1.82-33.78,17.49-43.67Z"/></g></g></g></g></g></g></svg>