<?xml version="1.0" encoding="UTF-8"?><svg xmlns="http://www.w3.org/2000/svg" xmlns:xlink="http://www.w3.org/1999/xlink" viewBox="0 0 344.16 344.16"><defs><style>.e{fill:#fff;}.f{fill:#c98c68;}.g{fill:#55aea3;}.h{isolation:isolate;}.i{fill:#e94e1b;}.j{fill:#724a5d;}.k{fill:#e5c9a6;mix-blend-mode:multiply;}.l{fill:#f9bb8d;}.m{fill:#432827;}.n{clip-path:url(#d);}.o{fill:#cd4216;}.p{fill:#336d65;}.q{fill:#448b82;}.r{fill:#583636;}</style><clipPath id="d"><path class="j" d="M0,172.08C0,77.04,77.04,0,172.08,0s172.08,77.04,172.08,172.08-77.04,172.07-172.08,172.07S0,267.12,0,172.08Z"/></clipPath></defs><g class="h"><g id="a"/><g id="b"><g id="c"><g><path class="j" d="M0,172.08C0,77.04,77.04,0,172.08,0s172.08,77.04,172.08,172.08-77.04,172.07-172.08,172.07S0,267.12,0,172.08Z"/><g class="n"><g><path class="i" d="M110.97,131.62c0,11.88,28.68,48.65,61.76,48.65s61.56-39.23,61.56-51.12-26.81-11.52-59.89-11.52-63.43,2.09-63.43,13.99Z"/><path class="p" d="M145.07,208.94h52.39v-19.35s-5.55-5.09-23.2-5.09-24.71,3.39-24.71,3.39l-4.48,21.04Z"/><polygon class="l" points="127.76 249.68 217.71 249.68 225.86 205.77 187.84 197.63 187.84 172.63 157.63 172.63 157.63 197.63 119.61 205.77 127.76 249.68"/><path class="k" d="M157.63,177.72s6.79,10.18,15.61,10.18,14.6-10.18,14.6-10.18v-5.09h-30.21v5.09Z"/><path class="l" d="M224.09,136.08c-10.77,30.72-26.63,45.71-50.23,45.71s-38.91-15.34-50.65-45.71c-7.97-20.61-3.86-45.71-3.86-45.71,0-28.97,8.59-60.19,54.51-60.19s54.52,36.21,54.52,64.26c0,0,1.36,25.51-4.29,41.64Z"/><path class="l" d="M105.77,123.31c2.9,9.57,12.9,14.61,15.12,9.61,2.15-4.87,6.59-7.55,5.23-15.67-1.35-8.12-11.81-16.89-16.36-14.43-7.08,3.84-6.37,12.65-3.99,20.5Z"/><path class="l" d="M239.83,122.31c-2.9,9.57-12.89,14.61-15.11,9.61-2.16-4.87-6.58-7.55-5.23-15.67,1.36-8.12,11.82-16.89,16.36-14.44,7.08,3.84,6.37,12.65,3.98,20.5Z"/><path class="i" d="M223.21,117.63s3.96-17.79,14.34-14.66c.36-11.2,.05-20.33,.13-29.1,.41-43.69-63.52-78-95.83-49.56-15.48-5.69-28.63,12.38-34.67,37.41-3.17,13.18-1.17,31.76,.88,42.26,9.9-6.48,14.4,13.66,14.4,13.66l3.66-.39s-7.52-9.42,1.64-17.85c-5.09-7.28,5.46-31.94,10.29-34.28,9.79-4.75,2.86,5.01,29.26,16.11,26.35,11.09,37.48,6.19,51.93,4.84,4.11-.38,.33,9.92-1.52,13.33,10.37,6.81,2.77,17.61,2.77,17.61l2.73,.63Z"/><path class="e" d="M127.76,393.15h89.95l-.9-188.34-23.82-8.08s-5.83,9.04-19.59,9.04-18.53-9.04-18.53-9.04l-25.63,7.06-1.48,189.36Z"/><path class="g" d="M258.67,244.25c1.61,7.64,13.04,132.75,12.29,167.55-2.09,4.09-21.65,11.9-24.03,8.8-3.32-46.91-13.93-160.19-13.93-168.18,0-10.59-8.68-46.64,1.91-46.64s18.33,12.68,23.76,38.48Z"/><path class="g" d="M233.97,263.87l.94-58.09-26.24-4.46-11.21-11.72-9.86,24.19-16.34,14.26-12.62-10.52-11.95-27.93-11.21,11.72-26.24,4.46,.94,58.09s3.75,20.37,3.6,33.27c-.14,12.9-4.41,141.05-4.41,141.05,0,0,23.94,8.46,64.4,8.46s60.74-11.53,60.74-11.53c0,0-4.02-125.07-4.16-137.97-.14-12.9,3.6-33.27,3.6-33.27Z"/><path class="g" d="M85.49,244.25c-1.61,7.64-13.07,132.56-12.32,167.37,2.09,4.09,21.68,12.09,24.06,8.98,3.31-46.91,13.93-160.19,13.93-168.18,0-10.59,8.68-46.64-1.91-46.64s-18.33,12.68-23.76,38.48Z"/><g><path class="e" d="M155.93,107.91c0,2.8-4.62,6.84-10.37,6.84-7.02,0-11.25-4.08-11.25-8.41s6.08-7.21,11.21-6.27c5.65,1.05,10.42,4.75,10.42,7.84Z"/><path class="r" d="M152.72,107.86c0,2.61-1.32,4.92-3.33,6.28-2.54,1.27-7.67,.56-8.8-.18-1.86-1.39-3.06-3.6-3.06-6.1,0-4.19,3.4-7.6,7.6-7.6s7.6,3.4,7.6,7.6Z"/><path class="r" d="M134.42,107.59s-.13-.45-.21-1.25c-.05-.83,.1-2.1,.95-3.33,1.71-2.52,5.67-4.04,9.56-3.79,1.97,.23,3.75,.85,5.38,1.63,1.63,.75,2.95,1.82,3.95,2.84,1.01,1.02,1.56,2.14,1.78,2.95,.2,.82,.07,1.29,.1,1.28,0,0-.05-.47-.38-1.18-.32-.72-1.08-1.55-2.09-2.41-1.01-.87-2.41-1.58-3.91-2.27-1.5-.68-3.28-1.13-4.96-1.35-3.4-.3-7.08,.88-8.77,2.81-1.78,1.97-1.29,4.14-1.4,4.07Z"/><path class="m" d="M150.31,109.19c0,2.67-2.17,4.85-4.84,4.85s-4.84-2.18-4.84-4.85,2.17-4.84,4.84-4.84,4.84,2.16,4.84,4.84Z"/><path class="e" d="M146.55,106.96c0,1.19,.97,2.16,2.17,2.16s2.16-.97,2.16-2.16-.97-2.16-2.16-2.16-2.17,.97-2.17,2.16Z"/><path class="e" d="M147.99,103.64c0,.39-.32,.72-.71,.72s-.72-.32-.72-.72,.32-.71,.72-.71,.71,.32,.71,.71Z"/></g><g><path class="e" d="M190.57,107.91c0,2.8,4.62,6.84,10.37,6.84,7.02,0,11.25-4.08,11.25-8.41s-6.08-7.21-11.21-6.27c-5.65,1.05-10.42,4.75-10.42,7.84Z"/><path class="r" d="M193.78,107.86c0,2.61,1.32,4.92,3.33,6.28,2.54,1.27,7.67,.56,8.8-.18,1.87-1.39,3.07-3.6,3.07-6.1,0-4.19-3.4-7.6-7.6-7.6s-7.59,3.4-7.59,7.6Z"/><path class="r" d="M212.08,107.59c-.11,.07,.38-2.1-1.4-4.07-1.69-1.93-5.37-3.11-8.77-2.81-1.68,.22-3.46,.67-4.95,1.35-1.5,.69-2.9,1.4-3.91,2.27-1.01,.85-1.77,1.69-2.09,2.41-.34,.71-.38,1.18-.38,1.18,0,0-.1-.47,.1-1.28,.21-.8,.76-1.93,1.78-2.95,1.01-1.02,2.33-2.09,3.96-2.84,1.62-.78,3.4-1.4,5.38-1.63,3.89-.25,7.85,1.26,9.56,3.79,.86,1.23,1,2.5,.95,3.33-.08,.81-.21,1.25-.21,1.25Z"/><path class="m" d="M196.19,109.19c0,2.67,2.17,4.85,4.84,4.85s4.84-2.18,4.84-4.85-2.17-4.84-4.84-4.84-4.84,2.16-4.84,4.84Z"/><path class="e" d="M199.94,106.96c0,1.19-.97,2.16-2.16,2.16s-2.16-.97-2.16-2.16,.97-2.16,2.16-2.16,2.16,.97,2.16,2.16Z"/><path class="e" d="M198.51,103.64c0,.39,.32,.72,.71,.72s.72-.32,.72-.72-.32-.71-.72-.71-.71,.32-.71,.71Z"/></g><path class="o" d="M129.82,98.15s4.97-6.63,17.35-7.14c3.53-.14,7.2-.09,8.61,.1,1.41,.19,1.34-5.8,.4-5.9-.93-.09-9.34-.76-13.17,.12-11.05,2.56-13.19,12.81-13.19,12.81Z"/><path class="o" d="M215.2,100.13s-5.11-6.82-17.36-7.82c-3.49-.28-7.13-.37-8.51-.24-1.39,.13-1.49-5.86-.57-5.92,.92-.04,9.23-.4,13.03,.64,11,2.99,13.41,13.33,13.41,13.33Z"/><path class="k" d="M177.46,130.97s-1.56,2.64-4.95,2.64-5.65-1.01-6.15-1.57c-.5-.56,3.34-7.35,3.34-7.35,0,0-1.79,4.75-.98,5.92,.82,1.17,3.02,1.16,4.07,1.16,3.4,0,4.68-.79,4.68-.79Z"/><path class="q" d="M194.06,187.67c2.83,12.9-22.8,40.37-22.8,40.37l11.14-6.98,9.59,11.73,16.67-31.48s-7.14-10.47-14.61-13.64Z"/><path class="q" d="M150.1,187.67c-2.83,12.9,21.16,40.37,21.16,40.37l-11.45-6.11-10.53,13.92-13.79-34.54s7.14-10.47,14.61-13.64Z"/><path class="f" d="M155.88,148.95s.19,.61,.95,1.26c.38,.33,.89,.68,1.5,.93,.3,.11,.62,.24,.91,.26,.15,.01,.23,0,.38-.03l.66-.09c1.7-.22,3.69-.76,5.95-1.16,2.23-.45,4.68-.78,7.2-.83,1.22,.07,2.45,.14,3.65,.21,1.17,.03,2.36,.21,3.51,.42,1.14,.2,2.27,.32,3.28,.58,.99,.23,1.94,.45,2.8,.65,.35,.07,.86,.27,1.06,.24,.51,0,.52-.06,.87-.16,.61-.17,1.08-.56,1.46-.87,.73-.68,.89-1.31,.89-1.31-.03-.03,.23,.68-.34,1.71-.29,.49-.65,1.11-1.34,1.64-.29,.25-1,.56-1.32,.61-.61,.17-.97,0-1.5,0-.91-.11-1.9-.21-2.94-.33-1.01-.1-2.06-.2-3.16-.31-1.08-.11-2.2-.22-3.4-.24-1.16-.04-2.34-.09-3.52-.13-4.61,0-9.25,1.06-13.07,1.12l-.67-.02c-.28,0-.63-.07-.87-.16-.51-.19-.88-.45-1.2-.72-.62-.56-1.02-1.11-1.31-1.6-.61-.99-.42-1.71-.43-1.68Z"/></g></g></g></g></g></g></svg>