<?xml version="1.0" encoding="UTF-8"?><svg xmlns="http://www.w3.org/2000/svg" xmlns:xlink="http://www.w3.org/1999/xlink" viewBox="0 0 344.16 344.16"><defs><style>.e{fill:#fff;}.f{isolation:isolate;}.g{fill:#e94e1b;}.h{fill:#e5c9a6;mix-blend-mode:multiply;}.i{fill:#0b73b1;}.j{fill:#432827;}.k{fill:#004b81;}.l{fill:#042439;}.m{clip-path:url(#d);}.n{fill:#fedfb3;}.o{fill:#432918;}.p{fill:#cea27b;}.q{fill:#583636;}</style><clipPath id="d"><path class="g" d="M344.16,172.08c0,95.04-77.04,172.08-172.08,172.08S0,267.12,0,172.08,77.04,0,172.08,0s172.08,77.04,172.08,172.08Z"/></clipPath></defs><g class="f"><g id="a"/><g id="b"><g id="c"><g><path class="g" d="M344.16,172.08c0,95.04-77.04,172.08-172.08,172.08S0,267.12,0,172.08,77.04,0,172.08,0s172.08,77.04,172.08,172.08Z"/><g class="m"><g><path class="o" d="M106.11,130.89c0,11.89,28.69,48.65,61.76,48.65s61.57-39.23,61.57-51.11-26.82-11.52-59.89-11.52-63.44,2.09-63.44,13.98Z"/><path class="l" d="M140.2,208.22h52.39v-19.35s-5.54-5.09-23.2-5.09-24.7,3.4-24.7,3.4l-4.49,21.04Z"/><polygon class="n" points="122.9 248.95 212.85 248.95 220.99 205.05 182.98 196.91 182.98 171.9 152.76 171.9 152.76 196.91 114.75 205.05 122.9 248.95"/><path class="h" d="M152.76,176.99s6.79,10.19,15.62,10.19,14.6-10.19,14.6-10.19v-5.09h-30.21v5.09Z"/><path class="n" d="M219.22,135.36c-10.77,30.71-26.63,45.71-50.22,45.71s-38.91-15.34-50.66-45.71c-7.97-20.62-3.86-45.71-3.86-45.71,0-28.97,8.59-60.19,54.52-60.19s54.51,36.2,54.51,64.26c0,0,1.36,25.52-4.29,41.64Z"/><path class="n" d="M100.91,122.59c2.9,9.57,12.89,14.61,15.11,9.61,2.16-4.87,6.58-7.55,5.23-15.67-1.36-8.12-11.82-16.89-16.36-14.44-7.08,3.84-6.37,12.65-3.99,20.5Z"/><path class="n" d="M234.97,121.59c-2.9,9.57-12.9,14.61-15.12,9.6-2.16-4.87-6.59-7.55-5.23-15.68,1.35-8.12,11.82-16.88,16.35-14.43,7.08,3.84,6.37,12.65,3.99,20.5Z"/><path class="o" d="M218.34,116.9s3.96-17.78,14.34-14.65c.24-7.38,.54-19.94,.54-19.94,0,0,4.86-2.83,5.43-6.79-8.94-10.07-15-60.99-67.55-62.79-10.72-.37-22.98-1.36-31.51,10.04-19.64-10.23-32.08,30.92-40.36,42.01-.84,1.13,5.99,2.89,5.7,4.28-2.53,12.04-3.59,24.78-1.75,34.2,9.9-6.48,14.4,13.66,14.4,13.66l3.66-.39s-5.68-9.97,1.64-17.85c-1.4-31.35,15.03-28.02,20.72-35.2,20.7-19.53,9.03,5.44,35.56,16.23,24.66,10.04,35.2,9.02,33.68,18.97,7.76,6.59,2.76,17.61,2.76,17.61l2.73,.62Z"/><path class="e" d="M122.9,392.43h89.95l-.9-188.34-23.82-8.08s-5.84,9.05-19.59,9.05-18.54-9.05-18.54-9.05l-25.63,7.07-1.48,189.36Z"/><path class="k" d="M192.59,188.87l-7.68,27.74-16.63,16.07-4.41,204.79,65.8-3.08s-4.02-125.07-4.16-137.97c-.14-12.9,3.61-33.27,3.61-33.27l.93-58.09-26.24-4.46-11.21-11.72Z"/><path class="i" d="M189.2,186.95c2.83,12.9-20.92,45.73-20.92,45.73l21.06-2.72-2.52-8.15,12.3,.46,4.68-21.68s-7.14-10.47-14.61-13.64Z"/><path class="k" d="M253.8,243.52c1.61,7.64,13.04,132.76,12.29,167.56-2.09,4.08-21.65,11.91-24.02,8.8-3.32-46.91-13.93-160.19-13.93-168.18,0-10.59-8.68-46.64,1.91-46.64s18.34,12.68,23.76,38.47Z"/><path class="k" d="M141.84,188.87l10.93,28.19,15.51,15.62-4.41,204.79-59.35-3.08s4.27-125.07,4.41-137.97-3.61-33.27-3.61-33.27l-.93-58.09,26.24-4.46,11.21-11.72Z"/><path class="k" d="M80.63,243.52c-1.61,7.64-13.07,132.57-12.31,167.38,2.09,4.09,21.68,12.09,24.06,8.98,3.31-46.91,13.93-160.19,13.93-168.18,0-10.59,8.69-46.64-1.91-46.64s-18.34,12.68-23.76,38.47Z"/><path class="h" d="M172.59,130.25s-1.56,2.64-4.96,2.64-5.65-1.01-6.15-1.57c-.5-.56,3.34-7.36,3.34-7.36,0,0-1.79,4.75-.98,5.92,.81,1.18,3.01,1.15,4.07,1.15,3.4,0,4.68-.79,4.68-.79Z"/><path class="p" d="M151.31,149.18s.02,.17,.18,.39c.16,.22,.42,.52,.8,.84,.38,.32,.9,.65,1.51,.89,.3,.11,.61,.23,.89,.23,.15,0,.21-.02,.35-.04l.66-.1c.91-.11,1.71-.3,2.74-.53,1.01-.21,2.08-.44,3.19-.67,2.23-.46,4.69-.79,7.23-.84,1.23,.07,2.45,.15,3.66,.22,1.17,.03,2.36,.22,3.52,.43,1.15,.21,2.28,.33,3.28,.61,.99,.24,1.93,.46,2.79,.67,.35,.07,.86,.27,1.03,.25,.52,0,.49-.04,.84-.13,.6-.16,1.08-.52,1.46-.83,.74-.65,.92-1.28,.92-1.28-.04-.04,.25,.67-.3,1.74-.28,.5-.64,1.13-1.33,1.69-.29,.25-1.04,.58-1.34,.64-.64,.18-.98,0-1.53,0-.91-.1-1.9-.2-2.95-.31-1-.09-2.06-.19-3.15-.29-1.08-.1-2.19-.2-3.39-.23-1.16-.04-2.33-.08-3.51-.13-2.27-.03-4.59,.29-6.81,.52-1.11,.12-2.18,.29-3.23,.37-1.01,.09-2.14,.2-3.03,.18l-.66-.02c-.29,0-.65-.08-.9-.18-.52-.2-.9-.46-1.23-.74-.61-.57-1.01-1.14-1.29-1.64-.61-1.01-.39-1.74-.4-1.7Z"/><path class="o" d="M130.17,93.21s4.55-4.42,15.69-4.91c3.17-.14,6.48-.15,7.74-.04,1.27,.11,1.28-3.84,.44-3.88-.84-.04-8.4-.38-11.85,.25-9.97,1.82-12.03,8.59-12.03,8.59Z"/><path class="o" d="M203.1,93.21s-4.55-4.42-15.69-4.91c-3.17-.14-6.48-.15-7.74-.04-1.27,.11-1.28-3.84-.44-3.88,.84-.04,8.4-.38,11.85,.25,9.97,1.82,12.03,8.59,12.03,8.59Z"/><g><path class="e" d="M154.59,110.11c0,1.93-4.01,3.85-10.11,3.85-7.45,0-11.83-2.99-11.83-5.31,0-4.59,6.62-6.65,12.05-5.65,6,1.11,9.89,3.85,9.89,7.11Z"/><path class="q" d="M150.23,108.79c0,2.11-.97,3.9-2.59,5-2.13,.16-5.69,.39-7.49-.21-1.5-1.12-2.45-3.26-2.17-5.26,.45-3.12,2.75-5.33,6.13-5.33s6.12,2.2,6.12,5.79Z"/><path class="q" d="M132.65,109.34s-.03-.45-.07-1.22c.09-.78,.22-2.02,1.16-3.15,.92-1.12,2.48-1.96,4.18-2.36,1.72-.35,3.57-.41,5.39-.27,1.8,.08,3.65,.58,5.25,1.24,1.62,.64,2.95,1.62,3.96,2.57,1.02,.94,1.62,1.97,1.9,2.73,.29,.77,.16,1.24,.18,1.24,0,0-.06-.46-.48-1.09-.39-.65-1.19-1.38-2.22-2.14-1.03-.76-2.38-1.41-3.86-1.97-1.48-.58-3.13-.81-4.87-1.02-3.38-.36-7-.06-8.8,1.66-1.81,1.74-1.62,3.88-1.72,3.79Z"/><path class="j" d="M147.72,109.66c0,1.9-1.54,3.44-3.44,3.44s-3.44-1.54-3.44-3.44,1.54-3.44,3.44-3.44,3.44,1.54,3.44,3.44Z"/><path class="e" d="M145.05,108.07c0,.84,.69,1.53,1.54,1.53s1.53-.69,1.53-1.53-.69-1.54-1.53-1.54-1.54,.69-1.54,1.54Z"/><path class="e" d="M146.06,105.71c0,.27-.22,.5-.5,.5s-.51-.22-.51-.5,.22-.51,.51-.51,.5,.23,.5,.51Z"/></g><g><path class="e" d="M182.47,110.11c0,1.93,4.01,3.85,10.11,3.85,7.45,0,11.83-2.99,11.83-5.31,0-4.59-6.62-6.65-12.05-5.65-6,1.11-9.89,3.85-9.89,7.11Z"/><path class="q" d="M186.82,108.79c0,2.11,.98,3.9,2.6,5,2.13,.16,5.69,.39,7.49-.21,1.5-1.12,2.45-3.26,2.17-5.26-.45-3.12-2.75-5.33-6.12-5.33s-6.13,2.2-6.13,5.79Z"/><path class="q" d="M204.41,109.34c-.1,.09,.09-2.05-1.72-3.79-1.8-1.72-5.42-2.03-8.8-1.66-1.74,.21-3.4,.44-4.87,1.02-1.48,.56-2.84,1.21-3.86,1.97-1.03,.76-1.82,1.5-2.21,2.14-.42,.63-.48,1.09-.48,1.09,.02,0-.11-.47,.18-1.24,.27-.76,.88-1.8,1.9-2.73,1-.95,2.33-1.93,3.96-2.57,1.61-.66,3.46-1.17,5.25-1.24,1.82-.14,3.67-.08,5.39,.27,1.7,.41,3.26,1.24,4.18,2.36,.94,1.13,1.07,2.37,1.16,3.15-.04,.78-.07,1.22-.07,1.22Z"/><path class="j" d="M189.34,109.66c0,1.9,1.54,3.44,3.44,3.44s3.44-1.54,3.44-3.44-1.54-3.44-3.44-3.44-3.44,1.54-3.44,3.44Z"/><path class="e" d="M192.01,108.07c0,.84-.69,1.53-1.54,1.53s-1.53-.69-1.53-1.53,.69-1.54,1.53-1.54,1.54,.69,1.54,1.54Z"/><path class="e" d="M191,105.71c0,.27,.22,.5,.5,.5s.51-.22,.51-.5-.22-.51-.51-.51-.5,.23-.5,.51Z"/></g><path class="i" d="M145.07,186.95c-2.82,12.9,23.21,45.73,23.21,45.73l-21.67-2.63,.84-8.23-12.31,.46-4.68-21.68s7.14-10.47,14.61-13.64Z"/><path class="e" d="M172.15,250.1c0,2.12-1.72,3.85-3.85,3.85s-3.85-1.73-3.85-3.85,1.73-3.86,3.85-3.86,3.85,1.73,3.85,3.86Z"/><path class="e" d="M172.15,282.07c0,2.13-1.72,3.86-3.85,3.86s-3.85-1.73-3.85-3.86,1.73-3.85,3.85-3.85,3.85,1.73,3.85,3.85Z"/><path class="e" d="M172.15,314.04c0,2.13-1.72,3.85-3.85,3.85s-3.85-1.73-3.85-3.85,1.73-3.86,3.85-3.86,3.85,1.73,3.85,3.86Z"/><circle class="e" cx="168.3" cy="346.01" r="3.85"/></g></g></g></g></g></g></svg>