<?xml version="1.0" encoding="UTF-8"?><svg xmlns="http://www.w3.org/2000/svg" xmlns:xlink="http://www.w3.org/1999/xlink" viewBox="0 0 344.16 344.16"><defs><style>.e{fill:#004b74;}.f,.g{fill:#e9e9e9;}.h{fill:#fff;}.i{fill:#e09d72;}.j{isolation:isolate;}.g,.k{mix-blend-mode:multiply;}.l{fill:#f9bb8d;}.m{fill:#fdfdfd;}.n{fill:none;stroke:#301b16;stroke-miterlimit:10;stroke-width:3.98px;}.o{clip-path:url(#d);}.p{fill:#95c11f;}.q{fill:#01324f;}.r{fill:#301b16;}.s{fill:#432918;}.k{fill:#e7dcd6;}</style><clipPath id="d"><path class="p" d="M0,172.08C0,77.04,77.04,0,172.08,0s172.08,77.04,172.08,172.08-77.04,172.07-172.08,172.07S0,267.12,0,172.08Z"/></clipPath></defs><g class="j"><g id="a"/><g id="b"><g id="c"><g><path class="p" d="M0,172.08C0,77.04,77.04,0,172.08,0s172.08,77.04,172.08,172.08-77.04,172.07-172.08,172.07S0,267.12,0,172.08Z"/><g class="o"><g><path class="r" d="M224.74,191.52c-20.63,24.5-46.77,32.62-57.01,32.58-10.47-.05-38.74-7.36-59.75-33.04-11.9-14.54-16.73-43.12-19.79-63.06-1.76-11.46-3.28-47.16,1.53-60.94-14.31-16.41-7.32-31.84-7.32-31.84,0,0,5.9,15.14,41.68,6.66,10.61-2.52,29.5-5.07,41.36-7.12,17.45-3.01,35.88-.36,38.34,9.57,20.14-.63,30.31,9.86,35.25,18.84,7.2,13.08,9.83,31.39,7.9,48.79-2.55,22.98-9.8,64.86-22.18,79.55Z"/><path class="l" d="M101.74,144.6s2.52-19.02-14.01-14.44c-12.71,3.53,.2,38.86,8.55,41.91,7.14,2.62,8.72-2.86,8.72-2.86l-3.26-24.61Z"/><path class="l" d="M231.98,145.11s-2.37-19.04,14.11-14.33c12.69,3.64-.5,38.86-8.88,41.84-7.17,2.56-8.7-2.93-8.7-2.93l3.47-24.58Z"/><path class="l" d="M259.37,359.58l9.37-96.46s-34.49-15.28-54.31-20.12c-18.67-4.56-40.55-4.15-42.84-4.09-2.28-.08-24.17-.66-42.87,3.75-19.86,4.68-53.9,19.69-53.9,19.69,0,0,6.5,45.03,12.84,97.23h171.71Z"/><path class="l" d="M167.57,274.65s45.57-31.02,42.81-32.56c-16.09-8.91-14.18-34.13-14.18-34.13l-58.35-3.28s3.55,35.67-13.75,40.02c-1.27,.32,43.47,29.95,43.47,29.95Z"/><path class="i" d="M136.98,226.01c2.42,.81,4.82,2.11,7.08,4.06,7.67,6.57,25.48,16.41,36.16,13.11,7.91-2.45,13.37-8.57,18.92-14.92-3.76-9.56-2.94-20.29-2.94-20.29l-58.35-3.28s1.06,10.85-.87,21.32Z"/><path class="l" d="M233.62,153.71c-2.88,20.86-3.76,32.92-15.9,47.63-8.44,10.23-26.86,25.65-40.33,31.92-3.78,1.76-15.93,1.96-19.74,.48-14.73-5.69-35.43-20.76-42.64-32.81-9.6-16.03-12.16-28.81-14.94-47.75-3.34-22.78-3.64-14.74-3.55-36.22,.17-43.74,17.18-75.26,66.21-75.07,49.08,.2,74,27.78,74.57,72.68,.31,24.6-.5,16.27-3.67,39.14Z"/><path class="r" d="M134.82,195.97c-3.18,10.7,2.81,26.77,4.86,28.14,6.15,4.09,12.47,7.52,17.96,9.63,3.81,1.47,15.96,1.28,19.74-.48,4.21-1.96,8.9-4.81,13.62-8.12,2.28-1.6,9.2-18.72,8.01-29.17-1.19-10.45-18.85-14.68-32.79-14.43-13.94,.25-28.22,3.73-31.41,14.43Z"/><path class="l" d="M140.09,196.93c-2.05,6.89,7.8,20.62,9.12,21.5,3.96,2.63,8.04,4.84,11.58,6.21,1.08,.41,3.89-14,6.13-13.99,2.86,.01,5.23,14.31,6.6,13.68,2.71-1.26,5.74-3.1,8.77-5.24,1.47-1.02,12.05-17.69,11.29-24.43-.76-6.73-14.68-1.17-28.36-1.17-8.98,0-23.08-3.46-25.14,3.44Z"/><path class="k" d="M121.19,100.89c6.61-6.82,56.85,18.32,66.58,16.96,14.23-1.99,14.2-13.97,23.58-13.93,21.73,.08,15.52,26.8,18.88,44.29,.9,4.7,2.04,1.39,3.3,6.25,.03-.25,.07-.48,.1-.73,3.16-22.87,3.98-14.54,3.67-39.14-.57-44.9-24.09-75.46-73.16-75.66-49.03-.19-67.45,34.31-67.61,78.05-.08,20.48,5.73,14.08,8.66,33.19,4.23-8.84,8.21-41.2,16.02-49.27Z"/><path class="r" d="M116.21,94.46c14.4-14.41,65.85,39.67,86.89,3.59,24.92,.42,21.46,11.72,25.41,20.68,1.82,4.15,1.76,38.45,1.76,38.45,0,0,3.29-3.06,3.34-3.48,3.16-22.87,6.75-13.91,6.44-38.52-.57-44.9-26.87-76.08-75.94-76.28-49.03-.19-69.87,34.28-70.04,78.02-.09,21.48,2.64,13.47,5.98,36.25,.05,.35,4.94-1.51,4.94-1.51,0,0-7.2-38.8,11.21-57.21Z"/><path class="l" d="M76.07,359.58l8.53-25.52s24.08-81.71-9.78-71.71c-21,6.2-35.16,56.06-43.38,97.23h44.63Z"/><path class="l" d="M268.05,359.58h44.65c-7.92-41-21.63-90.15-42.39-96.46-33.78-10.26-10.34,71.64-10.34,71.64l8.08,24.82Z"/><g><path class="h" d="M216.38,144.79s-.65,3.65-3.96,6.74c-2.48,2.33-17.6,3.85-19.2,3.13-2.37-1.08-5.46-6.2-5.46-6.2,0,0,5.35-7.29,11.92-7.27,6.55,.03,16.69,3.6,16.69,3.6Z"/><path class="s" d="M199.68,142.63c4.75,.02,11.34,1.88,14.64,2.91,.75,.24,.36,2.83-.92,4.97,2.71-2.47,2.99-5.73,2.99-5.73,0,0-10.14-3.57-16.69-3.6-6.57-.02-11.92,7.27-11.92,7.27,0,0,.2,.73,.76,1.18,1.18-1.46,5.47-7.03,11.14-7.01Z"/><path class="s" d="M206.9,147.89c-.02,3.67-3.01,6.64-6.68,6.63-3.68-.02-6.65-3-6.63-6.68,.01-3.68,3-6.65,6.68-6.63,3.67,.01,6.64,3,6.63,6.68Z"/><path class="h" d="M205.94,147.89c0,2.81-7.9-5.13-5.07-5.13,2.81,.02,5.09,2.31,5.07,5.13Z"/></g><path class="r" d="M111.32,133.29s3.76-2.39,12.15-4.97c9.13-2.79,21.59,1.6,22.08,1.6,.85,0,2.11-.22,2.12-2.45,0-2.24-.67-4.05-1.52-4.05-.48,0-12.83-2.97-22.11-.26-7.09,2.07-12.72,10.12-12.72,10.12Z"/><path class="r" d="M223.65,133.73s-3.69-2.43-11.94-5.05c-8.98-2.87-21.31,1.42-21.79,1.42-.84,0-2.07-.24-2.07-2.47,0-2.24,.7-4.04,1.54-4.04,.47,0,12.67-2.87,21.8-.09,6.99,2.13,12.46,10.22,12.46,10.22Z"/><g><path class="h" d="M119,144.41s.62,3.65,3.9,6.78c2.47,2.35,17.58,3.98,19.17,3.27,2.39-1.06,5.51-6.15,5.51-6.15,0,0-5.29-7.34-11.86-7.36-6.56-.03-16.72,3.46-16.72,3.46Z"/><path class="s" d="M135.72,142.38c-4.75-.02-11.36,1.79-14.66,2.79-.76,.23-.38,2.83,.88,4.98-2.69-2.49-2.94-5.75-2.94-5.75,0,0,10.17-3.49,16.72-3.46,6.57,.02,11.86,7.36,11.86,7.36,0,0-.22,.72-.77,1.17-1.16-1.48-5.4-7.07-11.09-7.1Z"/><path class="s" d="M128.45,147.57c-.02,3.67,2.95,6.67,6.63,6.69,3.68,.01,6.67-2.96,6.68-6.64,.02-3.67-2.95-6.66-6.63-6.68-3.67-.01-6.67,2.96-6.68,6.63Z"/><path class="h" d="M129.41,147.59c-.01,2.81,7.94-5.07,5.11-5.08-2.81-.01-5.11,2.26-5.11,5.08Z"/></g><polygon class="i" points="166.84 175.85 160.89 171.1 166.91 157.19 166.84 175.85"/><polygon class="i" points="151.36 201.45 146.94 197.46 154.32 199.38 180.01 199.19 187.21 196.93 181.63 201.46 151.36 201.45"/><g><path class="n" d="M152.78,165.92c-5.97,4.68-24.55,4.94-31.84,0-7.3-4.94-15.92-24.03-8.3-30.41,7.63-6.37,40.14-6.22,45.45,0,5.31,6.23,.66,25.73-5.31,30.41Z"/><path class="n" d="M182.64,165.92c5.97,4.68,24.55,4.94,31.85,0,7.3-4.94,15.93-24.03,8.3-30.41-7.63-6.37-40.15-6.22-45.45,0-5.31,6.23-.66,25.73,5.31,30.41Z"/><line class="n" x1="160.41" y1="141.37" x2="175.01" y2="141.37"/></g><g><path class="m" d="M259.37,359.58l9.37-96.46s-34.49-15.28-54.31-20.12c-1.26,26.62-24.81,41.55-45.38,41.55s-41.86-17.63-41.72-42.6c-19.86,4.68-52.51,20.41-52.51,20.41,0,0,6.5,45.03,12.84,97.23h171.71Z"/><path class="g" d="M259.37,359.58l3.3-33.99c-.15,.08-.3,.14-.46,.21-14.35,7.85-13.36,19.71-13.93,33.78h11.09Z"/><path class="g" d="M94.45,359.58c-5.08-17.32-9.25-31.24-11.19-35.12,1.42,10.98,2.92,22.87,4.41,35.12h6.78Z"/><path class="e" d="M76.07,359.58l8.53-25.52s24.08-81.71-9.78-71.71c-21,6.2-35.16,56.06-43.38,97.23h44.63Z"/><path class="g" d="M76.07,359.58l8.53-25.52s3.6-12.24,6.05-26.66c-9.01,14.13-21.61,24.45-25.6,42.24-.75,3.34-1.63,6.65-2.56,9.93h13.57Z"/><path class="e" d="M268.05,359.58h44.65c-7.92-41-21.63-90.15-42.39-96.46-33.78-10.26-10.34,71.64-10.34,71.64l8.08,24.82Z"/><path class="g" d="M268.05,359.58h16c-1.1-4.4-2.3-8.75-3.7-12.97-4.41-13.31-14.5-19.84-24.31-28.19,1.97,9.47,3.93,16.34,3.93,16.34l8.08,24.82Z"/><path class="f" d="M208.56,239.67s-7.28,37.04-39.44,36.17c-32.27-.87-36.7-38.44-36.7-38.44l-5.09,4.54s-2.61,47.57,42.42,46.58c45.03-.99,44.67-45.53,44.67-45.53l-5.87-3.33Z"/><path class="e" d="M140.35,359.58v-25.94c-12.28-42.8-13.08-79.26-13.01-91.71-19.86,4.68-52.51,20.41-52.51,20.41,0,0,4.67,43.56,8.68,97.23h56.85Z"/><path class="e" d="M260.88,359.58c3.7-53.62,7.86-96.46,7.86-96.46,0,0-34.49-15.28-54.31-20.12-.58,12.38-1.76,53.83-13.71,90.31l.31,26.28h59.85Z"/><path class="g" d="M260.88,359.58c.75-10.89,1.52-21.35,2.27-31.08-.25,.41-.49,.83-.78,1.25-6.05,8.75-10.34,18.97-13.39,29.82h11.9Z"/><path class="q" d="M211.71,359.58l10.41-27.6-13.44-4.31,23.56-5.97,11.28-71.33-29.1-7.38s-1.32,48.53-13.71,90.31c.08,7.08,.2,16.93,.3,26.28h10.69Z"/><path class="q" d="M133.06,326.62l-13.44,4.31,10.81,28.65h10.27c.11-9.65,.23-19.99,.31-27.34-12.38-41.78-13.71-90.31-13.71-90.31l-29.09,7.38,11.28,71.32,23.55,5.97Z"/></g></g></g></g></g></g></g></svg>