<?xml version="1.0" encoding="UTF-8"?><svg xmlns="http://www.w3.org/2000/svg" xmlns:xlink="http://www.w3.org/1999/xlink" viewBox="0 0 344.16 344.16"><defs><style>.e{fill:#a81916;}.f,.g{fill:#fff;}.h{fill:#c13a2a;}.i{fill:none;stroke:#301b16;stroke-miterlimit:10;stroke-width:3.67px;}.j{fill:#e09d72;}.k{isolation:isolate;}.l{fill:#724a5d;}.m{fill:#e9e9e9;}.m,.n{mix-blend-mode:multiply;}.o{fill:#f9bb8d;}.g{mix-blend-mode:soft-light;opacity:.4;}.p{fill:#c31b1c;}.q{clip-path:url(#d);}.r{fill:#432918;}.s{fill:#352e35;}.n{fill:#e7dcd6;}.t{fill:#ededed;}</style><clipPath id="d"><path class="l" d="M0,172.08C0,77.04,77.04,0,172.08,0s172.09,77.04,172.09,172.08-77.04,172.08-172.09,172.08S0,267.12,0,172.08Z"/></clipPath></defs><g class="k"><g id="a"/><g id="b"><g id="c"><g><path class="l" d="M0,172.08C0,77.04,77.04,0,172.08,0s172.09,77.04,172.09,172.08-77.04,172.08-172.09,172.08S0,267.12,0,172.08Z"/><g class="q"><g><path class="s" d="M219.39,188.57c-19.02,22.57-43.12,30.06-52.55,30.02-9.66-.04-35.72-6.78-55.07-30.45-10.97-13.41-15.42-39.74-18.25-58.13-1.63-10.56-6.04-44.97,1.41-56.18,5.33-8.03,12.77-14.96,22.73-20.11,1.24-.64-9.95-7.13-8.63-7.72,.53-.24,12.64,3.07,12,0-1.02-4.8-2.73-10.78-2.73-10.78,0,0,6.1,8.87,15.87,8.84,10.06-.03,19.48-.05,30.58,0,13.74,.05,33.07-.33,35.34,8.82,18.57-.57,27.93,9.09,32.49,17.37,6.64,12.06,9.06,28.94,7.28,44.98-2.35,21.18-9.03,59.79-20.45,73.33Z"/><path class="o" d="M106,145.31s2.32-17.53-12.9-13.31c-11.72,3.26,.17,35.83,7.88,38.64,6.59,2.41,8.04-2.65,8.04-2.65l-3.02-22.68Z"/><path class="o" d="M226.06,145.78s-2.18-17.55,13.01-13.2c11.7,3.35-.46,35.82-8.18,38.56-6.61,2.36-8.02-2.7-8.02-2.7l3.19-22.66Z"/><path class="o" d="M253.15,344.16l8.71-89.59s-31.79-14.09-50.07-18.54c-17.21-4.21-37.38-3.83-39.49-3.77-2.1-.07-22.28-.61-39.51,3.45-18.31,4.32-49.68,18.16-49.68,18.16,0,0,6.8,41.89,13.36,90.3H253.15Z"/><path class="o" d="M166.69,265.2s42.79-28.96,40.24-30.37c-14.83-8.22-13.85-31.1-13.85-31.1l-53.79-3.03s3.27,32.88-12.67,36.89c-1.17,.3,40.08,27.61,40.08,27.61Z"/><path class="j" d="M138.49,220.34c2.23,.76,4.43,1.96,6.53,3.75,7.07,6.05,23.48,15.13,33.34,12.09,7.29-2.26,12.7-8.62,17.81-14.47-3.47-8.82-3.09-17.98-3.09-17.98l-53.79-3.03s.99,10-.8,19.64Z"/><path class="o" d="M227.57,153.71c-2.65,19.24-3.47,30.35-14.66,43.91-7.78,9.43-24.74,23.65-37.17,29.43-3.49,1.62-14.69,1.8-18.21,.44-13.57-5.24-32.66-19.13-39.31-30.25-8.85-14.77-11.21-26.54-13.77-44.01-3.08-21-3.35-13.59-3.27-33.39,.16-40.32,15.83-69.38,61.04-69.2,45.24,.18,68.21,25.61,68.73,66.99,.29,22.69-.47,14.99-3.38,36.08Z"/><path class="n" d="M118.74,124.75c6.1-6.29,15.67-4.66,24.17-4.88,8-.21,25.68-2.99,31.61-9.85,5.26-6.08,14.89-14.93,23.53-14.9,20.04,.09,23.29,37.4,26.4,53.51,.83,4.32,1.88,1.29,3.04,5.76,.03-.23,.07-.45,.09-.68,2.91-21.08,3.67-13.39,3.38-36.08-.52-41.39-22.2-69.57-67.44-69.74-45.21-.18-62.17,31.62-62.33,71.95-.07,18.88,5.29,12.98,7.99,30.61,3.89-8.15,2.37-18.25,9.57-25.69Z"/><path class="s" d="M114.84,122.16c15.03-11.25,58.42-1.45,77.81-34.7,22.98,.38,26.58,25.74,30.22,34.01,1.69,3.82,1.62,35.44,1.62,35.44,0,0,3.04-2.83,3.08-3.21,2.91-21.08,6.23-12.83,5.94-35.51-.52-41.39-24.76-70.13-70-70.31-45.21-.18-64.41,31.6-64.57,71.92-.08,19.8,2.43,12.42,5.51,33.42,.05,.32,4.57-1.39,4.57-1.39,0,0,2.8-27.42,5.82-29.68Z"/><path class="o" d="M84.03,344.16l8.08-24.19s22.2-75.32-9.01-66.11c-19.48,5.76-32.57,52.23-40.12,90.3h41.04Z"/><path class="o" d="M261.44,344.16h41.08c-7.28-37.93-19.96-83.74-39.21-89.59-31.14-9.46-9.53,66.04-9.53,66.04l7.66,23.55Z"/><g><path class="f" d="M211.69,145.49s-.61,3.36-3.65,6.22c-2.29,2.15-16.23,3.54-17.7,2.88-2.19-.99-5.03-5.71-5.03-5.71,0,0,4.93-6.72,10.99-6.7,6.04,.02,15.39,3.31,15.39,3.31Z"/><path class="r" d="M196.29,143.51c4.37,.02,10.46,1.73,13.49,2.68,.7,.22,.33,2.61-.84,4.58,2.5-2.27,2.75-5.28,2.75-5.28,0,0-9.35-3.29-15.39-3.31-6.05-.02-10.99,6.7-10.99,6.7,0,0,.2,.67,.7,1.09,1.08-1.35,5.03-6.48,10.28-6.46Z"/><path class="r" d="M202.95,148.34c-.02,3.39-2.77,6.12-6.17,6.11-3.39,0-6.12-2.77-6.1-6.16,0-3.39,2.77-6.13,6.15-6.11,3.4,.02,6.13,2.77,6.12,6.16Z"/><path class="f" d="M202.07,148.34c0,2.6-7.27-4.73-4.68-4.71,2.59,0,4.69,2.12,4.68,4.71Z"/></g><path class="s" d="M114.84,134.88s3.47-2.2,11.2-4.57c8.42-2.57,19.9,1.47,20.35,1.48,.79,0,1.94-.2,1.96-2.26,0-2.06-.62-3.73-1.41-3.74-.43,0-11.82-2.75-20.37-.24-6.55,1.91-11.72,9.33-11.72,9.33Z"/><path class="s" d="M218.39,135.29s-3.4-2.23-11.01-4.66c-8.28-2.64-19.64,1.31-20.08,1.31-.78,0-1.91-.22-1.91-2.27,.02-2.06,.65-3.73,1.42-3.73,.44,0,11.68-2.65,20.1-.09,6.44,1.97,11.49,9.43,11.49,9.43Z"/><g><path class="f" d="M121.91,145.13s.58,3.37,3.6,6.25c2.27,2.17,16.2,3.67,17.67,3.02,2.2-.98,5.07-5.67,5.07-5.67,0,0-4.88-6.77-10.92-6.79-6.06-.02-15.42,3.19-15.42,3.19Z"/><path class="r" d="M137.33,143.27c-4.37-.02-10.46,1.64-13.52,2.58-.7,.21-.34,2.6,.82,4.59-2.49-2.3-2.72-5.31-2.72-5.31,0,0,9.37-3.22,15.42-3.19,6.05,.02,10.92,6.79,10.92,6.79,0,0-.2,.66-.7,1.08-1.08-1.36-4.98-6.52-10.23-6.54Z"/><path class="r" d="M130.64,148.05c-.02,3.4,2.72,6.16,6.11,6.17,3.39,0,6.14-2.72,6.16-6.12,0-3.38-2.72-6.15-6.11-6.16-3.4-.01-6.15,2.72-6.16,6.11Z"/><path class="f" d="M131.51,148.07c-.02,2.6,7.31-4.68,4.72-4.69-2.6,0-4.71,2.09-4.72,4.69Z"/></g><polygon class="j" points="166.02 174.12 160.53 169.74 166.09 156.92 166.02 174.12"/><polygon class="j" points="152.26 195.63 148.19 191.95 154.99 193.72 178.66 193.55 185.31 191.45 180.16 195.64 152.26 195.63"/><g><path class="t" d="M260.31,344.16h44.48c-7.5-38.19-21.85-85.07-41.38-90.92-31.17-9.34-9.27,66.07-9.27,66.07,0,0,3.19,12.88,6.17,24.85Z"/><path class="g" d="M292.95,344.16h11.83c-6.55-33.33-18.3-73.27-34.19-86.8,9.5,16.26,16.37,35.02,20.23,53.15,2.48,11.64,2.76,22.65,2.13,33.65Z"/><path class="m" d="M260.31,344.16h12.26c-6.29-8.92-10.99-23.27-15.55-43.83-.04-.2-5.87,6.52-6.03,6.39,1.65,7.42,3.15,12.58,3.15,12.58,0,0,3.19,12.88,6.17,24.85Z"/><path class="t" d="M86.48,344.16l5.97-24.85s21.91-75.41-9.27-66.07c-19.56,5.86-36.03,52.73-43.82,90.92h47.11Z"/><path class="m" d="M86.48,344.16l5.97-24.85s1.32-4.53,2.84-11.22c-7.36,8.57-14.04,26.2-18.7,31.72-1.32,1.58-2.7,2.99-4.1,4.35h13.98Z"/><path class="f" d="M131.22,248.81s8.5,7.39,38.03,7.39,38.03-7.39,38.03-7.39v45.95h-76.06v-45.95Z"/><path class="h" d="M253.47,344.16l8.48-90.92s-34.48-16.89-54.15-19.22c-16.23,39.53-39.97,55.84-39.97,55.84,0,0-25.45-24.38-39.22-54.44-18.29,4.39-45.43,17.81-45.43,17.81,0,0,6.28,42.26,12.36,90.92H253.47Z"/><g><path class="e" d="M86.36,275.24c1.44,10.26,3.26,23.48,5.24,38.31l16.7-19.46-21.94-18.85Z"/><path class="e" d="M140.52,256.57c-4.31-6.5-8.48-13.65-11.91-21.14-4.57,1.1-9.7,2.76-14.81,4.63l23.54,20.21,3.17-3.69Z"/><path class="e" d="M83.19,253.24s.08,.52,.21,1.43l2.27-2.63c-1.57,.74-2.48,1.2-2.48,1.2Z"/><polygon class="e" points="166.64 344.16 142.12 323.12 124.07 344.16 166.64 344.16"/><path class="e" d="M217.05,235.85c-3.28-.84-6.42-1.5-9.25-1.83-3.03,7.36-6.31,13.92-9.65,19.71l2.04,1.76,16.85-19.64Z"/><polygon class="e" points="253.47 344.16 254.93 328.57 241.54 344.16 253.47 344.16"/><path class="e" d="M257.18,304.4l4.77-51.16s-.32-.16-.77-.37l-27.17,31.64,23.17,19.89Z"/><path class="e" d="M108.31,294.09l33.82,29.03,29.04-33.82-1.23-1.05c-1.32,1.07-2.1,1.61-2.1,1.61,0,0-6.17-5.92-14.06-15.48l-16.43-14.11-29.04,33.83Z"/><polygon class="e" points="234.01 284.51 200.19 255.49 171.16 289.3 204.98 318.34 234.01 284.51"/><polygon class="e" points="235.06 344.16 204.98 318.34 182.8 344.16 235.06 344.16"/><path class="p" d="M234.01,284.51l27.17-31.64c-4.18-2.01-26.42-12.49-44.13-17.02l-16.85,19.64,33.82,29.02Z"/><path class="p" d="M153.77,274.37c-4.16-5.04-8.78-11.07-13.26-17.81l-3.17,3.69,16.43,14.11Z"/><path class="p" d="M200.19,255.49l-2.04-1.76c-11.41,19.8-23.47,30.7-28.22,34.52l1.23,1.05,29.03-33.81Z"/><polygon class="p" points="241.54 344.16 254.93 328.57 257.18 304.4 234.01 284.51 204.98 318.34 235.06 344.16 241.54 344.16"/><path class="p" d="M137.34,260.26l-23.54-20.21c-11.65,4.28-23.22,9.64-28.14,11.98l-2.27,2.63c.43,2.92,1.5,10.24,2.96,20.57l21.94,18.85,29.04-33.83Z"/><polygon class="p" points="182.8 344.16 204.98 318.34 171.16 289.3 142.12 323.12 166.64 344.16 182.8 344.16"/><path class="p" d="M98.22,344.16h25.85l18.06-21.04-33.82-29.03-16.7,19.46c1.17,8.88,2.4,18.31,3.62,28.05l2.99,2.56Z"/></g><path class="m" d="M106.74,344.16c-1.11-3.71-2.32-7.39-3.74-11.04-3.26-8.32-7.82-15.93-11.95-23.79,1.45,10.82,2.98,22.64,4.51,34.83h11.19Z"/><path class="t" d="M184.2,244.04l16.76-23.29,6.84,13.27s-10.07,39.94-39.97,55.84c15.52-13.76,16.37-45.82,16.37-45.82Z"/><path class="m" d="M200.96,220.75l-.29,.42c.43,43.62-30.29,66.44-32.83,68.7,29.9-15.9,39.97-55.84,39.97-55.84l-6.84-13.27Z"/><path class="t" d="M153.12,244.04l-20.08-23.29-4.43,14.68s9.33,38.54,39.22,54.44c-15.51-13.76-14.71-45.82-14.71-45.82Z"/><path class="m" d="M147.28,262.99c-6.41-11.54-10.29-24.25-15.25-36.44-.16-.39-.27-.78-.38-1.17l-3.03,10.05s9.33,38.54,39.22,54.44c-3.56-3.16-6.23-7.31-8.29-11.8-4.79-4.22-8.96-9.14-12.26-15.07Z"/></g><g><path class="i" d="M153.57,165.85c-5.5,4.32-22.62,4.55-29.36,0-6.73-4.56-14.68-22.15-7.64-28.04,7.03-5.88,37-5.74,41.89,0,4.89,5.74,.61,23.71-4.89,28.04Z"/><path class="i" d="M181.09,165.85c5.51,4.32,22.63,4.55,29.36,0,6.73-4.56,14.68-22.15,7.65-28.04-7.04-5.88-37.01-5.74-41.9,0-4.89,5.74-.61,23.71,4.89,28.04Z"/><line class="i" x1="160.61" y1="143.22" x2="174.07" y2="143.22"/></g></g></g></g></g></g></g></svg>