<?xml version="1.0" encoding="UTF-8"?><svg xmlns="http://www.w3.org/2000/svg" xmlns:xlink="http://www.w3.org/1999/xlink" viewBox="0 0 344.16 344.16"><defs><style>.e{fill:#fff;}.f{fill:#f6f6f6;}.g{isolation:isolate;}.h{fill:#e73a3a;}.i{fill:#e67555;}.j{fill:#040300;}.k{clip-path:url(#d);}.l{fill:#99613c;}.m{fill:#301b16;}.n{fill:#432918;}.o{fill:#d9cbca;}.o,.p{mix-blend-mode:multiply;}.q{fill:#0d0d02;}.r{fill:#f18875;opacity:.1;}.p{fill:#e7dcd6;}</style><clipPath id="d"><path class="h" d="M344.16,172.08c0,95.04-77.04,172.08-172.08,172.08S0,267.12,0,172.08,77.04,0,172.08,0s172.08,77.04,172.08,172.08Z"/></clipPath></defs><g class="g"><g id="a"/><g id="b"><g id="c"><g><path class="h" d="M344.16,172.08c0,95.04-77.04,172.08-172.08,172.08S0,267.12,0,172.08,77.04,0,172.08,0s172.08,77.04,172.08,172.08Z"/><g class="k"><g><g><path class="m" d="M83.42,156.77s0-.03,0-.04h0v.04Z"/><path class="m" d="M271.16,131.39c.41-.63,.63-1.4,.58-2.21,0-.8-.27-1.57-.67-2.2,.36-.68,.54-1.44,.5-2.25-.05-.8-.36-1.53-.81-2.15,.36-.68,.49-1.44,.4-2.25-.09-.81-.44-1.57-.94-2.16,.32-.68,.4-1.49,.27-2.29-.13-.76-.49-1.48-1.02-2.07,.26-.72,.31-1.48,.13-2.29-.18-.81-.58-1.49-1.16-2.03,.23-.72,.27-1.53,.04-2.29-.27-.81-.67-1.44-1.26-1.99,.18-.72,.14-1.53-.13-2.29-.27-.76-.76-1.39-1.34-1.9,.13-.72,.04-1.53-.27-2.29-.31-.72-.8-1.36-1.43-1.82,.09-.72,0-1.53-.36-2.25-.36-.76-.9-1.4-1.56-1.82,.04-.76-.13-1.61-.59-2.33-.4-.76-1.07-1.35-1.79-1.69-.05-.81-.31-1.61-.85-2.29-.49-.67-1.17-1.18-1.97-1.48-.09-.76-.44-1.53-.98-2.16-.58-.63-1.3-1.06-2.06-1.32-.18-.76-.58-1.48-1.21-2.07-.63-.59-1.34-.97-2.14-1.15-.23-.72-.67-1.4-1.3-1.95-.67-.55-1.43-.89-2.23-1.02-.27-.72-.76-1.35-1.43-1.86-.67-.51-1.43-.8-2.24-.89-.31-.72-.85-1.31-1.57-1.78-.67-.46-1.47-.72-2.28-.76-.35-.68-.89-1.27-1.65-1.69h.04c-.76-.43-1.56-.63-2.32-.68-.4-.63-.99-1.23-1.75-1.61-.76-.38-1.57-.55-2.37-.55-.41-.63-1.03-1.14-1.79-1.52-.76-.34-1.57-.47-2.37-.43-.45-.59-1.08-1.15-1.84-1.44-.81-.34-1.61-.43-2.41-.34-.45-.6-1.12-1.1-1.92-1.36-.76-.29-1.61-.38-2.37-.25-.54-.59-1.21-1.01-2.01-1.27-.81-.29-1.61-.29-2.37-.17-.54-.55-1.25-.97-2.05-1.18-.81-.25-1.61-.25-2.41-.04-.54-.55-1.26-.93-2.06-1.14-.85-.21-1.65-.17-2.41,.04-.58-.51-1.29-.9-2.14-1.06-.81-.17-1.61-.09-2.37,.12-.58-.47-1.34-.8-2.19-.97h.04c-.85-.13-1.66-.05-2.41,.25-.63-.47-1.35-.8-2.19-.89-.85-.13-1.65,0-2.37,.3-.63-.47-1.38-.76-2.23-.85-.85-.09-1.65,.08-2.37,.38-.62-.42-1.43-.67-2.23-.72-.85-.04-1.66,.13-2.37,.47-.63-.42-1.43-.63-2.28-.68-.85-.03-1.6,.17-2.32,.56-.67-.38-1.43-.59-2.28-.59s-1.65,.2-2.32,.59c-.67-.34-1.47-.56-2.32-.51-.85,.04-1.61,.29-2.28,.72-.71-.34-1.52-.51-2.36-.46-.85,.08-1.61,.38-2.24,.8-.71-.29-1.52-.47-2.37-.34-.84,.09-1.6,.38-2.23,.85-.71-.29-1.51-.38-2.36-.25-.85,.08-1.57,.42-2.19,.94-.72-.3-1.56-.34-2.37-.22-.86,.17-1.57,.52-2.15,1.02-.76-.21-1.57-.25-2.41-.08-.81,.17-1.52,.55-2.1,1.1-.76-.21-1.57-.25-2.41-.04-.81,.22-1.52,.64-2.06,1.19-.76-.17-1.57-.17-2.37,.09-.85,.21-1.52,.68-2.06,1.23-.77-.13-1.57-.09-2.38,.17-.8,.26-1.47,.72-1.96,1.31-.76-.13-1.61-.04-2.37,.25-.81,.29-1.43,.81-1.92,1.4-.81-.09-1.61,.04-2.37,.34-.81,.34-1.43,.89-1.84,1.48-.8-.04-1.61,.09-2.37,.47-.76,.38-1.39,.89-1.79,1.53-.81,0-1.61,.17-2.33,.59-.76,.38-1.34,.98-1.74,1.61-.76,0-1.56,.26-2.28,.68-.76,.43-1.29,1.02-1.65,1.69-.76,.09-1.56,.34-2.28,.81-.67,.47-1.2,1.1-1.51,1.78-.81,.09-1.57,.38-2.24,.93-.68,.52-1.17,1.15-1.43,1.87-.81,.13-1.57,.51-2.19,1.06-.63,.55-1.07,1.23-1.3,1.95-.81,.22-1.52,.59-2.14,1.19-.58,.6-.98,1.35-1.12,2.07-.8,.25-1.52,.72-2.05,1.35-.58,.64-.9,1.4-.99,2.21-.76,.29-1.43,.8-1.92,1.52-.54,.68-.76,1.48-.81,2.29-.72,.38-1.34,.93-1.74,1.69-.45,.76-.63,1.61-.54,2.42-.68,.46-1.25,1.1-1.57,1.91-.31,.81-.4,1.61-.23,2.41-.57,.47-1.02,1.1-1.29,1.87-.22,.81-.27,1.65-.04,2.37-.54,.56-.99,1.28-1.17,2.07-.22,.81-.14,1.61,.13,2.34-.54,.55-.89,1.27-1.03,2.07-.14,.81-.05,1.57,.22,2.25-.49,.59-.81,1.31-.9,2.12-.13,.77,0,1.57,.31,2.25-.45,.59-.76,1.31-.85,2.07-.05,.81,.09,1.57,.44,2.24-.44,.59-.76,1.32-.8,2.12-.04,.76,.13,1.53,.49,2.2-.45,.59-.71,1.31-.76,2.12-.04,.8,.14,1.52,.54,2.16-.45,.63-.67,1.35-.72,2.16,0,.81,.18,1.52,.58,2.16-.4,.63-.62,1.35-.67,2.16,0,.81,.22,1.53,.63,2.17-.4,.63-.63,1.35-.63,2.16s.27,1.53,.67,2.16c-.4,.63-.62,1.35-.58,2.16,0,.77,.27,1.53,.68,2.12-.36,.68-.54,1.39-.5,2.2,0,.81,.27,1.53,.72,2.12-.36,.68-.54,1.44-.45,2.2,.04,.8,.31,1.53,.76,2.16-.31,.66-.44,1.41-.36,2.2,.09,.85,.4,1.57,.9,2.16-.32,.68-.41,1.49-.32,2.25v.04c.14,.76,.5,1.44,.94,1.99-.27,.68-.36,1.44-.22,2.2,.13,.76,.44,1.44,.93,2.03-.26,.68-.35,1.4-.22,2.16,.13,.81,.5,1.49,.99,2.04-.27,.68-.36,1.44-.22,2.2,.13,.76,.49,1.44,1.03,2.03-.27,.68-.36,1.45-.23,2.21,.18,.76,.54,1.44,1.03,2-.22,.68-.31,1.44-.14,2.24,.18,.76,.54,1.44,1.08,1.99-.27,.68-.31,1.44-.13,2.2,.17,.76,.53,1.44,1.07,1.98-.22,.68-.27,1.45-.05,2.25,.18,.76,.58,1.4,1.12,1.95-.23,.72-.23,1.48-.04,2.25,.22,.76,.63,1.4,1.21,1.95-.22,.72-.22,1.49,0,2.25,.22,.76,.67,1.39,1.25,1.91-.18,.72-.18,1.48,.09,2.25,.22,.76,.71,1.39,1.29,1.9-.18,.72-.13,1.53,.14,2.29v-.04c.31,.76,.8,1.4,1.38,1.87-.13,.76-.04,1.52,.27,2.29,.31,.76,.8,1.35,1.43,1.82-.09,.72,.04,1.53,.4,2.25,.31,.76,.9,1.35,1.56,1.78-.09,.76,.09,1.52,.45,2.29h.04c.41,.72,.99,1.27,1.66,1.65,0,.81,.22,1.57,.66,2.29,.45,.72,1.13,1.23,1.84,1.57,.04,.81,.31,1.57,.85,2.25,.54,.68,1.21,1.18,2.01,1.44,.09,.76,.45,1.48,.99,2.12,.58,.59,1.25,1.02,2.01,1.27,.13,.72,.53,1.44,1.12,2.03,.58,.59,1.25,.97,2.01,1.19,.23,.72,.63,1.4,1.21,1.99,.63,.55,1.34,.93,2.1,1.1,.22,.72,.67,1.4,1.29,1.95,.63,.55,1.34,.89,2.14,1.01,.23,.72,.72,1.35,1.34,1.87,.68,.51,1.43,.85,2.2,.97,.31,.68,.81,1.31,1.48,1.82,.67,.46,1.43,.76,2.23,.85,.32,.68,.81,1.27,1.52,1.74,.67,.47,1.48,.72,2.23,.76,.36,.68,.9,1.27,1.61,1.73,.72,.43,1.52,.64,2.32,.64,.36,.68,.94,1.27,1.66,1.65,.76,.43,1.56,.6,2.33,.6,.4,.63,.98,1.18,1.74,1.57,.76,.38,1.56,.5,2.37,.46,.45,.64,1.03,1.19,1.83,1.53,.77,.34,1.56,.47,2.37,.38,.45,.59,1.08,1.1,1.88,1.44,.76,.3,1.6,.38,2.36,.3,.49,.55,1.17,1.06,1.97,1.31,.81,.3,1.61,.34,2.41,.21,.54,.55,1.2,1.01,2.01,1.27,.81,.25,1.65,.25,2.41,.09,.54,.55,1.25,.97,2.1,1.14,.8,.22,1.65,.22,2.41,0,.58,.51,1.34,.89,2.19,1.06,.85,.17,1.7,.09,2.46-.17,.63,.47,1.39,.81,2.24,.93,.89,.13,1.79-.04,2.5-.38,.72,.47,1.57,.76,2.46,.76h.13c.9,0,1.75-.26,2.46-.68,.76,.34,1.66,.51,2.55,.42,.89-.13,1.65-.47,2.32-.97,.76,.25,1.61,.34,2.46,.17,.85-.17,1.61-.59,2.19-1.1,.76,.21,1.61,.21,2.46,0,.81-.22,1.52-.68,2.06-1.23,.81,.17,1.61,.13,2.42-.13,.85-.3,1.52-.72,2.01-1.31,.76,.13,1.6,.04,2.41-.25,.76-.3,1.44-.81,1.93-1.4,.76,.08,1.61-.04,2.36-.38,.76-.34,1.39-.85,1.84-1.44,.8,.04,1.6-.08,2.36-.47,.76-.38,1.34-.93,1.79-1.56,.76,.04,1.56-.13,2.32-.56,.72-.38,1.3-.93,1.7-1.61,.76,0,1.56-.21,2.28-.63,.72-.43,1.3-1.02,1.66-1.69,.76,0,1.56-.26,2.28-.73,.67-.42,1.21-1.06,1.57-1.73,.75-.04,1.52-.34,2.23-.81,.67-.47,1.16-1.1,1.48-1.78,.76-.13,1.52-.38,2.19-.9,.67-.5,1.12-1.14,1.43-1.86,.76-.13,1.52-.47,2.15-.98,.63-.55,1.08-1.18,1.35-1.91,.75-.17,1.46-.51,2.09-1.06,.63-.55,1.03-1.23,1.25-1.95,.76-.17,1.48-.55,2.1-1.15,.59-.55,.94-1.23,1.16-1.99,.72-.21,1.43-.59,2.02-1.18,.58-.6,.94-1.32,1.07-2.04,.76-.25,1.44-.68,2.01-1.27h-.04s.04-.04,.09-.09c0,0,0-.04,.04-.04,.58-.68,.94-1.48,1.03-2.28,.76-.3,1.43-.85,1.92-1.57,.49-.72,.72-1.49,.72-2.29,.72-.38,1.3-.93,1.75-1.66,.4-.76,.53-1.52,.49-2.28,.68-.42,1.26-1.02,1.62-1.78,.36-.72,.44-1.53,.36-2.25,.62-.47,1.16-1.06,1.47-1.82,.32-.76,.41-1.53,.27-2.25,.63-.46,1.12-1.1,1.39-1.87,.31-.76,.36-1.53,.18-2.25,.62-.5,1.07-1.14,1.34-1.86,.27-.77,.27-1.53,.13-2.25,.54-.51,.98-1.14,1.25-1.9,.22-.76,.22-1.53,.04-2.25,.58-.51,.99-1.19,1.21-1.95,.22-.76,.22-1.53,.05-2.21,.53-.55,.93-1.19,1.16-1.95,.18-.76,.18-1.53-.05-2.25,.54-.51,.94-1.19,1.16-1.95,.18-.77,.14-1.53-.09-2.25,.54-.51,.94-1.19,1.12-1.95,.18-.76,.13-1.53-.14-2.25,.54-.51,.94-1.19,1.08-1.95,.18-.8,.13-1.53-.14-2.25,.54-.55,.9-1.23,1.08-1.99,.13-.76,.09-1.53-.18-2.2,.54-.55,.9-1.23,1.03-1.99,.14-.76,.09-1.53-.18-2.25,.49-.55,.85-1.23,.99-1.99,.13-.76,.04-1.52-.23-2.2,.49-.55,.85-1.27,.98-2.03,.13-.76,.04-1.53-.22-2.2,.49-.55,.81-1.27,.94-2.03,.13-.76,0-1.52-.27-2.2,.49-.55,.8-1.27,.94-2.04,.09-.76,0-1.53-.31-2.2,.49-.6,.81-1.27,.94-2.04,.09-.81-.05-1.53-.32-2.2,.45-.6,.76-1.31,.85-2.08,.14-.76,0-1.53-.31-2.2,.45-.6,.76-1.32,.85-2.08,.09-.8-.05-1.57-.4-2.25,.44-.6,.75-1.35,.8-2.12v-.04c.05-.76-.13-1.53-.49-2.21,.44-.63,.67-1.39,.71-2.2,0-.8-.17-1.52-.58-2.2Z"/></g><path class="l" d="M106.94,360.6c.3,1.03,.68,2.05,1.11,3.03h72.37v-118.16c-3.7-.07-6.27,0-6.94,.01-2.07-.07-21.85-.52-38.75,3.55-17.94,4.3-32.9,13.63-32.9,13.63,0,0,8.44,17.64,13.21,52.49,2.4,17.55-10.22,38.24-8.1,45.45Z"/><path class="l" d="M247.84,363.63c.49-1.14,.93-2.3,1.28-3.48,2.12-7.21-10.81-29.25-9.3-45,3.31-34.52,14.91-52.49,14.91-52.49,0,0-14.96-9.33-32.9-13.63-16.89-4.06-36.68-3.61-38.74-3.55-.67-.02-3.24-.08-6.95-.01v118.16h71.7Z"/><path class="l" d="M120.69,163.36s2.1-15.96-12.79-12.15c-11.46,2.93,.54,32.62,8.13,35.2,6.48,2.21,7.85-2.38,7.85-2.38l-3.19-20.67Z"/><path class="l" d="M231.19,163.3s-2.32-15.99,12.62-11.99c11.5,3.08-.09,32.61-7.63,35.1-6.46,2.12-7.89-2.49-7.89-2.49l2.9-20.62Z"/><path class="l" d="M177.09,276.69s30.71-28.57,28.87-29.95c-10.69-8-10.05-30.44-10.05-30.44l-38.71-2.76s2.45,32.23-9.01,36.23c-.85,.29,28.9,26.92,28.9,26.92Z"/><path class="p" d="M155.54,238.8c2.69,.62,5.38,2.08,7.86,4.6,10.32,10.49,25.44,5.64,35.09-3.6,.45-.43,.91-.82,1.38-1.19-4.33-9.69-3.97-22.31-3.97-22.31l-38.71-2.76s1.08,14.51-1.66,25.26Z"/><path class="l" d="M232.54,167.1c-2.36,18.88-4.12,28.94-13.31,43.13-15.3,23.65-42.38,31.56-42.38,31.56,0,0-28.88-6.93-44.61-31.56-8.91-13.96-10.39-26-12.8-43.13-2.9-20.58-3.13-13.32-3.13-32.73,0-39.55,14.3-68.11,55.82-68.11s62.75,24.85,63.38,65.44c.35,22.24-.37,14.71-2.97,35.4Z"/><path class="p" d="M137.31,127.21c14.98-12.8,58.51,8.84,71.17-8.62,11.54-15.9,17.58,19.65,20.68,35.44,.83,4.24,2.23,8.69,3.38,13.08,2.19-2.23,3.02-16.2,3.05-16.43,2.77-20.69,4.32,3.27,3.95-18.97-.67-40.59-22.04-68.15-66.42-68.15s-60.86,31.26-60.86,70.81c0,18.52,7.29,21.97,10.01,39.25,3.79-8.01-1.09-32.63,15.03-46.41Z"/><path class="l" d="M103.9,363.63c6.35-26.58,13.54-54.18,13.54-54.18,0,0,5.77-51.9-15.6-46.79-15.44,3.69-23.61,62.66-27.93,100.97h30Z"/><path class="l" d="M251.85,363.63h29.99c-4.32-38.31-12.5-97.28-27.94-100.97-21.37-5.1-15.6,46.79-15.6,46.79,0,0,7.19,27.59,13.54,54.18Z"/><path class="m" d="M128.25,150.31s2.59-2.02,9.48-3.78c8-2.04,18.59,1.37,19.01,1.37,.74,0,1.82-.2,1.82-2.23s-.88-1.99-1.62-1.99c-.41,0-11.43-2.15-19.4,.34-6.1,1.9-9.29,6.3-9.29,6.3Z"/><g><path class="e" d="M132.71,159.03s.57,3.3,3.55,6.11c2.24,2.12,15.9,3.54,17.35,2.89,2.15-.96,4.96-5.58,4.96-5.58,0,0-4.82-6.61-10.75-6.61s-15.1,3.19-15.1,3.19Z"/><path class="n" d="M147.81,157.14c-4.28,0-9.7,1.97-12.69,2.89-.68,.21-.88,2.25,.26,4.19-2.44-2.24-4.2-6.68-4.2-6.68,0,0,2.93,1.04,3.88,.74,2.86-.9,8.3-2.43,12.75-2.43,5.93,0,10.75,6.61,10.75,6.61,0,0-.19,.65-.7,1.06-1.06-1.33-4.91-6.38-10.06-6.38Z"/><path class="n" d="M141.26,161.85c0,3.33,2.69,6.02,6.02,6.02s6.02-2.69,6.02-6.02-2.7-6.01-6.02-6.01-6.02,2.69-6.02,6.01Z"/><path class="e" d="M142.13,161.87c0,2.54,7.16-4.61,4.61-4.61s-4.61,2.07-4.61,4.61Z"/></g><polygon class="o" points="176.08 183.77 170.68 179.49 176.28 165.77 176.08 183.77"/><g><path class="i" d="M176.07,214.25c-10.97,0-15.2-11.62-15.2-11.62,0,0,1.74,.54,3.17,.07,2.9-.96,6.74-3.34,7.72-3.62,1.46-.41,4.32,1.62,4.32,1.62,0,0,2.5-2,3.7-1.62,.8,.25,4.54,2.13,7.68,3.1,1.52,.47,3.82,.45,3.82,.45,0,0-4.99,11.62-15.21,11.62Z"/><path class="e" d="M175.94,208.41c-8.98,0-13.58-4.93-13.58-4.93,0,0,6.06,1.08,13.72,1.08s14.12-1.26,14.12-1.26c0,0-5.67,5.11-14.26,5.11Z"/></g><path class="r" d="M162.32,181.89c0,5.26-6.65,9.52-14.86,9.52s-14.86-4.26-14.86-9.52,6.65-9.52,14.86-9.52,14.86,4.26,14.86,9.52Z"/><path class="m" d="M221.49,150.31s-2.59-2.02-9.48-3.78c-8-2.04-18.59,1.37-19.01,1.37-.74,0-1.82-.2-1.82-2.23s.88-1.99,1.62-1.99c.41,0,11.43-2.15,19.4,.34,6.1,1.9,9.28,6.3,9.28,6.3Z"/><g><path class="e" d="M217.04,159.03s-.58,3.3-3.55,6.11c-2.24,2.12-15.91,3.54-17.35,2.89-2.16-.96-4.96-5.58-4.96-5.58,0,0,4.81-6.61,10.74-6.61s15.12,3.19,15.12,3.19Z"/><path class="n" d="M201.93,157.14c4.29,0,9.71,1.97,12.7,2.89,.69,.21,.88,2.25-.26,4.19,2.44-2.24,4.2-6.68,4.2-6.68,0,0-2.93,1.04-3.88,.74-2.86-.9-8.3-2.43-12.76-2.43-5.93,0-10.74,6.61-10.74,6.61,0,0,.19,.65,.7,1.06,1.06-1.33,4.91-6.38,10.05-6.38Z"/><path class="n" d="M208.48,161.85c0,3.33-2.7,6.02-6.02,6.02s-6.01-2.69-6.01-6.02,2.69-6.01,6.01-6.01,6.02,2.69,6.02,6.01Z"/><path class="e" d="M207.62,161.87c0,2.54-7.16-4.61-4.61-4.61s4.61,2.07,4.61,4.61Z"/></g><path class="r" d="M190.23,181.89c0,5.26,6.66,9.52,14.87,9.52s14.87-4.26,14.87-9.52-6.66-9.52-14.87-9.52-14.87,4.26-14.87,9.52Z"/><g><path class="m" d="M243.73,138.44v-.03h0s0,.02,0,.03Z"/><path class="m" d="M242.18,136.53c.94-.07,1.69-.82,1.69-1.8s-.76-1.73-1.69-1.8c.94-.07,1.69-.86,1.66-1.83-.03-.97-.79-1.73-1.73-1.77,.93-.1,1.62-.93,1.55-1.87-.03-.97-.83-1.69-1.8-1.69,.94-.15,1.62-1.01,1.51-1.95-.11-.97-.9-1.65-1.87-1.62,.94-.22,1.58-1.08,1.44-2.01-.14-.97-.97-1.62-1.91-1.55,.9-.22,1.51-1.15,1.33-2.09-.18-.94-1.05-1.59-1.98-1.44,.9-.29,1.44-1.22,1.22-2.12-.18-.93-1.12-1.55-2.02-1.4,.87-.29,1.4-1.26,1.15-2.16-.25-.93-1.19-1.47-2.09-1.3,.86-.36,1.29-1.33,1.01-2.23-.29-.9-1.26-1.4-2.16-1.19,.86-.39,1.26-1.37,.93-2.27-.36-.9-1.33-1.37-2.23-1.08,.83-.44,1.18-1.44,.83-2.34-.4-.86-1.41-1.26-2.31-.94,.83-.47,1.12-1.51,.69-2.37-.43-.83-1.44-1.19-2.31-.83,.76-.5,1.01-1.59,.54-2.41-.5-.79-1.55-1.11-2.41-.65,.79-.58,.97-1.66,.43-2.45-.54-.79-1.62-1.05-2.41-.54,.72-.65,.83-1.73,.25-2.48-.57-.76-1.65-.9-2.45-.4,.68-.65,.72-1.73,.11-2.45-.65-.72-1.69-.83-2.45-.25,.61-.72,.61-1.8-.07-2.45-.68-.69-1.76-.72-2.45-.11,.58-.76,.47-1.8-.21-2.45-.72-.65-1.84-.61-2.48,.07,.54-.79,.4-1.83-.36-2.45-.76-.57-1.84-.47-2.48,.22,.5-.79,.29-1.87-.51-2.42-.79-.54-1.87-.36-2.45,.4,.43-.83,.14-1.87-.69-2.38-.79-.5-1.87-.25-2.41,.54,.39-.86,.07-1.91-.79-2.34-.86-.43-1.87-.14-2.38,.68,.33-.9-.07-1.91-.93-2.3-.86-.4-1.91-.04-2.34,.83,.29-.9-.18-1.91-1.08-2.23-.9-.36-1.87,.07-2.27,.94,.22-.9-.29-1.88-1.19-2.16-.9-.29-1.87,.18-2.23,1.04,.18-.93-.36-1.83-1.3-2.09-.93-.25-1.87,.26-2.16,1.16,.14-.94-.47-1.8-1.41-2.02-.93-.21-1.83,.32-2.12,1.22,.11-.93-.54-1.76-1.48-1.94-.93-.15-1.83,.46-2.05,1.36,.07-.93-.61-1.76-1.58-1.9-.94-.11-1.8,.5-1.98,1.44,0-.93-.72-1.73-1.65-1.8-.94-.11-1.8,.57-1.91,1.51-.04-.93-.76-1.73-1.73-1.76-.97-.04-1.76,.65-1.87,1.58-.04-.94-.83-1.69-1.77-1.69s-1.76,.72-1.84,1.62c-.11-.9-.9-1.62-1.83-1.59-.98,0-1.73,.79-1.77,1.73-.11-.94-.93-1.62-1.9-1.55-.94,.07-1.69,.86-1.66,1.8-.18-.94-1.05-1.59-1.98-1.48-.97,.14-1.65,.97-1.58,1.91-.22-.94-1.12-1.51-2.05-1.37-.94,.15-1.59,1.01-1.51,1.95-.25-.9-1.19-1.44-2.09-1.23-.94,.18-1.55,1.08-1.41,2.03-.29-.9-1.25-1.41-2.19-1.15-.9,.25-1.47,1.19-1.26,2.12-.36-.87-1.33-1.33-2.23-1.01v-.04c-.9,.33-1.44,1.3-1.19,2.2-.39-.86-1.4-1.26-2.27-.9-.9,.33-1.37,1.33-1.05,2.23-.46-.82-1.47-1.19-2.34-.79-.86,.4-1.26,1.44-.94,2.3-.5-.79-1.55-1.12-2.37-.65-.84,.47-1.19,1.48-.79,2.34-.54-.79-1.58-1.01-2.41-.5-.79,.5-1.08,1.55-.65,2.38-.58-.72-1.65-.9-2.45-.36-.76,.54-.97,1.62-.51,2.42-.61-.69-1.69-.8-2.45-.22-.75,.62-.9,1.7-.32,2.49-.68-.68-1.8-.76-2.52-.11-.72,.65-.79,1.73-.22,2.49-.68-.65-1.8-.65-2.45,.03-.68,.69-.72,1.77-.11,2.49-.72-.58-1.8-.51-2.45,.21-.65,.69-.61,1.8,.07,2.45-.79-.54-1.87-.39-2.44,.36-.62,.72-.51,1.8,.18,2.45-.8-.5-1.88-.29-2.41,.47-.54,.79-.4,1.84,.29,2.41-.79-.43-1.84-.14-2.34,.65-.5,.79-.33,1.84,.43,2.38-.86-.36-1.87-.07-2.34,.76-.47,.83-.22,1.91,.61,2.41-.9-.36-1.9,0-2.33,.83-.4,.87-.11,1.91,.71,2.38-.86-.33-1.87,.07-2.26,.97-.36,.87,0,1.91,.83,2.31-.9-.25-1.87,.22-2.23,1.08-.33,.9,.11,1.91,.93,2.3-.9-.25-1.83,.26-2.16,1.19-.29,.9,.18,1.87,1.08,2.23-.93-.22-1.87,.36-2.12,1.26-.25,.94,.25,1.87,1.15,2.2-.94-.15-1.84,.43-2.06,1.37-.17,.94,.36,1.87,1.26,2.12-.93-.11-1.8,.54-1.97,1.48-.18,.94,.43,1.84,1.37,2.05-.97-.07-1.8,.61-1.95,1.58-.11,.94,.51,1.8,1.44,1.98-.93-.04-1.76,.68-1.83,1.65-.11,.94,.57,1.8,1.51,1.95-.94,0-1.73,.76-1.77,1.69-.07,.97,.65,1.76,1.59,1.87-.94,.07-1.69,.82-1.69,1.8s.72,1.73,1.69,1.8c-.97,.1-1.69,.9-1.66,1.87,.04,.97,.87,1.76,1.87,1.73,.18,0,.33-.04,.5-.11-.79,.51-1.07,1.51-.68,2.34,.43,.87,1.48,1.23,2.34,.87-.83,.46-1.15,1.47-.72,2.34,.39,.86,1.4,1.22,2.27,.9-.83,.47-1.12,1.47-.72,2.34,.43,.87,1.44,1.22,2.3,.87-.82,.47-1.15,1.51-.72,2.34,.39,.86,1.41,1.26,2.27,.9-.79,.47-1.11,1.51-.72,2.34,.43,.86,1.4,1.22,2.27,.9-.79,.47-1.11,1.48-.72,2.34,.43,.87,1.41,1.22,2.31,.9-.83,.47-1.15,1.47-.72,2.34,.39,.86,1.4,1.22,2.27,.9-.83,.47-1.15,1.47-.72,2.34,.4,.86,1.44,1.26,2.3,.86-.83,.47-1.19,1.51-.76,2.38,.4,.86,1.44,1.22,2.31,.86-.83,.47-1.19,1.52-.76,2.37,.33,.65,.94,1.01,1.62,1.01,.15,0,.32-.07,.47-.11,.11,.05,.24,.05,.36,.07,.03,.06,.06,.11,.08,.18-.19,.08-.37,.19-.52,.34-.33,.33-.51,.79-.51,1.26,0,.5,.18,.97,.51,1.26,.32,.36,.79,.54,1.29,.54,.47,0,.94-.18,1.26-.51,.32-.32,.54-.79,.54-1.29,0-.47-.22-.93-.54-1.26-.42-.42-1.03-.55-1.6-.45,0,0,0-.02,0-.02,.97-.15,1.64-1.04,1.5-2.05-.15-.93-.97-1.59-1.87-1.55,.9-.14,1.55-.97,1.48-1.91-.11-.93-.86-1.66-1.8-1.66,.94-.14,1.59-.93,1.55-1.87-.07-.94-.83-1.69-1.76-1.69,.93-.11,1.65-.87,1.65-1.83s-.81-1.75-1.78-1.76h0c.96-.02,1.78-.77,1.81-1.73,.04-.97-.68-1.77-1.58-1.87,.94,0,1.69-.72,1.8-1.66,.07-.97-.65-1.8-1.58-1.91,.93,.07,1.8-.61,1.9-1.58,.11-.93-.5-1.8-1.4-1.98,.9,.07,1.77-.58,1.91-1.51,.18-.93-.43-1.83-1.37-2.05,.94,.18,1.84-.43,2.05-1.37,.21-.94-.33-1.84-1.22-2.13,.93,.18,1.83-.36,2.09-1.3,.25-.9-.26-1.83-1.12-2.16,.9,.21,1.84-.29,2.12-1.15,.33-.94-.14-1.91-1.04-2.27,.9,.32,1.91-.15,2.27-1.01,.33-.9-.07-1.87-.9-2.3,.87,.32,1.87-.07,2.27-.94,.4-.82,.07-1.83-.72-2.3,.87,.36,1.84,.03,2.31-.79,.43-.83,.18-1.83-.61-2.38,.83,.43,1.84,.14,2.34-.65,.5-.79,.33-1.8-.43-2.38,.79,.47,1.84,.25,2.38-.5,.5-.72,.43-1.69-.18-2.3,.68,.5,1.65,.47,2.3-.11,.65-.58,.76-1.51,.33-2.23,.54,.61,1.47,.83,2.23,.39s1.12-1.33,.86-2.12c.36,.76,1.23,1.19,2.09,.94,.86-.22,1.4-1.05,1.3-1.91,.21,.83,1.04,1.4,1.91,1.33,.93-.07,1.62-.83,1.65-1.73,.07,.9,.79,1.62,1.73,1.66,.94,.04,1.73-.68,1.84-1.58-.04,.93,.65,1.73,1.58,1.87,.94,.11,1.77-.5,1.98-1.4-.11,.9,.54,1.76,1.44,1.94,.94,.18,1.84-.43,2.09-1.33-.15,.94,.43,1.84,1.36,2.05,.94,.22,1.88-.36,2.13-1.26-.18,.93,.4,1.87,1.33,2.09,.93,.21,1.87-.29,2.16-1.19-.18,.93,.39,1.84,1.33,2.09,.9,.21,1.87-.29,2.16-1.23-.22,.94,.36,1.87,1.29,2.13,.93,.25,1.91-.29,2.19-1.23-.21,.94,.4,1.88,1.33,2.13,.97,.21,1.94-.36,2.16-1.33,0-.01,0-.02,0-.03h0s0,.02,0,.03c-.22,.97,.43,1.91,1.37,2.12,.97,.21,1.9-.36,2.16-1.33-.14,.97,.47,1.87,1.44,2.05,.97,.18,1.91-.46,2.09-1.4-.11,.97,.61,1.84,1.58,1.94,.97,.11,1.83-.57,1.98-1.51,0,.97,.75,1.8,1.73,1.84,.97,.03,1.83-.72,1.87-1.73,.07,.97,.86,1.73,1.8,1.73h.07c1.01-.08,1.76-.9,1.72-1.87,.18,.97,1.12,1.62,2.09,1.44,.97-.14,1.62-1.04,1.47-2.01,.32,.9,1.33,1.4,2.27,1.12,.93-.33,1.44-1.34,1.15-2.27,.43,.87,1.55,1.23,2.41,.76,.9-.47,1.22-1.55,.79-2.41,.58,.79,1.69,.94,2.52,.36,.8-.61,.94-1.73,.36-2.51,.72,.68,1.84,.65,2.52-.07,.68-.69,.68-1.84-.04-2.52,.79,.58,1.91,.43,2.52-.39,.58-.79,.43-1.91-.4-2.52-.02-.02-.05-.02-.07-.03,.02-.03,.04-.07,.07-.1,.28,.19,.61,.31,.97,.31,.46,0,.94-.18,1.26-.54,.22-.21,.35-.49,.44-.79,.01,0,.03,.01,.05,.02-.29,.9,.12,1.88,1.02,2.22,.83,.29,1.73,0,2.16-.72-.25,.79,.04,1.69,.79,2.16,.72,.43,1.65,.29,2.23-.32-.4,.72-.25,1.65,.39,2.23,.65,.58,1.62,.58,2.31,.04-.55,.68-.58,1.65,0,2.34,.57,.65,1.55,.83,2.3,.36-.65,.61-.79,1.59-.29,2.34,.5,.72,1.44,1.01,2.27,.65-.72,.5-1.01,1.47-.57,2.27,.39,.83,1.37,1.18,2.19,.9-.79,.43-1.15,1.37-.79,2.23,.36,.86,1.26,1.3,2.12,1.08-.79,.36-1.23,1.3-.97,2.16,.29,.9,1.23,1.41,2.09,1.23-.86,.32-1.34,1.22-1.12,2.12,.21,.9,1.07,1.48,1.98,1.37-.86,.25-1.4,1.15-1.22,2.05,.18,.93,1.05,1.55,1.95,1.44-.9,.25-1.48,1.12-1.33,2.02,.14,.93,.97,1.58,1.87,1.55-.9,.18-1.51,1.01-1.41,1.94,.11,.94,.93,1.62,1.83,1.58-.9,.14-1.58,.97-1.51,1.94,.07,.94,.86,1.62,1.8,1.66-.94,.11-1.62,.94-1.59,1.87,.07,.94,.83,1.66,1.73,1.69-.9,.11-1.62,.9-1.58,1.84,0,.94,.75,1.69,1.65,1.76-.9,.07-1.65,.83-1.65,1.76s.72,1.73,1.62,1.8c-.9,.07-1.66,.83-1.69,1.76-.04,.83,.54,1.58,1.33,1.8-.07,.04-.14,.07-.18,.11-.72,.22-1.26,.83-1.3,1.62-.07,.72,.32,1.41,.97,1.69-.51,.22-.9,.65-1.07,1.19-.08,.18-.15,.39-.18,.65-.08,.97,.65,1.87,1.62,1.94,.9,.07,1.69-.46,1.91-1.3,.07-.14,.15-.32,.18-.5,.11-.79-.29-1.55-.97-1.91,.14-.04,.25-.11,.36-.18,.61-.18,1.12-.68,1.26-1.33,.18-.87-.29-1.77-1.08-2.05,.83,.11,1.69-.39,1.98-1.26h-.04c.29-.83-.07-1.73-.83-2.12,.83,.21,1.69-.18,2.05-.97,.39-.79,.14-1.73-.58-2.23,.83,.32,1.77,.04,2.23-.72,.47-.79,.25-1.84-.47-2.37,.86,.36,1.87,.03,2.34-.83,.43-.86,.11-1.91-.72-2.37,.93,.21,1.91-.32,2.16-1.26,.29-.9-.22-1.87-1.12-2.19,.94,.07,1.8-.58,1.95-1.55,.14-.94-.51-1.8-1.4-2.02,.93,0,1.71-.71,1.76-1.68,.05-.96-.62-1.78-1.55-1.89Z"/></g><g><path class="f" d="M106.94,360.6c.3,1.03,.68,2.05,1.11,3.03H247.84c.49-1.14,.93-2.3,1.28-3.48,2.12-7.21-10.81-29.25-9.3-45,3.31-34.52,14.91-52.49,14.91-52.49,0,0-14.96-9.33-32.9-13.63-5.03,32.79-32.34,58.89-43.55,58.89s-30.55-19.57-43.54-58.89c-17.94,4.3-32.9,13.63-32.9,13.63,0,0,8.44,17.64,13.21,52.49,2.4,17.55-10.22,38.24-8.1,45.45Z"/><path class="j" d="M106.94,360.6c.3,1.03,.68,2.05,1.11,3.03h72.37v-.55c-32.26-28.61-41.21-100.52-45.68-114.05-17.94,4.3-32.9,13.63-32.9,13.63,0,0,8.44,17.64,13.21,52.49,2.4,17.55-10.22,38.24-8.1,45.45Z"/><path d="M247.84,363.63c.49-1.14,.93-2.3,1.28-3.48,2.12-7.21-10.81-29.25-9.3-45,3.31-34.52,14.91-52.49,14.91-52.49,0,0-14.96-9.33-32.9-13.63-2.02,13.19-13.35,88.44-41.4,114.05v.55h67.41Z"/><path class="q" d="M212.97,318.49l11.92-6.3,14.17-59.62s-11.55-10.79-25.68-5.2c3.93,14.93-4.91,90.09-32.97,115.7l36.62-32.66-4.07-11.93Z"/><path class="q" d="M147.88,318.49l-11.92-6.3-14.18-59.62s11.62-10.05,25.49-5.78c-3.93,14.93,5.1,90.67,33.15,116.28l-36.61-32.66,4.07-11.93Z"/><path class="j" d="M103.9,363.63c6.35-26.58,13.54-54.18,13.54-54.18,0,0,5.77-51.9-15.6-46.79-15.44,3.69-23.61,62.66-27.93,100.97h30Z"/><path d="M251.85,363.63h29.99c-4.32-38.31-12.5-97.28-27.94-100.97-21.37-5.1-15.6,46.79-15.6,46.79,0,0,7.19,27.59,13.54,54.18Z"/></g></g></g></g></g></g></g></svg>