<?xml version="1.0" encoding="UTF-8"?><svg xmlns="http://www.w3.org/2000/svg" xmlns:xlink="http://www.w3.org/1999/xlink" viewBox="0 0 344.16 344.16"><defs><style>.e,.f{fill:#fff;}.g{fill:#540f00;}.h{fill:#cf1615;}.i{isolation:isolate;}.j{fill:#881910;}.k{fill:#e5c9a6;}.k,.l{mix-blend-mode:multiply;}.f{mix-blend-mode:soft-light;}.m{fill:#b41f1c;}.n{fill:#f9bb8d;}.o{fill:#f59d16;}.p{fill:#432827;}.l{fill:#d5bac8;}.q{clip-path:url(#d);}.r{fill:#432918;}.s{fill:#583636;}</style><clipPath id="d"><path class="o" d="M0,172.08C0,77.04,77.04,0,172.08,0s172.09,77.04,172.09,172.08-77.04,172.07-172.09,172.07S0,267.12,0,172.08Z"/></clipPath></defs><g class="i"><g id="a"/><g id="b"><g id="c"><g><path class="o" d="M0,172.08C0,77.04,77.04,0,172.08,0s172.09,77.04,172.09,172.08-77.04,172.07-172.09,172.07S0,267.12,0,172.08Z"/><g class="q"><g><path class="r" d="M103.65,131.08c0,11.89,28.69,48.66,61.77,48.66s61.56-39.23,61.56-51.11-26.81-11.52-59.89-11.52-63.43,2.09-63.43,13.98Z"/><path class="g" d="M137.75,208.41h52.38v-19.35s-5.54-5.09-23.19-5.09-24.71,3.39-24.71,3.39l-4.48,21.04Z"/><polygon class="n" points="120.44 249.15 210.4 249.15 218.54 205.24 180.52 197.1 180.52 172.1 150.31 172.1 150.31 197.1 112.29 205.24 120.44 249.15"/><path class="k" d="M150.31,177.19s6.78,10.18,15.61,10.18,14.6-10.18,14.6-10.18v-5.09h-30.21v5.09Z"/><path class="n" d="M216.77,135.55c-10.76,30.71-26.63,45.71-50.22,45.71s-38.91-15.34-50.66-45.71c-7.97-20.62-3.86-45.71-3.86-45.71,0-28.97,8.58-60.19,54.52-60.19s54.51,36.2,54.51,64.26c0,0,1.36,25.52-4.29,41.64Z"/><path class="n" d="M98.46,122.78c2.9,9.57,12.89,14.61,15.11,9.61,2.16-4.87,6.59-7.55,5.23-15.68-1.35-8.12-11.82-16.89-16.36-14.43-7.08,3.84-6.37,12.65-3.98,20.5Z"/><path class="n" d="M232.51,121.78c-2.9,9.57-12.9,14.61-15.11,9.6-2.15-4.87-6.59-7.55-5.23-15.67,1.35-8.12,11.81-16.89,16.35-14.43,7.08,3.84,6.37,12.64,3.99,20.5Z"/><path class="r" d="M215.89,117.1s3.96-17.79,14.34-14.66c.36-11.2,.95-20.37,.13-29.1-.27-2.91,15.24-21.65-13.27-51.18-12.22,20.7-50.25-26.82-82.56,1.62-15.48-5.69-28.63,12.38-34.66,37.41-3.17,13.18-1.17,31.76,.88,42.26,9.9-6.48,14.39,13.66,14.39,13.66l3.67-.39s-7.52-9.42,1.64-17.85c-5.09-7.28,5.46-31.94,10.29-34.27,9.79-4.75,7.56,5.03,35.36,11.88,23.43,5.76,31.38,2.37,45.83,1.01,4.11-.38,.32,17.96-1.52,21.38,10.37,6.82,2.76,17.61,2.76,17.61l2.74,.63Z"/><path class="e" d="M120.44,392.61h89.95l-.9-188.34-23.82-8.08s-5.84,9.05-19.59,9.05-18.54-9.05-18.54-9.05l-25.63,7.06-1.48,189.35Z"/><path class="m" d="M190.14,189.07l-9.85,24.19-16.34,14.26,2.52,218.59,60.74-11.53s-4.02-125.07-4.16-137.97c-.14-12.9,3.61-33.27,3.61-33.27l.94-58.09-26.24-4.46-11.21-11.72Z"/><path class="m" d="M251.35,243.72c1.61,7.64,13.05,132.75,12.29,167.55-2.09,4.09-21.65,11.91-24.03,8.8-3.32-46.91-13.93-160.19-13.93-168.18,0-10.59-8.68-46.64,1.91-46.64s18.32,12.68,23.76,38.47Z"/><path class="m" d="M139.38,189.07l11.95,27.92,12.62,10.53,2.52,218.59-64.4-8.46s4.27-128.15,4.41-141.05c.14-12.9-3.6-33.27-3.6-33.27l-.94-58.09,26.24-4.46,11.21-11.72Z"/><path class="m" d="M78.17,243.72c-1.61,7.64-13.07,132.57-12.31,167.37,2.09,4.08,21.68,12.09,24.06,8.98,3.31-46.91,13.93-160.19,13.93-168.18,0-10.59,8.68-46.64-1.91-46.64s-18.33,12.68-23.76,38.47Z"/><g><path class="e" d="M151.33,107.38c0,2.81-4.61,6.84-10.37,6.84-7.02,0-11.25-4.08-11.25-8.4s6.08-7.22,11.21-6.27c5.65,1.05,10.42,4.75,10.42,7.83Z"/><path class="s" d="M148.11,107.34c0,2.61-1.32,4.92-3.33,6.28-2.55,1.27-7.67,.55-8.8-.18-1.86-1.39-3.06-3.6-3.06-6.1,0-4.19,3.4-7.6,7.6-7.6s7.59,3.4,7.59,7.6Z"/><path class="s" d="M129.82,107.06s-.13-.45-.21-1.26c-.05-.82,.1-2.1,.95-3.33,1.7-2.52,5.67-4.04,9.56-3.79,1.97,.23,3.75,.85,5.38,1.63,1.63,.75,2.95,1.82,3.95,2.84,1.02,1.01,1.57,2.14,1.78,2.94,.2,.82,.07,1.29,.07,1.29,0,0-.02-.48-.36-1.19-.32-.72-1.08-1.55-2.09-2.4-1.01-.87-2.41-1.58-3.91-2.27-1.49-.67-3.28-1.13-4.95-1.35-3.41-.3-7.08,.88-8.77,2.81-1.78,1.97-1.29,4.14-1.4,4.07Z"/><path class="p" d="M145.71,108.67c0,2.68-2.17,4.85-4.84,4.85s-4.85-2.17-4.85-4.85,2.17-4.84,4.85-4.84,4.84,2.16,4.84,4.84Z"/><path class="e" d="M141.96,106.42c0,1.19,.97,2.16,2.16,2.16s2.16-.97,2.16-2.16-.97-2.16-2.16-2.16-2.16,.97-2.16,2.16Z"/><path class="e" d="M143.38,103.11c0,.39-.32,.72-.71,.72s-.72-.32-.72-.72,.32-.71,.72-.71,.71,.32,.71,.71Z"/></g><g><path class="e" d="M179.06,107.38c0,2.81,4.61,6.84,10.37,6.84,7.03,0,11.25-4.08,11.25-8.4s-6.08-7.22-11.2-6.27c-5.66,1.05-10.42,4.75-10.42,7.83Z"/><path class="s" d="M182.27,107.34c0,2.61,1.32,4.92,3.33,6.28,2.54,1.27,7.68,.55,8.8-.18,1.86-1.39,3.07-3.6,3.07-6.1,0-4.19-3.4-7.6-7.6-7.6s-7.6,3.4-7.6,7.6Z"/><path class="s" d="M200.56,107.06c-.1,.07,.38-2.1-1.39-4.07-1.69-1.93-5.37-3.11-8.77-2.81-1.67,.22-3.46,.67-4.95,1.35-1.5,.69-2.9,1.4-3.91,2.27-1.01,.85-1.77,1.68-2.09,2.4-.33,.7-.38,1.18-.38,1.18,.03,0-.11-.47,.09-1.29,.22-.8,.77-1.92,1.78-2.94,1-1.02,2.33-2.09,3.96-2.84,1.63-.77,3.4-1.4,5.38-1.63,3.89-.25,7.85,1.27,9.56,3.79,.86,1.23,1,2.5,.96,3.33-.08,.81-.22,1.26-.22,1.26Z"/><path class="p" d="M184.67,108.67c0,2.68,2.17,4.85,4.84,4.85s4.84-2.17,4.84-4.85-2.17-4.84-4.84-4.84-4.84,2.16-4.84,4.84Z"/><path class="e" d="M188.43,106.42c0,1.19-.97,2.16-2.16,2.16s-2.16-.97-2.16-2.16,.97-2.16,2.16-2.16,2.16,.97,2.16,2.16Z"/><path class="e" d="M187,103.11c0,.39,.32,.72,.71,.72s.71-.32,.71-.72-.32-.71-.71-.71-.71,.32-.71,.71Z"/></g><path class="r" d="M125.21,97.62s4.97-6.63,17.35-7.14c3.53-.14,7.2-.09,8.61,.1,1.41,.19,1.34-5.81,.41-5.9-.93-.08-9.35-.76-13.17,.13-11.05,2.56-13.2,12.81-13.2,12.81Z"/><path class="r" d="M203.69,99.6s-5.11-6.82-17.36-7.81c-3.49-.29-7.13-.38-8.52-.25-1.38,.13-1.49-5.85-.56-5.92,.92-.04,9.23-.39,13.03,.64,11,2.99,13.41,13.34,13.41,13.34Z"/><path class="r" d="M115.13,117.1c.75,3.92,3.35,13.5,0,18.42,3.94,19.63,20.16,45.74,51.42,45.74,23.59,0,41.23-11.63,51.99-42.35-2.46-2.88-3.3-17.72-2.65-21.81,0,0-.67-5.01-2.74-.63-2.5,5.29-2.23,20.17-12.35,24.31-7.53,3.09-23.52-3.74-36.24-3.74-10.3,0-25.18,6.59-32.79,2.99-9.9-4.66-11.29-20.07-12.97-23.34-2.97-5.77-3.67,.39-3.67,.39Z"/><path class="k" d="M170.14,130.44s-1.56,2.64-4.96,2.64-5.65-1.01-6.15-1.57c-.5-.56,3.35-7.36,3.35-7.36,0,0-1.8,4.75-.98,5.92,.81,1.17,3.01,1.16,4.07,1.16,3.4,0,4.68-.79,4.68-.79Z"/><path class="n" d="M179.82,152.47c.3-1.62,.47-3.31,.47-5.06h-27.79c0,1.66,.15,3.28,.42,4.82,.16,.89,5.04,3.35,6.08,2.59,4.96-3.65,9.91-3.63,14.49,0,1.11,.88,6.2-1.55,6.35-2.36Z"/><path class="l" d="M142.19,196.53h-4.97v2.05h-6.94l-2.11,2.21-16.22,2.76h.47v19.85h-19.85v-14.16c-1.76,1.64-3.42,3.82-4.97,6.49v7.67h-3.65c-.6,1.55-1.19,3.22-1.75,4.96h5.4v19.85h-10.05c-.17,1.39-.35,3.04-.56,4.96h10.61v19.85h-12.59c-.15,1.61-.31,3.26-.46,4.96h13.05v19.85h-14.84c-.14,1.64-.29,3.29-.43,4.96h15.26v19.85h-16.91c-.13,1.65-.26,3.31-.39,4.97h17.3v19.85h-18.78c-.12,1.66-.24,3.31-.35,4.96h19.13v19.85h-19.85v-9.14c-1.29,20.18-2.1,37.85-1.88,47.93,.3,.59,.97,1.24,1.88,1.94v-10.97h19.85v18.68c1.1,0,1.94-.18,2.32-.67,.65-9.16,1.57-20.86,2.65-33.8v-9.02h.75c.14-1.64,.28-3.3,.42-4.96h-1.17v-19.85h2.87c.14-1.65,.29-3.31,.43-4.96h-3.3v-19.85h5.02c.15-1.66,.29-3.32,.43-4.97h-5.45v-19.85h7.18c.15-1.68,.29-3.33,.43-4.96h-7.61v-19.85h9.32c.15-1.72,.29-3.37,.42-4.96h-9.73v-19.85h19.85v19.85h-7.99c.22,1.55,.45,3.22,.67,4.96h7.31v19.85h-5.96c-.02,1.21-.06,2.88-.11,4.96h6.07v19.85h-6.64c-.05,1.61-.1,3.26-.16,4.97h6.8v19.85h-7.42c-.05,1.64-.1,3.29-.16,4.96h7.57v19.85h-8.21c-.06,1.66-.11,3.31-.16,4.96h8.37v19.85h-9.02c-.05,1.68-.11,3.34-.16,4.96h9.17v19.85h-9.83c-.07,1.79-.11,3.44-.16,4.97h9.99v12.14l4.96,.65v-12.79h19.85v15.39l4.97,.65v-16.05h19.85v18.66l4.43,.58,.54-.1v-19.13h19.85v15.36l4.97-.94v-14.42h19.85v10.65l4.96-.95v-9.7h10.33c-.05-1.48-.11-3.13-.16-4.97h-10.17v-19.85h9.54c-.05-1.62-.1-3.27-.15-4.96h-9.38v-19.85h8.76c-.05-1.64-.1-3.3-.16-4.96h-8.6v-19.85h7.99c-.05-1.67-.1-3.32-.15-4.96h-7.84v-19.85h7.25c-.05-1.7-.1-3.36-.15-4.97h-7.1v-19.85h6.54c-.05-2.07-.09-3.74-.11-4.96h-6.44v-19.85h7.79c.22-1.74,.45-3.41,.67-4.96h-8.46v-19.85h19.85v19.85h-9.26c.14,1.59,.28,3.24,.42,4.96h8.84v19.85h-7.13c.14,1.63,.28,3.29,.43,4.96h6.71v19.85h-4.97c.14,1.64,.29,3.31,.43,4.97h4.54v19.85h-2.82c.15,1.65,.29,3.31,.43,4.96h2.38v19.85h-.69c.14,1.66,.28,3.32,.42,4.96h.27v3.26c1.27,15.23,2.38,29.06,3.13,39.57,.32,.42,.97,.63,1.84,.68v-18.69h19.85v11.48c1.15-.81,2-1.59,2.34-2.27,.25-11.23-.78-31.87-2.34-54.94v15.96h-19.85v-19.85h19.58c-.11-1.64-.22-3.3-.35-4.96h-19.24v-19.85h17.75c-.13-1.66-.26-3.31-.39-4.97h-17.36v-19.85h15.73c-.14-1.67-.28-3.33-.43-4.96h-15.3v-19.85h13.52c-.15-1.7-.31-3.35-.46-4.96h-13.07v-19.85h11.09c-.2-1.92-.39-3.57-.56-4.96h-10.53v-19.85h5.88c-.56-1.74-1.15-3.42-1.75-4.96h-4.13v-8.52c-1.55-2.53-3.21-4.55-4.96-6.08v14.59h-19.85v-19.85h.94l-16.22-2.76-2.11-2.21h-7.42v-2.05h-4.73l-.24,.6v1.45h-.59l-2.02,4.97h2.61v19.85h-18.19l-4.72,4.12-4.94-4.12h-16.82v-19.85h3.39l-2.12-4.97h-1.26v-2.05Zm-54.6,200.57h-19.85v-19.85h19.85v19.85Zm24.82-148.89h-19.85v-19.85h19.85v19.85Zm24.81,173.7h-19.85v-19.85h19.85v19.85Zm0-24.81h-19.85v-19.85h19.85v19.85Zm0-24.81h-19.85v-19.85h19.85v19.85Zm0-24.82h-19.85v-19.85h19.85v19.85Zm0-24.82h-19.85v-19.85h19.85v19.85Zm0-24.81h-19.85v-19.85h19.85v19.85Zm0-24.82h-19.85v-19.85h19.85v19.85Zm0-24.81h-19.85v-19.85h19.85v19.85Zm0-24.82h-19.85v-19.85h19.85v19.85Zm104.22,153.85h19.85v19.85h-19.85v-19.85Zm-24.81-148.89h19.85v19.85h-19.85v-19.85Zm-24.81-24.81h19.85v19.85h-19.85v-19.85Zm0,24.81h19.85v19.85h-19.85v-19.85Zm0,24.82h19.85v19.85h-19.85v-19.85Zm0,24.81h19.85v19.85h-19.85v-19.85Zm0,24.82h19.85v19.85h-19.85v-19.85Zm0,24.82h19.85v19.85h-19.85v-19.85Zm0,24.81h19.85v19.85h-19.85v-19.85Zm0,24.81h19.85v19.85h-19.85v-19.85Zm0,24.82h19.85v19.85h-19.85v-19.85Zm-24.82-173.7h19.85v19.85h-19.85v-19.85Zm0,24.82h19.85v19.85h-19.85v-19.85Zm0,24.81h19.85v19.85h-19.85v-19.85Zm0,24.82h19.85v19.85h-19.85v-19.85Zm0,24.82h19.85v19.85h-19.85v-19.85Zm0,24.81h19.85v19.85h-19.85v-19.85Zm0,24.81h19.85v19.85h-19.85v-19.85Zm0,24.82h19.85v19.85h-19.85v-19.85Zm-4.96,19.85h-19.85v-19.85h19.85v19.85Zm0-24.81h-19.85v-19.85h19.85v19.85Zm0-24.81h-19.85v-19.85h19.85v19.85Zm0-24.82h-19.85v-19.85h19.85v19.85Zm0-24.82h-19.85v-19.85h19.85v19.85Zm0-24.81h-19.85v-19.85h19.85v19.85Zm0-24.82h-19.85v-19.85h19.85v19.85Zm0-44.67v19.85h-19.85v-19.85h19.85Z"/><rect class="h" x="176.87" y="270.73" width="33.84" height="8.37"/><rect class="f" x="178.8" y="272.32" width="29.98" height="2.6"/><path class="j" d="M186.74,187.14c2.83,12.9-22.8,40.37-22.8,40.37l11.14-6.98,9.59,11.73,16.68-31.48s-7.14-10.47-14.61-13.65Z"/><path class="j" d="M142.78,187.14c-2.83,12.9,21.17,40.37,21.17,40.37l-11.46-6.11-10.53,13.92-13.78-34.53s7.14-10.47,14.6-13.65Z"/></g></g></g></g></g></g></svg>