<?xml version="1.0" encoding="UTF-8"?><svg xmlns="http://www.w3.org/2000/svg" xmlns:xlink="http://www.w3.org/1999/xlink" viewBox="0 0 344.16 344.16"><defs><style>.e{fill:#fff;}.f{fill:#454f56;}.g{fill:#096e94;}.h{fill:#22282a;}.i{isolation:isolate;}.j{fill:#017ca8;}.k{fill:#e73a3a;}.l{fill:#e5c9a6;mix-blend-mode:multiply;}.m{fill:#f9bb8d;}.n{fill:#432827;}.o{clip-path:url(#d);}.p{fill:#d5e3ec;}.q{fill:#32393d;}.r{fill:#583636;}.s{fill:#ededed;}</style><clipPath id="d"><path class="k" d="M344.16,172.08c0,95.04-77.04,172.08-172.08,172.08S0,267.12,0,172.08,77.04,0,172.08,0s172.08,77.04,172.08,172.08Z"/></clipPath></defs><g class="i"><g id="a"/><g id="b"><g id="c"><g><path class="k" d="M344.16,172.08c0,95.04-77.04,172.08-172.08,172.08S0,267.12,0,172.08,77.04,0,172.08,0s172.08,77.04,172.08,172.08Z"/><g class="o"><g><path class="s" d="M110.97,130.34c0,11.89,28.69,48.65,61.77,48.65s61.56-39.23,61.56-51.11-26.81-11.52-59.89-11.52-63.43,2.09-63.43,13.98Z"/><path class="h" d="M145.07,207.67h52.39v-19.35s-5.55-5.09-23.2-5.09-24.7,3.39-24.7,3.39l-4.49,21.05Z"/><polygon class="m" points="127.76 248.4 217.71 248.4 225.86 204.5 187.84 196.35 187.84 171.35 157.63 171.35 157.63 196.35 119.61 204.5 127.76 248.4"/><path class="l" d="M157.63,176.44s6.79,10.18,15.62,10.18,14.6-10.18,14.6-10.18v-5.09h-30.21v5.09Z"/><path class="m" d="M224.09,134.8c-10.77,30.71-26.63,45.71-50.23,45.71s-38.91-15.34-50.65-45.71c-7.97-20.61-3.86-45.71-3.86-45.71,0-28.97,8.58-60.19,54.51-60.19s54.52,36.2,54.52,64.26c0,0,1.37,25.51-4.29,41.64Z"/><path class="m" d="M105.77,122.04c2.9,9.57,12.9,14.61,15.11,9.6,2.16-4.87,6.59-7.55,5.23-15.67-1.35-8.13-11.82-16.89-16.35-14.44-7.09,3.84-6.37,12.65-3.99,20.5Z"/><path class="m" d="M239.83,121.03c-2.9,9.56-12.89,14.61-15.11,9.6-2.16-4.87-6.59-7.55-5.23-15.67,1.35-8.12,11.82-16.89,16.35-14.43,7.08,3.84,6.37,12.65,3.99,20.5Z"/><path class="s" d="M223.21,116.35s3.96-17.78,14.34-14.66c.36-11.2,.95-20.37,.13-29.1-.27-2.91-7.54-54.46-57.5-55.51-24.74-.52-47.64-4.98-53.81,15.84-28.11,5.89-20.35,59.28-18.31,69.79,9.9-6.48,14.4,13.66,14.4,13.66l3.66-.38s-7.52-9.43,1.65-17.85c-5.09-7.28,.63-29.59,5.46-31.94,9.79-4.75,10.78,4.2,39.41,4.75,23.11,.45,30.46-14.2,42.38-5.92,11.77,8.17,4.54,29.68,2.69,33.1,10.38,6.81,2.77,17.6,2.77,17.6l2.73,.63Z"/><polygon class="p" points="127.76 391.87 217.71 391.87 216.81 203.53 189.59 189.74 173.41 204.5 155.43 191.77 129.24 202.51 127.76 391.87"/><path class="q" d="M197.46,188.32l-4.16,37.63-19.88,71.28,.38,148.14,60.74-11.54s-4.02-125.07-4.16-137.97c-.14-12.9,3.61-33.27,3.61-33.27l.93-58.09-26.24-4.46-11.21-11.72Z"/><path class="q" d="M258.67,242.97c1.61,7.64,13.04,132.76,12.29,167.56-2.09,4.08-21.65,11.91-24.03,8.79-3.31-46.91-13.93-160.19-13.93-168.18,0-10.59-8.68-46.64,1.91-46.64s18.33,12.67,23.76,38.47Z"/><path class="q" d="M146.7,188.32l7.11,46.56,19.61,62.34,.38,148.14-64.41-8.45s4.27-128.16,4.41-141.05c.14-12.9-3.61-33.27-3.61-33.27l-.93-58.09,26.24-4.46,11.21-11.72Z"/><path class="q" d="M85.49,242.97c-1.61,7.64-13.07,132.57-12.31,167.38,2.09,4.08,21.67,12.09,24.05,8.98,3.32-46.91,13.93-160.19,13.93-168.18,0-10.59,8.68-46.64-1.91-46.64s-18.33,12.67-23.77,38.47Z"/><g><path class="e" d="M158.65,106.64c0,2.8-4.62,6.84-10.37,6.84-7.03,0-11.25-4.08-11.25-8.4s6.08-7.22,11.21-6.27c5.65,1.05,10.41,4.75,10.41,7.83Z"/><path class="r" d="M155.43,106.59c0,2.61-1.31,4.92-3.32,6.28-2.54,1.27-7.67,.55-8.8-.19-1.86-1.39-3.06-3.6-3.06-6.1,0-4.2,3.4-7.6,7.6-7.6s7.59,3.4,7.59,7.6Z"/><path class="r" d="M137.14,106.31s-.13-.45-.22-1.26c-.05-.83,.1-2.1,.96-3.33,1.7-2.52,5.67-4.04,9.56-3.78,1.97,.23,3.76,.85,5.38,1.62,1.63,.75,2.96,1.82,3.95,2.84,1.01,1.02,1.57,2.14,1.78,2.94,.2,.82,.07,1.29,.09,1.29,0,0-.05-.48-.38-1.18-.33-.72-1.08-1.55-2.09-2.41-1.01-.87-2.41-1.58-3.91-2.27-1.49-.67-3.28-1.13-4.95-1.35-3.41-.3-7.08,.88-8.78,2.81-1.78,1.97-1.29,4.14-1.39,4.07Z"/><path class="n" d="M153.03,107.92c0,2.68-2.17,4.85-4.84,4.85s-4.84-2.17-4.84-4.85,2.17-4.84,4.84-4.84,4.84,2.17,4.84,4.84Z"/><path class="e" d="M149.27,105.68c0,1.19,.97,2.16,2.16,2.16s2.16-.97,2.16-2.16-.97-2.16-2.16-2.16-2.16,.97-2.16,2.16Z"/><path class="e" d="M150.7,102.37c0,.39-.32,.71-.71,.71s-.71-.32-.71-.71,.32-.72,.71-.72,.71,.32,.71,.72Z"/></g><g><path class="e" d="M186.37,106.64c0,2.8,4.62,6.84,10.37,6.84,7.03,0,11.25-4.08,11.25-8.4s-6.08-7.22-11.21-6.27c-5.66,1.05-10.42,4.75-10.42,7.83Z"/><path class="r" d="M189.59,106.59c0,2.61,1.32,4.92,3.33,6.28,2.54,1.27,7.67,.55,8.8-.19,1.86-1.39,3.06-3.6,3.06-6.1,0-4.2-3.4-7.6-7.59-7.6s-7.6,3.4-7.6,7.6Z"/><path class="r" d="M207.88,106.31c-.11,.07,.38-2.1-1.4-4.07-1.69-1.93-5.37-3.11-8.77-2.81-1.68,.22-3.46,.67-4.95,1.35-1.5,.69-2.9,1.4-3.91,2.27-1.01,.85-1.77,1.69-2.09,2.41-.34,.7-.38,1.18-.38,1.18,.03,0-.1-.47,.1-1.29,.21-.8,.76-1.92,1.78-2.94,1.01-1.03,2.33-2.09,3.96-2.84,1.62-.77,3.41-1.4,5.38-1.62,3.89-.25,7.85,1.26,9.56,3.78,.86,1.23,1,2.5,.95,3.33-.08,.81-.21,1.26-.21,1.26Z"/><path class="n" d="M191.99,107.92c0,2.68,2.17,4.85,4.84,4.85s4.84-2.17,4.84-4.85-2.17-4.84-4.84-4.84-4.84,2.17-4.84,4.84Z"/><path class="e" d="M195.75,105.68c0,1.19-.97,2.16-2.16,2.16s-2.16-.97-2.16-2.16,.97-2.16,2.16-2.16,2.16,.97,2.16,2.16Z"/><path class="e" d="M194.32,102.37c0,.39,.32,.71,.72,.71s.72-.32,.72-.71-.32-.72-.72-.72-.72,.32-.72,.72Z"/></g><path class="s" d="M132.53,96.88s4.97-6.63,17.35-7.14c3.53-.15,7.2-.09,8.61,.1,1.41,.18,1.34-5.81,.41-5.9-.93-.09-9.35-.77-13.17,.12-11.05,2.56-13.2,12.81-13.2,12.81Z"/><path class="s" d="M211.01,98.85s-5.11-6.82-17.36-7.81c-3.49-.29-7.13-.37-8.51-.24-1.38,.13-1.49-5.86-.56-5.92,.92-.05,9.22-.4,13.03,.63,11,2.99,13.41,13.33,13.41,13.33Z"/><path class="s" d="M122.45,116.35c.75,3.92,3.35,13.5,0,18.43,3.94,19.63,20.15,45.74,51.41,45.74,23.6,0,41.23-11.64,52-42.35-2.46-2.88-3.31-17.72-2.65-21.82,0,0-.67-5-2.73-.63-2.5,5.3-11.92,43.06-25.44,51.61-15.01,9.49-9.68-3.17-22.4-3.17-10.31,0-6.33,10.41-22.65,2.72-17.6-8.3-22.19-47.66-23.87-50.91-2.97-5.77-3.66,.38-3.66,.38Z"/><path class="l" d="M177.46,129.69s-1.56,2.64-4.96,2.64-5.65-1.01-6.15-1.57c-.5-.56,3.34-7.36,3.34-7.36,0,0-1.8,4.74-.98,5.92,.81,1.17,3.02,1.15,4.07,1.15,3.4,0,4.68-.79,4.68-.79Z"/><path class="l" d="M176.02,151.7s-1.69,4.57-5.25,4.54c-3.57-.02-4.47-3.16-4.47-3.16,0,0,1.04,1.22,4.89,1.08,3.86-.14,4.83-2.46,4.83-2.46Z"/><path class="s" d="M181.98,152.52c5.62,.68,11.61-2.16,11.61-2.16,0,0-8.22-10.92-20.17-10.86-13.86,.06-21.98,10.86-21.98,10.86,0,0,6.09,2.59,10.86,1.81,6.95-1.14,10.3-4.39,10.3-4.39,0,0,4.14,4.1,9.39,4.73Z"/><path class="f" d="M194.06,186.4c2.83,12.9-20.65,110.83-20.65,110.83l26.22-52.05-3.88-15.84,12.22,1.35,.7-30.65s-7.14-10.47-14.6-13.64Z"/><path class="f" d="M150.06,186.4c-2.83,12.9,23.35,110.83,23.35,110.83l-28.92-52.05,3.88-15.84-12.22,1.35-.7-30.65s7.14-10.47,14.61-13.64Z"/><polygon class="e" points="194.21 192.08 184.58 215.58 173.41 204.5 189.59 189.74 194.21 192.08"/><polygon class="e" points="150.15 193.94 161.78 216.66 173.41 204.5 155.43 191.77 150.15 193.94"/><polygon class="g" points="178.81 223.45 168.63 223.45 165.35 212.93 173.41 204.5 180.98 212.01 178.81 223.45"/><polygon class="j" points="178.81 223.45 168.63 223.45 165.35 265.86 173.41 297.22 180.98 264.26 178.81 223.45"/></g></g></g></g></g></g></svg>