<?xml version="1.0" encoding="UTF-8"?><svg xmlns="http://www.w3.org/2000/svg" xmlns:xlink="http://www.w3.org/1999/xlink" viewBox="0 0 344.16 344.16"><defs><style>.e{fill:#fff;}.f{fill:#e09d72;}.g{isolation:isolate;}.h{fill:#f08375;opacity:.2;}.i{fill:#683c11;}.j{fill:#259dab;}.k{fill:#f9bb8d;}.l{clip-path:url(#d);}.m{fill:#95c11f;}.n{fill:#432918;}.o{fill:#d84b58;}.p{fill:#352e35;}.q{fill:#e7dcd6;mix-blend-mode:multiply;}</style><clipPath id="d"><path class="m" d="M0,172.08C0,77.04,77.04,0,172.08,0s172.07,77.04,172.07,172.08-77.04,172.08-172.07,172.08S0,267.12,0,172.08Z"/></clipPath></defs><g class="g"><g id="a"/><g id="b"><g id="c"><g><path class="m" d="M0,172.08C0,77.04,77.04,0,172.08,0s172.07,77.04,172.07,172.08-77.04,172.08-172.07,172.08S0,267.12,0,172.08Z"/><g class="l"><g><g><path class="i" d="M236.4,184.18c-15.67,47.17-90.7,72.03-101.21,72.03s-28.57-37.24-32.44-59.95c-4.77-27.91-8.93-35.9-12.15-56.36-1.85-11.76-7.85-59.18,.38-71.7,12.94-19.66,37.16-33.47,77.62-33.47,15.31,0,36.84-.51,39.41,9.67,20.68-.72,31.15,10.01,36.27,19.2,7.45,13.41,10.22,32.2,8.3,50.07-2.52,23.6-5.01,36.91-16.18,70.51Z"/><path class="k" d="M91.88,373.68h83.68V245.57c-4.21-.07-7.12,0-7.88,.02-2.35-.07-24.82-.58-44,4.03-20.38,4.88-37.36,15.48-37.36,15.48,0,0,9.58,20.04,14.99,59.61,2.48,18.12-9.1,39.16-9.43,48.97Z"/><path class="k" d="M253.81,373.68c.05-9.77-12.38-32.42-10.8-48.97,3.76-39.2,16.93-59.61,16.93-59.61,0,0-16.99-10.59-37.36-15.48-19.19-4.61-41.66-4.1-44-4.03-.76-.02-3.67-.09-7.89-.02v128.11h83.12Z"/><path class="k" d="M107.73,152.34s2.38-18.12-14.53-13.81c-13.01,3.33,.62,37.05,9.23,39.98,7.36,2.51,8.92-2.7,8.92-2.7l-3.62-23.47Z"/><path class="k" d="M233.2,152.26s-2.63-18.16,14.33-13.61c13.06,3.5-.09,37.04-8.66,39.86-7.33,2.41-8.96-2.83-8.96-2.83l3.29-23.42Z"/><path class="k" d="M171.77,281.03s34.87-32.45,32.78-34.02c-12.14-9.08-11.42-34.57-11.42-34.57l-43.95-3.13s2.77,36.61-10.24,41.14c-.95,.33,32.83,30.57,32.83,30.57Z"/><path class="q" d="M147.3,238c3.06,.7,6.11,2.36,8.93,5.23,11.72,11.9,28.89,6.4,39.85-4.09,.52-.49,1.04-.94,1.58-1.36-4.92-11-4.52-25.34-4.52-25.34l-43.95-3.13s1.23,16.47-1.89,28.69Z"/><path class="k" d="M234.74,156.58c-2.69,21.43-4.68,32.85-15.12,48.96-17.37,26.86-48.12,35.85-48.12,35.85,0,0-32.8-7.88-50.66-35.85-10.12-15.84-11.81-29.52-14.55-48.96-3.3-23.38-3.55-15.12-3.55-37.18,0-44.91,16.23-77.35,63.39-77.35s71.26,28.22,71.97,74.32c.4,25.26-.41,16.7-3.37,40.2Z"/><path class="q" d="M140.68,123.37c8.92-.27,32.54-7.56,39.12-15.22,5.83-6.8,15.55-20.55,25.18-20.55,1.16,33.96,21.41,27.72,24.93,45.66,.95,4.82,3.52,18.34,4.83,23.33,2.48-2.53,3.43-18.41,3.46-18.66,3.16-23.49,4.91,3.72,4.49-21.54-.77-46.1-25.04-77.39-75.43-77.39s-69.11,35.5-69.11,80.41c0,21.02,5.06,17.56,8.14,37.18,4.3-9.1,24.92-32.93,34.39-33.22Z"/><path class="i" d="M199.9,82.93c25.59,.34,12.7,33.39,22.29,36.34,14.89,7.16,12.71,38.1,12.82,37.31,3.15-23.5,10.96-14.32,10.54-39.58-.77-46.09-27.89-78.01-78.29-78.01s-71.6,35.49-71.6,80.39c0,22.06,8.93,28.73,10.38,37.2,10.46-56.38,54.05-17.21,93.86-73.66Z"/><path class="k" d="M90.11,373.68c6.8-28.17,13.91-55.45,13.91-55.45,0,0,6.55-58.92-17.71-53.14-16.73,4-25.95,65.19-31.03,108.59h34.83Z"/><path class="k" d="M255.21,373.68h34.82c-5.07-43.4-14.29-104.59-31.03-108.59-24.27-5.78-17.71,53.14-17.71,53.14,0,0,7.11,27.28,13.92,55.45Z"/><path class="i" d="M116.32,137.51s2.94-2.3,10.76-4.3c9.09-2.33,21.11,1.55,21.58,1.55,.84,0,2.06-.23,2.06-2.52s-1-2.25-1.83-2.25c-.47,0-12.98-2.45-22.03,.38-6.93,2.16-10.54,7.16-10.54,7.16Z"/><g><path class="e" d="M121.37,147.41s.65,3.74,4.03,6.94c2.54,2.41,18.06,4.03,19.69,3.29,2.45-1.1,5.63-6.34,5.63-6.34,0,0-5.46-7.51-12.2-7.51s-17.16,3.62-17.16,3.62Z"/><path class="n" d="M138.52,145.26c-4.87,0-11.02,2.23-14.42,3.28-.78,.25-1,2.55,.29,4.75-2.77-2.54-4.76-7.58-4.76-7.58,0,0,3.32,1.18,4.4,.83,3.25-1.01,9.43-2.76,14.48-2.76,6.74,0,12.2,7.51,12.2,7.51,0,0-.21,.74-.78,1.21-1.2-1.51-5.58-7.24-11.42-7.24Z"/><path class="n" d="M131.09,150.62c0,3.78,3.06,6.84,6.83,6.84s6.84-3.07,6.84-6.84-3.06-6.83-6.84-6.83-6.83,3.06-6.83,6.83Z"/><path class="e" d="M132.07,150.63c0,2.9,8.13-5.22,5.23-5.22s-5.23,2.33-5.23,5.22Z"/></g><polygon class="f" points="170.62 175.5 164.49 170.65 170.85 155.06 170.62 175.5"/><g><path class="o" d="M170.61,210.12c-12.47,0-17.26-13.19-17.26-13.19,0,0,1.98,.61,3.6,.07,3.3-1.09,7.66-3.79,8.77-4.1,1.65-.47,4.9,1.84,4.9,1.84,0,0,2.84-2.27,4.2-1.84,.92,.28,5.15,2.42,8.72,3.51,1.73,.54,4.34,.52,4.34,.52,0,0-5.66,13.19-17.27,13.19Z"/><path class="e" d="M170.46,203.48c-10.2,0-15.43-5.6-15.43-5.6,0,0,6.89,1.23,15.59,1.23s16.04-1.42,16.04-1.42c0,0-6.44,5.79-16.2,5.79Z"/></g><path class="h" d="M153.4,173.37c0,5.98-7.55,10.81-16.88,10.81s-16.88-4.84-16.88-10.81,7.56-10.81,16.88-10.81,16.88,4.84,16.88,10.81Z"/><path class="i" d="M222.19,137.51s-2.94-2.3-10.76-4.3c-9.09-2.33-21.11,1.55-21.59,1.55-.83,0-2.06-.23-2.06-2.52s1-2.25,1.84-2.25c.46,0,12.98-2.45,22.03,.38,6.93,2.16,10.54,7.16,10.54,7.16Z"/><g><path class="e" d="M217.14,147.41s-.65,3.74-4.03,6.94c-2.55,2.41-18.06,4.03-19.7,3.29-2.44-1.1-5.62-6.34-5.62-6.34,0,0,5.46-7.51,12.2-7.51s17.16,3.62,17.16,3.62Z"/><path class="n" d="M199.98,145.26c4.87,0,11.03,2.23,14.42,3.28,.78,.25,1,2.55-.3,4.75,2.77-2.54,4.77-7.58,4.77-7.58,0,0-3.32,1.18-4.4,.83-3.25-1.01-9.43-2.76-14.48-2.76-6.74,0-12.2,7.51-12.2,7.51,0,0,.22,.74,.79,1.21,1.2-1.51,5.57-7.24,11.41-7.24Z"/><path class="n" d="M207.42,150.62c0,3.78-3.06,6.84-6.83,6.84s-6.84-3.07-6.84-6.84,3.06-6.83,6.84-6.83,6.83,3.06,6.83,6.83Z"/><path class="e" d="M206.44,150.63c0,2.9-8.13-5.22-5.24-5.22s5.24,2.33,5.24,5.22Z"/></g><path class="h" d="M185.1,173.37c0,5.98,7.57,10.81,16.89,10.81s16.88-4.84,16.88-10.81-7.56-10.81-16.88-10.81-16.89,4.84-16.89,10.81Z"/><path class="i" d="M158.75,121.02c6.24-.92,10.74-6.35,14.82-10.63,2.28-2.39,4.79-4.54,7.09-6.91,2.43-2.5,4.74-5.16,6.74-8.02,2.33-3.34,4.19-7.11,5.08-11.08,.17-.78-.88-1.27-1.31-.55-1.78,2.98-3.35,6.09-5.29,8.97s-3.8,5.45-6.01,7.96-4.48,4.61-6.66,6.96-4.18,4.61-6.23,6.93c-2.29,2.6-4.85,5.22-8.24,6.28-.06,.02-.03,.1,.03,.09h0Z"/><path class="i" d="M141.03,125.12c7.13-.49,12.94-4.64,17.96-9.43,5.65-5.39,10.07-11.99,14.06-18.66,1.93-3.22,3.7-6.64,4.68-10.28,.15-.57-.62-1.1-1.04-.61-4.42,5.18-7.39,11.52-11.28,17.11-4.13,5.95-8.8,12.06-14.62,16.47-2.94,2.23-6.21,4.28-9.78,5.31-.05,.01-.04,.1,.01,.09h0Z"/><path class="i" d="M261,112.34c-4.41-2.12-7.13-6.23-8.37-10.85-.62-2.29-1.14-4.6-1.4-6.96-.12-1.11-.14-2.23-.36-3.32-.16-.81-.11-2.29-.89-2.75-.18-.1-.4-.1-.58,0-.84,.5-.73,2.18-.82,3.06-.12,1.17,.06,2.4,.19,3.57,.3,2.64,.75,5.25,1.77,7.72,.95,2.31,2.2,4.51,3.94,6.32s3.9,2.98,6.42,3.48c.15,.03,.27-.19,.11-.26h0Z"/><path class="i" d="M263.81,94.99c.04-.09-.69,.04-.82,.07-.42,.11-.84,.17-1.27,.17-.73,0-1.39-.19-2.06-.48-1.6-.69-2.84-1.8-3.91-3.16-1.25-1.58-2.14-3.38-3.06-5.16s-1.68-3.5-2.33-5.4c-.61-1.76-.99-3.59-2.25-4.82-.31-.31-.82-.23-1.05,.14-.92,1.49-.43,3.44,.07,5.02,.66,2.08,1.48,4.11,2.44,6.06,1.75,3.58,4.71,7.55,8.53,9.08,1.9,.76,3.98,.31,5.64-.79,.12-.08,.23-.22,.21-.37l.04-.06c.47,.05,0-.73-.18-.31h0Z"/><path class="i" d="M81.45,122.48c4.18-.83,6.04-6.21,6.71-9.89,.98-5.37,.97-10.86,1.32-16.29,.15-2.33,.02-4.68,.14-7,.04-.74-.98-.95-1.34-.36-2.26,3.71-1.77,8.74-1.82,12.91-.05,4.92-.03,10.16-1.45,14.91-.64,2.15-1.85,4.12-3.68,5.46-.13,.1-.06,.3,.11,.26h0Z"/><path class="i" d="M80.78,109.48c4.51-2.61,6.64-7.31,7.97-12.14,.69-2.53,1.33-5.2,1.49-7.82,.14-2.31,.51-4.83-.49-6.98-.2-.42-.77-.32-.99,0-1.26,1.81-1.23,4.15-1.52,6.26-.33,2.46-.41,4.94-.81,7.39-.74,4.65-2.24,9.82-5.76,13.15-.08,.08,.02,.2,.12,.15h0Z"/><path class="i" d="M224.22,134.65c1.02-2.23,.48-4.92-.43-7.09-1.16-2.77-2.75-5.36-3.77-8.19-1.19-3.29-1.16-7.19-.9-10.63,.15-1.92,.51-3.82,1.01-5.69s1.44-3.98,1.27-5.91c-.02-.22-.28-.46-.5-.29-1.42,1.08-2.23,3.06-2.77,4.72-.59,1.81-1.03,3.66-1.31,5.54-.55,3.72-.51,7.66,.56,11.3,.83,2.83,2.56,5.36,3.97,7.93,1.32,2.39,3.26,5.39,2.68,8.24-.02,.1,.13,.18,.18,.07h0Z"/><path class="i" d="M231.02,169.76c4.88-5.3,3.73-13.06,4.66-19.65,.5-3.51,1.87-6.81,2.38-10.33s.56-7.07-.42-10.5c-.55-1.94-1.39-3.84-2.5-5.52-.56-.85-1.18-1.56-1.96-2.22-.89-.76-1.63-1.13-2.77-1.41-.36-.09-.8,.25-.65,.65,.61,1.57,1.42,2.92,2.34,4.33,.86,1.32,1.54,2.73,2.01,4.23,.97,3.11,1.22,6.44,.99,9.68s-1.26,6.3-1.66,9.51-.27,6.76-.36,10.13c-.1,3.69-.25,7.74-2.22,10.98-.06,.09,.08,.2,.15,.12h0Z"/><path class="i" d="M110.75,172.78c.63-.88,.27-2.35,.15-3.36-.19-1.47-.51-2.88-.92-4.31-.87-3.04-1.75-6.11-1.57-9.31,.21-3.72,1.66-7.24,2.48-10.84,.86-3.82,.8-7.63,.18-11.48-.32-1.99-.51-4.07-.94-6.03s-.81-3.83-.84-5.79c-.02-1.03-1.24-1.2-1.79-.48-1.14,1.48-1.8,3.02-2.15,4.86s-.26,3.64,0,5.56c.5,3.78,1.44,7.56,.98,11.39s-1.73,7.41-1.96,11.22c-.2,3.35,.98,6.65,2.28,9.68,.69,1.62,1.42,3.23,2.21,4.8,.4,.8,.78,1.61,1.08,2.45,.21,.6,.3,1.18,.75,1.64,.02,.02,.06,.01,.08,0h0Z"/><g><path class="j" d="M93.03,361.74c8.1-22.14,11-43.51,11-43.51,0,0,6.55-58.92-17.71-53.14-12.87,3.08-24.3,42.31-26.81,76.63-.5,6.8,33.53,20.01,33.53,20.01Z"/><path class="j" d="M252.3,361.74s34.04-10.89,34.04-16.52c.02-38.83-14.05-76.94-27.33-80.12-24.27-5.78-17.71,53.14-17.71,53.14,0,0,2.98,20.86,11,43.51Z"/><path class="j" d="M91.88,373.68H253.81c.05-9.77-12.38-32.42-10.8-48.97,3.76-39.2,16.93-59.61,16.93-59.61,0,0-16.99-10.59-37.36-15.48-1.15,23.56-8.34,65.49-49.45,65.49s-47.75-41.43-49.45-65.49c-20.38,4.88-37.36,15.48-37.36,15.48,0,0,9.58,20.04,14.99,59.61,2.48,18.12-9.1,39.16-9.43,48.97Z"/><path class="p" d="M91.88,373.68h52.4v-84.85c-7.76-7.38-19.42-22.5-20.6-39.22-20.38,4.88-37.36,15.48-37.36,15.48,0,0,9.58,20.04,14.99,59.61,2.48,18.12-9.1,39.16-9.43,48.97Z"/><path class="p" d="M253.81,373.68c.05-9.77-12.38-32.42-10.8-48.97,3.76-39.2,16.93-59.61,16.93-59.61,0,0-16.99-10.59-37.36-15.48-.77,15.85-7.27,27.3-19.03,37.77v86.3h50.26Z"/></g></g><g><path class="i" d="M125.85,308.3c-2.72,5.65-14.52,9.64-25.77,4.25-11.25-5.4-18.75-18.74-16.04-24.4,2.72-5.65,14.62-1.48,25.87,3.92,11.25,5.4,18.65,10.58,15.94,16.23Z"/><path class="i" d="M126.41,293.35c-2.71,5.65-15.08,9.83-26.33,4.43-11.25-5.4-17.64-17.99-14.92-23.64,2.72-5.66,13.5-2.24,24.75,3.16,11.25,5.4,19.21,10.4,16.5,16.05Z"/><path class="i" d="M128.31,278.69c-2.71,5.66-14.6,8.36-25.84,2.96-11.25-5.4-16.28-16.58-13.57-22.23,2.71-5.66,12.15-3.64,23.4,1.76,11.25,5.4,18.73,11.87,16.01,17.52Z"/><path class="i" d="M132.06,266.43c-2.72,5.66-15.22,9.18-26.47,3.78-11.25-5.4-15.44-20.01-12.73-25.66,2.71-5.65,11.31-.21,22.56,5.19,11.25,5.4,19.36,11.05,16.64,16.7Z"/><path class="i" d="M138.94,250.45c-2.71,5.65-17.25,11.13-28.49,5.74-11.24-5.41-15.45-20.01-12.73-25.67s11.32-.21,22.56,5.19c11.25,5.41,21.38,9.09,18.66,14.74Z"/><path class="i" d="M140.78,240.28c-2.72,5.66-14.03,5.86-25.27,.46-11.25-5.4-12.41-11.71-11.51-17.91,1.98-13.52,10.09-7.95,21.33-2.56,11.25,5.4,18.16,14.36,15.45,20.01Z"/><path class="i" d="M123.03,321.94c-2.71,5.66-14.42,10.16-25.67,4.76-11.25-5.4-17.13-18.74-14.42-24.39,2.72-5.66,13-1.49,24.24,3.91,11.25,5.4,18.56,10.06,15.84,15.72Z"/><path class="i" d="M120.11,336.11c-2.6,5.42-15.24,11.42-25.01,6.73-9.78-4.69-15.42-17.37-12.81-22.79,2.6-5.42,12.46-1.52,22.23,3.17,9.78,4.69,18.2,7.47,15.6,12.89Z"/><path class="i" d="M108.18,373.02s-1.19-9.31-8.36-15.64c-11.06-9.76-20.3-11.39-17.7-16.81,2.6-5.41,19.85-8.98,26.4-.35,9.62,12.7-.34,32.8-.34,32.8Z"/></g></g></g></g></g></g></g></svg>