<?xml version="1.0" encoding="UTF-8"?><svg xmlns="http://www.w3.org/2000/svg" xmlns:xlink="http://www.w3.org/1999/xlink" viewBox="0 0 344.16 344.16"><defs><style>.e{fill:#272127;}.f{fill:#fff;}.g{fill:#e09d72;}.h{fill:#331b19;}.i{fill:#e7e7e7;}.j{fill:#f59d16;}.k{clip-path:url(#d);}.l{fill:#432918;}.m{fill:#e4b58b;}.n{fill:#00b5cf;}.o{fill:#352e35;}.p{fill:#dba87b;}</style><clipPath id="d"><path class="j" d="M0,172.08C0,77.04,77.04,0,172.08,0s172.08,77.04,172.08,172.08-77.04,172.08-172.08,172.08S0,267.12,0,172.08Z"/></clipPath></defs><g id="a"/><g id="b"><g id="c"><g><path class="j" d="M0,172.08C0,77.04,77.04,0,172.08,0s172.08,77.04,172.08,172.08-77.04,172.08-172.08,172.08S0,267.12,0,172.08Z"/><g class="k"><g><polygon class="p" points="215.52 256.95 172.83 277.17 130.15 256.95 137.67 217.96 205.87 217.96 215.52 256.95"/><path class="m" d="M235.86,133.96c-2.05,25.29-6.91,54.97-16.01,71.55-6.13,11.16-31.14,36.39-48.07,36.39s-40.75-24.34-48.39-37.1c-7.63-12.76-13.23-40.51-15.7-70.84-4.02-49.38,28.69-71.26,64.09-71.26s68.08,21.87,64.08,71.26Z"/><path class="m" d="M248.37,154.76c-.9,5.5-5.67,15.15-7.72,18.62-1.38,2.34-8.56,7.02-11.74,6.73-3.19-.29-1.97-8.89-3.15-11.81-1.18-2.93-1.66-9.1-1.51-15.79,.25-10.88,6.86-15.09,13.52-14.47,6.66,.63,12.36,5.99,10.6,16.73Z"/><path class="m" d="M95.44,154.76c.9,5.5,5.67,15.15,7.72,18.62,1.38,2.34,8.56,7.02,11.73,6.73,3.19-.29,1.98-8.89,3.15-11.81,1.19-2.93,1.66-9.1,1.51-15.79-.25-10.88-6.86-15.09-13.52-14.47-6.66,.63-12.36,5.99-10.6,16.73Z"/><path class="h" d="M112.97,133.29s4.69-6.96,7.53-7.91c6.73-2.22,18.32-5.76,20.56-5.77,3.88,0,10.23,2.67,10.23,2.67l-2.27,4.86s-4.97-2.91-9.43-2.86c-2.35,.02-10.38,.98-17.96,3.07-2.72,.74-8.65,5.94-8.65,5.94Z"/><path class="h" d="M230.25,133.7s-4.48-7.1-7.3-8.12c-6.66-2.42-18.13-6.31-20.37-6.38-3.88-.11-10.31,2.37-10.31,2.37l2.13,4.92s5.06-2.76,9.52-2.58c2.35,.09,10.35,1.28,17.86,3.59,2.7,.82,8.48,6.19,8.48,6.19Z"/><path class="h" d="M107.35,137.97l6.23,23.74,4.93-1.42s-11.5-41.27-5.57-52.56c5.92-11.29,11.21-16.23,17.92-16.94,6.7-.7,21.87,5.65,34.92,4.94,13.05-.71,29.99-10.93,36.34-10.93s21.52,10.22,23.63,17.28c2.12,7.07,2.12,50.22,2.12,50.22l2.39,3.41,5.93-17.74,6.9,1.78s5.6-57.77-4.99-71.17c-10.59-13.41-41.27-29.98-73.37-29.98-27.05,0-60.45,24.69-66.45,40.21-7.24,18.75,.48,62.47,.48,62.47l8.59-3.31Z"/><polygon class="i" points="223.16 354.91 223.16 257.79 170.43 274.12 119.59 257.79 119.59 354.91 223.16 354.91"/><path class="n" d="M171.93,274.12s-14.4,4.99-14.4,9.5,7.88,16.16,7.88,16.16h14.4s6.53-11.62,6.53-16.16-14.41-9.5-14.41-9.5Z"/><polygon class="n" points="184.89 354.91 179.81 299.78 165.41 299.78 159.99 354.91 184.89 354.91"/><polygon class="f" points="235.86 253.66 190.12 283.76 172.22 274.16 211.39 234.45 235.86 253.66"/><polygon class="f" points="108.51 253.42 153.04 283.76 172.22 274.16 132.9 234.3 108.51 253.42"/><path class="e" d="M298.21,354.91c-4.08-41.05-9.45-80.53-15.39-87.57-13.09-15.51-65.74-28.43-65.74-28.43l-16.64,116.01h97.77Z"/><polygon class="o" points="222.24 354.91 250.24 299.1 228.39 287.62 244.39 277.98 217.08 238.9 200.81 354.91 222.24 354.91"/><path class="e" d="M143.72,354.91l-16.64-116.01s-52.64,12.92-65.74,28.43c-5.94,7.04-11.31,46.52-15.39,87.57h97.77Z"/><polygon class="o" points="121.91 354.91 143.35 354.91 127.08 238.9 99.76 277.98 115.76 287.62 93.91 299.1 121.91 354.91"/><path class="p" d="M164.01,205.28s9.9-1.3,12.04,0c2.16,1.29,5.6,2.58,5.6,2.58"/><g><path class="f" d="M219.71,139.52s-.63,3.62-3.89,6.72c-2.46,2.32-17.46,3.88-19.06,3.17-2.36-1.06-5.44-6.12-5.44-6.12,0,0,5.29-7.27,11.81-7.27s16.59,3.5,16.59,3.5Z"/><path class="l" d="M203.12,137.45c4.7,0,11.26,1.82,14.54,2.83,.74,.24,.36,2.81-.89,4.95,2.68-2.46,2.94-5.7,2.94-5.7,0,0-10.08-3.5-16.59-3.5s-11.81,7.27-11.81,7.27c0,0,.21,.71,.77,1.17,1.16-1.46,5.39-7,11.04-7Z"/><path class="l" d="M210.31,142.63c0,3.66-2.95,6.61-6.6,6.61s-6.61-2.95-6.61-6.61,2.95-6.61,6.61-6.61,6.6,2.96,6.6,6.61Z"/><path class="f" d="M209.36,142.64c0,2.8-7.85-5.06-5.06-5.06s5.06,2.27,5.06,5.06Z"/></g><g><path class="f" d="M123.04,139.52s.63,3.62,3.89,6.72c2.46,2.32,17.46,3.88,19.05,3.17,2.36-1.06,5.44-6.12,5.44-6.12,0,0-5.29-7.27-11.8-7.27s-16.59,3.5-16.59,3.5Z"/><path class="l" d="M139.63,137.45c-4.7,0-11.26,1.82-14.54,2.83-.75,.24-.36,2.81,.89,4.95-2.68-2.46-2.94-5.7-2.94-5.7,0,0,10.08-3.5,16.59-3.5s11.8,7.27,11.8,7.27c0,0-.2,.71-.76,1.17-1.16-1.46-5.38-7-11.04-7Z"/><path class="l" d="M132.44,142.63c0,3.66,2.96,6.61,6.61,6.61s6.61-2.95,6.61-6.61-2.96-6.61-6.61-6.61-6.61,2.96-6.61,6.61Z"/><path class="f" d="M133.39,142.64c0,2.8,7.85-5.06,5.06-5.06s-5.06,2.27-5.06,5.06Z"/></g><polygon class="g" points="171.96 172.44 166.03 167.75 171.96 153.92 171.96 172.44"/><polygon class="g" points="155.11 198.22 152.89 196.06 192.78 193.91 185.62 198.22 155.11 198.22"/></g></g></g></g></g></svg>