<?xml version="1.0" encoding="UTF-8"?><svg xmlns="http://www.w3.org/2000/svg" xmlns:xlink="http://www.w3.org/1999/xlink" viewBox="0 0 344.16 344.16"><defs><style>.e{fill:#fff;}.f{fill:#f49e87;}.g{fill:#724a5d;}.h{fill:#e73a3a;}.i{fill:#ac463a;}.j{fill:#fac697;}.k{fill:#87382c;}.l{fill:#432827;}.m{clip-path:url(#d);}.n{fill:#432918;}.o{fill:#de6050;}.p{fill:#db9d73;}.q{fill:#d84b58;}.r{fill:#583636;}.s{fill:#c0102c;}</style><clipPath id="d"><path class="g" d="M0,172.08C0,77.04,77.04,0,172.08,0s172.09,77.04,172.09,172.08-77.04,172.08-172.09,172.08S0,267.12,0,172.08Z"/></clipPath></defs><g id="a"/><g id="b"><g id="c"><g><path class="g" d="M0,172.08C0,77.04,77.04,0,172.08,0s172.09,77.04,172.09,172.08-77.04,172.08-172.09,172.08S0,267.12,0,172.08Z"/><g class="m"><g><path class="n" d="M117.4,122.55c-7.63,40.76,32.32,127.89,65.22,127.89s67.02-69,62.1-125.75c-1.94-22.4-29.19-2.14-62.1-2.14s-61.09-22.11-65.22,0Z"/><path class="k" d="M153.79,209.94h52.07v-19.23s-5.51-5.06-23.06-5.06-24.55,3.37-24.55,3.37l-4.46,20.92Z"/><polygon class="j" points="136.58 250.44 226 250.44 234.1 206.8 196.31 198.7 196.31 173.85 166.28 173.85 166.28 198.7 128.48 206.8 136.58 250.44"/><path class="p" d="M166.28,178.91s6.74,10.12,15.52,10.12,14.51-10.12,14.51-10.12v-5.06h-30.03v5.06Z"/><g><path class="j" d="M232.34,137.51c-5.12,16.2-28.59,45.44-49.93,45.44-19.2,0-44.37-24.29-50.35-45.44-5.97-21.14-3.84-45.44-3.84-45.44,0-28.79,8.53-59.84,54.19-59.84s54.19,35.99,54.19,63.88c0,0,.85,25.2-4.26,41.39Z"/><path class="j" d="M114.72,124.82c2.89,9.52,12.82,14.52,15.02,9.55,2.14-4.84,6.55-7.51,5.2-15.58-1.35-8.08-11.75-16.79-16.25-14.35-7.04,3.82-6.34,12.57-3.98,20.38Z"/><path class="j" d="M247.99,123.82c-2.89,9.51-12.82,14.52-15.02,9.55-2.14-4.84-6.55-7.51-5.2-15.58,1.35-8.08,11.75-16.79,16.26-14.35,7.04,3.82,6.33,12.57,3.97,20.38Z"/><path class="n" d="M225.73,126.04c8.53-4.28,7.58-22.59,18.3-22.59,10.32-36.9-10.38-87.88-61.67-87.88-54.5,0-74.79,54.93-65.36,90.03,9.84-6.44,5.89,12.12,19.33,20.44-5.44-11.69,6.56-8.38,.74-27.21,5.65-7.99-1.28-40.61,44.22-40.61s34.41,23.06,43.37,35.21c8.96,12.15,4.27,27.67,1.07,32.61Z"/></g><path class="e" d="M136.58,363.36s5.12,6.63,43.59,6.63,45.83-6.63,45.83-6.63v-112.92h-89.41v112.92Z"/><path class="o" d="M205.86,190.72l-20.01,102.46v42.74l50.79,36.89s-1.88-53.54-8.63-76.48c.45-10.8,7.77-43.16,7.77-43.16l1.91-46.36-20.68-4.43-11.15-11.64Z"/><path class="i" d="M202.49,188.8c2.81,12.82-16.63,104.38-16.63,104.38v42.74l21.02-63.89-6.52-6.75,9-7.88,7.66-55.05s-7.1-10.41-14.52-13.56Z"/><path class="o" d="M261.31,245.04c1.6,7.59,8.85,104.42,8.1,139.01-2.07,4.06-17.4,9.69-19.77,6.59-3.3-46.63-13.85-129.54-13.85-137.49,0-10.53-8.62-46.36,1.91-46.36s18.22,12.6,23.61,38.24Z"/><path class="o" d="M154.88,190.94l20.01,102.46v42.74l-47.04,36.66s1.98-50.47,8.73-73.41c-.45-10.8-11.64-46-11.64-46l-1.9-46.37,20.68-4.43,11.14-11.65Z"/><path class="i" d="M158.25,189.03c-2.81,12.82,16.64,104.38,16.64,104.38v42.74l-21.03-63.88,6.53-6.75-9-7.87-7.66-55.05s7.09-10.42,14.51-13.57Z"/><path class="o" d="M99.43,245.27c-1.6,7.59-8.85,104.42-8.1,139.01,2.08,4.06,17.41,9.69,19.77,6.59,3.3-46.63,13.85-129.54,13.85-137.48,0-10.53,8.63-46.37-1.9-46.37s-18.22,12.6-23.62,38.24Z"/><path class="q" d="M242.21,134.62c0,2.24-1.82,4.06-4.06,4.06s-4.05-1.82-4.05-4.06,1.81-4.05,4.05-4.05,4.06,1.81,4.06,4.05Z"/><path class="q" d="M129.58,134.62c0,2.24-1.82,4.06-4.05,4.06s-4.06-1.82-4.06-4.06,1.82-4.05,4.06-4.05,4.05,1.81,4.05,4.05Z"/><g><path class="r" d="M145.86,106.54s-.29-.18-.7-.46c-.23-.18-.52-.52-.77-.83-.18-.32-.34-.67-.45-1.01-.41-1.41-.18-2.75-.18-2.75,0,0,.21,1.37,.91,2.41,.18,.24,.38,.47,.56,.64,.22,.11,.31,.22,.5,.3,.48,.14,.81,.24,.81,.24,.43,.12,.67,.57,.55,1-.12,.43-.57,.68-1,.56-.08-.02-.16-.06-.22-.11Z"/><path class="e" d="M168.69,109.1c0,2.95-4.86,7.21-10.92,7.21-7.4,0-11.86-4.3-11.86-8.86s6.41-7.61,11.81-6.61c5.96,1.1,10.97,5.01,10.97,8.26Z"/><path class="r" d="M165.31,109.06c0,2.75-1.39,5.18-3.51,6.62-2.68,1.33-8.08,.58-9.27-.2-1.96-1.46-3.23-3.79-3.23-6.42,0-4.42,3.58-8.01,8.01-8.01s8,3.58,8,8.01Z"/><path class="r" d="M146.03,108.76s-.14-.47-.22-1.32c-.05-.87,.11-2.21,1.01-3.51,1.79-2.66,5.98-4.26,10.07-4,2.08,.25,3.95,.9,5.67,1.71,1.71,.79,3.11,1.91,4.16,2.99,1.07,1.08,1.64,2.26,1.87,3.1,.21,.87,.07,1.37,.1,1.36,0,0-.05-.5-.4-1.24-.34-.76-1.14-1.64-2.2-2.54-1.06-.92-2.54-1.66-4.12-2.39-.79-.35-1.66-.65-2.54-.89-.84-.25-1.84-.41-2.68-.53-3.59-.31-7.45,.93-9.25,2.97-1.87,2.07-1.36,4.37-1.47,4.29Z"/><path class="l" d="M162.77,110.46c0,2.81-2.28,5.1-5.11,5.1s-5.11-2.29-5.11-5.1,2.29-5.11,5.11-5.11,5.11,2.29,5.11,5.11Z"/><path class="e" d="M158.82,108.09c0,1.26,1.01,2.27,2.27,2.27s2.28-1.01,2.28-2.27-1.02-2.28-2.28-2.28-2.27,1.02-2.27,2.28Z"/><path class="e" d="M160.33,104.6c0,.41-.34,.75-.75,.75s-.75-.34-.75-.75,.34-.75,.75-.75,.75,.34,.75,.75Z"/></g><g><path class="r" d="M220.08,105.09s.32-.1,.8-.24c.19-.08,.28-.2,.5-.3,.18-.17,.38-.4,.56-.64,.7-1.04,.91-2.41,.91-2.41,0,0,.22,1.34-.18,2.75-.12,.34-.27,.69-.46,1.01-.25,.3-.53,.65-.76,.83-.43,.28-.7,.46-.7,.46-.38,.25-.88,.15-1.12-.23-.25-.37-.15-.88,.23-1.12,.07-.04,.15-.08,.22-.1Z"/><path class="e" d="M197.92,109.1c0,2.95,4.87,7.21,10.92,7.21,7.4,0,11.86-4.3,11.86-8.86s-6.41-7.61-11.81-6.61c-5.96,1.1-10.98,5.01-10.98,8.26Z"/><path class="r" d="M201.3,109.06c0,2.75,1.39,5.18,3.51,6.62,2.68,1.33,8.08,.58,9.28-.2,1.96-1.46,3.22-3.79,3.22-6.42,0-4.42-3.58-8.01-8.01-8.01s-8,3.58-8,8.01Z"/><path class="r" d="M220.58,108.76c-.11,.08,.4-2.21-1.47-4.29-1.79-2.03-5.66-3.28-9.25-2.97-.84,.12-1.84,.29-2.69,.53-.88,.24-1.73,.54-2.53,.89-1.59,.72-3.06,1.47-4.12,2.39-1.06,.9-1.87,1.78-2.21,2.54-.35,.74-.4,1.24-.4,1.24,.03,0-.11-.49,.1-1.36,.23-.84,.81-2.03,1.88-3.1,1.05-1.08,2.45-2.2,4.16-2.99,1.71-.82,3.59-1.47,5.67-1.72,4.09-.26,8.28,1.33,10.07,3.99,.9,1.3,1.06,2.64,1.01,3.51-.09,.85-.23,1.32-.23,1.32Z"/><path class="l" d="M203.84,110.46c0,2.81,2.28,5.1,5.11,5.1s5.1-2.29,5.1-5.1-2.28-5.11-5.1-5.11-5.11,2.29-5.11,5.11Z"/><path class="e" d="M207.79,108.09c0,1.26-1.02,2.27-2.28,2.27s-2.27-1.01-2.27-2.27,1.01-2.28,2.27-2.28,2.28,1.02,2.28,2.28Z"/><path class="e" d="M206.3,104.6c0,.41,.34,.75,.75,.75s.74-.34,.74-.75-.34-.75-.74-.75-.75,.34-.75,.75Z"/></g><path class="p" d="M185.99,132.44s-1.55,2.63-4.93,2.63-5.61-1-6.11-1.56c-.5-.56,3.32-7.31,3.32-7.31,0,0-1.78,4.72-.97,5.88,.82,1.16,2.99,1.15,4.04,1.15,3.38,0,4.66-.79,4.66-.79Z"/><path class="s" d="M197.82,149.3c0,7.74-6.97,14-15.56,14s-15.56-6.27-15.56-14h31.12Z"/><path class="h" d="M170.09,158.02c2.85,3.22,7.23,5.29,12.17,5.29s9.31-2.07,12.17-5.29c0,0-5.35-1.72-12.17-1.72s-12.17,1.72-12.17,1.72Z"/><path class="e" d="M195.61,152.87c.3-1.14,.46-2.33,.46-3.57h-27.63c0,1.17,.15,2.31,.43,3.4,.16,.63,1.28,1.83,2.45,1.83h22.1c1.27,0,2.05-1.09,2.2-1.66Z"/><path class="n" d="M222.89,92.28s-8.51-3.97-17.04-3.17c-3.33,.32-6.8,.66-8.11,.93-1.31,.27-.79-3.52,.07-3.68,.88-.15,4.67-2.25,8.35-2,9.43,.64,16.72,7.92,16.72,7.92Z"/><path class="n" d="M191.45,70.8s2.22-5.06-2-9.53c-1.51-1.59-6.66-3.12-7.62-3.35-.96-.24,3.49-2.19,4.12-2.01,.62,.18,4.27,1.05,5.95,3.13,3.97,4.94-.45,11.76-.45,11.76Z"/><path class="n" d="M173.06,70.8s-2.22-5.06,2-9.53c1.5-1.59,6.66-3.12,7.61-3.35,.96-.24-3.49-2.19-4.11-2.01-.62,.18-4.28,1.05-5.95,3.13-3.98,4.94,.45,11.76,.45,11.76Z"/><path class="n" d="M144.7,92.28s8.5-3.97,17.04-3.17c3.34,.32,6.8,.66,8.11,.93,1.31,.27,.8-3.52-.07-3.68-.88-.15-4.67-2.25-8.36-2-9.43,.64-16.72,7.92-16.72,7.92Z"/><path class="f" d="M218.52,124.69c0,3.04-4.8,5.51-10.73,5.51s-10.73-2.47-10.73-5.51,4.8-5.51,10.73-5.51,10.73,2.47,10.73,5.51Z"/><path class="f" d="M166.43,124.69c0,3.04-4.8,5.51-10.73,5.51s-10.73-2.47-10.73-5.51,4.8-5.51,10.73-5.51,10.73,2.47,10.73,5.51Z"/><path class="o" d="M182.42,38.13c22.57,0,42.01,12.35,51.22,30.21-4.03-25.38-25.4-44.77-51.22-44.77s-47.18,19.39-51.21,44.77c9.21-17.86,28.65-30.21,51.21-30.21Z"/></g></g></g></g></g></svg>