<?xml version="1.0" encoding="UTF-8"?><svg xmlns="http://www.w3.org/2000/svg" xmlns:xlink="http://www.w3.org/1999/xlink" viewBox="0 0 344.16 344.16"><defs><style>.e{fill:#fff;}.f{fill:#0d3858;}.g{fill:#1c2c42;}.h{fill:#e09d72;}.i{fill:#e73a3a;}.j{fill:#331b19;}.k{fill:#e7e7e7;}.l{clip-path:url(#d);}.m{fill:#432918;}.n{fill:#655351;}.o{fill:#e4b58b;}.p{fill:#dba87b;}</style><clipPath id="d"><path class="i" d="M344.16,172.08c0,95.04-77.04,172.08-172.09,172.08S0,267.12,0,172.08,77.04,0,172.08,0s172.09,77.04,172.09,172.08Z"/></clipPath></defs><g id="a"/><g id="b"><g id="c"><g><path class="i" d="M344.16,172.08c0,95.04-77.04,172.08-172.09,172.08S0,267.12,0,172.08,77.04,0,172.08,0s172.09,77.04,172.09,172.08Z"/><g class="l"><g><g><polygon class="p" points="215.13 265.46 172.83 285.49 130.53 265.46 137.98 226.81 205.57 226.81 215.13 265.46"/><path class="o" d="M235.28,143.58c-1.19,14.92-3.4,31.39-6.88,45.74-2.32,2.85-1.96,22.76-8.06,32.54-5,8.03-17.52,13.07-29.11,25.07-6.99,7.22-33.28,5.26-37.95,0-6.84-7.69-25.45-16.58-30.57-24.24-6.05-9.08-4.85-22.06-7.22-31.63-3.31-13.34-5.78-29.98-7.21-47.48-3.99-48.94,28.42-70.62,63.5-70.62s67.46,21.68,63.5,70.62Z"/><path class="o" d="M247.68,164.18c-.89,5.45-5.62,15.01-7.65,18.45-1.37,2.32-8.48,6.96-11.63,6.67-3.17-.29-1.96-8.81-3.13-11.71-1.16-2.9-1.64-9.02-1.49-15.65,.25-10.78,6.79-14.96,13.4-14.34,6.6,.62,12.24,5.94,10.5,16.58Z"/><path class="o" d="M96.14,164.18c.89,5.45,5.62,15.01,7.65,18.45,1.37,2.32,8.48,6.96,11.64,6.67,3.16-.29,1.96-8.81,3.13-11.71,1.16-2.9,1.64-9.02,1.49-15.65-.25-10.78-6.79-14.96-13.4-14.34-6.59,.62-12.24,5.94-10.5,16.58Z"/><path class="j" d="M115.05,143.06s3.07-7.84,6.18-8.83c7.37-2.32,19.2-1.05,21.64-1.1,4.23-.07,10.72-.63,10.72-.63l-1.71,5.81s-5.83-.64-10.7-.51c-2.56,.06-10.4-2.89-18.71-.68-2.98,.79-7.41,5.94-7.41,5.94Z"/><path class="j" d="M224.79,143.06s-3.07-7.84-6.19-8.83c-7.37-2.32-19.19-1.05-21.63-1.1-4.23-.07-10.72-.63-10.72-.63l1.7,5.81s5.83-.64,10.7-.51c2.57,.06,10.41-2.89,18.72-.68,2.98,.79,7.41,5.94,7.41,5.94Z"/><path class="j" d="M109.07,152.18c1.82,7.47,5.98,24.6,5.98,24.6,0,0,4.21-2.87,0-14.48-4.21-11.62-.32-20.01-1.42-32.59-1.16-13.28,1.33-20.64,4.67-23.07,16.02-11.66,33.56-3.74,45.56-3.5,12,.24,20.98-6.17,35.54-6.06,14.56,.12,23.55,9.32,25.88,14.92,1.01,2.41,1.53,12.01,1.8,22.12,.37,13.35,2.78,12.15,2.39,20.06-.39,7.9-1.17,23.54-1.17,23.54l7.32-30.16,6.83,1.76s5.55-57.25-4.94-70.53c-10.49-13.29-40.9-29.71-72.71-29.71-26.8,0-59.9,24.46-65.84,39.85-4.93,12.78-3.35,28.48-2.12,41.8,.26,2.83,.22,5.09,3.06,6.42,1.36,.63,3.62,1.23,4.16-.55,.32-1.05-1.37-3.56-1.75-4.56-.72-1.86-1.12-3.59-1.27-5.58-.29-3.94-.52-8.19,.35-12.09,.84-3.78,3.32-6.53,5.72-9.42,3.98-4.81,8.69-9.99,13.48-14,4.25-3.56,11.54-5.46,17.04-5.53,8.79-.11,17.06,2.22,25.89,.76,5.04-.83,9.79-1.51,14.92-1.47,4.5,.04,9.02,.64,13.52,.48,7.68-.27,14.37-.46,21.72,2.49,6.82,2.74,13.05,7.38,15.79,14.35,2.35,5.99,2.59,11.39,2.09,17.63-.46,5.64-.28,11.96,.65,17.5,.62,3.67,2.62,7.48,2.67,11.16,1.18-2.11,5.5,.77,7.38,1.39-1.55-4.89,.2-9.11,2.18-13.43,1.94-4.24,1.58-8.95,1.58-13.8,0-3.95-.93-7.3-.93-11.19s.24-7.39,.47-11.18c.25-4.32,.38-7.29-.94-11.43-1.48-4.67-3.26-7.83-6.33-11.66-2.5-3.11-4.93-6.27-7.93-8.79-3.2-2.68-7.27-4.41-11.19-5.94-4.14-1.62-8.2-3.48-12.06-5.59-1.95-1.07-4.03-1.84-5.88-2.92-2.34-1.38-3.25-1.37-6.01-1.22-1.91,.1-4.24-.08-5.87-.88-1.88-.92-3.35-2.32-5.33-3.09-3.41-1.31-7.05-3.01-10.73-3.78-4.25-.89-6.71,.94-10.47,1.86-2.38,.6-4.09-.24-6.3-.92-2.67-.83-4.51-.18-7.29,.04-4.31,.37-6.87,.97-10.19,4.15-1.21,1.16-2.04,2.7-3.43,3.6-1.44,.92-3.2,1.12-4.72,1.86-6.27,3.05-15.01,6.42-19.58,11.78-4.47,5.23-6.2,12.35-11.23,17-2.99,2.77-3.98,5.13-4.38,9.15-.18,1.8,.25,3.84-.29,5.54-.54,1.69-1.79,2.94-2.23,4.71-.92,3.76,.47,7.42,1.12,10.95,.68,3.69,.23,7.87,.23,11.66,0,1.86-.15,3.91,.19,5.64,.3,1.62,1.05,2.88,1.21,4.61,.19,1.93-.07,3.4,.7,5.13,.52,1.14,4.28,8.08,2.81,9.24,.03-.02,7.83-6.11,9.65,1.35Z"/><polygon class="k" points="222.7 362.53 222.7 266.29 170.46 282.47 120.06 266.29 120.06 362.53 222.7 362.53"/><path class="n" d="M171.94,282.47s-14.28,4.95-14.28,9.42,7.81,16.01,7.81,16.01h14.27s6.46-11.52,6.46-16.01-14.27-9.42-14.27-9.42Z"/><polygon class="n" points="184.78 362.53 179.74 307.9 165.48 307.9 160.1 362.53 184.78 362.53"/><polygon class="e" points="235.28 262.19 189.96 292.02 172.23 282.51 211.04 243.16 235.28 262.19"/><polygon class="e" points="109.09 261.95 153.22 292.02 172.23 282.51 133.26 243.01 109.09 261.95"/><path class="g" d="M297.08,362.53c-4.06-40.68-9.37-79.8-15.25-86.78-12.99-15.37-65.15-28.18-65.15-28.18l-16.49,114.96h96.89Z"/><polygon class="f" points="221.79 362.53 249.54 307.22 227.89 295.84 243.74 286.29 216.67 247.57 200.55 362.53 221.79 362.53"/><path class="g" d="M143.98,362.53l-16.5-114.96s-52.17,12.81-65.14,28.18c-5.89,6.98-11.21,46.1-15.26,86.78h96.89Z"/><polygon class="f" points="122.37 362.53 143.61 362.53 127.49 247.57 100.42 286.29 116.28 295.84 94.62 307.22 122.37 362.53"/><path class="p" d="M163.85,223.25s9.81-1.28,11.94,0c2.13,1.28,5.55,2.55,5.55,2.55"/><path class="j" d="M116.66,179.34s0,11.51,5.13,14.37c5.12,2.87,9.32,5.9,10.01,8.23,.7,2.33,7.93,23.54,11.19,26.8,3.26,3.26,12.92,11.68,18.17,11.66,6.44-.03,5.83-9.32,5.83-9.32l5.83,.23v20.32s-14.13,.45-19.55-4.71c-6.32-6-10.57-8.34-16.73-12.67-6.15-4.32-12.69-8.1-15.69-14.59-4.2-9.09-3.5-24.12-5.69-29.95,.88-1.25-1.13-17.1-1.13-17.1l2.63,6.73Z"/><path class="j" d="M226.74,179.34s0,11.51-5.13,14.37c-5.12,2.87-9.32,5.9-10.02,8.23-.7,2.33-7.93,23.54-11.19,26.8-3.26,3.26-12.92,11.68-18.18,11.66-6.43-.03-5.83-9.32-5.83-9.32l-5.83,.23v20.32s14.13,.45,19.55-4.71c6.32-6,10.57-8.34,16.72-12.67,6.16-4.32,12.71-8.1,15.7-14.59,4.2-9.09,3.49-24.12,5.69-29.95-.88-1.25,1.14-17.1,1.14-17.1l-2.63,6.73Z"/><g><path class="e" d="M220.73,149.85s-.63,3.6-3.86,6.66c-2.44,2.3-17.31,3.85-18.88,3.15-2.33-1.06-5.38-6.07-5.38-6.07,0,0,5.24-7.2,11.69-7.2s16.44,3.46,16.44,3.46Z"/><path class="m" d="M204.29,147.8c4.66,0,11.15,1.81,14.41,2.81,.74,.24,.36,2.78-.88,4.91,2.65-2.44,2.91-5.66,2.91-5.66,0,0-9.99-3.46-16.44-3.46s-11.69,7.2-11.69,7.2c0,0,.2,.7,.75,1.15,1.15-1.44,5.34-6.94,10.94-6.94Z"/><path class="m" d="M211.41,152.93c0,3.63-2.92,6.55-6.55,6.55s-6.55-2.92-6.55-6.55,2.93-6.54,6.55-6.54,6.55,2.93,6.55,6.54Z"/><path class="e" d="M210.48,152.94c0,2.78-7.79-5.02-5.02-5.02s5.02,2.25,5.02,5.02Z"/></g><g><path class="e" d="M124.93,149.85s.63,3.6,3.86,6.66c2.44,2.3,17.31,3.85,18.88,3.15,2.35-1.06,5.39-6.07,5.39-6.07,0,0-5.24-7.2-11.68-7.2s-16.45,3.46-16.45,3.46Z"/><path class="m" d="M141.38,147.8c-4.66,0-11.17,1.81-14.41,2.81-.75,.24-.37,2.78,.88,4.91-2.65-2.44-2.91-5.66-2.91-5.66,0,0,9.99-3.46,16.45-3.46s11.68,7.2,11.68,7.2c0,0-.2,.7-.75,1.15-1.15-1.44-5.34-6.94-10.93-6.94Z"/><path class="m" d="M134.24,152.93c0,3.63,2.94,6.55,6.55,6.55s6.55-2.92,6.55-6.55-2.93-6.54-6.55-6.54-6.55,2.93-6.55,6.54Z"/><path class="e" d="M135.18,152.94c0,2.78,7.79-5.02,5.02-5.02s-5.02,2.25-5.02,5.02Z"/></g><polygon class="h" points="170.47 179.38 164.6 174.73 170.47 161.03 170.47 179.38"/><polygon class="h" points="154.14 206.19 151.94 204.05 191.46 201.92 184.37 206.19 154.14 206.19"/></g><path class="j" d="M201.39,194.45c-4.41-3.15-18.17-5.58-21.85-7.49-3.2-1.66-3.85-2.71-3.85-2.71,0,0,.12,2.53-3.4,2.71-3.51,.17-3.39-2.71-3.39-2.71,0,0-1.33,1.05-4.53,2.71-3.67,1.91-17.44,4.34-21.85,7.49-4.19,2.99-3.58,8.93-3.58,8.93l1.4,3.19s0-7.14,4.96-8.97c2.5-.92,16.36-4.83,21.27-4.27,3.83,.45,5.4,3.5,5.4,3.5,0,0,1.95-3.05,5.78-3.5,4.89-.56,18.38,3.35,20.87,4.27,4.97,1.83,5.46,8.24,5.46,8.24l1.46-2.11s.06-6.29-4.14-9.28Z"/></g></g></g></g></g></svg>