<?xml version="1.0" encoding="UTF-8"?><svg xmlns="http://www.w3.org/2000/svg" xmlns:xlink="http://www.w3.org/1999/xlink" viewBox="0 0 344.16 344.16"><defs><style>.e{fill:#fff;}.f{fill:#e09d72;}.g{isolation:isolate;}.h{fill:#b55a3a;}.i{fill:#d15d36;}.j{fill:#259dab;}.k{fill:#dadada;}.l,.m{mix-blend-mode:multiply;}.l,.n{fill:#ededed;}.o{fill:#f9bb8d;}.p{clip-path:url(#d);}.q{fill:#432918;}.m{fill:#e7dcd6;}</style><clipPath id="d"><path class="j" d="M344.16,172.08c0,95.04-77.04,172.08-172.09,172.08S0,267.12,0,172.08,77.04,0,172.08,0s172.09,77.04,172.09,172.08Z"/></clipPath></defs><g class="g"><g id="a"/><g id="b"><g id="c"><g><path class="j" d="M344.16,172.08c0,95.04-77.04,172.08-172.09,172.08S0,267.12,0,172.08,77.04,0,172.08,0s172.09,77.04,172.09,172.08Z"/><g class="p"><g><path class="q" d="M236.88,195.27c-19.39,23.21-44.04,30.97-53.72,30.97s-36.61-6.8-56.54-30.97c-11.3-13.68-19.23-52.93-22.2-71.75-1.71-10.8-3.09-33.76,4.48-45.27,11.9-18.08,34.17-30.78,71.38-30.78,14.08,0,33.87-.47,36.24,8.89,19.02-.66,28.65,9.2,33.35,17.66,6.85,12.33,9.4,29.6,7.64,46.05-2.32,21.7-9.01,61.28-20.64,75.19Z"/><path class="o" d="M120.56,151.42s2.31-17.97-13.27-13.57c-12,3.38,.33,36.69,8.22,39.54,6.76,2.44,8.23-2.74,8.23-2.74l-3.18-23.23Z"/><path class="o" d="M243.54,151.42s-2.31-17.97,13.27-13.57c12,3.38-.33,36.69-8.23,39.54-6.76,2.44-8.22-2.74-8.22-2.74l3.18-23.23Z"/><path class="n" d="M277.77,354.24c3.44-49.88,3.67-91.53,3.67-91.53,0,0-32.62-14.3-51.36-18.8-17.64-4.23-38.31-3.76-40.47-3.7-2.16-.07-22.82-.53-40.46,3.7-18.74,4.5-50.82,18.8-50.82,18.8,0,0-1.69,38.37,3.21,91.53h176.23Z"/><path class="o" d="M183.21,273.98s36.03-30.47,33.75-32.41c-10.53-8.96-7.58-32.16-7.58-32.16h-51.88s4.81,28.12-8.34,34.49c-1.11,.54,34.05,30.07,34.05,30.07Z"/><path class="o" d="M245.13,159.54c-2.65,19.71-4.61,30.22-14.85,45.04-17.06,24.7-38.74,32.97-47.25,32.97s-32.2-7.24-49.74-32.97c-9.93-14.58-11.59-27.16-14.29-45.04-3.24-21.49-3.49-13.91-3.49-34.19,0-41.3,15.94-71.13,62.25-71.13s69.97,25.95,70.68,68.35c.38,23.23-.41,15.36-3.31,36.97Z"/><path class="m" d="M126.38,128.58c6.21-6.47,21.55-6.19,30.25-6.46,8.2-.25,27.92-.08,33.97-7.13,5.36-6.25,15.19-15.35,24.04-15.35,20.52,0,23.95,30.57,27.19,47.06,.87,4.43,1.99,8.95,3.2,13.52,.03-.23,.06-.45,.1-.69,2.89-21.61,3.69-13.74,3.31-36.97-.7-42.4-23.02-71.17-69.37-71.17s-63.56,32.65-63.56,73.95c0,19.34,.24,13.4,3.08,31.44,3.95-8.37,.45-20.57,7.79-28.21Z"/><path class="q" d="M119.82,164.96c2.31,15.09,2.52,25.95,11.41,39,17.54,25.72,43.1,33.58,51.79,33.58s32.41-8.17,49.47-32.88c9.25-13.39,9.53-23.38,11.87-39.71l-18.92,31.01s-13.26,17.05-30.27,23.35c-3.65,1.36-9.47-11.6-13.16-11.6-4.64,0-9.32,13.26-14.01,11.23-16.36-7.08-31.13-22.99-31.13-22.99l-17.05-31.01Z"/><path class="q" d="M119.49,122.2c15.35-11.59,69.85,3.76,89.59-30.39,23.54,.3,28.51,23.49,32.27,31.95,3.76,8.46,3.67,36.51,3.78,35.78,2.89-21.61,6.32-13.17,5.93-36.4-.71-42.4-25.65-71.74-71.99-71.74s-65.84,32.63-65.84,73.93c0,20.28,2.54,12.72,5.78,34.21,.11,.74-5.18-33.06,.49-37.34Z"/><path class="n" d="M283.17,354.24h42.29c-9.84-40.12-25.34-85.94-44.02-91.53-31.93-9.56,1.13,88.8,1.13,88.8l.6,2.73Z"/><path class="l" d="M283.17,354.24h14.82c-5.73-11.34-12.94-20.55-23.32-29.88,3.89,15.18,7.9,27.14,7.9,27.14l.6,2.73Z"/><path class="n" d="M96.61,354.24l.59-2.73s33.06-98.37,1.14-88.8c-18.69,5.6-34.19,51.41-44.02,91.53h42.3Z"/><path class="l" d="M96.61,354.24l.59-2.73s4.02-11.97,7.9-27.14c-10.38,9.33-17.59,18.54-23.32,29.88h14.83Z"/><path class="k" d="M224.43,275.7c-11.31-17.35-32.43-9.39-32.43-9.39,0,0,21.76-20.44,24.95-24.73,3.19-4.3,25.02-4.04,30.43,5.7,2.75,4.95-17.37,20.86-22.96,28.42Z"/><path class="k" d="M143.8,276.94c11.31-17.35,32.43-9.39,32.43-9.39,0,0-21.76-20.43-24.95-24.73-3.19-4.3-25.02-4.03-30.43,5.7-2.75,4.95,17.37,20.86,22.95,28.42Z"/><path class="h" d="M193.73,291.52h-17.07s-9.77-18.73-6.58-23.02c3.19-4.3,24.43-4.23,28.2,0,3.76,4.23-4.55,23.02-4.55,23.02Z"/><path class="m" d="M182.46,265.33c-5.64,.15-10.92,1.19-12.38,3.17-3.2,4.3,6.58,23.02,6.58,23.02h17.07s.29-.67,.74-1.78c-10.96-2.89-14.97-14.87-12.01-24.42Z"/><polygon class="i" points="198.92 354.24 193.73 291.52 176.66 291.52 170.95 354.24 198.92 354.24"/><path class="m" d="M183.18,354.24c.24-1.57,.47-3.13,.7-4.7,2.81-19.29,1.32-38.6,5.51-57.85,.01-.06,.03-.11,.05-.17h-12.78l-5.71,62.72h12.23Z"/><g><path class="e" d="M227.93,149.86s-.6,3.45-3.71,6.39c-2.34,2.21-16.61,3.7-18.12,3.02-2.25-1.01-5.17-5.83-5.17-5.83,0,0,5.03-6.91,11.22-6.91s15.78,3.33,15.78,3.33Z"/><path class="q" d="M212.15,147.89c4.48,0,10.72,1.73,13.83,2.69,.72,.22,.35,2.67-.84,4.7,2.55-2.34,2.79-5.42,2.79-5.42,0,0-9.59-3.33-15.78-3.33s-11.22,6.91-11.22,6.91c0,0,.2,.68,.72,1.11,1.1-1.39,5.13-6.66,10.5-6.66Z"/><path class="q" d="M218.99,152.81c0,3.47-2.81,6.29-6.29,6.29s-6.29-2.81-6.29-6.29,2.82-6.28,6.29-6.28,6.29,2.81,6.29,6.28Z"/><path class="e" d="M218.09,152.82c0,2.66-7.47-4.82-4.82-4.82s4.82,2.16,4.82,4.82Z"/></g><path class="q" d="M130.33,139.39s3.37-2.27,10.9-4.73c8.2-2.68,19.42,1.42,19.86,1.42,.76,0,1.89-.22,1.89-2.32s-.62-3.82-1.39-3.82c-.42,0-11.53-2.76-19.86-.16-6.38,1.98-11.39,9.61-11.39,9.61Z"/><path class="q" d="M233.58,139.39s-3.36-2.27-10.9-4.73c-8.2-2.68-19.42,1.42-19.85,1.42-.76,0-1.89-.22-1.89-2.32s.62-3.82,1.39-3.82c.43,0,11.54-2.76,19.87-.16,6.38,1.98,11.39,9.61,11.39,9.61Z"/><g><path class="e" d="M135.98,149.86s.6,3.45,3.71,6.39c2.34,2.21,16.61,3.7,18.12,3.02,2.25-1.01,5.18-5.83,5.18-5.83,0,0-5.02-6.91-11.22-6.91s-15.78,3.33-15.78,3.33Z"/><path class="q" d="M151.76,147.89c-4.48,0-10.72,1.73-13.84,2.69-.71,.22-.34,2.67,.85,4.7-2.55-2.34-2.79-5.42-2.79-5.42,0,0,9.59-3.33,15.78-3.33s11.22,6.91,11.22,6.91c0,0-.2,.68-.72,1.11-1.1-1.39-5.13-6.66-10.5-6.66Z"/><path class="q" d="M144.92,152.81c0,3.47,2.81,6.29,6.29,6.29s6.28-2.81,6.28-6.29-2.81-6.28-6.28-6.28-6.29,2.81-6.29,6.28Z"/><path class="e" d="M145.82,152.82c0,2.66,7.47-4.82,4.81-4.82s-4.81,2.16-4.81,4.82Z"/></g><polygon class="f" points="179.7 178.2 174.06 173.74 179.7 160.58 179.7 178.2"/><polygon class="f" points="164.41 196.87 162.3 194.82 200.25 192.77 193.43 196.87 164.41 196.87"/></g></g></g></g></g></g></svg>