<?xml version="1.0" encoding="UTF-8"?><svg xmlns="http://www.w3.org/2000/svg" xmlns:xlink="http://www.w3.org/1999/xlink" viewBox="0 0 344.16 344.16"><defs><style>.e{fill:#fff;}.f{isolation:isolate;}.g{fill:#be824f;}.h{fill:#e73a3a;}.i{fill:#e5c9a6;mix-blend-mode:multiply;}.j{fill:#259dab;}.k{fill:#0b73b1;}.l{fill:#432827;}.m{fill:#042439;}.n{clip-path:url(#d);}.o{fill:#093b59;}.p{fill:#432918;}.q{fill:#730d13;}.r{fill:#583636;}</style><clipPath id="d"><path class="j" d="M344.16,172.08c0,95.04-77.04,172.08-172.09,172.08S0,267.12,0,172.08,77.04,0,172.08,0s172.09,77.04,172.09,172.08Z"/></clipPath></defs><g class="f"><g id="a"/><g id="b"><g id="c"><g><path class="j" d="M344.16,172.08c0,95.04-77.04,172.08-172.09,172.08S0,267.12,0,172.08,77.04,0,172.08,0s172.09,77.04,172.09,172.08Z"/><g class="n"><g><path class="p" d="M107.14,137.62c0,11.89,28.69,48.65,61.77,48.65s61.55-39.22,61.55-51.11-26.81-11.52-59.89-11.52-63.43,2.09-63.43,13.98Z"/><path class="m" d="M141.24,214.96h52.39v-19.35s-5.54-5.09-23.2-5.09-24.7,3.4-24.7,3.4l-4.49,21.04Z"/><polygon class="g" points="123.93 255.69 213.89 255.69 222.03 211.79 184.02 203.64 184.02 178.64 153.81 178.64 153.81 203.64 115.79 211.79 123.93 255.69"/><path class="i" d="M153.81,183.73s6.78,10.19,15.61,10.19,14.6-10.19,14.6-10.19v-5.09h-30.21v5.09Z"/><g><path class="g" d="M220.26,142.09c-10.77,30.7-26.63,45.71-50.23,45.71s-38.91-15.34-50.65-45.71c-7.97-20.62-3.86-45.71-3.86-45.71,0-28.97,8.58-60.19,54.51-60.19s54.52,36.2,54.52,64.26c0,0,1.36,25.52-4.29,41.64Z"/><path class="g" d="M101.95,129.32c2.9,9.57,12.89,14.62,15.11,9.61,2.16-4.87,6.59-7.55,5.23-15.68-1.35-8.12-11.82-16.89-16.35-14.43-7.08,3.84-6.37,12.64-3.99,20.5Z"/><path class="g" d="M236,128.32c-2.9,9.57-12.89,14.61-15.11,9.61-2.15-4.87-6.59-7.55-5.23-15.68,1.35-8.12,11.82-16.88,16.35-14.43,7.09,3.84,6.37,12.64,3.99,20.5Z"/><path class="p" d="M219.38,123.64s3.96-17.78,14.33-14.65c.49-14.93,1.37-26.26-1.21-37.76-5.67-25.3-22.46-46.76-62.63-46.76-37.24,0-56.92,22.15-62.96,47.18-3.17,13.18-4.73,27.83-2.68,38.34,9.9-6.48,14.39,13.66,14.39,13.66l3.66-.39s-7.51-9.42,1.65-17.85c-5.09-7.28,3.08-29.03,6.4-33.08,5.69-8.04,13.62,3.62,42.26,3.62s31.86-15.84,40.87-3.62c2.45,3.32,2.26,29.66,.42,33.08,10.37,6.82,2.76,17.61,2.76,17.61l2.74,.62Z"/></g><path class="e" d="M123.93,399.16h89.95l-.9-188.34-23.82-8.08s-5.84,9.05-19.59,9.05-18.54-9.05-18.54-9.05l-25.63,7.07-1.47,189.36Z"/><path class="o" d="M193.63,195.61l-20.13,103.08v51.14l5.48,88.37,51.72,2.92s-4.02-125.07-4.16-137.97c-.14-12.9,3.61-33.27,3.61-33.27l.93-58.09-26.24-4.46-11.21-11.72Z"/><path class="k" d="M190.23,193.68c2.83,12.9-16.73,105-16.73,105v51.14l21.15-72.42-6.56-6.79,9.05-7.92,7.7-55.38s-7.13-10.47-14.6-13.64Z"/><path class="o" d="M254.84,250.25c1.61,7.64,13.04,132.75,12.29,167.56-2.09,4.09-21.65,11.91-24.03,8.8-3.32-46.91-13.93-160.19-13.93-168.18,0-10.59-8.68-46.64,1.91-46.64s18.33,12.67,23.76,38.47Z"/><path class="o" d="M142.88,195.61l20.13,103.08v51.14l-5.23,90.45-52.22,3.92s4.27-128.15,4.41-141.05c.14-12.9-3.61-33.27-3.61-33.27l-.93-58.09,26.24-4.46,11.21-11.72Z"/><path class="k" d="M146.27,193.68c-2.83,12.9,16.74,105,16.74,105v51.14l-21.15-72.42,6.56-6.79-9.05-7.92-7.71-55.38s7.14-10.47,14.61-13.64Z"/><path class="o" d="M81.66,250.25c-1.61,7.64-13.07,132.57-12.31,167.37,2.09,4.08,21.67,12.09,24.06,8.98,3.31-46.91,13.93-160.19,13.93-168.18,0-10.59,8.69-46.64-1.91-46.64s-18.34,12.67-23.76,38.47Z"/><g><path class="e" d="M154.82,113.92c0,2.81-4.61,6.84-10.37,6.84-7.03,0-11.25-4.08-11.25-8.41s6.08-7.22,11.21-6.27c5.66,1.05,10.42,4.75,10.42,7.83Z"/><path class="r" d="M151.61,113.88c0,2.61-1.32,4.92-3.33,6.28-2.55,1.27-7.67,.55-8.81-.18-1.86-1.39-3.06-3.6-3.06-6.1,0-4.19,3.4-7.6,7.6-7.6s7.6,3.4,7.6,7.6Z"/><path class="r" d="M133.31,113.6s-.14-.45-.21-1.26c-.05-.82,.1-2.1,.95-3.33,1.7-2.52,5.67-4.04,9.56-3.79,1.97,.23,3.75,.85,5.38,1.63,1.62,.75,2.95,1.82,3.95,2.84,1.01,1.01,1.56,2.14,1.78,2.94,.2,.82,.07,1.29,.09,1.29,0,0-.05-.48-.38-1.18-.32-.72-1.08-1.55-2.09-2.4-1.01-.87-2.41-1.58-3.91-2.27-1.5-.67-3.28-1.13-4.95-1.35-3.41-.3-7.08,.88-8.77,2.81-1.78,1.97-1.29,4.14-1.39,4.07Z"/><path class="l" d="M149.2,115.21c0,2.68-2.17,4.84-4.84,4.84s-4.84-2.16-4.84-4.84,2.17-4.85,4.84-4.85,4.84,2.17,4.84,4.85Z"/><path class="e" d="M145.45,112.97c0,1.19,.97,2.16,2.16,2.16s2.16-.97,2.16-2.16-.97-2.16-2.16-2.16-2.16,.97-2.16,2.16Z"/><path class="e" d="M146.87,109.65c0,.39-.31,.71-.71,.71s-.71-.32-.71-.71,.33-.71,.71-.71,.71,.32,.71,.71Z"/></g><g><path class="e" d="M182.55,113.92c0,2.81,4.62,6.84,10.37,6.84,7.02,0,11.25-4.08,11.25-8.41s-6.08-7.22-11.21-6.27c-5.66,1.05-10.42,4.75-10.42,7.83Z"/><path class="r" d="M185.76,113.88c0,2.61,1.32,4.92,3.33,6.28,2.54,1.27,7.67,.55,8.8-.18,1.86-1.39,3.06-3.6,3.06-6.1,0-4.19-3.41-7.6-7.6-7.6s-7.6,3.4-7.6,7.6Z"/><path class="r" d="M204.06,113.6c-.1,.07,.38-2.1-1.39-4.07-1.69-1.93-5.37-3.11-8.77-2.81-1.68,.22-3.46,.67-4.96,1.35-1.5,.69-2.9,1.4-3.91,2.27-1.01,.85-1.77,1.68-2.09,2.4-.34,.7-.38,1.18-.38,1.18,.03,0-.1-.47,.09-1.29,.22-.8,.77-1.92,1.78-2.94,1-1.02,2.33-2.09,3.95-2.84,1.63-.77,3.4-1.4,5.38-1.63,3.89-.25,7.86,1.27,9.56,3.8,.85,1.22,1,2.5,.95,3.32-.08,.81-.21,1.26-.21,1.26Z"/><path class="l" d="M188.16,115.21c0,2.68,2.17,4.84,4.84,4.84s4.84-2.16,4.84-4.84-2.17-4.85-4.84-4.85-4.84,2.17-4.84,4.85Z"/><path class="e" d="M191.92,112.97c0,1.19-.97,2.16-2.16,2.16s-2.16-.97-2.16-2.16,.97-2.16,2.16-2.16,2.16,.97,2.16,2.16Z"/><path class="e" d="M190.5,109.65c0,.39,.32,.71,.71,.71s.71-.32,.71-.71-.32-.71-.71-.71-.71,.32-.71,.71Z"/></g><path class="i" d="M173.63,136.98s-1.56,2.64-4.95,2.64-5.65-1.01-6.15-1.57c-.5-.56,3.34-7.36,3.34-7.36,0,0-1.8,4.75-.98,5.92,.81,1.18,3.01,1.15,4.07,1.15,3.4,0,4.68-.79,4.68-.79Z"/><path class="q" d="M185.53,153.95c0,7.79-7.01,14.09-15.65,14.09s-15.65-6.3-15.65-14.09h31.3Z"/><path class="h" d="M159.28,164.31c2.79,2.31,6.5,3.73,10.6,3.73s7.49-1.3,10.24-3.44c.73-.57-2.87-2.32-9.73-2.32s-11.69,1.53-11.1,2.03Z"/><path class="e" d="M183.31,157.53c.3-1.14,.47-2.35,.47-3.59h-27.79c0,1.18,.14,2.33,.42,3.42,.16,.63,1.3,1.84,2.46,1.84h22.24c1.27,0,2.06-1.1,2.21-1.68Z"/><path class="p" d="M131.2,99.94s4.55-4.42,15.7-4.91c3.17-.14,6.48-.15,7.74-.05,1.26,.11,1.27-3.84,.44-3.88-.84-.05-8.4-.39-11.85,.25-9.97,1.82-12.03,8.6-12.03,8.6Z"/><path class="p" d="M204.15,99.94s-4.55-4.42-15.7-4.91c-3.17-.14-6.48-.15-7.74-.05-1.26,.11-1.28-3.84-.44-3.88,.84-.05,8.4-.39,11.85,.25,9.97,1.82,12.03,8.6,12.03,8.6Z"/><path class="p" d="M230.36,66.89c6.65,.43,3.75-9.01,.5-11.2,4.67-2.5,1.23-10.28-3.59-10.59,.02-4.16-4.03-14.42-9.47-11.76-2.25-6.8-13-15.25-19.56-8.04-5.58-5.96-14.12-10.21-22.2-11.8-4.9-.97-5.16,1.15-9.04,3.6-4.01,2.55-4.33,.25-9.04-.93-2.36-.59-8.89-1.46-11.21-.32-3.92,1.92-1.67,5.15-6.46,5.45-3.17,.2-6.57-1.58-10.39-.47-3.62,1.05-5.05,2.67-6.45,6.21-.94,2.4-1.29,4.77-2.23,7.17-9.7,.31-9.35,7.14-9.5,14.94-5.61-.87-6.81,7.16-4.2,10.49-7.66,3.19,2.69,12.47,6.53,14.02"/></g></g></g></g></g></g></svg>