<?xml version="1.0" encoding="UTF-8"?><svg xmlns="http://www.w3.org/2000/svg" xmlns:xlink="http://www.w3.org/1999/xlink" viewBox="0 0 344.16 344.16"><defs><style>.e{fill:#272127;}.f{fill:#fff;}.g{fill:#e09d72;}.h{fill:#f08375;opacity:.2;}.i{fill:#e94e1b;}.j{fill:#331b19;}.k{fill:#e7e7e7;}.l{clip-path:url(#d);}.m{fill:#432918;}.n{fill:#e4b58b;}.o{fill:#d84b58;}.p{fill:#352e35;}.q{fill:#dba87b;}</style><clipPath id="d"><path class="i" d="M344.16,172.08c0,95.04-77.04,172.08-172.08,172.08S0,267.12,0,172.08,77.04,0,172.08,0s172.08,77.04,172.08,172.08Z"/></clipPath></defs><g id="a"/><g id="b"><g id="c"><g><path class="i" d="M344.16,172.08c0,95.04-77.04,172.08-172.08,172.08S0,267.12,0,172.08,77.04,0,172.08,0s172.08,77.04,172.08,172.08Z"/><g class="l"><g><path class="j" d="M236.91,181.08s-5.95,12.47-2.31,23c1.89,5.45-1.86,14.6,3.5,19.03,5.36,4.43,7.47,13.74,9.96,20.38,2.48,6.64-3.71,55.79-3.71,55.79,0,0-58.01,19.48-68.41,19.48s12.52-117.34,12.52-117.34l48.45-20.34Z"/><path class="j" d="M123.13,184.78s5.96,12.47,2.3,23c-1.89,5.45,1.87,14.6-3.5,19.03-5.36,4.43-7.47,13.74-9.95,20.38-2.48,6.64,3.72,55.79,3.72,55.79,0,0,58,19.48,68.41,19.48s-12.53-117.34-12.53-117.34l-48.45-20.35Z"/><path class="j" d="M111.98,161.04c.18,7.56,2.83,13.53,20.1,35.45,17.27,21.92,43,16.38,47.51,16.38s29.38,3.98,44.59-13.29c6.41-7.28,18.82-24.35,18.82-36.2"/><path class="q" d="M210.94,243.5l-.22,39.56-26.61,22.8-23.91-15.93-11.94-46.43s4.85-21.76,3.3-36.27c-1.55-14.51,54.77-15.49,52.29-.44-2.48,15.05,7.09,36.71,7.09,36.71Z"/><path class="n" d="M238.93,127.72c-1.15,14.18-3.24,29.81-6.54,43.45-1.02,4.19-1.78,10.27-4.82,15.8-5.77,10.5-31.29,37.87-40.8,39.55-3.37,.59-17.19,.47-21.28-1.82-12.63-7.05-30.85-27.8-35.58-37.73-2.16-4.55-3.82-10-5.17-15.72-2.93-12.4-5.17-27.59-6.47-43.52-3.79-46.49,27.01-67.09,60.33-67.09s64.08,20.59,60.33,67.09Z"/><path class="n" d="M250.7,147.29c-.85,5.18-5.34,14.27-7.27,17.53-1.3,2.19-8.06,6.62-11.05,6.33-2.99-.28-1.86-8.36-2.96-11.12-1.11-2.76-1.56-8.57-1.42-14.87,.24-10.25,6.46-14.21,12.72-13.63,6.27,.59,11.65,5.64,9.98,15.75Z"/><path class="n" d="M106.74,147.29c.85,5.18,5.34,14.27,7.27,17.53,1.3,2.19,8.05,6.62,11.05,6.33,2.99-.28,1.86-8.36,2.96-11.12,1.11-2.76,1.57-8.57,1.42-14.87-.24-10.25-6.46-14.21-12.72-13.63-6.28,.59-11.64,5.64-9.98,15.75Z"/><path class="j" d="M123.13,129.72s1.11-4.72,5.22-6.57c9.47-4.27,27.43,.33,29.7,1.4,6.05,2.89,6.78,6.05,6.78,6.05l-.64,5.13s-2.84-3.1-7.59-5.43c-2.36-1.16-17.47-6.85-26.86-4.26-4.47,1.23-6.62,3.69-6.62,3.69Z"/><path class="j" d="M232.27,129.72s-1.12-4.72-5.23-6.57c-9.47-4.27-27.43,.33-29.69,1.4-6.05,2.89-6.79,6.05-6.79,6.05l.65,5.13s2.83-3.1,7.58-5.43c2.36-1.16,17.47-6.85,26.86-4.26,4.46,1.23,6.62,3.69,6.62,3.69Z"/><path class="j" d="M117.95,131.49s-.14,13.67,2.12,13.49c2.27-.18,2.64-8.16-1.03-21.77-3.67-13.62,19.62-36.41,31.52-39.52,15.28-3.99,41.02-8.47,54.14,.99,18.27,1.5,25.68,11.54,28.95,30.89,3.26,19.35-3.26,32.7,0,32.62,3.26-.07,1.61-13.55,5.6-15.51,3.98-1.97,6.49,.49,6.49,.49,0,0,8.47-42.17-4.7-67.01-9.83-18.53-38.86-28.22-69.08-28.22-25.47,0-51.76,25.34-58.59,39.45-9.81,20.26-6.03,60.66-3.51,57.23,2.52-3.43,8.1-3.11,8.1-3.11Z"/><polygon class="k" points="184.11 363.85 184.11 300.87 163.05 279.07 164.83 241.44 129.47 244.3 129.47 363.85 184.11 363.85"/><polygon class="f" points="143.98 232.8 155.88 276.98 164.83 241.44 151.28 224.21 143.98 232.8"/><path class="e" d="M162.94,363.85v-7.2l-18-125.49s-9.54,8.51-24.54,14.92c-12.94,5.54-31.1,8.52-36.81,15.28-6.65,7.88-12.69,58.01-16.86,102.49h96.21Z"/><polygon class="p" points="152.29 363.85 162.94 363.85 162.94 359.5 144.94 231.16 111.98 260.04 141.38 272.88 104.62 264.91 152.29 363.85"/><polygon class="k" points="172.9 363.85 227.54 363.85 227.54 244.3 192.17 241.44 193.96 279.07 172.9 300.87 172.9 363.85"/><polygon class="f" points="213.02 232.8 201.13 276.98 192.17 241.44 205.72 224.21 213.02 232.8"/><path class="e" d="M290.26,363.85c-4.16-44.48-10.2-94.61-16.85-102.49-5.71-6.76-23.88-9.73-36.8-15.28-15-6.42-24.54-14.92-24.54-14.92l-18,125.49v7.2h96.2Z"/><polygon class="p" points="204.71 363.85 252.38 264.91 215.63 272.88 245.03 260.04 212.07 231.16 194.06 359.5 194.06 363.85 204.71 363.85"/><path class="f" d="M121.93,165.39c0,1.1-.89,1.99-1.99,1.99s-1.99-.89-1.99-1.99,.89-2,1.99-2,1.99,.89,1.99,2Z"/><path class="f" d="M236.26,165.39c0,1.1-.89,1.99-2,1.99s-1.99-.89-1.99-1.99,.89-2,1.99-2,2,.89,2,2Z"/><g><path class="f" d="M131.27,138.73s.64,3.63,3.91,6.73c2.47,2.33,17.51,3.9,19.1,3.19,2.37-1.06,5.46-6.14,5.46-6.14,0,0-5.29-7.29-11.83-7.29s-16.64,3.51-16.64,3.51Z"/><path class="m" d="M147.91,136.65c-4.73,0-10.69,2.17-13.98,3.18-.75,.23-.97,2.47,.29,4.61-2.69-2.47-4.62-7.36-4.62-7.36,0,0,3.22,1.14,4.27,.81,3.15-.98,9.14-2.68,14.04-2.68,6.53,0,11.83,7.29,11.83,7.29,0,0-.2,.72-.76,1.17-1.17-1.46-5.4-7.02-11.07-7.02Z"/><path class="m" d="M140.7,141.85c0,3.66,2.97,6.63,6.62,6.63s6.64-2.97,6.64-6.63-2.97-6.63-6.64-6.63-6.62,2.97-6.62,6.63Z"/><path class="f" d="M141.65,141.86c0,2.8,7.88-5.08,5.07-5.08s-5.07,2.27-5.07,5.08Z"/></g><polygon class="g" points="179.02 165.97 173.08 161.26 179.25 146.15 179.02 165.97"/><g><path class="o" d="M179.02,199.54c-12.08,0-16.73-12.79-16.73-12.79,0,0,1.91,.59,3.49,.06,3.2-1.06,7.43-3.67,8.49-3.98,1.6-.45,4.75,1.8,4.75,1.8,0,0,2.76-2.2,4.07-1.8,.88,.27,5,2.35,8.46,3.41,1.67,.52,4.21,.5,4.21,.5,0,0-5.49,12.79-16.75,12.79Z"/><path class="f" d="M178.87,193.1c-9.89,0-14.95-5.43-14.95-5.43,0,0,6.68,1.19,15.1,1.19s15.55-1.38,15.55-1.38c0,0-6.24,5.62-15.71,5.62Z"/></g><path class="h" d="M162.33,163.91c0,5.79-7.33,10.48-16.37,10.48s-16.37-4.69-16.37-10.48,7.33-10.49,16.37-10.49,16.37,4.69,16.37,10.49Z"/><g><path class="f" d="M224.13,138.73s-.64,3.63-3.91,6.73c-2.47,2.33-17.51,3.9-19.1,3.19-2.37-1.06-5.46-6.14-5.46-6.14,0,0,5.3-7.29,11.84-7.29s16.64,3.51,16.64,3.51Z"/><path class="m" d="M207.49,136.65c4.72,0,10.69,2.17,13.97,3.18,.76,.23,.97,2.47-.28,4.61,2.68-2.47,4.61-7.36,4.61-7.36,0,0-3.22,1.14-4.27,.81-3.14-.98-9.14-2.68-14.04-2.68-6.54,0-11.84,7.29-11.84,7.29,0,0,.21,.72,.76,1.17,1.17-1.46,5.4-7.02,11.07-7.02Z"/><path class="m" d="M214.7,141.85c0,3.66-2.96,6.63-6.62,6.63s-6.63-2.97-6.63-6.63,2.97-6.63,6.63-6.63,6.62,2.97,6.62,6.63Z"/><path class="f" d="M213.75,141.86c0,2.8-7.88-5.08-5.08-5.08s5.08,2.27,5.08,5.08Z"/></g><path class="h" d="M193.07,163.91c0,5.79,7.33,10.48,16.37,10.48s16.36-4.69,16.36-10.48-7.33-10.49-16.36-10.49-16.37,4.69-16.37,10.49Z"/></g></g></g></g></g></svg>