<?xml version="1.0" encoding="UTF-8"?><svg xmlns="http://www.w3.org/2000/svg" xmlns:xlink="http://www.w3.org/1999/xlink" viewBox="0 0 344.16 344.16"><defs><style>.e,.f{fill:#e9e9e9;}.g{fill:#fff;}.h{isolation:isolate;}.i{fill:#e94e1b;}.f,.j,.k{mix-blend-mode:multiply;}.l{fill:#fdfdfd;}.m{fill:none;stroke:#301b16;stroke-miterlimit:10;stroke-width:3.66px;}.n{clip-path:url(#d);}.o{fill:#99613c;}.p{fill:#301b16;}.q{fill:#432918;}.j{fill:#d9cbca;}.k{fill:#e7dcd6;}</style><clipPath id="d"><path class="i" d="M344.16,172.08c0,95.04-77.04,172.08-172.08,172.08S0,267.12,0,172.08,77.04,0,172.08,0s172.08,77.04,172.08,172.08Z"/></clipPath></defs><g class="h"><g id="a"/><g id="b"><g id="c"><g><path class="i" d="M344.16,172.08c0,95.04-77.04,172.08-172.08,172.08S0,267.12,0,172.08,77.04,0,172.08,0s172.08,77.04,172.08,172.08Z"/><g class="n"><g><g><path class="p" d="M89.02,138.99s0-.02,0-.03h0s0,0,0,.03Z"/><path class="p" d="M242.74,117.05c.33-.55,.51-1.21,.47-1.91,0-.7-.22-1.35-.55-1.9,.29-.59,.44-1.24,.4-1.94-.04-.7-.29-1.32-.66-1.87,.29-.59,.4-1.24,.33-1.94-.07-.7-.37-1.35-.77-1.87,.25-.58,.33-1.28,.22-1.97-.11-.66-.4-1.28-.84-1.8,.22-.62,.26-1.28,.11-1.98-.14-.7-.47-1.28-.95-1.76,.18-.62,.21-1.32,.03-1.98-.22-.7-.55-1.25-1.02-1.72,.15-.63,.11-1.33-.11-1.98-.22-.65-.62-1.21-1.1-1.64,.11-.63,.04-1.32-.22-1.98-.25-.62-.65-1.17-1.17-1.58,.07-.62,0-1.32-.29-1.94-.29-.66-.73-1.21-1.28-1.58,.03-.66-.11-1.39-.48-2.01-.33-.66-.88-1.17-1.46-1.46-.04-.7-.26-1.39-.7-1.98-.41-.59-.95-1.02-1.61-1.28-.07-.66-.36-1.32-.81-1.87-.47-.55-1.06-.92-1.69-1.14-.14-.66-.47-1.28-.99-1.8-.51-.51-1.1-.83-1.76-.99-.18-.62-.55-1.21-1.06-1.68-.55-.48-1.17-.77-1.83-.88-.22-.62-.62-1.17-1.17-1.61-.55-.44-1.17-.69-1.83-.77-.25-.62-.7-1.13-1.28-1.53-.55-.41-1.21-.62-1.87-.66-.29-.59-.73-1.1-1.35-1.46h.03c-.62-.36-1.28-.55-1.9-.59-.33-.55-.81-1.06-1.43-1.39-.62-.33-1.28-.47-1.94-.47-.33-.55-.85-.99-1.46-1.31-.62-.3-1.28-.41-1.94-.37-.37-.51-.88-.99-1.51-1.24-.66-.29-1.32-.36-1.98-.29-.36-.51-.91-.95-1.57-1.17-.62-.25-1.32-.33-1.94-.22-.44-.51-.99-.88-1.65-1.1-.66-.26-1.32-.26-1.94-.15-.43-.47-1.02-.84-1.68-1.03-.66-.22-1.33-.22-1.98-.04-.44-.47-1.02-.8-1.69-.99-.7-.18-1.36-.15-1.98,.04-.47-.44-1.06-.77-1.76-.92-.65-.14-1.31-.07-1.94,.11-.47-.4-1.1-.7-1.79-.84h.04c-.7-.11-1.35-.04-1.98,.22-.51-.41-1.1-.7-1.79-.77-.7-.11-1.36,0-1.94,.26-.51-.4-1.13-.66-1.83-.73-.7-.07-1.36,.07-1.94,.33-.51-.36-1.17-.58-1.83-.62-.7-.04-1.36,.1-1.94,.4-.51-.37-1.17-.55-1.87-.59-.69-.04-1.32,.15-1.9,.47-.55-.33-1.17-.51-1.87-.51s-1.35,.18-1.9,.51c-.55-.29-1.21-.47-1.91-.44-.7,.04-1.32,.25-1.87,.63-.59-.3-1.24-.44-1.94-.41-.7,.07-1.32,.33-1.83,.69-.59-.26-1.24-.4-1.94-.29-.7,.07-1.32,.33-1.83,.73-.58-.25-1.24-.33-1.94-.22-.7,.07-1.28,.36-1.8,.8-.58-.25-1.28-.29-1.94-.18-.7,.15-1.28,.44-1.75,.88-.62-.18-1.28-.22-1.98-.07-.66,.14-1.24,.47-1.72,.95-.63-.18-1.28-.22-1.98-.04-.66,.18-1.25,.55-1.69,1.03-.62-.15-1.28-.15-1.94,.07-.7,.18-1.25,.58-1.69,1.06-.62-.11-1.28-.07-1.94,.15-.66,.21-1.21,.62-1.61,1.13-.62-.11-1.32-.03-1.94,.22-.66,.25-1.17,.69-1.58,1.2-.65-.07-1.32,.04-1.94,.29-.66,.29-1.17,.77-1.5,1.28-.66-.04-1.32,.07-1.94,.4-.62,.33-1.13,.76-1.46,1.32-.65,0-1.32,.15-1.9,.52-.62,.33-1.1,.84-1.43,1.39-.62,0-1.28,.22-1.87,.59-.62,.37-1.06,.88-1.35,1.46-.62,.07-1.28,.29-1.87,.69-.55,.41-.99,.96-1.24,1.54-.66,.07-1.28,.33-1.83,.8-.55,.44-.95,.99-1.17,1.61-.66,.11-1.28,.44-1.79,.92-.52,.47-.88,1.06-1.06,1.69-.66,.18-1.24,.51-1.76,1.02-.47,.52-.81,1.17-.91,1.8-.66,.22-1.24,.62-1.69,1.17-.47,.55-.73,1.2-.81,1.9-.62,.26-1.17,.7-1.58,1.32-.44,.59-.62,1.28-.66,1.98-.59,.33-1.1,.8-1.43,1.46-.36,.66-.51,1.39-.44,2.09-.55,.41-1.03,.96-1.28,1.65-.26,.7-.33,1.39-.18,2.09-.47,.41-.84,.95-1.06,1.61-.18,.7-.22,1.43-.04,2.05-.44,.48-.81,1.1-.95,1.79-.18,.7-.11,1.39,.11,2.02-.44,.47-.74,1.1-.84,1.79-.11,.7-.04,1.36,.18,1.94-.4,.52-.66,1.14-.73,1.83-.11,.66,0,1.35,.25,1.94-.37,.51-.62,1.14-.7,1.8-.04,.69,.07,1.35,.36,1.94-.36,.51-.62,1.14-.66,1.83-.04,.66,.11,1.32,.4,1.91-.36,.51-.58,1.13-.62,1.83-.03,.7,.11,1.32,.44,1.87-.37,.55-.55,1.17-.59,1.87,0,.7,.14,1.32,.47,1.87-.33,.54-.51,1.17-.55,1.87,0,.7,.19,1.32,.52,1.87-.33,.54-.52,1.17-.52,1.87s.22,1.32,.55,1.87c-.33,.55-.51,1.17-.47,1.87,0,.65,.22,1.31,.55,1.82-.29,.59-.44,1.21-.41,1.91,0,.7,.22,1.32,.59,1.83-.29,.59-.44,1.25-.37,1.9,.04,.7,.26,1.33,.62,1.87-.25,.57-.36,1.22-.29,1.91,.07,.73,.33,1.35,.73,1.86-.26,.59-.33,1.28-.26,1.94v.03c.11,.66,.41,1.24,.77,1.72-.22,.59-.29,1.25-.19,1.9,.11,.66,.37,1.25,.77,1.76-.22,.59-.29,1.21-.18,1.87,.11,.69,.4,1.28,.81,1.75-.22,.59-.29,1.25-.18,1.91,.11,.66,.4,1.24,.83,1.76-.21,.58-.29,1.24-.18,1.9,.14,.66,.44,1.25,.84,1.72-.18,.59-.25,1.24-.11,1.94,.15,.65,.44,1.24,.88,1.72-.22,.58-.25,1.24-.11,1.9,.14,.66,.44,1.24,.88,1.72-.18,.59-.22,1.24-.04,1.94,.15,.66,.47,1.21,.92,1.68-.18,.62-.18,1.28-.04,1.94,.18,.66,.52,1.21,.99,1.69-.18,.62-.18,1.28,0,1.94,.18,.66,.55,1.21,1.02,1.65-.14,.62-.14,1.28,.07,1.94,.19,.66,.59,1.21,1.06,1.64-.15,.63-.11,1.33,.11,1.98v-.04c.26,.66,.66,1.21,1.14,1.62-.11,.65-.04,1.31,.22,1.97,.26,.66,.66,1.17,1.17,1.57-.07,.63,.03,1.32,.33,1.94,.26,.66,.73,1.17,1.28,1.54-.07,.66,.07,1.31,.37,1.98h.03c.34,.62,.81,1.1,1.36,1.43,0,.7,.18,1.36,.55,1.97,.37,.63,.92,1.07,1.5,1.36,.04,.7,.26,1.35,.69,1.94,.44,.59,.99,1.02,1.65,1.24,.07,.66,.37,1.28,.8,1.83,.47,.52,1.03,.88,1.65,1.1,.11,.62,.44,1.24,.92,1.75,.47,.51,1.02,.84,1.64,1.02,.18,.63,.51,1.21,.99,1.73,.51,.47,1.1,.8,1.72,.95,.18,.63,.55,1.21,1.06,1.69,.52,.47,1.1,.77,1.76,.88,.18,.62,.58,1.17,1.1,1.61,.55,.44,1.17,.74,1.8,.84,.25,.59,.66,1.14,1.21,1.58,.55,.4,1.17,.65,1.83,.73,.25,.59,.65,1.1,1.24,1.51,.55,.4,1.21,.62,1.83,.65,.29,.59,.73,1.1,1.32,1.51,.59,.36,1.25,.54,1.91,.54,.29,.59,.76,1.1,1.35,1.43,.62,.37,1.28,.52,1.91,.52,.33,.55,.8,1.02,1.42,1.36,.62,.33,1.28,.43,1.94,.4,.36,.54,.84,1.02,1.5,1.32,.62,.29,1.28,.4,1.94,.33,.37,.52,.88,.95,1.54,1.24,.62,.26,1.32,.33,1.94,.26,.4,.47,.95,.92,1.61,1.13,.66,.26,1.32,.29,1.98,.18,.44,.48,.99,.88,1.64,1.1,.66,.22,1.35,.22,1.98,.07,.44,.48,1.02,.84,1.72,.99,.66,.18,1.35,.18,1.98,0,.47,.43,1.1,.77,1.79,.92,.7,.14,1.39,.07,2.01-.15,.52,.4,1.14,.7,1.83,.8,.73,.11,1.46-.03,2.05-.33,.59,.4,1.28,.66,2.01,.66h.07c.77,0,1.46-.22,2.05-.59,.62,.29,1.36,.44,2.09,.37,.74-.11,1.36-.41,1.91-.85,.62,.22,1.32,.29,2.01,.15,.7-.15,1.32-.51,1.8-.95,.62,.18,1.31,.18,2.01,0,.66-.19,1.25-.59,1.69-1.06,.66,.14,1.32,.11,1.98-.11,.7-.26,1.24-.62,1.65-1.13,.62,.11,1.31,.03,1.98-.22,.62-.25,1.17-.69,1.58-1.2,.61,.07,1.31-.04,1.94-.33,.62-.29,1.13-.73,1.5-1.24,.66,.03,1.31-.08,1.94-.41,.62-.33,1.1-.81,1.46-1.35,.63,.03,1.28-.11,1.91-.48,.59-.33,1.06-.8,1.39-1.39,.62,0,1.28-.18,1.87-.54,.59-.37,1.06-.88,1.36-1.47,.62,0,1.28-.22,1.87-.62,.55-.36,.99-.92,1.28-1.5,.62-.04,1.24-.29,1.83-.7,.55-.4,.95-.95,1.21-1.53,.62-.11,1.24-.34,1.8-.77,.55-.44,.92-.99,1.17-1.61,.62-.11,1.24-.4,1.76-.84,.51-.47,.88-1.03,1.1-1.64,.63-.15,1.21-.44,1.72-.92,.52-.48,.84-1.06,1.02-1.69,.63-.15,1.21-.48,1.73-.99,.47-.48,.76-1.07,.95-1.73,.59-.18,1.17-.51,1.65-1.01,.47-.52,.76-1.14,.88-1.76,.62-.22,1.17-.59,1.64-1.1h-.03s.03-.04,.07-.07c0,0,0-.04,.04-.04,.47-.59,.77-1.28,.84-1.98,.62-.26,1.17-.74,1.58-1.35,.4-.63,.58-1.28,.58-1.98,.59-.33,1.06-.81,1.43-1.43,.33-.65,.43-1.31,.4-1.97,.55-.37,1.02-.88,1.32-1.54,.29-.63,.37-1.32,.29-1.94,.51-.4,.95-.91,1.2-1.58,.26-.65,.34-1.31,.22-1.94,.52-.4,.92-.95,1.14-1.61,.26-.66,.29-1.32,.15-1.94,.51-.44,.88-.99,1.1-1.61,.22-.65,.22-1.32,.11-1.94,.44-.44,.81-.99,1.02-1.64,.19-.65,.19-1.32,.04-1.94,.47-.43,.81-1.02,.99-1.68,.18-.66,.18-1.32,.04-1.9,.44-.47,.77-1.03,.95-1.69,.15-.66,.15-1.32-.04-1.94,.44-.44,.77-1.03,.95-1.69,.15-.66,.11-1.32-.07-1.94,.44-.44,.77-1.02,.92-1.68,.15-.66,.11-1.32-.11-1.94,.44-.44,.77-1.02,.88-1.68,.15-.7,.11-1.32-.11-1.94,.44-.48,.73-1.06,.88-1.73,.11-.66,.08-1.31-.14-1.9,.44-.47,.73-1.06,.84-1.72,.11-.65,.07-1.32-.15-1.94,.4-.48,.7-1.06,.81-1.72,.11-.66,.03-1.32-.19-1.91,.4-.47,.7-1.1,.8-1.76,.11-.66,.04-1.32-.18-1.9,.4-.47,.66-1.1,.77-1.75,.11-.66,0-1.32-.22-1.91,.41-.47,.66-1.1,.77-1.76,.07-.65,0-1.32-.26-1.9,.4-.51,.66-1.1,.77-1.76,.07-.7-.04-1.31-.26-1.9,.36-.51,.62-1.13,.7-1.79,.11-.66,0-1.32-.26-1.91,.37-.51,.62-1.13,.7-1.79,.07-.7-.03-1.36-.33-1.94,.37-.52,.62-1.17,.66-1.83v-.04c.04-.66-.11-1.32-.41-1.9,.37-.56,.55-1.21,.59-1.91,0-.7-.15-1.32-.47-1.9Z"/></g><path class="o" d="M105.48,156.68s2.32-17.49-12.88-13.27c-11.69,3.25,.18,35.74,7.86,38.54,6.57,2.41,8.02-2.63,8.02-2.63l-3-22.64Z"/><path class="o" d="M225.26,157.16s-2.18-17.51,12.98-13.17c11.67,3.34-.46,35.74-8.17,38.48-6.59,2.36-8-2.69-8-2.69l3.19-22.62Z"/><path class="o" d="M252.36,354.42l8.62-88.72s-31.72-14.06-49.96-18.51c-17.17-4.2-37.29-3.82-39.4-3.76-2.1-.07-22.23-.61-39.43,3.45-18.27,4.31-49.58,18.11-49.58,18.11,0,0,5.99,41.43,11.81,89.43H252.36Z"/><path class="o" d="M166.02,276.31s42.7-28.9,40.15-30.31c-14.8-8.21-13.82-31.03-13.82-31.03l-53.67-3.02s3.26,32.81-12.65,36.81c-1.17,.3,39.98,27.55,39.98,27.55Z"/><path class="j" d="M137.89,231.56c2.23,.74,4.43,1.95,6.51,3.74,7.05,6.04,23.43,15.1,33.26,12.06,7.27-2.25,12.68-8.6,17.78-14.43-3.47-8.8-3.08-17.94-3.08-17.94l-53.67-3.02s.98,9.98-.8,19.6Z"/><path class="o" d="M226.78,165.07c-2.65,19.19-3.47,30.28-14.63,43.81-7.76,9.41-24.69,23.59-37.09,29.36-3.48,1.62-14.66,1.8-18.16,.44-13.55-5.23-32.59-19.09-39.22-30.18-8.82-14.74-11.18-26.49-13.74-43.92-3.07-20.94-3.35-13.56-3.27-33.31,.16-40.23,15.8-69.22,60.9-69.04,45.13,.18,68.05,25.55,68.57,66.84,.29,22.63-.46,14.96-3.36,35.99Z"/><path class="p" d="M135.9,203.94c-2.93,9.84,2.59,24.62,4.46,25.88,5.65,3.76,11.47,6.91,16.52,8.86,3.51,1.35,14.68,1.18,18.16-.44,3.87-1.8,8.18-4.43,12.52-7.47,2.1-1.47,8.47-17.22,7.38-26.83-1.1-9.61-17.34-13.5-30.16-13.27-12.82,.23-25.96,3.43-28.88,13.27Z"/><path class="o" d="M140.76,204.82c-1.89,6.34,7.18,18.97,8.39,19.78,3.65,2.42,7.39,4.45,10.65,5.71,.99,.38,3.58-12.87,5.63-12.87,2.63,.01,4.82,13.16,6.08,12.58,2.5-1.16,5.28-2.86,8.07-4.82,1.36-.95,11.09-16.28,10.38-22.47-.7-6.19-13.5-1.08-26.08-1.08-8.26,0-21.23-3.17-23.11,3.17Z"/><path class="k" d="M116.34,125.29c19.76-10.36,21.55,10.63,51.49,9.16,13.19-.65,29.82-15.21,38.45-15.18,19.99,.08,11.71,30.24,14.79,46.31,.83,4.32,4.46-4.3,5.6,.17,.03-.23,.07-.45,.1-.67,2.9-21.04,3.65-13.37,3.36-35.99-.52-41.3-22.15-69.41-67.29-69.59-45.1-.18-62.03,31.55-62.19,71.79-.08,18.84,5.13,17.26,7.82,34.84,3.89-8.14-1.28-36.03,7.86-40.82Z"/><path class="p" d="M115.65,120.94c8.45-8.46,22.89,8.69,52.64,8.69s34.78-18.2,49.31-8.69c12.59,8.24,2.86,47.33,2.86,47.33,0,0,6.25-2.82,6.31-3.2,2.9-21.04,6.21-12.8,5.92-35.43-.52-41.29-24.7-69.98-69.84-70.15-45.1-.18-64.26,31.53-64.42,71.76-.08,19.76,3.31,18.16,6.38,39.11,.05,.32,6.72-2.08,6.72-2.08,0,0-12.81-30.39,4.12-47.33Z"/><path class="o" d="M83.78,354.42l7.84-23.47s22.15-75.15-8.99-65.96c-19.31,5.71-32.34,51.57-39.89,89.43h41.05Z"/><path class="o" d="M260.35,354.42h41.07c-7.29-37.72-19.89-82.92-38.99-88.72-31.07-9.43-9.51,65.89-9.51,65.89l7.42,22.83Z"/><g><path class="g" d="M210.92,156.86s-.6,3.35-3.64,6.21c-2.29,2.14-16.19,3.54-17.66,2.88-2.19-.99-5.02-5.7-5.02-5.7,0,0,4.92-6.71,10.96-6.69,6.02,.03,15.35,3.31,15.35,3.31Z"/><path class="q" d="M195.56,154.88c4.36,.02,10.42,1.73,13.46,2.68,.7,.22,.33,2.6-.84,4.57,2.49-2.27,2.74-5.27,2.74-5.27,0,0-9.33-3.28-15.35-3.31-6.05-.02-10.96,6.69-10.96,6.69,0,0,.19,.66,.7,1.08,1.08-1.35,5.02-6.46,10.25-6.44Z"/><path class="q" d="M202.2,159.71c-.01,3.38-2.76,6.12-6.15,6.1-3.38-.01-6.11-2.76-6.1-6.15,0-3.38,2.77-6.11,6.14-6.1,3.39,.01,6.11,2.76,6.1,6.14Z"/><path class="g" d="M201.33,159.71c-.02,2.59-7.27-4.72-4.68-4.71,2.59,.01,4.69,2.12,4.68,4.71Z"/></g><path class="p" d="M114.29,146.28s3.46-2.2,11.18-4.57c8.4-2.57,19.86,1.47,20.3,1.48,.78,0,1.94-.2,1.95-2.25,.01-2.05-.62-3.73-1.4-3.73-.43,0-11.79-2.74-20.33-.24-6.52,1.91-11.69,9.31-11.69,9.31Z"/><path class="p" d="M217.6,146.69s-3.39-2.23-10.98-4.65c-8.26-2.64-19.6,1.31-20.04,1.3-.77,0-1.91-.21-1.91-2.27,0-2.05,.64-3.72,1.42-3.71,.43,0,11.66-2.64,20.05-.08,6.43,1.96,11.46,9.41,11.46,9.41Z"/><g><path class="g" d="M121.35,156.51s.58,3.36,3.59,6.23c2.27,2.16,16.16,3.66,17.63,3.01,2.2-.97,5.06-5.65,5.06-5.65,0,0-4.86-6.75-10.9-6.77-6.03-.02-15.39,3.18-15.39,3.18Z"/><path class="q" d="M136.73,154.65c-4.36-.02-10.44,1.65-13.48,2.57-.7,.21-.35,2.59,.81,4.58-2.47-2.29-2.71-5.29-2.71-5.29,0,0,9.35-3.21,15.39-3.18,6.04,.02,10.9,6.77,10.9,6.77,0,0-.2,.66-.7,1.07-1.07-1.35-4.97-6.51-10.2-6.53Z"/><path class="q" d="M130.05,159.42c-.02,3.38,2.71,6.14,6.1,6.15,3.38,.01,6.13-2.71,6.14-6.1,.01-3.38-2.72-6.13-6.1-6.14-3.39-.01-6.14,2.72-6.15,6.1Z"/><path class="g" d="M130.92,159.43c0,2.59,7.3-4.66,4.71-4.67-2.59-.01-4.7,2.08-4.71,4.67Z"/></g><polygon class="j" points="165.35 185.43 159.88 181.06 165.42 168.27 165.35 185.43"/><polygon class="j" points="151.11 208.98 147.05 205.31 153.85 207.07 177.46 206.9 184.09 204.82 178.95 208.98 151.11 208.98"/><g><path class="m" d="M152.42,176.3c-5.49,4.31-22.58,4.54-29.29,0-6.72-4.54-14.65-22.1-7.63-27.96,7.02-5.87,36.92-5.73,41.81,0,4.88,5.72,.61,23.66-4.89,27.96Z"/><path class="m" d="M179.88,176.3c5.49,4.31,22.58,4.54,29.29,0,6.72-4.54,14.65-22.1,7.63-27.96-7.02-5.87-36.93-5.73-41.81,0-4.88,5.72-.61,23.66,4.88,27.96Z"/><line class="m" x1="159.44" y1="153.72" x2="172.86" y2="153.72"/></g><g><path class="l" d="M252.34,354.42l8.64-88.89s-31.72-14.06-49.96-18.51c-1.15,24.48-22.81,38.22-41.73,38.22s-38.5-16.23-38.37-39.19c-18.26,4.3-48.29,18.77-48.29,18.77,0,0,5.99,41.52,11.83,89.59H252.34Z"/><path class="f" d="M252.34,354.42l3.06-31.44c-.13,.07-.28,.13-.42,.2-13.26,7.26-12.28,18.23-12.82,31.23h10.19Z"/><path class="f" d="M99.54,354.42c-4.21-16.59-7.58-29.32-9.16-32.47,1.31,10.15,2.7,21.13,4.07,32.47h5.09Z"/><path class="l" d="M83.72,354.42l7.9-23.64s22.15-75.15-8.98-65.96c-19.35,5.71-32.38,51.7-39.94,89.59h41.02Z"/><path class="f" d="M83.72,354.42l7.9-23.64s3.31-11.25,5.57-24.52c-8.29,12.99-19.87,22.49-23.54,38.85-.7,3.13-1.53,6.23-2.4,9.31h12.48Z"/><path class="l" d="M260.4,354.42h41.05c-7.28-37.75-19.89-83.07-39.02-88.89-31.07-9.44-9.51,65.89-9.51,65.89l7.48,23Z"/><path class="f" d="M260.4,354.42h14.71c-1.02-4.1-2.14-8.16-3.44-12.1-4.05-12.24-13.34-18.24-22.36-25.93,1.82,8.72,3.62,15.03,3.62,15.03l7.48,23Z"/><path class="e" d="M205.63,243.96s-6.7,34.06-36.27,33.27c-29.68-.8-34.3-36.57-34.3-36.57l-4.14,5.39s-2.4,43.75,39.02,42.84c41.41-.91,41.08-41.87,41.08-41.87l-5.39-3.06Z"/></g></g></g></g></g></g></g></svg>