<?xml version="1.0" encoding="UTF-8"?><svg xmlns="http://www.w3.org/2000/svg" xmlns:xlink="http://www.w3.org/1999/xlink" viewBox="0 0 344.16 344.16"><defs><style>.e,.f{fill:#fff;}.g{fill:#e09d72;}.h{isolation:isolate;}.i{fill:#f8ab08;}.j{fill:#724a5d;}.k{fill:#e9e9e9;}.k,.l{mix-blend-mode:multiply;}.m{fill:#f9bb8d;}.n{fill:#d06037;}.f{mix-blend-mode:soft-light;opacity:.4;}.o{clip-path:url(#d);}.p{fill:#a9502b;}.q{fill:#812e1c;}.r{fill:#432918;}.l{fill:#e7dcd6;}</style><clipPath id="d"><path class="j" d="M0,172.08C0,77.04,77.04,0,172.08,0s172.08,77.04,172.08,172.08-77.04,172.07-172.08,172.07S0,267.12,0,172.08Z"/></clipPath></defs><g class="h"><g id="a"/><g id="b"><g id="c"><g><path class="j" d="M0,172.08C0,77.04,77.04,0,172.08,0s172.08,77.04,172.08,172.08-77.04,172.07-172.08,172.07S0,267.12,0,172.08Z"/><g class="o"><g><polygon class="q" points="130.04 234.59 203.18 234.59 210.54 248.88 125.28 250.4 130.04 234.59"/><path class="r" d="M222,198.69c-20.39,24.4-46.3,32.56-56.46,32.56s-38.47-7.16-59.43-32.56c-11.87-14.39-20.21-55.63-23.33-75.41-1.79-11.36-3.25-35.48,4.72-47.59,12.5-18.99,35.91-32.35,75.03-32.35,14.8,0,35.61-.49,38.09,9.34,19.99-.7,30.12,9.68,35.05,18.57,7.2,12.96,9.88,31.11,8.03,48.41-2.43,22.8-9.47,64.41-21.7,79.04Z"/><path class="m" d="M99.73,152.6s2.43-18.89-13.95-14.27c-12.61,3.55,.35,38.57,8.65,41.57,7.1,2.56,8.64-2.88,8.64-2.88l-3.35-24.41Z"/><path class="m" d="M229,152.6s-2.42-18.89,13.95-14.27c12.6,3.55-.34,38.57-8.65,41.57-7.11,2.56-8.64-2.88-8.64-2.88l3.34-24.41Z"/><path class="m" d="M259.71,367.55l9.13-97.98s-34.29-15.04-53.98-19.76c-18.55-4.45-40.27-3.96-42.55-3.89-2.26-.07-23.99-.56-42.53,3.89-19.69,4.72-53.41,19.76-53.41,19.76,0,0,6.76,45.56,13.32,97.98h170.02Z"/><path class="m" d="M165.59,281.42s45.96-31.37,43.2-32.88c-16-8.79-15.04-33.41-15.04-33.41l-57.92-3.03s3.66,35.39-13.5,39.77c-1.26,.31,43.26,29.55,43.26,29.55Z"/><path class="m" d="M230.67,161.12c-2.77,20.72-4.84,31.77-15.6,47.34-17.93,25.97-40.73,34.66-49.67,34.66s-33.85-7.61-52.29-34.66c-10.44-15.32-12.17-28.54-15.01-47.34-3.41-22.59-3.67-14.61-3.67-35.93,0-43.42,16.75-74.77,65.42-74.77s73.55,27.29,74.29,71.84c.41,24.42-.43,16.14-3.48,38.86Z"/><path class="l" d="M105.85,128.59c6.53-6.8,22.65-6.51,31.8-6.8,8.62-.25,29.35-.08,35.71-7.49,5.64-6.57,15.96-16.13,25.28-16.13,21.56,0,25.17,32.14,28.58,49.47,.92,4.66,2.09,9.41,3.36,14.22,.03-.25,.07-.48,.1-.73,3.04-22.71,3.89-14.43,3.48-38.86-.74-44.56-24.2-74.81-72.91-74.81s-66.8,34.32-66.8,77.73c0,20.33,.24,14.09,3.22,33.05,4.16-8.79,.48-21.61,8.2-29.65Z"/><path class="r" d="M98.96,166.82c2.42,15.87,2.64,27.28,12,41,18.43,27.05,45.3,35.3,54.44,35.3s34.07-8.58,52-34.56c9.72-14.07,10.01-24.57,12.48-41.74l-19.89,32.6s-13.94,17.91-31.82,24.54c-3.85,1.42-9.97-12.2-13.84-12.2-4.88,0-9.8,13.95-14.73,11.8-17.2-7.44-32.73-24.15-32.73-24.15l-17.92-32.6Z"/><path class="r" d="M98.61,121.88c16.14-12.19,73.43,3.94,94.18-31.94,24.73,.31,29.95,24.7,33.91,33.59,3.95,8.89,3.86,38.37,3.97,37.6,3.04-22.71,6.64-13.83,6.23-38.26-.74-44.56-26.96-75.41-75.67-75.41s-69.21,34.3-69.21,77.71c0,21.32,2.67,13.36,6.08,35.95,.12,.77-5.45-34.74,.51-39.24Z"/><path class="m" d="M77.5,367.55l8.85-26.84s23.58-81.2-9.98-71.14c-21.04,6.3-34.97,56.85-42.92,97.98h44.06Z"/><path class="m" d="M269.27,367.55h44.06c-7.95-41.13-21.88-91.68-42.92-97.98-33.57-10.06-9.98,71.14-9.98,71.14l8.84,26.84Z"/><g><path class="e" d="M213.52,152.34s-.63,3.62-3.9,6.71c-2.46,2.33-17.46,3.88-19.05,3.17-2.36-1.06-5.44-6.12-5.44-6.12,0,0,5.29-7.27,11.8-7.27s16.58,3.5,16.58,3.5Z"/><path class="r" d="M196.94,150.26c4.7,0,11.25,1.82,14.54,2.83,.75,.24,.36,2.81-.9,4.95,2.68-2.46,2.95-5.7,2.95-5.7,0,0-10.08-3.5-16.58-3.5s-11.8,7.27-11.8,7.27c0,0,.21,.71,.76,1.16,1.16-1.46,5.39-7,11.04-7Z"/><path class="r" d="M204.13,155.44c0,3.66-2.96,6.62-6.62,6.62s-6.6-2.95-6.6-6.62,2.96-6.6,6.6-6.6,6.62,2.95,6.62,6.6Z"/><path class="e" d="M203.18,155.46c0,2.8-7.85-5.06-5.06-5.06s5.06,2.27,5.06,5.06Z"/></g><path class="r" d="M110.93,141.33s3.54-2.39,11.46-4.96c8.62-2.82,20.41,1.5,20.86,1.5,.81,0,1.99-.22,1.99-2.44s-.65-4.02-1.46-4.02c-.44,0-12.13-2.9-20.89-.16-6.7,2.08-11.97,10.09-11.97,10.09Z"/><path class="r" d="M219.46,141.33s-3.54-2.39-11.46-4.96c-8.62-2.82-20.41,1.5-20.87,1.5-.81,0-1.99-.22-1.99-2.44s.65-4.02,1.46-4.02c.44,0,12.13-2.9,20.89-.16,6.7,2.08,11.97,10.09,11.97,10.09Z"/><g><path class="e" d="M116.86,152.34s.64,3.62,3.9,6.71c2.46,2.33,17.46,3.88,19.04,3.17,2.36-1.06,5.44-6.12,5.44-6.12,0,0-5.28-7.27-11.79-7.27s-16.59,3.5-16.59,3.5Z"/><path class="r" d="M133.45,150.26c-4.71,0-11.26,1.82-14.54,2.83-.75,.24-.37,2.81,.89,4.95-2.68-2.46-2.94-5.7-2.94-5.7,0,0,10.08-3.5,16.59-3.5s11.79,7.27,11.79,7.27c0,0-.2,.71-.76,1.16-1.16-1.46-5.39-7-11.03-7Z"/><path class="r" d="M126.26,155.44c0,3.66,2.96,6.62,6.61,6.62s6.6-2.95,6.6-6.62-2.96-6.6-6.6-6.6-6.61,2.95-6.61,6.6Z"/><path class="e" d="M127.21,155.46c0,2.8,7.85-5.06,5.06-5.06s-5.06,2.27-5.06,5.06Z"/></g><polygon class="g" points="162.81 182.13 156.89 177.45 162.81 163.61 162.81 182.13"/><polygon class="g" points="146.76 201.76 144.53 199.6 184.42 197.45 177.26 201.76 146.76 201.76"/><g><path class="n" d="M79.89,367.55l6.46-26.84s23.58-81.2-9.98-71.14c-21.07,6.31-38.81,56.84-47.19,97.98h50.72Z"/><path class="k" d="M79.89,367.55l6.46-26.84s1.41-4.89,3.06-12.08c-7.94,9.24-15.13,28.2-20.14,34.16-1.45,1.73-2.96,3.29-4.51,4.76h15.13Z"/><path class="n" d="M267.09,367.55h47.89c-8.08-41.13-23.53-91.67-44.57-97.98-33.57-10.06-9.98,71.14-9.98,71.14,0,0,3.45,13.92,6.66,26.84Z"/><path class="f" d="M302.23,367.55h12.75c-7.05-35.9-19.72-78.97-36.82-93.53,10.23,17.49,17.62,37.7,21.78,57.21,2.67,12.58,2.97,24.45,2.29,36.32Z"/><path class="k" d="M267.09,367.55h13.23c-6.79-9.6-11.88-25.08-16.79-47.26-.05-.22-6.33,7.01-6.49,6.87,1.78,7.99,3.39,13.55,3.39,13.55,0,0,3.45,13.92,6.66,26.84Z"/><path class="e" d="M128.09,264.8s9.16,7.97,40.95,7.97,40.95-7.97,40.95-7.97v49.49h-81.9v-49.49Z"/><path class="n" d="M259.71,367.55l9.13-97.98s-37.13-18.18-58.31-20.7c-17.47,42.57-43.03,60.13-43.03,60.13,0,0-27.41-26.26-42.23-58.61-19.69,4.72-48.91,19.17-48.91,19.17,0,0,6.76,45.56,13.32,97.98h170.02Z"/><path class="k" d="M101.75,367.55c-1.21-4.02-2.51-8.01-4.06-11.96-3.51-8.95-8.42-17.16-12.87-25.62,1.56,11.68,3.22,24.42,4.86,37.58h12.07Z"/><path class="p" d="M185.14,259.67l18.04-25.07,7.36,14.28s-10.84,43.01-43.03,60.13c16.72-14.82,17.63-49.34,17.63-49.34Z"/><path class="k" d="M203.18,234.59l-.32,.45c.46,46.97-32.61,71.54-35.35,73.97,32.19-17.12,43.03-60.13,43.03-60.13l-7.36-14.28Z"/><path class="p" d="M151.66,259.67l-21.62-25.07-4.76,15.81s10.04,41.49,42.23,58.61c-16.71-14.82-15.85-49.34-15.85-49.34Z"/><path class="k" d="M145.38,280.07c-6.91-12.43-11.08-26.12-16.43-39.23-.17-.42-.28-.84-.41-1.26l-3.26,10.82s10.04,41.49,42.23,58.61c-3.85-3.41-6.72-7.88-8.93-12.71-5.15-4.54-9.64-9.85-13.2-16.24Z"/><polygon class="p" points="188.72 360.54 167.51 360.54 167.51 310.41 172.61 355.85 188.72 360.54"/><path class="i" d="M183.42,316.09c0,2.32-1.89,4.2-4.2,4.2s-4.2-1.88-4.2-4.2,1.88-4.2,4.2-4.2,4.2,1.88,4.2,4.2Z"/><path class="i" d="M183.42,332.51c0,2.32-1.89,4.2-4.2,4.2s-4.2-1.88-4.2-4.2,1.88-4.19,4.2-4.19,4.2,1.88,4.2,4.19Z"/></g></g></g></g></g></g></g></svg>