<?xml version="1.0" encoding="UTF-8"?><svg xmlns="http://www.w3.org/2000/svg" xmlns:xlink="http://www.w3.org/1999/xlink" viewBox="0 0 344.16 344.16"><defs><style>.e{fill:#272127;}.f{fill:#fff;}.g{fill:#581e18;}.h{opacity:.5;}.i{fill:#e09d72;}.j{fill:#f08375;}.j,.k{opacity:.2;}.l{fill:#331b19;}.m{fill:#f59d16;}.n{fill:#f9b233;}.o{clip-path:url(#d);}.p{fill:#432918;}.q{fill:#e4b58b;}.r{fill:#d84b58;}.s{fill:#352e35;}.t{fill:#dba87b;}.u{fill:#d0d7e6;}</style><clipPath id="d"><path class="m" d="M0,172.08C0,77.04,77.04,0,172.08,0s172.09,77.04,172.09,172.08-77.04,172.07-172.09,172.07S0,267.12,0,172.08Z"/></clipPath></defs><g id="a"/><g id="b"><g id="c"><g><path class="m" d="M0,172.08C0,77.04,77.04,0,172.08,0s172.09,77.04,172.09,172.08-77.04,172.07-172.09,172.07S0,267.12,0,172.08Z"/><g class="o"><g><path class="l" d="M230.63,208.16c0,16.92-13.71,30.63-30.63,30.63s-30.63-13.72-30.63-30.63,13.71-30.64,30.63-30.64,30.63,13.72,30.63,30.64Z"/><path class="l" d="M102.58,153.66c.18,7.85,2.93,14.06,20.88,36.83,17.94,22.77,44.67,17.01,49.36,17.01s30.52,4.14,46.32-13.79c6.66-7.57,19.55-25.3,19.55-37.61"/><path class="t" d="M207.57,232.36l-7.57,77.12s-5.44,18.08-27.18,18.4c-21.74,.32-29.19-13.8-29.19-13.8l-7.82-77.28s9.51-20.08,7.89-35.15c-1.62-15.07,56.89-16.09,54.32-.45-2.58,15.64,9.54,31.17,9.54,31.17Z"/><path class="q" d="M234.46,119.04c-1.19,14.73-3.35,30.98-6.79,45.14-1.06,4.35-1.86,10.67-5.01,16.41-5.99,10.91-32.5,39.34-42.39,41.09-3.5,.62-17.85,.49-22.11-1.89-13.12-7.32-32.04-28.88-36.96-39.19-2.25-4.73-3.97-10.39-5.37-16.33-3.04-12.88-5.38-28.65-6.72-45.21-3.94-48.3,28.06-69.7,62.67-69.7s66.58,21.39,62.67,69.7Z"/><path class="q" d="M246.7,139.38c-.89,5.38-5.55,14.82-7.56,18.21-1.35,2.28-8.36,6.87-11.48,6.58-3.12-.29-1.93-8.69-3.08-11.56-1.15-2.86-1.62-8.9-1.47-15.44,.25-10.64,6.71-14.77,13.22-14.15,6.52,.61,12.09,5.85,10.37,16.36Z"/><path class="q" d="M97.13,139.38c.88,5.38,5.55,14.82,7.56,18.21,1.35,2.28,8.37,6.87,11.48,6.58,3.12-.29,1.93-8.69,3.08-11.56,1.15-2.86,1.62-8.9,1.47-15.44-.25-10.64-6.71-14.77-13.22-14.15-6.52,.61-12.09,5.85-10.37,16.36Z"/><path class="l" d="M114.17,121.12s1.16-4.9,5.43-6.83c9.83-4.43,28.5,.34,30.84,1.46,6.28,3,7.06,6.29,7.06,6.29l-.68,5.32s-2.94-3.22-7.87-5.65c-2.46-1.21-18.15-7.11-27.9-4.43-4.64,1.28-6.88,3.84-6.88,3.84Z"/><path class="l" d="M227.54,121.12s-1.15-4.9-5.43-6.83c-9.83-4.43-28.49,.34-30.85,1.46-6.28,3-7.04,6.29-7.04,6.29l.68,5.32s2.94-3.22,7.87-5.65c2.46-1.21,18.15-7.11,27.91-4.43,4.64,1.28,6.87,3.84,6.87,3.84Z"/><path class="l" d="M108.78,122.96s-.14,14.2,2.21,14.01c2.03-.16,2.6-6.33,.28-17.08-2.42-11.58,1.81-27.35,4.4-29.38,7.76-6.05,14.66,3.22,36.7,0,25.49-3.72,28.95-26.68,46.53-16.18,18.97,1.55,26.69,11.99,30.08,32.09,3.39,20.1-3.39,33.96,0,33.89,3.39-.08,1.68-14.07,5.81-16.12,4.13-2.05,6.73,.51,6.73,.51,0,0,8.81-43.81-4.87-69.61-10.22-19.26-17.4-27.46-48.8-27.46-35.02-20.38-76.74,24.46-83.83,39.11-10.19,21.04-6.27,63.01-3.66,59.45,2.62-3.56,8.41-3.24,8.41-3.24Z"/><path class="f" d="M112.93,158.17c0,1.14-.93,2.07-2.07,2.07s-2.07-.93-2.07-2.07,.92-2.07,2.07-2.07,2.07,.93,2.07,2.07Z"/><path class="f" d="M231.68,158.17c0,1.14-.93,2.07-2.07,2.07s-2.07-.93-2.07-2.07,.92-2.07,2.07-2.07,2.07,.93,2.07,2.07Z"/><path class="f" d="M207.57,364.35v-82.01s-12.85,8.45-34.72,8.45-35.2-8.45-35.2-8.45v82.01h69.92Z"/><path class="e" d="M161.6,364.35l-2.6-7.49-19.32-130.36s-10.24,8.83-26.33,15.51c-13.87,5.76-33.36,8.84-39.48,15.87-7.14,8.19-13.63,60.26-18.09,106.47h105.82Z"/><polygon class="s" points="108.78 257.31 147.27 364.35 161.64 364.35 158.99 356.86 139.68 226.5 107.75 240.98 133.12 269.84 108.78 257.31"/><path class="e" d="M288.38,364.35c-4.39-46.21-10.78-98.29-17.81-106.47-6.03-7.02-25.23-10.11-38.89-15.87-15.85-6.68-25.93-15.51-25.93-15.51l-19.03,130.36-2.56,7.49h104.23Z"/><polygon class="s" points="199.18 364.35 250.12 254.32 223.08 262.37 242.3 241.9 205.74 226.5 186.71 356.86 184.15 364.35 199.18 364.35"/><g><g class="h"><path class="u" d="M119.92,126.43s3.41-5.03,14.57-5.27c11.16-.22,27.33,.36,30.05,4.85,2.72,4.5,2.34,15.78-1.5,19.22-3.84,3.44-5.6,7.78-22.17,7.16-16.58-.63-17.57-3.95-18.64-6.61-1.07-2.67-4-8.71-3.73-12.34,.27-3.62,1.42-7.02,1.42-7.02Z"/></g><g><g class="k"><path class="f" d="M121.41,124.97l29.71,27c4.21-.66,6.58-1.93,8.35-3.37l-29.72-27.01c-4.29,.74-6.9,2.24-8.35,3.38Z"/></g><g class="h"><path class="u" d="M134.51,121.16h-.02c-.97,.02-1.87,.08-2.72,.17l28.87,26.24c.48-.45,.94-.92,1.4-1.38l-27.53-25.02Z"/></g><g class="h"><path class="u" d="M137.82,121.12c-.51,0-1.02,.01-1.52,.02l26.64,24.2s.07-.06,.11-.1c.21-.19,.41-.41,.6-.65l-25.83-23.47Z"/></g></g><g class="h"><path class="u" d="M223.81,126.7s-3.38-5.06-14.54-5.35c-11.16-.29-27.33,.22-30.07,4.7-2.74,4.48-2.42,15.76,1.4,19.23,3.81,3.47,5.56,7.81,22.13,7.26,16.58-.55,17.59-3.85,18.67-6.51,1.08-2.66,4.05-8.69,3.79-12.31-.25-3.64-1.38-7.02-1.38-7.02Z"/></g><g><g class="k"><path class="f" d="M222.33,125.23l-29.85,26.85c-4.21-.68-6.57-1.96-8.34-3.41l29.86-26.86c4.28,.75,6.9,2.27,8.33,3.42Z"/></g><g class="h"><path class="u" d="M209.24,121.35h.02c.97,.03,1.87,.09,2.72,.18l-29.01,26.09c-.48-.46-.93-.92-1.4-1.39l27.66-24.88Z"/></g><g class="h"><path class="u" d="M205.93,121.3c.52,0,1.03,0,1.53,.01l-26.76,24.08s-.07-.07-.1-.1c-.22-.19-.42-.41-.61-.65l25.94-23.34Z"/></g></g><path class="g" d="M177.22,135.99c-1.27-4.21-8.74-4.41-10.72-.97-.86,1.49-.36-2.35-.68-4.87-.33-2.53-1.78-6.05,.31-4.74,4.16,2.62,8.96,2.3,10.5,.76,.81-.8,.95,2.31,.74,5.07-.18,2.54,.28,6.14-.15,4.75Z"/><path class="g" d="M166.74,126.14c-1.77-2.32-8.64-8.38-22.98-8.42-13.4-.03-24.84,2.97-27.28,4.26-.86,.45-1.45,2.78-2.16,5.09-.72,2.31,4.14,5.58,4.14,5.58l.06-.02c-.03-.51-.06-1.01-.05-1.46,.02-8.71,10.63-10.23,23.79-10.2,13.16,.03,23.76,2.69,23.74,10.87,0,2.03-.35,4.63-.99,7.22h0s3.5-10.61,1.73-12.93Z"/><path class="g" d="M142.25,153.82c-7.41-.02-14.44-.43-19.03-5.23-3.53-3.7-5.47-12.64-5.46-17.42,.02-9.64,11.79-10.94,24.51-10.91,16.24,.04,24.46,3.94,24.44,11.58,0,4.57-1.77,13.12-5.5,16.93-4.59,4.69-11.3,5.06-18.96,5.04Zm0-32.13c-11.97-.04-23.06,1.1-23.08,9.49-.01,4.64,1.91,13.14,5.07,16.43,4.2,4.39,10.91,4.77,18,4.79,7.33,.02,13.74-.31,17.94-4.61,3.31-3.39,5.09-11.44,5.1-15.95,.02-8.35-12.51-10.13-23.03-10.15Z"/><path class="n" d="M117.84,125.9c0,.5-.4,.89-.9,.89-.49,0-.88-.4-.88-.89s.4-.89,.88-.89c.5,0,.89,.4,.89,.89Z"/><path class="g" d="M229.25,127.01c-.71-2.32-1.28-4.65-2.14-5.11-2.43-1.31-13.86-4.37-27.25-4.4-14.35-.03-21.24,5.99-23.02,8.31-1.78,2.3,1.65,12.94,1.65,12.94h0c-.63-2.61-.96-5.21-.95-7.23,.02-8.18,10.63-10.78,23.79-10.75,13.17,.03,23.76,1.6,23.74,10.31,0,.45-.03,.94-.07,1.46l.06,.02s4.88-3.24,4.18-5.56Z"/><path class="g" d="M201.18,153.61c-7.65-.02-14.37-.41-18.93-5.13-3.71-3.85-5.43-12.4-5.42-16.96,.02-7.65,8.26-11.5,24.5-11.47,12.71,.04,24.47,1.39,24.45,11.03-.01,4.77-2,13.71-5.54,17.39-4.61,4.77-11.64,5.15-19.06,5.13Zm.15-32.12c-10.51-.03-23.05,1.69-23.07,10.04-.01,4.51,1.72,12.56,5.02,15.96,4.17,4.31,10.58,4.68,17.91,4.7,7.09,.02,13.8-.32,18.02-4.7,3.17-3.28,5.13-11.77,5.15-16.41,.02-8.38-11.06-9.57-23.03-9.6Z"/><path class="n" d="M225.73,125.82c0,.49,.4,.88,.89,.88,.49,0,.9-.4,.9-.88s-.4-.89-.89-.89c-.49,0-.89,.4-.9,.89Z"/></g><g><path class="f" d="M122.63,130.48s.66,3.78,4.06,7c2.56,2.42,18.19,4.05,19.84,3.31,2.47-1.1,5.67-6.38,5.67-6.38,0,0-5.5-7.57-12.29-7.57s-17.28,3.65-17.28,3.65Z"/><path class="p" d="M139.91,128.32c-4.9,0-11.1,2.25-14.52,3.31-.79,.24-1.01,2.57,.29,4.79-2.79-2.57-4.8-7.65-4.8-7.65,0,0,3.35,1.19,4.43,.84,3.27-1.03,9.5-2.79,14.59-2.79,6.79,0,12.29,7.57,12.29,7.57,0,0-.21,.74-.79,1.21-1.21-1.52-5.62-7.29-11.5-7.29Z"/><path class="p" d="M132.42,133.72c0,3.8,3.08,6.89,6.88,6.89s6.88-3.08,6.88-6.89-3.08-6.89-6.88-6.89-6.88,3.08-6.88,6.89Z"/><path class="f" d="M133.41,133.73c0,2.91,8.18-5.27,5.27-5.27s-5.27,2.36-5.27,5.27Z"/></g><polygon class="i" points="172.23 158.78 166.06 153.89 172.46 138.18 172.23 158.78"/><g><path class="r" d="M172.23,193.65c-12.56,0-17.39-13.29-17.39-13.29,0,0,1.99,.62,3.63,.07,3.32-1.1,7.71-3.82,8.82-4.13,1.67-.47,4.94,1.86,4.94,1.86,0,0,2.86-2.28,4.23-1.86,.92,.29,5.2,2.44,8.78,3.54,1.74,.54,4.38,.52,4.38,.52,0,0-5.7,13.29-17.39,13.29Z"/><path class="f" d="M172.07,186.97c-10.27,0-15.53-5.64-15.53-5.64,0,0,6.94,1.24,15.69,1.24s16.16-1.44,16.16-1.44c0,0-6.48,5.84-16.32,5.84Z"/></g><path class="j" d="M154.89,156.63c0,6.02-7.61,10.89-17,10.89s-17-4.88-17-10.89,7.62-10.89,17-10.89,17,4.87,17,10.89Z"/><g><path class="f" d="M219.09,130.48s-.66,3.78-4.06,7c-2.56,2.42-18.2,4.05-19.84,3.31-2.46-1.1-5.67-6.38-5.67-6.38,0,0,5.5-7.57,12.29-7.57s17.28,3.65,17.28,3.65Z"/><path class="p" d="M201.8,128.32c4.91,0,11.1,2.25,14.52,3.31,.78,.24,1.01,2.57-.3,4.79,2.79-2.57,4.8-7.65,4.8-7.65,0,0-3.35,1.19-4.43,.84-3.27-1.03-9.5-2.79-14.59-2.79-6.79,0-12.29,7.57-12.29,7.57,0,0,.22,.74,.79,1.21,1.21-1.52,5.62-7.29,11.5-7.29Z"/><path class="p" d="M209.3,133.72c0,3.8-3.08,6.89-6.89,6.89s-6.88-3.08-6.88-6.89,3.08-6.89,6.88-6.89,6.89,3.08,6.89,6.89Z"/><path class="f" d="M208.31,133.73c0,2.91-8.19-5.27-5.27-5.27s5.27,2.36,5.27,5.27Z"/></g><path class="j" d="M186.81,156.63c0,6.02,7.62,10.89,17,10.89s17.01-4.88,17.01-10.89-7.61-10.89-17.01-10.89-17,4.87-17,10.89Z"/></g></g></g></g></g></svg>