<?xml version="1.0" encoding="UTF-8"?><svg xmlns="http://www.w3.org/2000/svg" xmlns:xlink="http://www.w3.org/1999/xlink" viewBox="0 0 344.16 344.16"><defs><style>.e{fill:#fff;}.f{fill:#2b7779;}.g{fill:#f49e87;}.h{fill:#389497;}.i{fill:#e94e1b;}.j{fill:#e73a3a;}.k{fill:#b41f1c;}.l{fill:#f9bb8d;}.m{fill:#432827;}.n{clip-path:url(#d);}.o{fill:#45babd;}.p{fill:#432918;}.q{fill:#db9d73;}.r{fill:#583636;}.s{fill:#c0102c;}</style><clipPath id="d"><path class="i" d="M344.16,172.08c0,95.04-77.04,172.08-172.08,172.08S0,267.12,0,172.08,77.04,0,172.08,0s172.08,77.04,172.08,172.08Z"/></clipPath></defs><g id="a"/><g id="b"><g id="c"><g><path class="i" d="M344.16,172.08c0,95.04-77.04,172.08-172.08,172.08S0,267.12,0,172.08,77.04,0,172.08,0s172.08,77.04,172.08,172.08Z"/><g class="n"><g><path class="f" d="M142.74,242.12h54.73v-20.22s-5.79-5.32-24.23-5.32-25.81,3.55-25.81,3.55l-4.69,21.99Z"/><polygon class="l" points="124.65 284.68 218.63 284.68 227.14 238.81 187.42 230.3 187.42 204.18 155.86 204.18 155.86 230.3 116.14 238.81 124.65 284.68"/><path class="q" d="M155.86,209.49s7.09,10.64,16.31,10.64,15.25-10.64,15.25-10.64v-5.31h-31.56v5.31Z"/><g><path class="l" d="M225.29,165.99c-5.38,17.02-30.05,47.76-52.47,47.76-20.18,0-46.65-25.53-52.92-47.76-6.28-22.23-4.04-47.76-4.04-47.76,0-30.27,8.97-62.89,56.96-62.89s56.96,37.83,56.96,67.15c0,0,.89,26.48-4.48,43.5Z"/><path class="l" d="M101.68,152.65c3.03,10,13.47,15.27,15.79,10.04,2.26-5.09,6.88-7.89,5.47-16.38-1.42-8.49-12.35-17.64-17.08-15.08-7.4,4.01-6.66,13.21-4.17,21.42Z"/><path class="l" d="M241.74,151.6c-3.03,10-13.47,15.27-15.78,10.04-2.26-5.08-6.89-7.89-5.47-16.38,1.41-8.48,12.35-17.64,17.08-15.08,7.4,4.01,6.66,13.21,4.16,21.42Z"/><path class="p" d="M218.34,153.93c8.98-4.49,7.97-23.75,19.24-23.75,10.84-38.79-16.82-87.37-35.83-79.48-6.88-13.21-24.61-14.98-43.41-12.63-45.42,5.66-64.19,57.5-54.28,94.39,10.34-6.77,6.19,12.74,20.32,21.48-5.72-12.3,6.9-8.8,.79-28.61,5.94-8.39,53.31-8.28,71.47-42.08,5.38,17.26,11.16,23.65,20.58,36.41,9.41,12.77,4.48,29.08,1.12,34.28Z"/></g><path class="p" d="M205.87,32.11c0,15.2-14.87,32.61-33.22,32.61s-33.22-17.4-33.22-32.61,14.88-22.44,33.22-22.44,33.22,7.24,33.22,22.44Z"/><rect class="e" x="124.65" y="284.68" width="93.98" height="118.69"/><path class="o" d="M197.47,221.91l-21.03,107.7v44.92l53.4,38.78s-1.99-56.27-9.08-80.39c.47-11.34,8.17-45.37,8.17-45.37l2-48.73-21.74-4.66-11.72-12.24Z"/><path class="h" d="M193.92,219.9c2.95,13.48-17.49,109.71-17.49,109.71v44.92l22.09-67.14-6.86-7.1,9.46-8.27,8.05-57.86s-7.46-10.94-15.26-14.25Z"/><path class="o" d="M255.75,279.01c1.69,7.98,9.3,109.75,8.51,146.12-2.18,4.27-18.29,10.18-20.77,6.93-3.46-49.01-14.56-136.16-14.56-144.51,0-11.06-9.07-48.73,2-48.73s19.15,13.24,24.82,40.19Z"/><path class="o" d="M143.88,222.15l21.03,107.69v44.92l-49.44,38.54s2.08-53.05,9.18-77.16c-.48-11.35-12.23-48.36-12.23-48.36l-2-48.73,21.74-4.66,11.71-12.24Z"/><path class="h" d="M147.43,220.14c-2.95,13.48,17.49,109.71,17.49,109.71v44.92l-22.09-67.15,6.85-7.09-9.45-8.28-8.05-57.86s7.46-10.94,15.26-14.25Z"/><path class="o" d="M85.59,279.25c-1.68,7.98-9.3,109.75-8.51,146.11,2.18,4.27,18.3,10.18,20.78,6.93,3.47-49.02,14.56-136.15,14.56-144.51,0-11.07,9.07-48.73-2-48.73s-19.15,13.25-24.83,40.2Z"/><path class="k" d="M235.66,162.95c0,2.35-1.91,4.26-4.26,4.26s-4.26-1.91-4.26-4.26,1.91-4.26,4.26-4.26,4.26,1.91,4.26,4.26Z"/><path class="k" d="M117.29,162.95c0,2.35-1.91,4.26-4.26,4.26s-4.25-1.91-4.25-4.26,1.91-4.26,4.25-4.26,4.26,1.91,4.26,4.26Z"/><g><path class="r" d="M134.4,133.44s-.29-.2-.74-.48c-.24-.19-.54-.55-.8-.87-.2-.34-.35-.7-.48-1.06-.42-1.48-.18-2.89-.18-2.89,0,0,.22,1.44,.95,2.54,.19,.25,.41,.49,.59,.67,.23,.11,.33,.23,.52,.32,.51,.15,.85,.25,.85,.25,.45,.13,.71,.61,.58,1.06-.13,.45-.61,.71-1.06,.58-.08-.02-.16-.07-.24-.11Z"/><path class="e" d="M158.4,136.13c0,3.1-5.11,7.58-11.48,7.58-7.78,0-12.47-4.52-12.47-9.31s6.73-7.99,12.42-6.94c6.26,1.16,11.53,5.26,11.53,8.68Z"/><path class="r" d="M154.85,136.08c0,2.89-1.46,5.44-3.69,6.96-2.81,1.4-8.49,.61-9.75-.21-2.07-1.53-3.4-3.98-3.4-6.75,0-4.65,3.76-8.42,8.41-8.42s8.42,3.77,8.42,8.42Z"/><path class="r" d="M134.58,135.77s-.15-.49-.24-1.39c-.06-.91,.11-2.32,1.06-3.68,.93-1.36,2.52-2.54,4.39-3.26,1.88-.72,4.02-1.06,6.2-.93,1.14,.1,2.08,.37,3.11,.68,1.01,.31,1.95,.69,2.84,1.12,1.8,.83,3.27,2.01,4.37,3.15,1.13,1.13,1.73,2.37,1.98,3.26,.22,.91,.07,1.43,.1,1.42,0,0-.05-.53-.42-1.31-.36-.79-1.2-1.72-2.32-2.66-1.12-.96-2.67-1.75-4.34-2.52-.83-.37-1.74-.69-2.66-.93-.89-.26-1.94-.43-2.83-.56-3.77-.34-7.84,.97-9.71,3.11-1.97,2.18-1.43,4.59-1.55,4.51Z"/><path class="m" d="M152.18,137.55c0,2.96-2.4,5.36-5.36,5.36s-5.37-2.4-5.37-5.36,2.4-5.37,5.37-5.37,5.36,2.4,5.36,5.37Z"/><circle class="e" cx="150.42" cy="135.07" r="2.39"/><circle class="e" cx="148.81" cy="131.4" r=".79"/></g><g><path class="r" d="M212.41,131.91s.34-.1,.85-.25c.2-.09,.29-.2,.52-.32,.19-.18,.41-.42,.59-.67,.73-1.09,.96-2.54,.96-2.54,0,0,.23,1.41-.19,2.89-.13,.36-.28,.72-.48,1.06-.26,.32-.57,.68-.8,.87-.45,.29-.74,.48-.74,.48-.39,.26-.92,.15-1.18-.24-.26-.39-.15-.92,.24-1.18,.07-.05,.16-.08,.24-.11Z"/><path class="e" d="M189.11,136.13c0,3.1,5.11,7.58,11.48,7.58,7.79,0,12.47-4.52,12.47-9.31s-6.73-7.99-12.41-6.94c-6.27,1.16-11.54,5.26-11.54,8.68Z"/><path class="r" d="M192.68,136.08c0,2.89,1.46,5.44,3.69,6.96,2.81,1.4,8.5,.61,9.75-.21,2.05-1.53,3.39-3.98,3.39-6.75,0-4.65-3.76-8.42-8.42-8.42s-8.41,3.77-8.41,8.42Z"/><path class="r" d="M212.94,135.77c-.11,.08,.41-2.32-1.55-4.51-1.87-2.14-5.94-3.44-9.72-3.11-.88,.12-1.93,.3-2.83,.56-.92,.25-1.82,.56-2.66,.93-1.67,.76-3.21,1.55-4.33,2.52-1.12,.94-1.96,1.87-2.32,2.66-.37,.78-.43,1.31-.43,1.31,.03,0-.11-.52,.11-1.42,.24-.89,.85-2.14,1.97-3.26,1.11-1.13,2.58-2.31,4.38-3.15,.89-.43,1.84-.81,2.84-1.12,1.03-.31,1.96-.58,3.11-.68,2.18-.12,4.32,.21,6.2,.94,1.88,.72,3.46,1.9,4.39,3.26,.95,1.36,1.11,2.77,1.06,3.68-.09,.9-.23,1.39-.23,1.39Z"/><path class="m" d="M195.34,137.55c0,2.96,2.41,5.36,5.37,5.36s5.36-2.4,5.36-5.36-2.4-5.37-5.36-5.37-5.37,2.4-5.37,5.37Z"/><path class="e" d="M199.5,135.07c0,1.33-1.08,2.39-2.4,2.39s-2.39-1.07-2.39-2.39,1.07-2.39,2.39-2.39,2.4,1.08,2.4,2.39Z"/><path class="e" d="M197.92,131.4c0,.44,.35,.79,.79,.79s.79-.35,.79-.79-.35-.79-.79-.79-.79,.36-.79,.79Z"/></g><path class="q" d="M176.57,160.66s-1.63,2.76-5.18,2.76-5.9-1.06-6.42-1.64c-.52-.59,3.49-7.69,3.49-7.69,0,0-1.88,4.96-1.03,6.19,.86,1.23,3.16,1.21,4.25,1.21,3.55,0,4.89-.82,4.89-.82Z"/><path class="s" d="M189.01,178.38c0,8.13-7.32,14.72-16.36,14.72s-16.35-6.59-16.35-14.72h32.71Z"/><path class="j" d="M159.87,187.55c2.99,3.38,7.61,5.56,12.78,5.56s9.79-2.18,12.79-5.56c0,0-5.62-1.8-12.79-1.8s-12.78,1.8-12.78,1.8Z"/><path class="e" d="M186.69,182.13c.31-1.19,.48-2.45,.48-3.75h-29.04c0,1.24,.15,2.43,.43,3.57,.16,.66,1.36,1.93,2.58,1.93h23.23c1.33,0,2.16-1.15,2.32-1.75Z"/><path class="p" d="M215.36,118.44s-8.94-4.17-17.91-3.33c-3.51,.33-7.15,.7-8.53,.98-1.37,.28-.83-3.7,.08-3.87,.92-.16,4.91-2.37,8.78-2.11,9.92,.67,17.57,8.32,17.57,8.32Z"/><path class="p" d="M133.18,118.44s8.94-4.17,17.91-3.33c3.5,.33,7.15,.7,8.52,.98,1.38,.28,.84-3.7-.07-3.87-.92-.16-4.91-2.37-8.78-2.11-9.93,.67-17.58,8.32-17.58,8.32Z"/><path class="g" d="M210.77,152.51c0,3.2-5.05,5.79-11.27,5.79s-11.27-2.59-11.27-5.79,5.05-5.79,11.27-5.79,11.27,2.59,11.27,5.79Z"/><path class="g" d="M156.03,152.51c0,3.2-5.05,5.79-11.27,5.79s-11.27-2.59-11.27-5.79,5.05-5.79,11.27-5.79,11.27,2.59,11.27,5.79Z"/></g></g></g></g></g></svg>