<?xml version="1.0" encoding="UTF-8"?><svg xmlns="http://www.w3.org/2000/svg" xmlns:xlink="http://www.w3.org/1999/xlink" viewBox="0 0 344.16 344.16"><defs><style>.e{fill:#fff;}.f{fill:#e94a47;}.g{fill:#017ca8;}.h{fill:#e73a3a;}.i{fill:#f59d16;}.j{fill:#432827;}.k{clip-path:url(#d);}.l{fill:#fedfb3;}.m{fill:#0472a4;}.n{fill:#1f95c5;}.o{fill:#432918;}.p{fill:#db9d73;}.q{fill:#583636;}.r{fill:#fac297;}.s{fill:#61b9d9;}</style><clipPath id="d"><path class="i" d="M0,172.08C0,77.04,77.04,0,172.08,0s172.08,77.04,172.08,172.08-77.04,172.08-172.08,172.08S0,267.12,0,172.08Z"/></clipPath></defs><g id="a"/><g id="b"><g id="c"><g><path class="i" d="M0,172.08C0,77.04,77.04,0,172.08,0s172.08,77.04,172.08,172.08-77.04,172.08-172.08,172.08S0,267.12,0,172.08Z"/><g class="k"><g><path class="o" d="M202.14,33.49c0,15.41-14.74,36.89-32.2,36.89s-31.01-21.49-31.01-36.89,13.56-18.9,31.01-18.9,32.2,3.49,32.2,18.9Z"/><path class="s" d="M202.94,70.39c-1.66-20.74-15.64-25.6-32.03-25.6s-29.33,4.86-30.86,25.6h62.9Z"/><path class="o" d="M106.65,155.77c-7.63,20.33,32.31,63.8,65.22,63.8s67.01-34.43,62.09-62.74c-1.94-11.18-29.19-1.06-62.09-1.06s-61.09-11.03-65.22,0Z"/><path class="m" d="M143.03,248.09h52.08v-19.23s-5.51-5.06-23.06-5.06-24.56,3.37-24.56,3.37l-4.46,20.92Z"/><polygon class="l" points="125.82 288.58 215.24 288.58 223.34 244.94 185.55 236.84 185.55 211.99 155.52 211.99 155.52 236.84 117.73 244.94 125.82 288.58"/><path class="p" d="M155.52,217.05s6.75,10.13,15.53,10.13,14.51-10.13,14.51-10.13v-5.06h-30.04v5.06Z"/><g><path class="l" d="M221.58,175.66c-5.12,16.2-28.59,45.44-49.93,45.44-19.2,0-44.37-24.29-50.34-45.44-5.97-21.15-3.85-45.44-3.85-45.44,0-28.79,8.53-59.84,54.19-59.84s54.19,35.99,54.19,63.88c0,0,.86,25.19-4.26,41.39Z"/><path class="l" d="M103.97,162.96c2.88,9.52,12.81,14.53,15.02,9.55,2.14-4.84,6.54-7.5,5.2-15.58-1.34-8.07-11.74-16.79-16.25-14.35-7.04,3.82-6.34,12.58-3.97,20.38Z"/><path class="l" d="M237.23,161.97c-2.89,9.51-12.82,14.52-15.02,9.54-2.14-4.84-6.55-7.5-5.2-15.58,1.35-8.08,11.75-16.79,16.26-14.34,7.04,3.81,6.33,12.57,3.97,20.38Z"/><path class="o" d="M214.97,164.19c8.53-4.27,7.58-22.6,18.3-22.6,10.32-36.91-10.38-87.88-61.66-87.88-54.51,0-74.79,54.93-65.36,90.03,9.84-6.44,5.89,12.12,19.33,20.44-5.44-11.7,6.55-8.38,.74-27.22,5.65-7.99,14.21-50.34,44.21-34.82,30.66-14.62,34.41,17.28,43.37,29.43,8.96,12.14,4.27,27.66,1.07,32.61Z"/></g><path class="e" d="M125.82,400.56s5.12,7.58,43.59,7.58,45.83-7.58,45.83-7.58v-129.03H125.82v129.03Z"/><path class="n" d="M195.11,228.86l-20.01,102.46v42.74l50.8,36.89s-1.89-53.54-8.63-76.48c.45-10.79,7.77-43.17,7.77-43.17l1.9-46.36-20.68-4.43-11.14-11.65Z"/><path class="s" d="M191.74,226.95c2.81,12.82-16.64,104.37-16.64,104.37v42.74l21.02-63.88-6.52-6.75,9-7.87,7.66-55.05s-7.09-10.41-14.52-13.56Z"/><path class="n" d="M250.56,283.18c1.6,7.59,8.85,104.42,8.09,139.01-2.07,4.06-17.4,9.69-19.77,6.59-3.3-46.63-13.84-129.54-13.84-137.49,0-10.52-8.63-46.36,1.9-46.36s18.22,12.6,23.62,38.24Z"/><path class="n" d="M144.12,229.08l20.01,102.46v42.73l-47.04,36.66s1.98-50.46,8.73-73.41c-.45-10.8-11.64-46.01-11.64-46.01l-1.9-46.36,20.68-4.43,11.14-11.65Z"/><path class="s" d="M147.49,227.17c-2.81,12.82,16.64,104.38,16.64,104.38v42.73l-21.03-63.88,6.53-6.75-9-7.88-7.66-55.05s7.09-10.41,14.51-13.56Z"/><path class="n" d="M88.67,283.41c-1.6,7.59-8.84,104.42-8.1,139.02,2.08,4.06,17.41,9.68,19.78,6.6,3.3-46.63,13.84-129.55,13.84-137.49,0-10.53,8.63-46.36-1.9-46.36s-18.22,12.59-23.62,38.24Z"/><path class="g" d="M231.45,172.76c0,2.24-1.82,4.05-4.06,4.05s-4.05-1.81-4.05-4.05,1.82-4.05,4.05-4.05,4.06,1.82,4.06,4.05Z"/><path class="g" d="M118.83,172.76c0,2.24-1.82,4.05-4.06,4.05s-4.06-1.81-4.06-4.05,1.82-4.05,4.06-4.05,4.06,1.82,4.06,4.05Z"/><g><path class="q" d="M135.15,144.68s-.29-.18-.7-.46c-.23-.18-.52-.52-.77-.83-.18-.33-.34-.67-.45-1.01-.41-1.41-.18-2.75-.18-2.75,0,0,.21,1.37,.9,2.41,.19,.24,.39,.47,.56,.64,.22,.11,.31,.22,.5,.31,.48,.14,.81,.23,.81,.23,.43,.12,.67,.57,.55,1-.12,.43-.56,.68-1,.56-.08-.02-.16-.06-.22-.1Z"/><path class="e" d="M157.02,147.05c0,1.92-3.99,3.82-10.06,3.82-7.4,0-11.76-2.98-11.76-5.28,0-4.56,6.58-6.61,11.98-5.6,5.97,1.1,9.84,3.82,9.84,7.07Z"/><path class="q" d="M152.68,145.74c0,2.09-.97,3.88-2.58,4.97-2.12,.16-5.65,.38-7.45-.21-1.49-1.11-2.44-3.25-2.15-5.23,.43-3.11,2.72-5.29,6.09-5.29s6.09,2.18,6.09,5.76Z"/><path class="q" d="M135.2,146.29s-.03-.44-.07-1.22c.09-.77,.21-2,1.15-3.13,.92-1.11,2.46-1.95,4.16-2.35,1.71-.35,3.55-.4,5.36-.27,1.78,.08,3.62,.58,5.22,1.24,1.61,.63,2.94,1.61,3.93,2.56,1.02,.93,1.62,1.96,1.89,2.71,.29,.77,.16,1.24,.18,1.23,0,0-.07-.46-.47-1.08-.39-.64-1.19-1.37-2.2-2.13-1.03-.76-2.37-1.4-3.85-1.96-1.46-.57-3.12-.81-4.84-1.01-3.35-.36-6.95-.06-8.75,1.66-1.79,1.73-1.6,3.85-1.7,3.77Z"/><path class="j" d="M150.18,146.6c0,1.89-1.54,3.42-3.43,3.42s-3.42-1.53-3.42-3.42,1.53-3.42,3.42-3.42,3.43,1.53,3.43,3.42Z"/><path class="e" d="M147.52,145.02c0,.83,.69,1.52,1.53,1.52s1.52-.69,1.52-1.52-.68-1.53-1.52-1.53-1.53,.68-1.53,1.53Z"/><path class="e" d="M148.53,142.68c0,.28-.22,.5-.5,.5s-.51-.22-.51-.5,.23-.5,.51-.5,.5,.22,.5,.5Z"/></g><path class="p" d="M175.23,170.58s-1.55,2.63-4.93,2.63-5.61-1-6.11-1.56c-.49-.56,3.33-7.31,3.33-7.31,0,0-1.79,4.71-.98,5.88,.82,1.17,3,1.15,4.05,1.15,3.37,0,4.65-.79,4.65-.79Z"/><g><path class="h" d="M155.23,189.31c4.72,.48,6.28,9,16.27,9s11.59-8.29,16.27-9c0,0-7.15,4.24-16.27,4.24s-16.27-4.24-16.27-4.24Z"/><path class="f" d="M155.23,189.31c5.2,1.18,12.3-.67,16.27,.79,4.79-2.03,11.79,.06,16.27-.79,0,0-7.15,4.24-16.27,4.24s-16.27-4.24-16.27-4.24Z"/></g><path class="o" d="M131.85,130.39s8.63-3.94,17.31-3.13c3.38,.32,6.91,.67,8.23,.93,1.33,.27,.81-3.51-.07-3.67-.88-.16-4.64-1.16-8.39-.92-9.58,.63-17.08,6.77-17.08,6.77Z"/><g><path class="q" d="M205.91,143.23s.32-.09,.8-.23c.19-.09,.28-.2,.5-.31,.18-.17,.38-.4,.56-.64,.69-1.04,.9-2.41,.9-2.41,0,0,.23,1.34-.17,2.75-.12,.34-.27,.69-.46,1.01-.25,.3-.54,.65-.77,.83-.42,.27-.7,.46-.7,.46-.38,.25-.88,.14-1.13-.23-.25-.38-.14-.88,.24-1.12,.07-.05,.15-.08,.22-.1Z"/><path class="e" d="M184.72,147.05c0,1.92,3.99,3.82,10.06,3.82,7.4,0,11.76-2.98,11.76-5.28,0-4.56-6.59-6.61-11.98-5.6-5.96,1.1-9.83,3.82-9.83,7.07Z"/><path class="q" d="M189.05,145.74c0,2.09,.97,3.88,2.58,4.97,2.12,.16,5.66,.38,7.45-.21,1.5-1.11,2.44-3.25,2.16-5.23-.44-3.11-2.73-5.29-6.09-5.29s-6.1,2.18-6.1,5.76Z"/><path class="q" d="M206.53,146.29c-.11,.08,.08-2.04-1.71-3.77-1.79-1.71-5.38-2.02-8.75-1.66-1.73,.21-3.37,.44-4.84,1.01-1.47,.56-2.81,1.2-3.84,1.96-1.02,.75-1.82,1.49-2.2,2.13-.42,.62-.47,1.08-.47,1.08,.02,.01-.11-.46,.17-1.23,.28-.75,.87-1.78,1.89-2.71,1-.95,2.32-1.92,3.94-2.56,1.6-.66,3.43-1.15,5.22-1.24,1.81-.14,3.65-.08,5.36,.27,1.69,.41,3.23,1.24,4.16,2.35,.93,1.13,1.06,2.36,1.15,3.13-.05,.78-.07,1.22-.07,1.22Z"/><path class="j" d="M191.55,146.6c0,1.89,1.53,3.42,3.42,3.42s3.42-1.53,3.42-3.42-1.53-3.42-3.42-3.42-3.42,1.53-3.42,3.42Z"/><path class="e" d="M194.2,145.02c0,.83-.68,1.52-1.53,1.52s-1.52-.69-1.52-1.52,.69-1.53,1.52-1.53,1.53,.68,1.53,1.53Z"/><path class="e" d="M193.2,142.68c0,.28,.23,.5,.5,.5s.51-.22,.51-.5-.23-.5-.51-.5-.5,.22-.5,.5Z"/></g><path class="o" d="M209.87,130.39s-8.63-3.94-17.31-3.13c-3.38,.32-6.9,.67-8.23,.93-1.33,.27-.81-3.51,.08-3.67,.88-.16,4.64-1.16,8.38-.92,9.58,.63,17.08,6.77,17.08,6.77Z"/><path class="r" d="M207.43,162.83c0,3.04-4.8,5.51-10.73,5.51s-10.73-2.47-10.73-5.51,4.8-5.51,10.73-5.51,10.73,2.46,10.73,5.51Z"/><path class="r" d="M155.75,162.83c0,3.04-4.8,5.51-10.73,5.51s-10.73-2.47-10.73-5.51,4.8-5.51,10.73-5.51,10.73,2.46,10.73,5.51Z"/></g></g></g></g></g></svg>