<?xml version="1.0" encoding="UTF-8"?><svg xmlns="http://www.w3.org/2000/svg" xmlns:xlink="http://www.w3.org/1999/xlink" viewBox="0 0 344.16 344.16"><defs><style>.e{fill:#fff;}.f{fill:#454f56;}.g{fill:#f6f6f6;}.h{isolation:isolate;}.i{fill:#e5c9a6;}.i,.j{mix-blend-mode:multiply;}.k{fill:#b41f1c;}.l{fill:#f9bb8d;}.m{fill:#432827;}.n{clip-path:url(#d);}.o{fill:#95c11f;}.p{fill:#69160b;}.q{fill:none;}.j{fill:#bb92a5;}.r{fill:#432918;}.s{fill:#e2e1e1;}.t{fill:#acacac;}.u{fill:#352e35;}.v{fill:#583636;}</style><clipPath id="d"><path class="o" d="M0,172.08C0,77.04,77.04,0,172.08,0s172.08,77.04,172.08,172.08-77.04,172.07-172.08,172.07S0,267.12,0,172.08Z"/></clipPath></defs><g class="h"><g id="a"/><g id="b"><g id="c"><g><path class="o" d="M0,172.08C0,77.04,77.04,0,172.08,0s172.08,77.04,172.08,172.08-77.04,172.07-172.08,172.07S0,267.12,0,172.08Z"/><g class="n"><g><rect class="p" x="121.21" y="132.62" width="105.88" height="87.13"/><path class="r" d="M110.97,126.01c0,11.89,28.69,48.65,61.77,48.65s61.56-39.23,61.56-51.11-26.81-11.52-59.89-11.52-63.44,2.09-63.44,13.98Z"/><path class="t" d="M145.07,203.34h52.39l1.78-21.05s-7.72-6.1-25.37-6.1-27.16,7.8-27.16,7.8l-1.63,19.35Z"/><polygon class="l" points="127.76 244.07 217.71 244.07 225.85 200.17 187.84 192.02 187.84 167.02 157.63 167.02 157.63 192.02 114.18 200.17 127.76 244.07"/><path class="i" d="M157.63,172.11s6.79,10.18,15.61,10.18,14.6-10.18,14.6-10.18v-5.09h-30.21v5.09Z"/><path class="l" d="M224.09,130.48c-10.77,30.71-26.63,45.71-50.23,45.71s-38.91-15.34-50.65-45.71c-7.97-20.62-3.87-45.71-3.87-45.71,0-28.96,8.59-60.19,54.52-60.19s54.52,36.21,54.52,64.27c0,0,1.36,25.51-4.29,41.64Z"/><path class="l" d="M105.77,117.7c2.9,9.57,12.89,14.61,15.11,9.61,2.16-4.87,6.59-7.55,5.23-15.68-1.35-8.12-11.82-16.89-16.36-14.43-7.08,3.84-6.37,12.64-3.99,20.5Z"/><path class="l" d="M239.83,116.7c-2.9,9.57-12.89,14.62-15.11,9.61-2.16-4.87-6.59-7.55-5.24-15.68,1.36-8.12,11.82-16.89,16.36-14.43,7.08,3.84,6.37,12.64,3.99,20.5Z"/><path class="r" d="M223.21,112.02s3.96-17.78,14.34-14.66c.36-11.2-.78-9.76-3.25-31.52-2.47-21.76-20.03-60.29-82.86-41.27-15.47-5.7-34.43,7.76-40.47,32.79-3.17,13.18-4.96,30.5-2.91,41.01,9.9-6.48,14.39,13.66,14.39,13.66l3.67-.39s-7.52-9.42,1.64-17.84c-5.09-7.29,5.45-31.94,10.28-34.28,9.79-4.75,7.56,5.03,35.36,11.88,23.43,5.77,31.38,2.38,45.83,1.02,4.1-.38,.32,17.96-1.53,21.38,10.38,6.82,2.77,17.61,2.77,17.61l2.73,.63Z"/><path class="e" d="M127.76,387.54h89.95l-.9-188.34-23.81-8.08s-5.84,9.05-19.6,9.05-18.54-9.05-18.54-9.05l-25.63,7.07-1.48,189.36Z"/><path class="g" d="M264.1,238.64c1.6,7.64,7.61,132.75,6.85,167.56-2.09,4.08-21.65,11.9-24.03,8.79-3.31-46.9-8.5-160.18-8.5-168.18,0-10.59-8.68-46.64,1.91-46.64s18.33,12.67,23.76,38.47Z"/><path class="g" d="M239.4,258.26l.94-58.09-31.67-4.46-9.43-13.42-27.96,22.04v-.99l-24.57-19.35-11.21,11.72-31.67,4.46,.94,58.09s3.64,42.59,3.5,55.49c-.15,12.9-18.56,469.78-18.56,469.78,0,0,43.03,16.74,84.08,16.74s97.21-16.74,97.21-16.74c0,0-33.84-459.15-33.98-472.05-.15-12.9,2.39-53.22,2.39-53.22Z"/><path class="g" d="M80.06,238.64c-1.61,7.64-7.64,132.56-6.88,167.37,2.09,4.09,21.68,12.09,24.05,8.98,3.32-46.9,8.5-160.18,8.5-168.18,0-10.59,8.68-46.64-1.91-46.64s-18.33,12.67-23.76,38.47Z"/><g><path class="e" d="M158.64,102.31c0,2.81-4.61,6.84-10.37,6.84-7.03,0-11.25-4.08-11.25-8.4s6.07-7.22,11.21-6.27c5.65,1.05,10.41,4.75,10.41,7.83Z"/><path class="v" d="M155.43,102.26c0,2.61-1.32,4.92-3.33,6.28-2.54,1.26-7.68,.55-8.81-.19-1.85-1.39-3.06-3.6-3.06-6.1,0-4.2,3.4-7.6,7.6-7.6s7.6,3.4,7.6,7.6Z"/><path class="v" d="M137.14,101.98s-.13-.45-.21-1.26c-.05-.83,.09-2.1,.95-3.33,1.7-2.52,5.67-4.04,9.56-3.78,1.97,.23,3.75,.85,5.38,1.62,1.62,.75,2.95,1.81,3.95,2.84,1.01,1.02,1.56,2.14,1.78,2.95,.2,.82,.07,1.29,.07,1.29,0,0-.02-.48-.35-1.19-.33-.72-1.08-1.55-2.09-2.4-1.01-.87-2.41-1.58-3.91-2.27-1.5-.67-3.28-1.13-4.96-1.35-3.4-.3-7.07,.88-8.77,2.81-1.78,1.97-1.29,4.14-1.39,4.07Z"/><path class="m" d="M153.03,103.59c0,2.68-2.17,4.84-4.84,4.84s-4.84-2.17-4.84-4.84,2.16-4.84,4.84-4.84,4.84,2.17,4.84,4.84Z"/><path class="e" d="M149.27,101.35c0,1.19,.97,2.16,2.16,2.16s2.16-.97,2.16-2.16-.97-2.16-2.16-2.16-2.16,.97-2.16,2.16Z"/><path class="e" d="M150.7,98.03c0,.4-.32,.71-.71,.71s-.71-.32-.71-.71,.32-.71,.71-.71,.71,.32,.71,.71Z"/></g><g><path class="e" d="M186.37,102.31c0,2.81,4.61,6.84,10.37,6.84,7.02,0,11.25-4.08,11.25-8.4s-6.08-7.22-11.21-6.27c-5.65,1.05-10.42,4.75-10.42,7.83Z"/><path class="v" d="M189.59,102.26c0,2.61,1.32,4.92,3.33,6.28,2.54,1.26,7.67,.55,8.81-.19,1.86-1.39,3.06-3.6,3.06-6.1,0-4.2-3.4-7.6-7.6-7.6s-7.6,3.4-7.6,7.6Z"/><path class="v" d="M207.88,101.98c-.11,.07,.38-2.1-1.4-4.07-1.69-1.93-5.37-3.11-8.77-2.81-1.67,.22-3.46,.67-4.95,1.35-1.5,.69-2.9,1.4-3.91,2.27-1.01,.85-1.77,1.69-2.09,2.4-.34,.71-.38,1.18-.38,1.18,.03,0-.1-.47,.1-1.28,.22-.8,.76-1.93,1.78-2.95,.99-1.02,2.33-2.09,3.96-2.84,1.62-.77,3.4-1.39,5.38-1.62,3.89-.25,7.86,1.26,9.56,3.78,.86,1.23,1,2.5,.95,3.33-.08,.81-.21,1.26-.21,1.26Z"/><path class="m" d="M191.99,103.59c0,2.68,2.17,4.84,4.84,4.84s4.84-2.17,4.84-4.84-2.17-4.84-4.84-4.84-4.84,2.17-4.84,4.84Z"/><path class="e" d="M195.74,101.35c0,1.19-.97,2.16-2.16,2.16s-2.16-.97-2.16-2.16,.97-2.16,2.16-2.16,2.16,.97,2.16,2.16Z"/><path class="e" d="M194.32,98.03c0,.4,.32,.71,.71,.71s.71-.32,.71-.71-.31-.71-.71-.71-.71,.32-.71,.71Z"/></g><path class="r" d="M132.53,92.55s4.97-6.63,17.35-7.14c3.53-.14,7.2-.09,8.61,.09,1.41,.19,1.34-5.8,.41-5.9-.93-.08-9.35-.76-13.17,.12-11.05,2.57-13.2,12.82-13.2,12.82Z"/><path class="r" d="M211.01,94.52s-5.11-6.82-17.37-7.82c-3.49-.28-7.13-.37-8.51-.24-1.39,.14-1.49-5.86-.56-5.92,.92-.04,9.22-.39,13.03,.64,11,2.99,13.41,13.33,13.41,13.33Z"/><path class="r" d="M122.45,112.03c.75,3.92,3.35,13.5,0,18.43,3.94,19.63,20.16,45.74,51.41,45.74,23.6,0,41.23-11.64,51.99-42.35-2.46-2.88-3.3-17.72-2.65-21.82,0,0-.67-5-2.73-.63-2.5,5.3-2.24,20.17-12.36,24.32-7.53,3.08-23.52-3.74-36.24-3.74-10.31,0-25.18,6.58-32.79,2.99-9.9-4.67-11.3-20.07-12.97-23.34-2.97-5.77-3.67,.39-3.67,.39Z"/><path class="i" d="M177.46,125.37s-1.56,2.64-4.96,2.64-5.65-1.01-6.14-1.58c-.5-.56,3.34-7.35,3.34-7.35,0,0-1.79,4.74-.98,5.92,.82,1.17,3.02,1.15,4.07,1.15,3.4,0,4.68-.79,4.68-.79Z"/><path class="l" d="M187.14,147.39c.3-1.61,.46-3.31,.46-5.05h-27.8c0,1.66,.15,3.27,.42,4.82,.16,.89,5.04,3.35,6.08,2.59,4.96-3.65,9.91-3.63,14.49,0,1.11,.88,6.2-1.55,6.35-2.36Z"/><path class="s" d="M135.49,195.71s13.12,12.36,37.92,12.36,35.27-12.36,35.27-12.36l-9.43-13.42s-9.43,7.47-27.09,7.47-25.44-5.77-25.44-5.77l-11.21,11.72Z"/><rect class="s" x="166.72" y="203.34" width="9.09" height="85.99"/><g><path class="f" d="M145.67,90.5c-19.39,0-23.87,3.71-23.87,8.5,0,6.72,5.47,21.94,18.65,21.94,26.85,0,29.09-16.79,29.09-21.94s-5.22-8.5-23.87-8.5Zm-4.08,27.12c-10.31,0-14.58-11.9-14.58-17.15,0-3.75,3.5-6.65,18.66-6.65s18.66,2.75,18.66,6.65-1.75,17.15-22.74,17.15Z"/><path class="f" d="M176.64,99c0,5.15,2.24,21.94,29.09,21.94,13.18,0,18.65-15.22,18.65-21.94,0-4.79-4.48-8.5-23.87-8.5s-23.87,3.51-23.87,8.5Zm5.21,1.46c0-3.91,4.08-6.65,18.66-6.65s18.66,2.9,18.66,6.65c0,5.25-4.28,17.15-14.58,17.15-21,0-22.74-13.12-22.74-17.15Z"/><path class="f" d="M169.1,103.21c2.49-2.34,6.24-2.65,8.02,.2,1.78,2.84,2.18-6.55,2.18-6.55h-12.6s-.09,8.7,2.4,6.36Z"/></g><path class="k" d="M104.67,87.49c0-28.56,8.74-76.53,68-76.53,62.31,0,68,47.97,68,76.53h-25.54s-1.07-8.15-8.2-8.15h-66.69c-12.51,0-13.81,8.15-13.81,8.15h-21.75Z"/><path class="k" d="M224.37,197.92c13.65,3.04,24.38,5.42,24.38,5.42l-8.08-115.85-26.05-8.21s4.52,76.52,9.75,118.64Z"/><path class="k" d="M128.28,196.73c-13.75,1.94-24.46,3.44-24.46,3.44l.85-112.68,21.69-5.21s7.14,72.33,1.91,114.44Z"/><g><rect class="q" x="200.9" y="40.44" width="10.65" height="10.65"/><rect class="q" x="200.9" y="53.55" width="10.65" height="10.65"/><rect class="q" x="200.9" y="66.66" width="10.65" height="10.65"/><rect class="q" x="174.68" y="53.55" width="10.65" height="10.65"/><rect class="q" x="214.01" y="40.44" width="10.65" height="10.65"/><rect class="q" x="214.01" y="66.66" width="10.65" height="10.65"/><rect class="q" x="214.01" y="53.55" width="10.65" height="10.65"/><rect class="q" x="187.79" y="53.55" width="10.65" height="10.65"/><rect class="q" x="174.68" y="27.33" width="10.65" height="10.65"/><polygon class="q" points="106.67 119.1 104.43 119.1 104.35 129.76 106.67 129.76 106.67 119.1"/><rect class="q" x="187.79" y="27.33" width="10.65" height="10.65"/><rect class="q" x="174.68" y="40.44" width="10.65" height="10.65"/><rect class="q" x="187.79" y="66.66" width="10.65" height="10.65"/><rect class="q" x="187.79" y="40.44" width="10.65" height="10.65"/><rect class="q" x="200.9" y="27.33" width="10.65" height="10.65"/><polygon class="q" points="106.67 185.87 103.93 185.87 103.84 196.93 106.67 196.93 106.67 185.87"/><rect class="q" x="227.12" y="66.66" width="10.65" height="10.65"/><polygon class="q" points="106.67 172.35 104.03 172.35 103.95 183.41 106.67 183.41 106.67 172.35"/><polygon class="q" points="106.67 132.21 104.33 132.21 104.25 142.87 106.67 142.87 106.67 132.21"/><polygon class="q" points="106.67 158.84 104.13 158.84 104.05 169.9 106.67 169.9 106.67 158.84"/><rect class="q" x="227.12" y="79.77" width="10.65" height="10.66"/><polygon class="q" points="106.67 145.33 104.23 145.33 104.15 156.38 106.67 156.38 106.67 145.33"/><rect class="q" x="227.12" y="132.21" width="10.65" height="10.65"/><rect class="q" x="227.12" y="158.84" width="10.65" height="11.06"/><rect class="q" x="227.12" y="172.35" width="10.65" height="11.06"/><rect class="q" x="227.12" y="145.33" width="10.65" height="11.05"/><rect class="q" x="227.12" y="105.99" width="10.65" height="10.66"/><rect class="q" x="227.12" y="92.89" width="10.65" height="10.65"/><rect class="q" x="227.12" y="119.1" width="10.65" height="10.65"/><rect class="q" x="227.12" y="185.87" width="10.65" height="11.06"/><rect class="q" x="174.68" y="14.22" width="10.65" height="10.64"/><rect class="q" x="109.12" y="79.77" width="10.65" height="10.66"/><rect class="q" x="109.12" y="92.89" width="10.65" height="10.65"/><rect class="q" x="122.23" y="40.44" width="10.65" height="10.65"/><rect class="q" x="109.12" y="66.66" width="10.65" height="10.65"/><rect class="q" x="122.23" y="53.55" width="10.65" height="10.65"/><rect class="q" x="122.23" y="66.66" width="10.65" height="10.65"/><rect class="q" x="109.12" y="119.1" width="10.65" height="10.65"/><rect class="q" x="109.12" y="105.99" width="10.65" height="10.66"/><rect class="q" x="109.12" y="185.87" width="10.65" height="11.06"/><rect class="q" x="109.12" y="172.35" width="10.65" height="11.06"/><path class="q" d="M106.67,199.39h-2.84v.78s1.02-.15,2.84-.4v-.38Z"/><rect class="q" x="109.12" y="158.84" width="10.65" height="11.06"/><rect class="q" x="174.68" y="66.66" width="10.65" height="10.65"/><rect class="q" x="109.12" y="132.21" width="10.65" height="10.65"/><rect class="q" x="109.12" y="145.33" width="10.65" height="11.05"/><rect class="q" x="161.56" y="53.55" width="10.65" height="10.65"/><rect class="q" x="161.56" y="66.66" width="10.65" height="10.65"/><rect class="q" x="148.46" y="27.33" width="10.65" height="10.65"/><rect class="q" x="148.46" y="14.22" width="10.65" height="10.64"/><rect class="q" x="161.56" y="40.44" width="10.65" height="10.65"/><rect class="q" x="161.56" y="14.22" width="10.65" height="10.64"/><rect class="q" x="135.35" y="66.66" width="10.64" height="10.65"/><rect class="q" x="161.56" y="27.33" width="10.65" height="10.65"/><rect class="q" x="148.46" y="40.44" width="10.65" height="10.65"/><rect class="q" x="135.35" y="40.44" width="10.64" height="10.65"/><rect class="q" x="135.35" y="53.55" width="10.64" height="10.65"/><rect class="q" x="135.35" y="27.33" width="10.64" height="10.65"/><rect class="q" x="148.46" y="53.55" width="10.65" height="10.65"/><rect class="q" x="148.46" y="66.66" width="10.65" height="10.65"/><path class="q" d="M224.66,132.21h-6.42c.27,3.5,.54,7.06,.83,10.65h5.59v-10.65Z"/><polygon class="q" points="240.23 196.93 248.3 196.93 247.53 185.87 240.23 185.87 240.23 196.93"/><path class="q" d="M240.23,201.45c5.24,1.16,8.52,1.89,8.52,1.89l-.28-3.95h-8.24v2.06Z"/><path class="q" d="M224.66,185.87h-1.67c.41,3.87,.83,7.58,1.26,11.06h.41v-11.06Z"/><path class="q" d="M230.96,199.39c2.45,.54,4.75,1.06,6.81,1.51v-1.51h-6.81Z"/><path class="q" d="M224.66,145.33h-5.4c.29,3.67,.61,7.37,.92,11.05h4.47v-11.05Z"/><path class="q" d="M224.66,172.35h-3.03c.36,3.78,.73,7.48,1.1,11.06h1.93v-11.06Z"/><path class="q" d="M224.66,158.84h-4.26c.32,3.73,.65,7.42,1,11.06h3.26v-11.06Z"/><polygon class="q" points="240.23 156.38 245.47 156.38 244.7 145.33 240.23 145.33 240.23 156.38"/><polygon class="q" points="240.23 129.76 243.61 129.76 242.87 119.1 240.23 119.1 240.23 129.76"/><polygon class="q" points="240.23 116.65 242.7 116.65 241.96 105.99 240.23 105.99 240.23 116.65"/><polygon class="q" points="240.23 103.54 241.79 103.54 241.04 92.89 240.23 92.89 240.23 103.54"/><polygon class="q" points="240.23 183.41 247.36 183.41 246.59 172.35 240.23 172.35 240.23 183.41"/><polygon class="q" points="240.23 169.9 246.41 169.9 245.64 158.84 240.23 158.84 240.23 169.9"/><path class="q" d="M224.66,119.1h-7.4c.25,3.44,.51,7.01,.79,10.65h6.61v-10.65Z"/><polygon class="q" points="240.23 142.87 244.53 142.87 243.79 132.21 240.23 132.21 240.23 142.87"/><path class="q" d="M209.52,79.77c.78,.27,1.45,.65,2.03,1.11v-1.11h-2.03Z"/><path class="q" d="M122.23,156.38h7.95c-.02-3.69-.06-7.39-.14-11.05h-7.81v11.05Z"/><path class="q" d="M122.23,129.76h7.32c-.15-3.66-.33-7.22-.51-10.65h-6.82v10.65Z"/><path class="q" d="M122.23,169.9h7.82c.09-3.65,.13-7.34,.13-11.06h-7.96v11.06Z"/><path class="q" d="M122.23,142.87h7.76c-.09-3.6-.2-7.16-.34-10.65h-7.42v10.65Z"/><path class="q" d="M109.12,199.43c.09-.02,.17-.03,.26-.04h-.26v.04Z"/><path class="q" d="M122.23,183.41h7.25c.23-3.58,.39-7.28,.5-11.06h-7.75v11.06Z"/><path class="q" d="M122.23,196.93h4.62c.47-.07,.94-.13,1.42-.2,.43-3.44,.77-7.07,1.04-10.86h-7.09v11.06Z"/><path class="q" d="M224.66,92.89h-9.19c.2,3.13,.44,6.72,.7,10.65h8.48v-10.65Z"/><path class="q" d="M224.66,79.77h-10.65v4.23c.86,1.76,1.11,3.36,1.12,3.47,.06,.91,.12,1.91,.19,2.96h9.35v-10.66Z"/><path class="q" d="M122.23,116.65h6.68c-.21-3.77-.43-7.34-.65-10.66h-6.02v10.66Z"/><path class="q" d="M224.66,105.99h-8.32c.23,3.35,.48,6.92,.74,10.66h7.57v-10.66Z"/><path class="q" d="M240.23,90.43h.65l-.2-2.94c0-2.44-.05-5.04-.16-7.72h-.28v10.66Z"/><path class="q" d="M122.23,103.54h5.85c-.28-4.03-.55-7.62-.8-10.65h-5.06v10.65Z"/><path class="q" d="M122.23,79.77v10.66h4.85c-.12-1.53-.24-2.89-.34-4.01,.58-1.51,2.15-4.24,6.14-5.83v-.81h-10.65Z"/><path class="q" d="M135.35,79.84c.11-.02,.22-.05,.33-.07h-.33v.07Z"/><path class="q" d="M119.78,64.2v-10.65h-10.19c-.16,.49-.31,.98-.46,1.47v9.18h10.65Z"/><path class="q" d="M185.33,11.76v-.04c-3.35-.41-6.89-.65-10.65-.71v.75h10.65Z"/><path class="q" d="M172.22,11.76v-.79c-3.75,.01-7.3,.22-10.65,.61v.18h10.65Z"/><path class="q" d="M106.67,66.66h-.3c-.63,3.63-1.04,7.21-1.3,10.65h1.6v-10.65Z"/><path class="q" d="M132.89,37.99v-10.65h-7.43c-1.14,1.08-2.2,2.21-3.22,3.36v7.29h10.65Z"/><polygon class="q" points="106.67 92.89 104.62 92.89 104.55 103.54 106.67 103.54 106.67 92.89"/><path class="q" d="M132.89,21.42c-1.64,1.09-3.2,2.24-4.66,3.45h4.66v-3.45Z"/><path class="q" d="M119.78,33.7c-1.06,1.39-2.06,2.82-2.98,4.28h2.98v-4.28Z"/><path class="q" d="M145.99,24.87V15.03c-3.89,1.34-7.44,2.97-10.64,4.86v4.97h10.64Z"/><path class="q" d="M187.79,24.87h10.65V14.38c-.17-.05-.34-.11-.5-.16h-10.15v10.64Z"/><path class="q" d="M119.78,40.44h-4.45c-1.95,3.43-3.57,7.01-4.9,10.65h9.34v-10.65Z"/><path class="q" d="M106.67,79.77h-1.77c-.16,2.68-.22,5.28-.22,7.72l-.02,2.94h2.02v-10.66Z"/><path class="q" d="M229.7,37.99c-.8-1.32-1.66-2.6-2.58-3.85v3.85h2.58Z"/><path class="q" d="M227.12,51.09h8.58c-1.22-3.65-2.74-7.22-4.6-10.65h-3.98v10.65Z"/><path class="q" d="M227.12,64.2h10.65v-5.72c-.38-1.65-.81-3.3-1.3-4.94h-9.36v10.65Z"/><path class="q" d="M214.01,37.99h10.65v-6.98c-1.08-1.27-2.21-2.5-3.44-3.67h-7.21v10.65Z"/><path class="q" d="M240.38,77.32c-.04-.74-.09-1.49-.15-2.25v2.25h.15Z"/><path class="q" d="M218.47,24.87c-1.4-1.15-2.89-2.26-4.46-3.3v3.3h4.46Z"/><path class="q" d="M211.55,24.87v-4.83c-3.19-1.87-6.73-3.51-10.65-4.85v9.68h10.65Z"/><polygon class="q" points="106.67 105.99 104.53 105.99 104.45 116.65 106.67 116.65 106.67 105.99"/><path class="j" d="M106.67,199.77c.7-.1,1.53-.22,2.46-.34v-.04h.26c4.16-.59,10.36-1.46,17.47-2.46h-4.62v-11.06h7.09c.06-.81,.11-1.63,.16-2.45h-7.25v-11.06h7.75c.03-.81,.05-1.63,.07-2.45h-7.82v-11.06h7.96c0-.81,0-1.64,0-2.46h-7.95v-11.05h7.81c-.02-.82-.03-1.64-.06-2.46h-7.76v-10.65h7.42c-.03-.82-.07-1.64-.1-2.46h-7.32v-10.65h6.82c-.04-.83-.09-1.64-.14-2.45h-6.68v-10.66h6.02c-.06-.84-.11-1.65-.17-2.45h-5.85v-10.65h5.06c-.07-.87-.13-1.69-.2-2.46h-4.85v-10.66h10.65v.81c.74-.29,1.55-.55,2.46-.74v-.07h.33c1.33-.27,2.83-.43,4.56-.43h66.69c.97,0,1.82,.16,2.59,.43h2.03v1.11c1.13,.88,1.92,2.03,2.46,3.12v-4.23h10.65v10.66h-9.35c.05,.79,.11,1.6,.16,2.46h9.19v10.65h-8.48c.06,.81,.11,1.62,.17,2.45h8.32v10.66h-7.57c.06,.81,.12,1.63,.18,2.45h7.4v10.65h-6.61c.06,.82,.12,1.64,.19,2.46h6.42v10.65h-5.59c.07,.82,.13,1.64,.2,2.46h5.4v11.05h-4.47c.07,.83,.14,1.64,.21,2.46h4.26v11.06h-3.26c.07,.82,.15,1.64,.23,2.45h3.03v11.06h-1.93c.09,.83,.18,1.64,.26,2.45h1.67v11.06h-.41c.04,.33,.09,.67,.12,.99,2.29,.51,4.5,1,6.59,1.47h6.81v1.51c.86,.19,1.68,.37,2.45,.55v-2.06h8.24l-.17-2.46h-8.08v-11.06h7.3l-.17-2.45h-7.13v-11.06h6.36l-.18-2.45h-6.19v-11.06h5.42l-.17-2.46h-5.24v-11.05h4.48l-.17-2.46h-4.3v-10.65h3.56l-.17-2.46h-3.39v-10.65h2.64l-.17-2.45h-2.47v-10.66h1.73l-.17-2.45h-1.56v-10.65h.82l-.17-2.46h-.65v-10.66h.28c-.04-.81-.08-1.63-.13-2.45h-.15v-2.25c-.4-5.35-1.15-10.96-2.45-16.57v5.72h-10.65v-10.65h9.36c-.25-.82-.5-1.64-.78-2.46h-8.58v-10.65h3.98c-.45-.83-.91-1.64-1.4-2.45h-2.58v-3.85c-.78-1.07-1.6-2.11-2.46-3.13v6.98h-10.65v-10.65h7.21c-.88-.85-1.79-1.67-2.75-2.46h-4.46v-3.3c-.79-.53-1.62-1.04-2.46-1.53v4.83h-10.65V15.19c-.81-.28-1.62-.55-2.45-.81v10.49h-10.65V14.22h10.15c-3.85-1.12-8.06-1.95-12.61-2.5v.04h-10.65v-.75c-.67-.01-1.32-.05-2.01-.05-.16,0-.29,0-.45,.02v.79h-10.65v-.18c-5.74,.65-10.9,1.84-15.57,3.45v9.84h-10.64v-4.97c-.84,.49-1.67,1-2.46,1.53v3.45h-4.66c-.96,.8-1.88,1.62-2.77,2.46h7.43v10.65h-10.65v-7.29c-.86,.98-1.67,1.98-2.45,3.01v4.28h-2.98c-.51,.81-.99,1.63-1.46,2.45h4.45v10.65h-9.34c-.3,.81-.58,1.64-.85,2.46h10.19v10.65h-10.65v-9.18c-1.19,3.87-2.1,7.79-2.76,11.64h.3v10.65h-1.6c-.07,.83-.12,1.64-.17,2.45h1.77v10.66h-2.02l-.02,2.46h2.04v10.65h-2.12l-.02,2.45h2.14v10.66h-2.21l-.02,2.45h2.24v10.65h-2.32l-.02,2.46h2.34v10.65h-2.41l-.02,2.46h2.43v11.05h-2.52l-.02,2.46h2.54v11.06h-2.62l-.02,2.45h2.64v11.06h-2.72l-.02,2.45h2.74v11.06h-2.82l-.02,2.46h2.84v.38ZM227.12,66.66h10.65v10.65h-10.65v-10.65Zm0,13.11h10.65v10.66h-10.65v-10.66Zm0,13.12h10.65v10.65h-10.65v-10.65Zm0,13.1h10.65v10.66h-10.65v-10.66Zm0,13.11h10.65v10.65h-10.65v-10.65Zm0,13.11h10.65v10.65h-10.65v-10.65Zm0,13.11h10.65v11.05h-10.65v-11.05Zm0,13.51h10.65v11.06h-10.65v-11.06Zm0,13.51h10.65v11.06h-10.65v-11.06Zm0,13.52h10.65v11.06h-10.65v-11.06Zm-13.11-145.43h10.65v10.65h-10.65v-10.65Zm0,13.11h10.65v10.65h-10.65v-10.65Zm0,13.11h10.65v10.65h-10.65v-10.65Zm-13.11-39.33h10.65v10.65h-10.65v-10.65Zm0,13.11h10.65v10.65h-10.65v-10.65Zm0,13.11h10.65v10.65h-10.65v-10.65Zm0,13.11h10.65v10.65h-10.65v-10.65Zm-13.11-39.33h10.65v10.65h-10.65v-10.65Zm0,13.11h10.65v10.65h-10.65v-10.65Zm0,13.11h10.65v10.65h-10.65v-10.65Zm0,13.11h10.65v10.65h-10.65v-10.65Zm-13.11-52.44h10.65v10.64h-10.65V14.22Zm0,13.11h10.65v10.65h-10.65v-10.65Zm0,13.11h10.65v10.65h-10.65v-10.65Zm0,13.11h10.65v10.65h-10.65v-10.65Zm0,13.11h10.65v10.65h-10.65v-10.65Zm-13.11-52.44h10.65v10.64h-10.65V14.22Zm0,13.11h10.65v10.65h-10.65v-10.65Zm0,13.11h10.65v10.65h-10.65v-10.65Zm0,13.11h10.65v10.65h-10.65v-10.65Zm0,13.11h10.65v10.65h-10.65v-10.65Zm-13.11-52.44h10.65v10.64h-10.65V14.22Zm0,13.11h10.65v10.65h-10.65v-10.65Zm0,13.11h10.65v10.65h-10.65v-10.65Zm0,13.11h10.65v10.65h-10.65v-10.65Zm0,13.11h10.65v10.65h-10.65v-10.65Zm-13.11-39.33h10.64v10.65h-10.64v-10.65Zm0,13.11h10.64v10.65h-10.64v-10.65Zm0,13.11h10.64v10.65h-10.64v-10.65Zm0,13.11h10.64v10.65h-10.64v-10.65Zm-13.12-26.22h10.65v10.65h-10.65v-10.65Zm0,13.11h10.65v10.65h-10.65v-10.65Zm0,13.11h10.65v10.65h-10.65v-10.65Zm-13.11,0h10.65v10.65h-10.65v-10.65Zm0,13.11h10.65v10.66h-10.65v-10.66Zm0,13.12h10.65v10.65h-10.65v-10.65Zm0,13.1h10.65v10.66h-10.65v-10.66Zm0,13.11h10.65v10.65h-10.65v-10.65Zm0,13.11h10.65v10.65h-10.65v-10.65Zm0,13.11h10.65v11.05h-10.65v-11.05Zm0,13.51h10.65v11.06h-10.65v-11.06Zm0,13.51h10.65v11.06h-10.65v-11.06Zm0,13.52h10.65v11.06h-10.65v-11.06Z"/></g><path class="u" d="M238.83,70.26H105.81c-4.46,0-1.04-5.26,.64-10.52-1.81-4.64,1.6-10.51,4.69-10.51h123.91c3.02,0,5.37,6.78,3.02,10.51,.92,5.26,3.69,10.52,.76,10.52Z"/></g></g></g></g></g></g></svg>