<?xml version="1.0" encoding="UTF-8"?><svg xmlns="http://www.w3.org/2000/svg" xmlns:xlink="http://www.w3.org/1999/xlink" viewBox="0 0 344.16 344.16"><defs><style>.e{fill:#fff;}.f{fill:#d43f18;}.g{fill:#403247;}.h{fill:#db3e19;}.i{fill:#f49e87;}.j{fill:#e94e1b;}.k{fill:#e73a3a;}.l{fill:#f9bb8d;}.m{fill:#432827;}.n{fill:#604c6c;}.o{clip-path:url(#d);}.p{fill:#95c11f;}.q{fill:#503949;}.r{fill:#db9d73;}.s{fill:#583636;}.t{fill:#c0102c;}</style><clipPath id="d"><path class="p" d="M0,172.08C0,77.04,77.04,0,172.08,0s172.07,77.04,172.07,172.08-77.04,172.08-172.07,172.08S0,267.12,0,172.08Z"/></clipPath></defs><g id="a"/><g id="b"><g id="c"><g><path class="p" d="M0,172.08C0,77.04,77.04,0,172.08,0s172.07,77.04,172.07,172.08-77.04,172.08-172.07,172.08S0,267.12,0,172.08Z"/><g class="o"><g><path class="f" d="M140.17,208.85c11.2,21.2,47.86,29.5,72.33-6.37,24.46-35.87,24.05-99.49,24.05-99.49l-111.92-5.85s-12.47,58.7,15.55,111.71Z"/><path class="g" d="M147.76,202.48h52.08l-1.13-20.92s-4.94-4.65-22.49-4.65-24.01,4.65-24.01,4.65l-4.46,20.92Z"/><polygon class="l" points="130.55 242.97 219.97 242.97 228.07 199.32 190.28 191.23 190.28 166.38 160.25 166.38 160.25 191.23 122.45 199.32 130.55 242.97"/><path class="r" d="M160.25,171.44s6.75,10.12,15.52,10.12,14.51-10.12,14.51-10.12v-5.06h-30.03v5.06Z"/><path class="l" d="M226.31,130.05c-5.12,16.2-28.59,45.44-49.92,45.44-19.2,0-44.38-24.3-50.35-45.44-5.97-21.14-3.84-45.44-3.84-45.44,0-28.8,8.53-59.84,54.19-59.84s54.19,35.99,54.19,63.88c0,0,.85,25.2-4.27,41.39Z"/><path class="l" d="M108.69,117.35c2.89,9.52,12.82,14.53,15.02,9.55,2.15-4.84,6.55-7.5,5.2-15.58-1.35-8.07-11.75-16.79-16.26-14.35-7.04,3.82-6.33,12.58-3.97,20.38Z"/><path class="l" d="M241.96,116.35c-2.88,9.52-12.82,14.52-15.02,9.55-2.15-4.84-6.55-7.51-5.2-15.58,1.35-8.07,11.75-16.79,16.26-14.35,7.04,3.82,6.34,12.57,3.97,20.38Z"/><path class="j" d="M219.7,118.58c8.53-4.27,7.58-22.6,18.3-22.6,10.32-36.9-16-83.13-34.09-75.62-6.55-12.56-23.41-14.25-41.3-12.02-43.21,5.39-58.85,36.74-58.85,88.22,0,47.89,21.77,101.18,21.77,101.18l12.18-2.61c2.01-.43-19.6-57.35-2.08-103.88,8.87-23.55,46.14-7.75,63.42-39.92,5.12,16.42,10.62,22.49,19.58,34.64,8.96,12.15,4.27,27.67,1.07,32.62Z"/><path class="n" d="M255.29,237.58c1.6,7.59,8.85,104.41,8.1,139.01-2.07,4.06-17.41,9.68-19.77,6.59-3.3-46.63-13.84-129.54-13.84-137.48,0-10.53-8.63-46.37,1.9-46.37s18.21,12.6,23.62,38.25Z"/><path class="n" d="M227.41,246.07l1.9-46.37-20.68-4.43-9.91-13.71s-.76,26.39-22.38,26.39-24.11-26.39-24.11-26.39l-14.52,13.56-20.68,4.44,1.9,46.36s11.19,35.21,11.64,46.01c-6.75,22.94-14.13,73.41-14.13,73.41,0,0,24.57,11.65,57.99,11.65s59.26-11.27,59.26-11.27c0,0-7.29-53.54-14.04-76.48,.45-10.8,7.78-43.16,7.78-43.16Z"/><path class="n" d="M93.4,237.8c-1.6,7.59-8.85,104.42-8.1,139.01,2.07,4.06,17.41,9.69,19.76,6.59,3.31-46.63,13.85-129.54,13.85-137.48,0-10.53,8.63-46.36-1.9-46.36s-18.22,12.6-23.62,38.24Z"/><g><path class="s" d="M139.83,99.08s-.28-.18-.7-.46c-.22-.18-.52-.52-.76-.83-.19-.33-.34-.67-.46-1.01-.4-1.41-.18-2.75-.18-2.75,0,0,.21,1.37,.91,2.41,.18,.25,.38,.47,.56,.64,.21,.11,.31,.22,.49,.31,.49,.14,.81,.23,.81,.23,.43,.12,.68,.57,.56,1.01-.13,.43-.57,.67-1.01,.55-.08-.02-.16-.06-.22-.1Z"/><path class="e" d="M162.67,101.63c0,2.95-4.87,7.2-10.92,7.2-7.41,0-11.86-4.3-11.86-8.85s6.41-7.61,11.81-6.61c5.96,1.11,10.97,5.01,10.97,8.26Z"/><path class="s" d="M159.28,101.59c0,2.75-1.39,5.18-3.5,6.62-2.68,1.33-8.09,.58-9.28-.2-1.96-1.46-3.23-3.8-3.23-6.43,0-4.42,3.58-8,8.01-8s8.01,3.58,8.01,8Z"/><path class="s" d="M140,101.29s-.14-.47-.23-1.32c-.05-.87,.11-2.21,1.01-3.51,1.8-2.66,5.98-4.25,10.08-3.99,2.08,.25,3.95,.9,5.66,1.72,1.72,.79,3.12,1.91,4.17,2.99,1.07,1.07,1.65,2.26,1.87,3.1,.21,.86,.07,1.36,.1,1.35,0,0-.05-.5-.4-1.25-.34-.75-1.14-1.64-2.21-2.53-1.06-.92-2.54-1.67-4.12-2.39-.8-.35-1.66-.65-2.54-.89-.84-.25-1.85-.41-2.68-.53-3.59-.31-7.46,.93-9.25,2.96-1.87,2.07-1.36,4.36-1.47,4.29Z"/><path class="m" d="M156.74,102.98c0,2.83-2.28,5.11-5.1,5.11s-5.11-2.28-5.11-5.11,2.29-5.1,5.11-5.1,5.1,2.28,5.1,5.1Z"/><path class="e" d="M152.79,100.63c0,1.26,1.02,2.27,2.27,2.27s2.28-1.02,2.28-2.27-1.02-2.28-2.28-2.28-2.27,1.02-2.27,2.28Z"/><path class="e" d="M154.3,97.13c0,.42-.34,.76-.75,.76s-.75-.34-.75-.76,.34-.75,.75-.75,.75,.34,.75,.75Z"/></g><g><path class="s" d="M214.06,97.62s.32-.09,.81-.23c.19-.09,.28-.2,.5-.31,.18-.17,.38-.4,.56-.64,.69-1.04,.9-2.41,.9-2.41,0,0,.22,1.34-.18,2.75-.11,.34-.27,.69-.45,1.01-.24,.3-.54,.65-.76,.83-.42,.27-.7,.46-.7,.46-.37,.25-.87,.14-1.13-.23-.25-.38-.14-.88,.23-1.12,.07-.05,.15-.08,.22-.11Z"/><path class="e" d="M191.89,101.63c0,2.95,4.86,7.2,10.93,7.2,7.4,0,11.86-4.3,11.86-8.85s-6.41-7.61-11.81-6.61c-5.96,1.11-10.98,5.01-10.98,8.26Z"/><path class="s" d="M195.27,101.59c0,2.75,1.39,5.18,3.5,6.62,2.69,1.33,8.09,.58,9.28-.2,1.96-1.46,3.23-3.8,3.23-6.43,0-4.42-3.58-8-8.01-8s-8.01,3.58-8.01,8Z"/><path class="s" d="M214.55,101.29c-.11,.07,.4-2.21-1.47-4.29-1.78-2.03-5.65-3.27-9.24-2.96-.84,.12-1.84,.29-2.69,.53-.87,.24-1.73,.54-2.53,.89-1.58,.73-3.06,1.48-4.12,2.39-1.06,.9-1.87,1.78-2.2,2.53-.35,.74-.41,1.25-.41,1.25,.03,0-.11-.49,.1-1.35,.22-.84,.8-2.03,1.87-3.1,1.05-1.08,2.45-2.2,4.16-2.99,1.71-.82,3.58-1.47,5.66-1.72,4.1-.26,8.28,1.33,10.08,3.99,.9,1.29,1.06,2.63,1.01,3.51-.08,.85-.23,1.32-.23,1.32Z"/><path class="m" d="M197.81,102.98c0,2.83,2.29,5.11,5.11,5.11s5.1-2.28,5.1-5.11-2.28-5.1-5.1-5.1-5.11,2.28-5.11,5.1Z"/><path class="e" d="M201.77,100.63c0,1.26-1.02,2.27-2.28,2.27s-2.28-1.02-2.28-2.27,1.02-2.28,2.28-2.28,2.28,1.02,2.28,2.28Z"/><path class="e" d="M200.27,97.13c0,.42,.34,.76,.75,.76s.75-.34,.75-.76-.34-.75-.75-.75-.75,.34-.75,.75Z"/></g><path class="r" d="M179.96,124.97s-1.55,2.63-4.93,2.63-5.62-1.01-6.12-1.56c-.49-.56,3.32-7.31,3.32-7.31,0,0-1.78,4.72-.97,5.88,.8,1.17,2.99,1.15,4.03,1.15,3.38,0,4.66-.79,4.66-.79Z"/><path class="t" d="M191.78,141.84c0,7.73-6.96,14-15.55,14s-15.56-6.27-15.56-14h31.11Z"/><path class="k" d="M164.07,150.55c2.85,3.22,7.23,5.29,12.16,5.29s9.32-2.07,12.17-5.29c0,0-5.35-1.71-12.17-1.71s-12.16,1.71-12.16,1.71Z"/><path class="e" d="M189.59,145.4c.29-1.14,.45-2.33,.45-3.56h-27.63c0,1.17,.14,2.31,.42,3.4,.16,.63,1.29,1.83,2.45,1.83h22.1c1.26,0,2.05-1.1,2.21-1.67Z"/><path class="h" d="M216.86,84.81s-8.5-3.97-17.04-3.16c-3.33,.31-6.8,.66-8.11,.92-1.31,.27-.79-3.53,.07-3.68,.88-.15,4.68-2.25,8.36-2,9.44,.64,16.72,7.92,16.72,7.92Z"/><path class="h" d="M138.67,84.81s8.51-3.97,17.04-3.16c3.33,.31,6.8,.66,8.11,.92,1.3,.27,.8-3.53-.07-3.68-.87-.15-4.67-2.25-8.36-2-9.43,.64-16.72,7.92-16.72,7.92Z"/><path class="i" d="M212.49,117.22c0,3.05-4.81,5.51-10.73,5.51s-10.73-2.47-10.73-5.51,4.8-5.51,10.73-5.51,10.73,2.47,10.73,5.51Z"/><path class="i" d="M160.4,117.22c0,3.05-4.8,5.51-10.73,5.51s-10.73-2.47-10.73-5.51,4.8-5.51,10.73-5.51,10.73,2.47,10.73,5.51Z"/><g><path class="q" d="M149.25,86.5c-19.28,0-23.73,3.69-23.73,8.46,0,6.68,5.43,21.81,18.54,21.81,26.69,0,28.91-16.68,28.91-21.81s-5.19-8.46-23.72-8.46Zm-4.06,26.96c-10.25,0-14.49-11.83-14.49-17.06,0-3.71,3.47-6.61,18.55-6.61s18.54,2.73,18.54,6.61-1.74,17.06-22.6,17.06Z"/><path class="q" d="M180.03,94.96c0,5.12,2.23,21.81,28.92,21.81,13.1,0,18.53-15.13,18.53-21.81,0-4.76-4.44-8.46-23.72-8.46s-23.72,3.49-23.72,8.46Zm5.17,1.45c0-3.88,4.06-6.61,18.55-6.61s18.55,2.89,18.55,6.61c0,5.22-4.25,17.06-14.49,17.06-20.86,0-22.61-13.05-22.61-17.06Z"/><path class="q" d="M172.53,99.14c2.48-2.33,6.21-2.63,7.97,.2,1.76,2.83,2.17-6.52,2.17-6.52h-12.53s-.08,8.65,2.38,6.32Z"/></g></g></g></g></g></g></svg>