<?xml version="1.0" encoding="UTF-8"?><svg xmlns="http://www.w3.org/2000/svg" xmlns:xlink="http://www.w3.org/1999/xlink" viewBox="0 0 1024 1024"><defs><style>.e{fill:#fff;}.f{fill:#013c6f;font-family:SonorousRegular, Sonorous;font-size:120px;}.g{fill:url(#b);}</style><linearGradient id="b" x1="512" y1="270.5" x2="512" y2="659.59" gradientTransform="matrix(1, 0, 0, 1, 0, 0)" gradientUnits="userSpaceOnUse"><stop offset="0" stop-color="#f3751d"/><stop offset="1" stop-color="#e71a50"/></linearGradient></defs><g id="a"><path class="g" d="M668,419c0,58.14-35.1,108.48-86.24,132.85-.38,.18-.77,.36-1.15,.54l-68.61,107.2-68.6-107.19c-51.77-24.16-87.4-74.82-87.4-133.4,0-82.01,69.84-148.5,156-148.5s156,66.49,156,148.5Z"/></g><g id="c"><path class="e" d="M512,334.5c-55.5,0-100.5,35.37-100.5,79,0,21.18,10.6,40.39,27.85,54.58l-6.62,46.28,58.65-23.52c6.65,1.09,13.55,1.66,20.62,1.66,55.5,0,100.5-35.37,100.5-79s-45-79-100.5-79Zm-46.5,62.67c8.28,0,15,6.71,15,15s-6.72,15-15,15-15-6.72-15-15,6.72-15,15-15Zm46,30c-8.28,0-15-6.72-15-15s6.72-15,15-15,15,6.71,15,15-6.72,15-15,15Zm46,0c-8.28,0-15-6.72-15-15s6.72-15,15-15,15,6.71,15,15-6.72,15-15,15Z"/></g><g id="d"><text class="f" transform="translate(144.87 775.69)"><tspan x="0" y="0">Radiuschat</tspan></text></g></svg>