<?xml version="1.0" encoding="UTF-8"?><svg xmlns="http://www.w3.org/2000/svg" xmlns:xlink="http://www.w3.org/1999/xlink" viewBox="0 0 1024 1024"><defs><style>.d{fill:#fff;}.e{fill:url(#b);}</style><linearGradient id="b" x1="512" y1="270.5" x2="512" y2="659.58997" gradientTransform="matrix(1, 0, 0, 1, 0, 0)" gradientUnits="userSpaceOnUse"><stop offset="0" stop-color="#f3751d"/><stop offset="1" stop-color="#e71a50"/></linearGradient></defs><g id="a"><path class="e" d="M668,419c0,58.14001-35.09998,108.47998-86.23999,132.84998-.38,.17999-.76996,.35999-1.14996,.54004l-68.61005,107.19995-68.59998-107.19c-51.77002-24.15997-87.40002-74.82001-87.40002-133.39996,0-82.01001,69.84003-148.5,156-148.5s156,66.48999,156,148.5Z"/></g><g id="c"><path class="d" d="M512,334.5c-55.5,0-100.5,35.37-100.5,79,0,21.17999,10.59998,40.39001,27.84998,54.57996l-6.62,46.28003,58.65002-23.52002c6.65002,1.09003,13.54999,1.66003,20.62,1.66003,55.5,0,100.5-35.37,100.5-79s-45-79-100.5-79Zm-46.5,62.66998c8.28003,0,15,6.71002,15,15,0,8.28003-6.71997,15-15,15s-15-6.71997-15-15c0-8.28998,6.71997-15,15-15Zm46,30c-8.28003,0-15-6.71997-15-15,0-8.28998,6.71997-15,15-15s15,6.71002,15,15c0,8.28003-6.71997,15-15,15Zm46,0c-8.28003,0-15-6.71997-15-15,0-8.28998,6.71997-15,15-15s15,6.71002,15,15c0,8.28003-6.71997,15-15,15Z"/></g></svg>